G04 Layer_Physical_Order=4*
G04 Layer_Color=16711680*
%FSLAX44Y44*%
%MOMM*%
G71*
G01*
G75*
%ADD10C,0.1000*%
%ADD11R,0.9000X0.7000*%
%ADD12R,0.7000X0.9000*%
G04:AMPARAMS|DCode=13|XSize=0.5mm|YSize=0.45mm|CornerRadius=0.1125mm|HoleSize=0mm|Usage=FLASHONLY|Rotation=270.000|XOffset=0mm|YOffset=0mm|HoleType=Round|Shape=RoundedRectangle|*
%AMROUNDEDRECTD13*
21,1,0.5000,0.2250,0,0,270.0*
21,1,0.2750,0.4500,0,0,270.0*
1,1,0.2250,-0.1125,-0.1375*
1,1,0.2250,-0.1125,0.1375*
1,1,0.2250,0.1125,0.1375*
1,1,0.2250,0.1125,-0.1375*
%
%ADD13ROUNDEDRECTD13*%
G04:AMPARAMS|DCode=14|XSize=0.6mm|YSize=0.65mm|CornerRadius=0.15mm|HoleSize=0mm|Usage=FLASHONLY|Rotation=180.000|XOffset=0mm|YOffset=0mm|HoleType=Round|Shape=RoundedRectangle|*
%AMROUNDEDRECTD14*
21,1,0.6000,0.3500,0,0,180.0*
21,1,0.3000,0.6500,0,0,180.0*
1,1,0.3000,-0.1500,0.1750*
1,1,0.3000,0.1500,0.1750*
1,1,0.3000,0.1500,-0.1750*
1,1,0.3000,-0.1500,-0.1750*
%
%ADD14ROUNDEDRECTD14*%
G04:AMPARAMS|DCode=15|XSize=0.6mm|YSize=0.65mm|CornerRadius=0.15mm|HoleSize=0mm|Usage=FLASHONLY|Rotation=90.000|XOffset=0mm|YOffset=0mm|HoleType=Round|Shape=RoundedRectangle|*
%AMROUNDEDRECTD15*
21,1,0.6000,0.3500,0,0,90.0*
21,1,0.3000,0.6500,0,0,90.0*
1,1,0.3000,0.1750,0.1500*
1,1,0.3000,0.1750,-0.1500*
1,1,0.3000,-0.1750,-0.1500*
1,1,0.3000,-0.1750,0.1500*
%
%ADD15ROUNDEDRECTD15*%
G04:AMPARAMS|DCode=35|XSize=1.05mm|YSize=0.6mm|CornerRadius=0.15mm|HoleSize=0mm|Usage=FLASHONLY|Rotation=90.000|XOffset=0mm|YOffset=0mm|HoleType=Round|Shape=RoundedRectangle|*
%AMROUNDEDRECTD35*
21,1,1.0500,0.3000,0,0,90.0*
21,1,0.7500,0.6000,0,0,90.0*
1,1,0.3000,0.1500,0.3750*
1,1,0.3000,0.1500,-0.3750*
1,1,0.3000,-0.1500,-0.3750*
1,1,0.3000,-0.1500,0.3750*
%
%ADD35ROUNDEDRECTD35*%
G04:AMPARAMS|DCode=36|XSize=0.5mm|YSize=0.45mm|CornerRadius=0.1125mm|HoleSize=0mm|Usage=FLASHONLY|Rotation=180.000|XOffset=0mm|YOffset=0mm|HoleType=Round|Shape=RoundedRectangle|*
%AMROUNDEDRECTD36*
21,1,0.5000,0.2250,0,0,180.0*
21,1,0.2750,0.4500,0,0,180.0*
1,1,0.2250,-0.1375,0.1125*
1,1,0.2250,0.1375,0.1125*
1,1,0.2250,0.1375,-0.1125*
1,1,0.2250,-0.1375,-0.1125*
%
%ADD36ROUNDEDRECTD36*%
%ADD40C,0.3000*%
%ADD41C,0.1500*%
%ADD42C,0.1200*%
%ADD43C,0.2000*%
%ADD44C,0.7500*%
%ADD45C,0.1100*%
%ADD46C,0.1270*%
%ADD47C,0.5000*%
%ADD48C,0.2300*%
%ADD50C,1.0000*%
%ADD101C,3.3000*%
%ADD102O,2.0000X4.2000*%
%ADD103O,3.0000X1.6000*%
%ADD104C,2.5000*%
%ADD105C,1.6000*%
%ADD106C,1.8000*%
%ADD107C,2.2500*%
%ADD108C,1.5000*%
%ADD109C,1.9000*%
%ADD110C,1.0000*%
%ADD111C,1.4000*%
%ADD112C,3.2000*%
%ADD113C,2.3000*%
G04:AMPARAMS|DCode=114|XSize=1.6mm|YSize=1.6mm|CornerRadius=0.4mm|HoleSize=0mm|Usage=FLASHONLY|Rotation=0.000|XOffset=0mm|YOffset=0mm|HoleType=Round|Shape=RoundedRectangle|*
%AMROUNDEDRECTD114*
21,1,1.6000,0.8000,0,0,0.0*
21,1,0.8000,1.6000,0,0,0.0*
1,1,0.8000,0.4000,-0.4000*
1,1,0.8000,-0.4000,-0.4000*
1,1,0.8000,-0.4000,0.4000*
1,1,0.8000,0.4000,0.4000*
%
%ADD114ROUNDEDRECTD114*%
%ADD115C,0.6500*%
%ADD116C,0.4500*%
%ADD117C,0.4000*%
%ADD118C,0.3500*%
%ADD119C,0.3800*%
%ADD120C,0.5000*%
G04:AMPARAMS|DCode=123|XSize=1.15mm|YSize=1.45mm|CornerRadius=0.2875mm|HoleSize=0mm|Usage=FLASHONLY|Rotation=270.000|XOffset=0mm|YOffset=0mm|HoleType=Round|Shape=RoundedRectangle|*
%AMROUNDEDRECTD123*
21,1,1.1500,0.8750,0,0,270.0*
21,1,0.5750,1.4500,0,0,270.0*
1,1,0.5750,-0.4375,-0.2875*
1,1,0.5750,-0.4375,0.2875*
1,1,0.5750,0.4375,0.2875*
1,1,0.5750,0.4375,-0.2875*
%
%ADD123ROUNDEDRECTD123*%
G04:AMPARAMS|DCode=124|XSize=1.3mm|YSize=1.05mm|CornerRadius=0.2625mm|HoleSize=0mm|Usage=FLASHONLY|Rotation=0.000|XOffset=0mm|YOffset=0mm|HoleType=Round|Shape=RoundedRectangle|*
%AMROUNDEDRECTD124*
21,1,1.3000,0.5250,0,0,0.0*
21,1,0.7750,1.0500,0,0,0.0*
1,1,0.5250,0.3875,-0.2625*
1,1,0.5250,-0.3875,-0.2625*
1,1,0.5250,-0.3875,0.2625*
1,1,0.5250,0.3875,0.2625*
%
%ADD124ROUNDEDRECTD124*%
%ADD125R,0.9000X0.6000*%
G04:AMPARAMS|DCode=126|XSize=1.15mm|YSize=1.45mm|CornerRadius=0.2875mm|HoleSize=0mm|Usage=FLASHONLY|Rotation=180.000|XOffset=0mm|YOffset=0mm|HoleType=Round|Shape=RoundedRectangle|*
%AMROUNDEDRECTD126*
21,1,1.1500,0.8750,0,0,180.0*
21,1,0.5750,1.4500,0,0,180.0*
1,1,0.5750,-0.2875,0.4375*
1,1,0.5750,0.2875,0.4375*
1,1,0.5750,0.2875,-0.4375*
1,1,0.5750,-0.2875,-0.4375*
%
%ADD126ROUNDEDRECTD126*%
G04:AMPARAMS|DCode=127|XSize=2mm|YSize=2mm|CornerRadius=0.5mm|HoleSize=0mm|Usage=FLASHONLY|Rotation=180.000|XOffset=0mm|YOffset=0mm|HoleType=Round|Shape=RoundedRectangle|*
%AMROUNDEDRECTD127*
21,1,2.0000,1.0000,0,0,180.0*
21,1,1.0000,2.0000,0,0,180.0*
1,1,1.0000,-0.5000,0.5000*
1,1,1.0000,0.5000,0.5000*
1,1,1.0000,0.5000,-0.5000*
1,1,1.0000,-0.5000,-0.5000*
%
%ADD127ROUNDEDRECTD127*%
%ADD128O,0.6000X2.2000*%
G04:AMPARAMS|DCode=129|XSize=2.25mm|YSize=0.5mm|CornerRadius=0.125mm|HoleSize=0mm|Usage=FLASHONLY|Rotation=180.000|XOffset=0mm|YOffset=0mm|HoleType=Round|Shape=RoundedRectangle|*
%AMROUNDEDRECTD129*
21,1,2.2500,0.2500,0,0,180.0*
21,1,2.0000,0.5000,0,0,180.0*
1,1,0.2500,-1.0000,0.1250*
1,1,0.2500,1.0000,0.1250*
1,1,0.2500,1.0000,-0.1250*
1,1,0.2500,-1.0000,-0.1250*
%
%ADD129ROUNDEDRECTD129*%
%ADD130R,2.5000X2.1000*%
%ADD131R,0.6000X0.9000*%
G04:AMPARAMS|DCode=132|XSize=1.55mm|YSize=1mm|CornerRadius=0.25mm|HoleSize=0mm|Usage=FLASHONLY|Rotation=90.000|XOffset=0mm|YOffset=0mm|HoleType=Round|Shape=RoundedRectangle|*
%AMROUNDEDRECTD132*
21,1,1.5500,0.5000,0,0,90.0*
21,1,1.0500,1.0000,0,0,90.0*
1,1,0.5000,0.2500,0.5250*
1,1,0.5000,0.2500,-0.5250*
1,1,0.5000,-0.2500,-0.5250*
1,1,0.5000,-0.2500,0.5250*
%
%ADD132ROUNDEDRECTD132*%
%ADD133C,0.8000*%
%ADD134C,0.4000*%
%ADD135C,0.1300*%
%ADD136R,1.1000X3.8000*%
%ADD137R,1.4000X2.6000*%
%ADD138R,4.9000X1.9000*%
%ADD139R,1.5000X5.1000*%
%ADD140R,2.8000X1.1000*%
%ADD141R,0.7000X2.3000*%
%ADD142R,1.9000X2.2000*%
%ADD143R,1.6000X2.9000*%
%ADD144R,2.1000X1.2000*%
%ADD145R,1.9000X3.7000*%
%ADD146R,2.4750X0.8000*%
%ADD147R,2.8250X4.7000*%
%ADD148R,4.2000X1.4000*%
%ADD149R,4.8000X3.4000*%
%ADD150R,1.5000X3.8000*%
%ADD151R,1.2000X2.5000*%
%ADD152R,1.0000X4.2000*%
%ADD153R,4.9000X1.4000*%
%ADD154R,1.6000X0.6000*%
%ADD155R,1.0000X3.0000*%
%ADD156R,2.5000X4.1000*%
%ADD157R,2.9000X0.3000*%
%ADD158R,2.3000X2.8000*%
%ADD159R,1.8000X6.3000*%
%ADD160R,4.7000X1.9000*%
%ADD161R,2.4000X8.5000*%
%ADD162R,0.7000X3.0000*%
%ADD163R,8.4000X1.4000*%
%ADD164R,3.3000X5.9000*%
%ADD165R,3.9000X3.5000*%
%ADD166R,7.0000X2.7000*%
%ADD167R,1.2000X9.3000*%
%ADD168R,0.8501X5.0000*%
%ADD169R,1.3000X0.9750*%
%ADD170R,0.6500X1.3000*%
%ADD171R,1.3000X1.8250*%
%ADD172R,2.0000X7.3750*%
%ADD173R,2.7000X5.1000*%
%ADD174R,3.2001X1.2500*%
%ADD175R,1.7500X6.0000*%
%ADD176R,4.4250X2.6000*%
%ADD177R,1.2500X1.2500*%
%ADD178R,1.2500X0.7500*%
%ADD179R,1.2500X2.7500*%
%ADD180R,6.7000X0.8501*%
%ADD181R,0.9000X1.2000*%
%ADD182R,1.3000X2.3000*%
%ADD183R,1.9000X2.0000*%
%ADD184R,1.3000X1.6000*%
%ADD185C,0.3400*%
%ADD186C,0.3600*%
%ADD187C,0.3700*%
G36*
X453691Y280000D02*
X453924Y278829D01*
X454587Y277837D01*
X455579Y277174D01*
X456750Y276941D01*
X457920Y277174D01*
X458913Y277837D01*
X459576Y278829D01*
X459690Y279404D01*
X460958Y280237D01*
X461499Y280041D01*
Y247250D01*
X466741D01*
X466924Y246329D01*
X467587Y245337D01*
X468579Y244674D01*
X469750Y244441D01*
X470920Y244674D01*
X471913Y245337D01*
X472576Y246329D01*
X472759Y247250D01*
X492741D01*
X492924Y246329D01*
X493587Y245337D01*
X494580Y244674D01*
X495750Y244441D01*
X496105Y244512D01*
X497375Y243567D01*
Y239170D01*
X496446Y238303D01*
X495499Y239250D01*
X486369D01*
X485950Y239424D01*
X473482D01*
X472999Y239624D01*
X460423D01*
X454123Y245923D01*
Y249014D01*
X455048Y249939D01*
X455524Y251088D01*
Y255512D01*
X455048Y256660D01*
X451874Y259834D01*
Y276750D01*
X451398Y277898D01*
X449316Y279980D01*
X449842Y281250D01*
X452645D01*
X453691Y280000D01*
D02*
G37*
G36*
X514553Y301196D02*
Y295263D01*
X514451Y294750D01*
Y291664D01*
X512913D01*
X510499Y289250D01*
Y287250D01*
Y258250D01*
X505499Y253250D01*
X464000D01*
X463250Y254000D01*
X462791Y254459D01*
Y256625D01*
X462626Y257454D01*
X462581Y257521D01*
Y280041D01*
X462499Y280240D01*
Y280250D01*
X463499Y281250D01*
X467499Y285250D01*
Y288250D01*
Y291250D01*
X461499Y297250D01*
Y298250D01*
Y301250D01*
X514499D01*
X514553Y301196D01*
D02*
G37*
G36*
X534837Y174837D02*
X535376Y174477D01*
Y137000D01*
X513000D01*
Y140000D01*
Y140000D01*
X515000Y142000D01*
X521000Y148000D01*
Y149587D01*
X523948Y152535D01*
X524424Y153683D01*
Y173424D01*
X526000Y175000D01*
X534728D01*
X534837Y174837D01*
D02*
G37*
G36*
X480000Y59374D02*
X456350D01*
X455202Y58898D01*
X451526Y55223D01*
X440499Y66250D01*
Y89896D01*
X440749Y90000D01*
X480000D01*
Y59374D01*
D02*
G37*
G36*
X535376Y123376D02*
X532000Y120000D01*
X514000Y102000D01*
X501000D01*
Y125000D01*
X508000Y132000D01*
X535376D01*
Y123376D01*
D02*
G37*
G36*
X645376Y340373D02*
Y337127D01*
X639499Y331250D01*
X637499Y329250D01*
Y327250D01*
Y307501D01*
X637500Y307500D01*
X637499Y307499D01*
Y306250D01*
Y306250D01*
X630499Y299250D01*
X629621Y298372D01*
X554499D01*
Y307250D01*
X622499D01*
Y313250D01*
Y335250D01*
X624499Y337250D01*
X633499D01*
X636499Y340250D01*
X637499Y341250D01*
X644499D01*
X645376Y340373D01*
D02*
G37*
G36*
X606250Y335250D02*
X619250D01*
X619499Y335001D01*
Y311250D01*
X554047D01*
X550273Y315023D01*
X549116Y315797D01*
X547750Y316069D01*
X541250D01*
X539884Y315797D01*
X538727Y315023D01*
X537953Y313866D01*
X537681Y312500D01*
X537953Y311134D01*
X537975Y311101D01*
X533499Y306625D01*
Y303296D01*
X532227Y302023D01*
X531453Y300866D01*
X531181Y299500D01*
X531453Y298134D01*
X532227Y296977D01*
X532621Y296713D01*
Y295186D01*
X532587Y295163D01*
X531924Y294170D01*
X531691Y293000D01*
X531924Y291829D01*
X532587Y290837D01*
X533222Y290413D01*
Y289087D01*
X532587Y288663D01*
X531924Y287670D01*
X531691Y286500D01*
X531924Y285329D01*
X532587Y284337D01*
X533222Y283913D01*
Y282587D01*
X532587Y282163D01*
X531924Y281171D01*
X531691Y280000D01*
X531924Y278829D01*
X532587Y277837D01*
X533222Y277413D01*
Y276087D01*
X532587Y275663D01*
X531924Y274671D01*
X531691Y273500D01*
X531924Y272330D01*
X532587Y271337D01*
X533222Y270913D01*
Y269587D01*
X532587Y269163D01*
X531924Y268171D01*
X531691Y267000D01*
X531924Y265830D01*
X532131Y265520D01*
X531452Y264250D01*
X522000D01*
Y263764D01*
X521750Y263559D01*
X520579Y263326D01*
X519587Y262663D01*
X518924Y261670D01*
X518691Y260500D01*
X518913Y259387D01*
X518623Y258954D01*
X518458Y258125D01*
Y257208D01*
X518000Y256750D01*
Y244272D01*
X516948Y243473D01*
X516421Y243826D01*
X515250Y244059D01*
X514080Y243826D01*
X513087Y243163D01*
X512424Y242171D01*
X512327Y241682D01*
X510135Y239490D01*
X509874Y239542D01*
X507124D01*
X506295Y239377D01*
X505731Y239000D01*
X500000D01*
Y251000D01*
X501168Y252168D01*
X505499D01*
X505499Y252168D01*
X505698Y252250D01*
X506499D01*
X512508Y258259D01*
Y260000D01*
Y271508D01*
X514000Y273000D01*
X520000D01*
X520500Y272500D01*
X521750Y273750D01*
Y276941D01*
X522920Y277174D01*
X523913Y277837D01*
X524576Y278829D01*
X524809Y280000D01*
X524576Y281171D01*
X523913Y282163D01*
X523342Y282544D01*
X523322Y282597D01*
Y283903D01*
X523342Y283956D01*
X523913Y284337D01*
X524576Y285329D01*
X524809Y286500D01*
X524576Y287670D01*
X523913Y288663D01*
X522920Y289326D01*
X521750Y289559D01*
Y295895D01*
X522432Y296577D01*
X522920Y296674D01*
X523913Y297337D01*
X524576Y298330D01*
X524809Y299500D01*
X524576Y300671D01*
X523913Y301663D01*
X522920Y302326D01*
X521750Y302559D01*
X520579Y302326D01*
X519587Y301663D01*
X516381Y304869D01*
X456750D01*
Y302618D01*
X455653Y302400D01*
X454661Y301737D01*
X453998Y300744D01*
X453765Y299574D01*
X453998Y298403D01*
X454661Y297411D01*
X455653Y296748D01*
X456750Y296530D01*
Y296250D01*
X460000Y293000D01*
X462276D01*
Y284148D01*
X461378Y283250D01*
X446572Y283250D01*
X446243Y283793D01*
X446035Y284520D01*
X446576Y285329D01*
X446809Y286500D01*
X446576Y287670D01*
X445913Y288663D01*
X444921Y289326D01*
X443750Y289559D01*
Y296441D01*
X444921Y296674D01*
X445913Y297337D01*
X446576Y298330D01*
X446809Y299500D01*
X446576Y300671D01*
X445913Y301663D01*
X445342Y302044D01*
X445322Y302097D01*
Y303403D01*
X445342Y303456D01*
X445913Y303837D01*
X446576Y304830D01*
X446809Y306000D01*
X446576Y307171D01*
X445913Y308163D01*
X445342Y308544D01*
X445322Y308597D01*
Y309903D01*
X445342Y309956D01*
X445913Y310337D01*
X446576Y311329D01*
X446809Y312500D01*
X446576Y313671D01*
X445913Y314663D01*
X445434Y314983D01*
X445357Y315342D01*
X445464Y316414D01*
X446163Y316881D01*
X446826Y317873D01*
X447059Y319044D01*
X446826Y320215D01*
X446314Y320980D01*
X446575Y321809D01*
X446877Y322250D01*
X518499D01*
X519586Y323337D01*
X519587Y323337D01*
X520579Y322674D01*
X521750Y322441D01*
X522920Y322674D01*
X523913Y323337D01*
X524576Y324329D01*
X524809Y325500D01*
X524576Y326670D01*
X523913Y327663D01*
X525727Y329477D01*
X526884Y328703D01*
X528250Y328431D01*
X534000D01*
X534000Y328431D01*
X535366Y328703D01*
X535374Y328708D01*
X535375D01*
X536204Y328873D01*
X536907Y329343D01*
X537377Y330046D01*
X537542Y330875D01*
Y331865D01*
X537569Y332000D01*
X537542Y332136D01*
Y333125D01*
X537496Y333356D01*
X538339Y334626D01*
X575500D01*
X576648Y335102D01*
X576796Y335250D01*
X580250D01*
Y338704D01*
X580398Y338852D01*
X580874Y340000D01*
Y353078D01*
X581172Y353376D01*
X606250D01*
Y335250D01*
D02*
G37*
G36*
X819000Y391000D02*
X817000Y389000D01*
X763000D01*
X759000Y393000D01*
Y410000D01*
X768000D01*
Y399000D01*
X801000D01*
Y424378D01*
X802270Y425228D01*
X804000Y424883D01*
X806341Y425349D01*
X808326Y426675D01*
X809652Y428660D01*
X810118Y431001D01*
X809652Y433342D01*
X808326Y435327D01*
X806341Y436653D01*
X804000Y437119D01*
X802270Y436774D01*
X801000Y437624D01*
Y463000D01*
X801414Y464000D01*
X819000D01*
Y391000D01*
D02*
G37*
G36*
X744250Y401000D02*
Y384000D01*
Y382000D01*
X734250Y372000D01*
X733250Y371000D01*
Y355000D01*
X737250Y351000D01*
X738250Y350000D01*
X761250D01*
X763250Y348000D01*
X764250Y347000D01*
Y331000D01*
X764250D01*
X760250Y327000D01*
X759250Y326000D01*
X739250D01*
X735250Y330000D01*
Y342000D01*
X729250Y348000D01*
X728250Y349000D01*
X713250D01*
Y402000D01*
X743250D01*
X744250Y401000D01*
D02*
G37*
%LPC*%
G36*
X625999Y307056D02*
X624829Y306823D01*
X623836Y306160D01*
X623173Y305168D01*
X622940Y303997D01*
X623173Y302826D01*
X623836Y301834D01*
X624829Y301171D01*
X625999Y300938D01*
X627170Y301171D01*
X628162Y301834D01*
X628825Y302826D01*
X629058Y303997D01*
X628825Y305168D01*
X628162Y306160D01*
X627170Y306823D01*
X625999Y307056D01*
D02*
G37*
G36*
X462250Y67314D02*
X460982Y67061D01*
X459907Y66343D01*
X459189Y65268D01*
X458936Y64000D01*
X459189Y62732D01*
X459907Y61657D01*
X460982Y60939D01*
X462250Y60686D01*
X463518Y60939D01*
X464593Y61657D01*
X465311Y62732D01*
X465564Y64000D01*
X465311Y65268D01*
X464593Y66343D01*
X463518Y67061D01*
X462250Y67314D01*
D02*
G37*
G36*
X456750Y315559D02*
X455579Y315326D01*
X454587Y314663D01*
X453924Y313671D01*
X453691Y312500D01*
X453924Y311329D01*
X454587Y310337D01*
X455579Y309674D01*
X456750Y309441D01*
X457920Y309674D01*
X458913Y310337D01*
X459576Y311329D01*
X459809Y312500D01*
X459576Y313671D01*
X458913Y314663D01*
X457920Y315326D01*
X456750Y315559D01*
D02*
G37*
%LPD*%
D10*
X179250Y165000D02*
X218250D01*
X128250Y210000D02*
X134250D01*
X179250Y165000D01*
X181250Y167000D02*
X221250D01*
X143250Y205000D02*
Y211000D01*
Y205000D02*
X181250Y167000D01*
X183250Y170000D02*
X225000D01*
X149000Y204250D02*
Y210000D01*
Y204250D02*
X183250Y170000D01*
X153000Y204250D02*
Y231000D01*
Y204250D02*
X184250Y173000D01*
X226000D01*
X186250Y175000D02*
X229000D01*
X157500Y203750D02*
Y231750D01*
Y203750D02*
X186250Y175000D01*
X187750Y177500D02*
X231500D01*
X190250Y180000D02*
X234000D01*
X429094Y166168D02*
X489168D01*
X291934Y260000D02*
Y302934D01*
X569749Y444250D02*
X573499D01*
X318604Y206554D02*
Y333808D01*
X729000Y456000D02*
Y463750D01*
X573000Y483000D02*
X575000Y481000D01*
X552250Y191000D02*
Y198750D01*
X500000Y477500D02*
X502250D01*
X588750Y198750D02*
Y203250D01*
X523077Y427000D02*
X528000D01*
X331304Y318568D02*
X332574Y317298D01*
X75001Y226501D02*
Y228002D01*
X75250Y256000D02*
Y267500D01*
Y256000D02*
X90250Y241000D01*
X148250D01*
X157500Y231750D01*
X113001Y252252D02*
X119998D01*
X129500Y268000D02*
Y271750D01*
X125001Y276249D02*
X129500Y271750D01*
X125001Y276249D02*
Y278252D01*
X312600Y432000D02*
X329600Y415000D01*
X275000Y424000D02*
Y445200D01*
X367000Y411000D02*
X407000Y371000D01*
X300000Y425000D02*
Y444800D01*
Y425000D02*
X314000Y411000D01*
X366000Y415000D02*
X417000Y364000D01*
X504250Y444000D02*
X508250Y448000D01*
X504250Y423250D02*
Y444000D01*
X487000Y406000D02*
X504250Y423250D01*
X694250Y423500D02*
X698000D01*
X681750Y429250D02*
X685000Y432500D01*
X679250Y429250D02*
X681750D01*
X680000Y402750D02*
X688250D01*
X694500Y396500D01*
X698000D01*
X746250Y206000D02*
X777000Y236750D01*
X727000Y206000D02*
X746250D01*
X764750Y247250D02*
X777000D01*
X732000Y272000D02*
X740000D01*
X764750Y247250D01*
X796000Y232000D02*
Y242000D01*
X790750Y247250D02*
X796000Y242000D01*
X777000Y247250D02*
X790750D01*
X757444Y288050D02*
X773000Y303606D01*
Y371000D01*
X755499Y388501D02*
X773000Y371000D01*
X756450Y290450D02*
X770000Y304000D01*
Y370000D01*
X753199Y386801D02*
X770000Y370000D01*
X701000Y232000D02*
X727000Y206000D01*
X672600Y40400D02*
X685400D01*
X696000Y51000D01*
X681500Y77250D02*
X683000Y78750D01*
X681500Y53000D02*
Y77250D01*
X696000Y51000D02*
Y78750D01*
X667000Y153000D02*
X676000Y162000D01*
X664000Y158000D02*
X670000Y164000D01*
X516999Y76999D02*
X585650Y145650D01*
X514699Y77952D02*
X584697Y147950D01*
X585650Y145650D02*
X603899D01*
X584697Y147950D02*
X601199D01*
X423249Y91000D02*
X459999Y127750D01*
X428000Y91251D02*
X435749Y99000D01*
X431000Y89000D02*
Y90998D01*
X433300Y90046D02*
X437654Y94400D01*
X435600Y89093D02*
X438607Y92100D01*
X435749Y99000D02*
X514242D01*
X459999Y127750D02*
X496867D01*
X91750Y161000D02*
X102000Y171250D01*
X89000Y161000D02*
X91750D01*
X146000Y238000D02*
X153000Y231000D01*
X94750Y227500D02*
X105250Y238000D01*
X146000D01*
X108751Y217751D02*
X118000Y227000D01*
X108751Y207252D02*
Y217751D01*
X100748Y207252D02*
X108751D01*
X96000Y212000D02*
X100748Y207252D01*
X231500Y177500D02*
X287000Y122000D01*
X234000Y180000D02*
X289000Y125000D01*
X282000Y113000D02*
X405500D01*
X226000Y173000D02*
X283000Y116000D01*
X229000Y175000D02*
X285000Y119000D01*
X225000Y170000D02*
X282000Y113000D01*
X388501Y289248D02*
X399497Y278252D01*
X419001D01*
X422001Y275252D01*
Y270752D02*
Y275252D01*
X414499Y263250D02*
X422001Y270752D01*
X418252Y258252D02*
X421000Y261000D01*
X408547Y262706D02*
Y266373D01*
Y262706D02*
X413001Y258252D01*
X418252D01*
X382751Y298252D02*
Y303252D01*
Y298252D02*
X385001Y296002D01*
Y289920D02*
Y296002D01*
Y289920D02*
X408547Y266373D01*
X388501Y289248D02*
Y300138D01*
X351522Y292000D02*
X406270Y237252D01*
Y228479D02*
X409499Y225250D01*
X406270Y228479D02*
Y237252D01*
X369034Y281966D02*
X387748Y263252D01*
X400001Y254252D02*
X407497D01*
X387748Y263252D02*
X395001D01*
X398001Y260252D01*
Y256252D02*
Y260252D01*
Y256252D02*
X400001Y254252D01*
X377001Y202252D02*
X385001Y210252D01*
X380001Y251252D02*
X385001Y246252D01*
Y210252D02*
Y246252D01*
X403001Y258252D02*
Y263345D01*
X390958Y275388D02*
X403001Y263345D01*
X379564Y275388D02*
X390958D01*
X407497Y254252D02*
X413950Y247799D01*
Y234800D02*
Y247799D01*
X406071Y251322D02*
X409999Y247394D01*
X396010Y251322D02*
X406071D01*
X365751Y281581D02*
X396010Y251322D01*
X417999Y252908D02*
X437250Y272159D01*
Y273500D01*
X417999Y223801D02*
Y252908D01*
X347703Y292009D02*
X402499Y237213D01*
X343187Y292009D02*
X347703D01*
X402499Y224250D02*
Y237213D01*
X348000Y311000D02*
X357000Y302000D01*
X349751Y332379D02*
X351501Y330629D01*
X354874D01*
X356196Y329307D01*
Y325934D02*
Y329307D01*
X349751Y332379D02*
Y334598D01*
X351501Y336348D02*
X356704D01*
X349751Y334598D02*
X351501Y336348D01*
X373850Y281101D02*
X379564Y275388D01*
X373850Y281101D02*
Y301850D01*
X356704Y336348D02*
X371944Y321108D01*
X343179Y300343D02*
X351522Y292000D01*
X343179Y300343D02*
Y300343D01*
X340194Y295002D02*
Y299518D01*
Y295002D02*
X343187Y292009D01*
X359244Y288088D02*
X360501Y286831D01*
X365751Y281581D02*
Y285502D01*
X364422Y286831D02*
X365751Y285502D01*
X360501Y286831D02*
X364422D01*
X360751Y294438D02*
X365594D01*
X359751Y295438D02*
X360751Y294438D01*
X359751Y295438D02*
Y297002D01*
X358751Y298002D02*
X359751Y297002D01*
X351998Y298002D02*
X358751D01*
X348068Y301932D02*
X351998Y298002D01*
X330499Y386501D02*
X332000Y385000D01*
X630499Y296749D02*
X640000Y306250D01*
X534750Y293000D02*
X538499Y296749D01*
X630499D01*
X534750Y260500D02*
X539000Y256250D01*
X547503D01*
X450250Y259162D02*
Y276750D01*
X542892Y415392D02*
X552750Y425250D01*
X563499D01*
X547500Y415000D02*
X554750Y422250D01*
X563752D01*
X552000Y415000D02*
X556250Y419250D01*
X564004D01*
X586499Y436250D02*
X596499D01*
X554470Y412500D02*
X558220Y416250D01*
X566499D01*
X586499Y436250D01*
X562147Y407500D02*
X586897Y432250D01*
X604750D01*
X569499Y402776D02*
Y406250D01*
X565915Y399192D02*
X569499Y402776D01*
X560000Y407500D02*
X562147D01*
X604750Y432250D02*
X612498Y439998D01*
X596499Y436250D02*
X600499Y440250D01*
X585004D02*
X592499D01*
X564004Y419250D02*
X585004Y440250D01*
X563752Y422250D02*
X587752Y446250D01*
X563499Y425250D02*
X590748Y452499D01*
X573499Y444250D02*
X576499Y447250D01*
X612498Y439998D02*
Y447498D01*
X587752Y446250D02*
X603750D01*
X607500Y442500D01*
X597000Y413023D02*
X605363Y421386D01*
X590748Y452499D02*
X602499D01*
X605363Y421386D02*
X605729D01*
X605843Y421500D01*
X612749D01*
X617501Y426252D01*
X698000Y430751D02*
X701499Y434250D01*
X698000Y423500D02*
Y430751D01*
X753199Y446452D02*
X755494Y448747D01*
X674450Y290450D02*
X756450D01*
X541250Y260500D02*
X548500D01*
X557000Y269000D01*
X755494Y453898D02*
X762598Y461001D01*
X776940D01*
X653000Y269000D02*
X674450Y290450D01*
X557000Y269000D02*
X653000D01*
X755494Y448747D02*
Y453898D01*
X757894Y447894D02*
Y450000D01*
X675303Y288050D02*
X757444D01*
X557953Y266700D02*
X653953D01*
X547503Y256250D02*
X557953Y266700D01*
X757894Y450000D02*
X760894Y453000D01*
X776940D01*
X653953Y266700D02*
X675303Y288050D01*
X753199Y386801D02*
Y446452D01*
X755499Y445499D02*
X757894Y447894D01*
X755499Y388501D02*
Y445499D01*
X794499Y300250D02*
X804499D01*
X807499Y303250D01*
Y313250D01*
X812749Y318500D01*
X820999D01*
Y266000D02*
Y318500D01*
X794499Y291250D02*
Y300250D01*
X408149Y92900D02*
X452749Y137500D01*
X415149Y88900D02*
X456399Y130150D01*
X412799Y89874D02*
X455425Y132500D01*
X410499Y90826D02*
X454673Y135000D01*
X452749Y137500D02*
X491749D01*
X456399Y130150D02*
X495873D01*
X455425Y132500D02*
X494899D01*
X454673Y135000D02*
X494147D01*
X268035Y309787D02*
X271820Y313572D01*
X268035Y306308D02*
Y309787D01*
X268000Y306343D02*
X268035Y306308D01*
Y176965D02*
Y306308D01*
X327494Y296250D02*
Y301000D01*
X325970Y294726D02*
X327494Y296250D01*
X325970Y254814D02*
Y294726D01*
X503000Y375000D02*
X539000D01*
X548000Y384000D01*
Y395500D01*
X537000Y378000D02*
X545000Y386000D01*
Y397014D01*
X283000Y162000D02*
X309435Y135565D01*
X268035Y176965D02*
X283000Y162000D01*
X304248Y133095D02*
X371891D01*
X265343Y172000D02*
X304248Y133095D01*
X255700Y176454D02*
X261000Y171154D01*
Y169497D02*
X267000Y163497D01*
X261000Y169497D02*
Y171154D01*
X253400Y170600D02*
Y311897D01*
X255700Y176454D02*
Y188072D01*
X190500Y185997D02*
Y311997D01*
X195000Y320997D02*
X195000Y320997D01*
X195000Y194997D02*
Y320997D01*
X199500Y185997D02*
Y311997D01*
X204000Y194997D02*
Y320997D01*
X208500Y185997D02*
Y311997D01*
X217500Y311997D02*
X217526Y311971D01*
Y186023D02*
Y311971D01*
X217500Y185997D02*
X217526Y186023D01*
X222000Y194997D02*
Y320997D01*
X226500Y185997D02*
Y311997D01*
X231000Y195000D02*
Y320997D01*
X235500Y311500D02*
X236000Y312000D01*
X235500Y185997D02*
Y311500D01*
X240000Y195000D02*
X240000Y195000D01*
Y320997D01*
X244500Y311838D02*
X244659Y311997D01*
X244500Y185997D02*
Y311838D01*
X257500Y189872D02*
Y310843D01*
X255700Y188072D02*
X257500Y189872D01*
X259800Y188919D02*
Y309548D01*
X258000Y187119D02*
X259800Y188919D01*
Y309548D02*
X267999Y317747D01*
X257500Y310843D02*
X258000Y311343D01*
X253400Y311897D02*
X253500Y311997D01*
X249324Y320967D02*
X249400Y320891D01*
Y195370D02*
Y320891D01*
Y195370D02*
X249770Y195000D01*
X267999Y317747D02*
Y317998D01*
X258000Y311343D02*
Y320997D01*
X257999Y320998D02*
X258000Y320997D01*
X276000Y175997D02*
Y306999D01*
X284000Y174356D02*
Y236742D01*
X292179Y169733D02*
Y189000D01*
X276000Y175997D02*
X279981Y172016D01*
X309435Y135565D02*
X370551D01*
X292179Y169733D02*
X295744Y166168D01*
X288000Y193179D02*
X292179Y189000D01*
X284000Y174356D02*
X288000Y170356D01*
X275999Y307000D02*
Y317998D01*
Y307000D02*
X276000Y306999D01*
X284060Y303318D02*
Y325934D01*
X292000Y303000D02*
Y310882D01*
X292188Y317216D02*
X299821Y309583D01*
Y304596D02*
Y309583D01*
X297014Y301789D02*
X299821Y304596D01*
X691000Y232000D02*
X701000D01*
X706000Y263750D02*
X706000Y263750D01*
X658700Y257000D02*
X699250D01*
X656000Y259700D02*
X658700Y257000D01*
X699250D02*
X706000Y263750D01*
X680000Y263750D02*
X693000D01*
X680000Y263750D02*
X680000Y263750D01*
X605700Y259700D02*
X656000D01*
X603000Y257000D02*
X605700Y259700D01*
X655000Y262000D02*
X656750Y263750D01*
X680000D01*
X641751Y222999D02*
X642750Y222000D01*
Y209000D02*
Y222000D01*
X596000Y262000D02*
X655000D01*
X593000Y257000D02*
X603000D01*
X706000Y274250D02*
Y282000D01*
X696000D02*
X706000D01*
X693000Y279000D02*
X696000Y282000D01*
X693000Y274250D02*
Y279000D01*
X663435Y286112D02*
Y312500D01*
X648973Y271650D02*
X663435Y286112D01*
X711999Y324000D02*
X725250Y337251D01*
X671500Y324000D02*
X711999D01*
X663400Y315900D02*
X671500Y324000D01*
X663400Y307456D02*
Y315900D01*
X553973Y271650D02*
X648973D01*
X694399Y326400D02*
X705250Y337251D01*
X670506Y326400D02*
X694399D01*
X661000Y316894D02*
X670506Y326400D01*
X661000Y287000D02*
Y316894D01*
X644000Y277000D02*
X653000Y286000D01*
X548999Y277000D02*
X644000D01*
X599750Y219750D02*
X614000Y234000D01*
X588000Y262000D02*
X593000Y257000D01*
X583000Y262000D02*
X588000D01*
X515750Y178047D02*
X521748Y184045D01*
X513400Y180000D02*
X517998Y184598D01*
Y185999D01*
X522800Y153683D02*
Y175000D01*
X532000Y228000D02*
X534000Y226000D01*
X521750Y228000D02*
X532000D01*
X534000Y231000D02*
X537000Y228000D01*
Y219000D02*
X543000Y213000D01*
X537000Y219000D02*
Y228000D01*
X438607Y92100D02*
X517100D01*
X572000Y141758D02*
Y149000D01*
X447000Y280000D02*
X450250Y276750D01*
X443750Y280000D02*
X447000D01*
X419374Y308126D02*
X441000Y286500D01*
X419374Y308126D02*
Y313126D01*
X421674Y310074D02*
X432247Y299500D01*
X440500Y309250D02*
X443750Y306000D01*
X428700Y313800D02*
X433250Y309250D01*
X424100Y310900D02*
X432250Y302750D01*
X433247Y306000D02*
X437250D01*
X426400Y312847D02*
X433247Y306000D01*
X421674Y310074D02*
Y316674D01*
X417700Y320647D02*
X421674Y316674D01*
X415000Y317500D02*
X419374Y313126D01*
X502250Y332000D02*
Y365250D01*
X432247Y299500D02*
X437250D01*
X441000Y286500D02*
X443750D01*
X386494Y362506D02*
Y374506D01*
X541000Y372000D02*
X552000Y383000D01*
X504000Y372000D02*
X541000D01*
X544000Y369000D02*
X551000Y376000D01*
X506000Y369000D02*
X544000D01*
X502250Y365250D02*
X506000Y369000D01*
X548500Y366000D02*
X555000Y372500D01*
X617501Y426252D02*
Y452331D01*
X815000Y43750D02*
X815250Y44000D01*
X815000Y37500D02*
Y43750D01*
Y37500D02*
X817500Y35000D01*
X825000D01*
X815000Y70250D02*
X815250Y70000D01*
X815000Y70250D02*
Y80000D01*
X815250Y57000D02*
Y70000D01*
X794000D02*
X804750D01*
X804250Y57500D02*
X804750Y57000D01*
X797500Y57500D02*
X804250D01*
X794000Y61000D02*
X797500Y57500D01*
X94000Y227500D02*
X94750D01*
X129000Y465000D02*
Y507000D01*
X134000Y460000D02*
X150000D01*
X129000Y465000D02*
X134000Y460000D01*
X75250Y267500D02*
Y272750D01*
X80000Y277500D01*
X423000Y120000D02*
X444000Y141000D01*
X407750Y110750D02*
X441000Y144000D01*
X405500Y113000D02*
X440000Y147500D01*
X403500Y116000D02*
X437500Y150000D01*
X89750Y267500D02*
X90000Y267250D01*
Y252500D02*
Y267250D01*
X100250Y267500D02*
X100500Y267750D01*
X557499Y383276D02*
X570000Y395777D01*
Y397500D01*
X555000Y385000D02*
X565915Y395915D01*
X512500Y487750D02*
X525000D01*
X550000Y482500D02*
X550250Y482250D01*
Y470000D02*
Y482250D01*
Y457500D02*
Y470000D01*
X129000Y507000D02*
X137000Y515000D01*
X65250Y472500D02*
X80000D01*
X157000Y442000D02*
Y453000D01*
X150000Y460000D02*
X157000Y453000D01*
X153000Y438000D02*
X157000Y442000D01*
X114500Y438000D02*
X153000D01*
X80000Y472500D02*
X114500Y438000D01*
X160000Y439000D02*
Y456000D01*
X153000Y463000D02*
X160000Y456000D01*
X155000Y434000D02*
X160000Y439000D01*
X111000Y434000D02*
X155000D01*
X65250Y457500D02*
X87500D01*
X111000Y434000D01*
X583500Y166250D02*
X593250Y176000D01*
Y194250D01*
X588750Y198750D02*
X593250Y194250D01*
X583500Y208500D02*
X588750Y203250D01*
X440500Y302750D02*
X443750Y299500D01*
X324000Y304494D02*
X327494Y301000D01*
X324000Y304494D02*
Y311179D01*
X327821Y315000D01*
X336179Y307343D02*
Y321821D01*
X332066Y325934D02*
X336179Y321821D01*
X371944Y316000D02*
Y321108D01*
Y316000D02*
X373944Y314000D01*
X379000D01*
X380000Y313000D01*
Y308000D02*
Y313000D01*
X373850Y301850D02*
X380000Y308000D01*
X286854Y316028D02*
X292000Y310882D01*
X279742Y299000D02*
X284060Y303318D01*
X271820Y313572D02*
Y321568D01*
X276186Y325934D01*
X369034Y281966D02*
Y298966D01*
X366000Y302000D02*
X369034Y298966D01*
X357000Y302000D02*
X366000D01*
X348000Y311000D02*
Y326000D01*
X441794Y207824D02*
X443750Y209780D01*
Y234500D01*
X479894Y210618D02*
Y231645D01*
X432904Y243154D02*
X437252Y247501D01*
X425284Y250242D02*
X430750Y255520D01*
X391248Y186488D02*
X392264Y187758D01*
X444714Y207062D02*
X447000Y209348D01*
X314794Y140768D02*
X368134D01*
X396074Y168454D01*
X365594Y294438D02*
X366864Y293168D01*
Y291898D02*
Y293168D01*
X365594Y290628D02*
X366864Y291898D01*
X360514Y290628D02*
X365594D01*
X359244Y289358D02*
X360514Y290628D01*
X359244Y288088D02*
Y289358D01*
X332574Y307138D02*
Y317298D01*
Y307138D02*
X340194Y299518D01*
X309714Y164898D02*
X310984Y163628D01*
X316064D01*
X317334Y162358D01*
X309206Y203760D02*
Y209094D01*
X311492Y307138D02*
X313524Y305106D01*
Y213412D02*
Y305106D01*
X309206Y209094D02*
X313524Y213412D01*
X351624Y176328D02*
X352894D01*
X354164Y175058D01*
Y149658D02*
Y175058D01*
Y149658D02*
X355434Y148388D01*
X363054D01*
X364324Y149658D01*
Y181408D01*
X365594Y182678D01*
X366864D01*
X368134Y181408D01*
Y157278D02*
Y181408D01*
Y157278D02*
X369404Y156008D01*
X371944D01*
X375754Y159818D01*
X302094Y157278D02*
Y166168D01*
Y157278D02*
X316064Y143308D01*
X366864D01*
X391248Y167438D01*
X286854Y316028D02*
Y321108D01*
X308190Y244908D02*
X310730Y247702D01*
X319874Y342698D02*
Y352858D01*
X350354D01*
X316064Y373940D02*
X319874Y370130D01*
Y352858D02*
Y370130D01*
X401154Y186234D02*
X427824Y213158D01*
X417918Y195378D02*
X432904Y210618D01*
X422744Y196394D02*
X435444Y209348D01*
X386168Y186488D02*
X389724Y190298D01*
X427824Y197664D02*
X437984Y208078D01*
X396074Y184964D02*
X425284Y214428D01*
X431634Y197918D02*
X441794Y207824D01*
X408774Y209348D02*
Y210618D01*
X407504Y208078D02*
X408774Y209348D01*
X392010Y208078D02*
X407504D01*
X375754Y171248D02*
X382104Y177598D01*
X437984Y195378D02*
X445604D01*
X402424Y148388D02*
X427824Y173788D01*
X435444D01*
X437984Y171248D01*
X359244Y153468D02*
Y178868D01*
X434046Y194108D02*
X437856Y190298D01*
X434046Y196648D02*
X444714Y207062D01*
X434046Y194108D02*
Y196648D01*
X307428Y310000D02*
X312000Y314572D01*
X307428Y304344D02*
Y310000D01*
X289000Y323207D02*
Y362878D01*
X300062Y373940D01*
X286854Y321108D02*
X289000Y323207D01*
X299998Y313064D02*
Y325998D01*
Y313064D02*
X302312Y310751D01*
X294000Y334000D02*
X300000D01*
X304000Y330000D01*
Y314000D02*
Y330000D01*
Y314000D02*
X305000Y313000D01*
X307428Y304344D02*
X310730Y301042D01*
Y247702D02*
Y301042D01*
X292188Y317216D02*
Y317806D01*
X302312Y302000D02*
Y310751D01*
X291934Y302934D02*
X292000Y303000D01*
X299554Y299242D02*
X302312Y302000D01*
X324000Y379528D02*
X328000Y375528D01*
Y362000D02*
Y375528D01*
Y362000D02*
X331978Y358022D01*
X349000D01*
X310984Y379528D02*
X324000D01*
X332000Y374000D02*
Y385000D01*
X336179Y307343D02*
X343179Y300343D01*
X351522Y292000D02*
X351522D01*
X327821Y315000D02*
Y334751D01*
X319874Y342698D02*
X327821Y334751D01*
X312000Y314572D02*
Y321000D01*
X306000Y156441D02*
X316963Y145478D01*
X365961D01*
X386168Y165686D01*
Y186488D01*
X391248Y167438D02*
Y186488D01*
X396074Y168454D02*
Y184964D01*
X412838Y194135D02*
X414703Y196000D01*
X430364Y211888D01*
X311999Y169284D02*
Y178869D01*
X309714Y167000D02*
X311999Y169284D01*
X309714Y164898D02*
Y167000D01*
X300000Y168262D02*
X302094Y166168D01*
X279742Y241000D02*
X284000Y236742D01*
X288000Y167562D02*
X314794Y140768D01*
X279742Y241000D02*
Y299000D01*
X300000Y168262D02*
Y171000D01*
X306000Y156441D02*
Y191083D01*
X288000Y167562D02*
Y170356D01*
X300000Y173000D02*
X303000Y176000D01*
Y186000D01*
X325970Y176030D02*
Y178868D01*
X329000Y173000D02*
X344000D01*
X352000Y181000D01*
X357112D01*
X359244Y178868D01*
X325970D02*
Y185566D01*
Y195672D02*
X327821Y193821D01*
X325970Y195672D02*
Y209602D01*
X288000Y247000D02*
X292000Y251000D01*
Y260000D01*
X299554Y238554D02*
Y299242D01*
X305000Y264607D02*
Y313000D01*
Y254000D02*
Y264607D01*
X304000Y253000D02*
X305000Y254000D01*
X288000Y193179D02*
Y247000D01*
X292000Y197000D02*
Y236986D01*
X297014Y242000D01*
Y301789D01*
X292000Y197000D02*
X303000Y186000D01*
X300083Y197000D02*
X306000Y191083D01*
X296000Y201083D02*
X300083Y197000D01*
X296000Y201083D02*
Y235000D01*
X299554Y238554D01*
X302000Y207000D02*
Y212000D01*
X303000Y213000D01*
X298965Y225262D02*
X299000Y225297D01*
X298965Y217035D02*
X303000Y213000D01*
X298965Y217035D02*
Y225262D01*
X299000Y225297D02*
Y230000D01*
X304000Y235000D01*
Y253000D01*
X383212Y310788D02*
Y320000D01*
X350354Y352858D02*
X383212Y320000D01*
X386022Y312978D02*
Y321000D01*
Y312978D02*
X409000Y290000D01*
X349000Y358022D02*
X386022Y321000D01*
X485950Y237800D02*
X489250Y234500D01*
X450250Y241000D02*
X453500Y237750D01*
X450250Y228000D02*
X453500Y231250D01*
X450250Y176000D02*
Y228000D01*
X445498Y171248D02*
X450250Y176000D01*
X437984Y171248D02*
X445498D01*
X537692Y397085D02*
X537777Y397000D01*
X469402Y332000D02*
X469750D01*
X463250Y325500D02*
X466500Y328750D01*
X476250Y325500D02*
X479500Y328750D01*
X489250Y325500D02*
X492500Y328750D01*
X537777Y397000D02*
X541493D01*
X537000Y413000D02*
X537500Y412500D01*
X527500Y427500D02*
X528000Y427000D01*
X537000Y423000D02*
X537500Y422500D01*
X541000Y400000D02*
X552000Y411000D01*
X541493Y397000D02*
X554470Y409977D01*
Y412500D01*
X552000Y411000D02*
Y415000D01*
X545000Y397014D02*
X560000Y412014D01*
X555000Y372500D02*
Y385000D01*
X547500Y410000D02*
Y415000D01*
X542892Y408461D02*
Y415392D01*
X544950Y276700D02*
X548250Y280000D01*
X640000D01*
X586750Y475000D02*
X595750Y484000D01*
X254000Y169220D02*
X295065Y128155D01*
X374571D01*
X369152Y138035D02*
X401154Y170037D01*
Y186234D01*
X280504Y170999D02*
X313468Y138035D01*
X369152D01*
X640000Y280000D02*
X652500Y292500D01*
X541250Y286500D02*
X636500D01*
X647500Y297500D01*
X633000Y293000D02*
X642500Y302500D01*
X541250Y293000D02*
X633000D01*
X652500Y292500D02*
Y315000D01*
X663250Y325750D01*
X650100Y295100D02*
Y317600D01*
X660000Y327500D01*
X647500Y297500D02*
Y320000D01*
X656750Y329250D01*
X645100Y300100D02*
Y322600D01*
X653500Y331000D01*
X642500Y325000D02*
X650250Y332750D01*
X642500Y302500D02*
Y325000D01*
X640000Y327500D02*
X647000Y334500D01*
X640000Y306250D02*
Y327500D01*
X672500Y432500D02*
X677500Y437500D01*
X672500Y381750D02*
Y432500D01*
X663250Y372500D02*
X672500Y381750D01*
X663250Y325750D02*
Y372500D01*
X660000Y375000D02*
X660000D01*
X670000Y385000D01*
Y437500D01*
X660000Y327500D02*
Y375000D01*
X656750Y377500D02*
X657500D01*
X667500Y387500D01*
Y441321D01*
X656750Y329250D02*
Y377500D01*
X653500Y331000D02*
Y377644D01*
X665000Y389144D02*
Y444000D01*
X653500Y377644D02*
X665000Y389144D01*
X650250Y332750D02*
Y379356D01*
X662500Y391606D01*
X647000Y334500D02*
Y379500D01*
X660000Y392500D01*
X620000Y355000D02*
X632250D01*
X632500Y355250D01*
X570000Y220000D02*
Y226505D01*
X541250Y247500D02*
X549005D01*
X541250Y241000D02*
X552253D01*
X525000Y237750D02*
X528250Y241000D01*
X575000Y215000D02*
Y224758D01*
X560750Y208500D02*
X583500D01*
X565000Y215000D02*
Y228253D01*
X547508Y252250D02*
X575000Y224758D01*
X549005Y247500D02*
X570000Y226505D01*
X552253Y241000D02*
X565000Y228253D01*
X496867Y127750D02*
X522800Y153683D01*
X495873Y130150D02*
X520400Y154677D01*
X494899Y132500D02*
X518050Y155651D01*
Y177095D01*
X494147Y135000D02*
X515750Y156603D01*
X520400Y154677D02*
Y176000D01*
X515750Y156603D02*
Y178047D01*
X514242Y99000D02*
X537000Y121758D01*
Y177000D01*
X516147Y94400D02*
X545000Y123253D01*
X515195Y96700D02*
X541250Y122755D01*
X545000Y123253D02*
Y181000D01*
X541250Y122755D02*
Y180747D01*
X537000Y201000D02*
Y209000D01*
Y184000D02*
X537997D01*
X541250Y180747D01*
X517100Y92100D02*
X548750Y123750D01*
X552250Y191000D02*
X558500Y184750D01*
X547000Y185750D02*
Y190000D01*
Y185750D02*
X548750Y184000D01*
Y123750D02*
Y184000D01*
X534750Y234500D02*
X541250D01*
X548000Y227750D01*
Y208751D02*
Y227750D01*
X545689Y206440D02*
X548000Y208751D01*
X541440Y206440D02*
X545689D01*
X534000Y212000D02*
Y226000D01*
Y212000D02*
X537000Y209000D01*
X520400Y176000D02*
X526800Y182400D01*
X518050Y177095D02*
X524048Y183093D01*
X522800Y175000D02*
X529150Y181350D01*
X524048Y183093D02*
Y203952D01*
X523000Y205000D02*
X524048Y203952D01*
X521000Y205000D02*
X523000D01*
X511050Y184000D02*
X513000Y185950D01*
Y194000D01*
X511050Y179994D02*
Y184000D01*
X519000Y192397D02*
Y198000D01*
Y192397D02*
X521748Y189649D01*
Y184045D02*
Y189649D01*
X526800Y182400D02*
Y209000D01*
X528250Y212900D02*
Y221500D01*
Y212900D02*
X529150Y212000D01*
Y181350D02*
Y212000D01*
X709500Y192000D02*
X719000D01*
X709000Y191500D02*
X709500Y192000D01*
Y173000D02*
X719000D01*
X709000Y172500D02*
X709500Y173000D01*
X557500Y475000D02*
X586750D01*
X776940Y444999D02*
X790999D01*
X794000Y448000D01*
Y473000D01*
X791000Y476000D02*
X794000Y473000D01*
X768000Y476000D02*
X791000D01*
X764000Y480000D02*
X768000Y476000D01*
X137000Y515000D02*
X171000D01*
X575000Y481000D02*
X580000D01*
X591750Y488000D02*
X595750Y484000D01*
X665000Y444000D02*
X671000Y450000D01*
X717250Y463750D02*
X720000Y461000D01*
X710500Y437500D02*
X729000Y456000D01*
X677500Y437500D02*
X710500D01*
X706750Y487000D02*
X715000D01*
X706000Y487750D02*
X706750Y487000D01*
X692000Y479000D02*
Y487750D01*
X662500Y391606D02*
Y449500D01*
X692000Y479000D01*
X677998Y478998D02*
Y487748D01*
X678000Y487750D01*
X660000Y461000D02*
X677998Y478998D01*
X660000Y392500D02*
Y461000D01*
X667500Y441321D02*
X672179Y446000D01*
X703000D01*
X713000Y456000D01*
X670000Y437500D02*
X674500Y442000D01*
X695000Y450000D02*
X705000Y460000D01*
X671000Y450000D02*
X695000D01*
X701250Y463750D02*
X705000Y460000D01*
X698000Y463750D02*
X701250D01*
X698000Y474250D02*
X712000D01*
Y463750D02*
X717250D01*
X712250Y474000D02*
X721000D01*
X712000Y474250D02*
X712250Y474000D01*
X721000D02*
X728750D01*
X729000Y474250D01*
X706000Y498250D02*
Y508000D01*
X692000Y498250D02*
X706000D01*
X678000D02*
X692000D01*
X527500Y437500D02*
X544750D01*
X550000Y442750D01*
X557000Y463000D02*
X566001Y472000D01*
X595750D01*
X606250D02*
Y484000D01*
X551000Y448000D02*
X568000Y465000D01*
X614000D01*
X618000Y469000D01*
Y480000D01*
X548000Y395500D02*
X560000Y407500D01*
X552000Y392000D02*
X562500Y402500D01*
X552000Y383000D02*
Y392000D01*
X565915Y395915D02*
Y399192D01*
X508750Y325500D02*
Y331578D01*
X139000Y463000D02*
X153000D01*
X133000Y469000D02*
X139000Y463000D01*
X133000Y469000D02*
Y505000D01*
X140000Y512000D01*
X170000D01*
X189300Y492700D01*
X764000Y480000D02*
Y513000D01*
X769000Y518000D01*
X773000Y522000D01*
X777750D01*
X258000Y179343D02*
X265343Y172000D01*
X258000Y179343D02*
Y187119D01*
X299872Y130625D02*
X373231D01*
X267000Y163497D02*
X299872Y130625D01*
X186000Y194997D02*
Y320997D01*
X350354Y175058D02*
X351624Y176328D01*
X350354Y149658D02*
Y175058D01*
X317334Y161088D02*
Y162358D01*
X349084Y148388D02*
X350354Y149658D01*
X316064Y159818D02*
X317334Y161088D01*
X310984Y159818D02*
X316064D01*
X309714Y158548D02*
X310984Y159818D01*
X318604Y148388D02*
X349084D01*
X309714Y157278D02*
Y158548D01*
Y157278D02*
X310984Y156008D01*
X317334Y149658D02*
X318604Y148388D01*
X310984Y156008D02*
X316064D01*
X317334Y149658D02*
Y154738D01*
X316064Y156008D02*
X317334Y154738D01*
X390740Y206808D02*
X392010Y208078D01*
X382104Y177598D02*
Y191568D01*
X390740Y205538D02*
Y206808D01*
X382104Y191568D02*
X383374Y192838D01*
X390740Y205538D02*
X392010Y204268D01*
X399884D01*
X401154Y202998D01*
X383374Y192838D02*
X392264D01*
X401154Y201728D02*
Y202998D01*
X399884Y200458D02*
X401154Y201728D01*
X392264Y192838D02*
X393534Y194108D01*
Y195378D01*
X392264Y196648D02*
X393534Y195378D01*
X383374Y196648D02*
X392264D01*
X382104Y197918D02*
X383374Y196648D01*
X382104Y197918D02*
Y199188D01*
X383374Y200458D01*
X399884D01*
X375754Y159818D02*
Y171248D01*
X557499Y369999D02*
Y383276D01*
X570499Y375250D02*
X570499Y375250D01*
X568499Y375250D02*
X570499D01*
X565499Y372250D02*
X568499Y375250D01*
X570499Y349250D02*
Y365250D01*
X537500Y387747D02*
Y392500D01*
X535750Y385997D02*
X537500Y387747D01*
X517499Y382250D02*
Y382997D01*
X520499Y385997D01*
X525250D01*
X508750Y199250D02*
X515250Y205750D01*
X431634Y190298D02*
Y197918D01*
Y190298D02*
X433499Y188433D01*
Y187250D02*
Y188433D01*
X495499Y207500D02*
Y211750D01*
Y218250D01*
X570000Y397500D02*
X575250D01*
X577500Y399750D01*
X440450Y257200D02*
X443750Y260500D01*
X432598Y254000D02*
X437250D01*
X402499Y224250D02*
X407499Y219250D01*
X408499D01*
X407504Y211888D02*
X408774Y210618D01*
X397344Y211888D02*
X407504D01*
X396074Y213158D02*
X397344Y211888D01*
X396074Y213158D02*
Y232208D01*
X397344Y233478D01*
X398614D01*
X399884Y232208D01*
X427824Y249226D02*
X432598Y254000D01*
X430364Y247956D02*
X433195Y250787D01*
X432904Y210618D02*
Y243154D01*
X425284Y214428D02*
Y250242D01*
X427824Y213158D02*
Y249226D01*
X430364Y211888D02*
Y247956D01*
X447000Y209348D02*
Y231482D01*
X437249Y211153D02*
Y234500D01*
X435444Y209348D02*
X437249Y211153D01*
X437984Y208078D02*
X440499Y210593D01*
X464499Y191250D02*
Y196001D01*
X463250Y197250D02*
X464499Y196001D01*
X463250Y197250D02*
Y234500D01*
X431000Y90998D02*
X436702Y96700D01*
X515195D01*
X437654Y94400D02*
X516147D01*
X501250Y171001D02*
X504499Y174250D01*
X498950Y180701D02*
X503499Y185250D01*
X399788Y119000D02*
X434038Y153250D01*
X496499Y187250D02*
X499499Y190250D01*
X399394Y122000D02*
X432944Y155550D01*
X399000Y125000D02*
X431850Y157850D01*
X494199Y192950D02*
X498499Y197250D01*
X431850Y157850D02*
X486799D01*
X494199Y165250D01*
Y192950D01*
X432944Y155550D02*
X487799D01*
X496499Y164250D01*
Y187250D01*
X488752Y153250D02*
X498950Y163449D01*
X434038Y153250D02*
X488752D01*
X498950Y163449D02*
Y180701D01*
X501250Y162496D02*
Y171001D01*
X488754Y150000D02*
X501250Y162496D01*
X437500Y150000D02*
X488754D01*
X490250Y147500D02*
X505000Y162250D01*
X440000Y147500D02*
X490250D01*
X505000Y162250D02*
Y167000D01*
X490249Y144000D02*
X508750Y162501D01*
Y199250D01*
X441000Y144000D02*
X490249D01*
X444000Y141000D02*
X491249D01*
X511050Y160801D01*
Y161548D01*
X511050D02*
Y179994D01*
X513400Y159151D02*
Y162250D01*
X491749Y137500D02*
X513400Y159151D01*
X513400Y162250D02*
Y180000D01*
X600000Y247000D02*
X632750D01*
X641751Y237999D01*
X612000Y242000D02*
X630749D01*
X635499Y237250D01*
Y229251D02*
Y237250D01*
Y229251D02*
X641751Y222999D01*
X599750Y153250D02*
X603499Y156999D01*
Y213499D01*
X616000Y226000D01*
X606499Y153250D02*
Y207499D01*
X617000Y218000D01*
X616499Y206499D02*
X622000Y212000D01*
X616499Y201500D02*
Y206499D01*
X609499Y194500D02*
X616499Y201500D01*
X609499Y151250D02*
Y194500D01*
X647499Y195250D02*
Y199250D01*
Y195250D02*
X649499Y193250D01*
X629250Y214250D02*
X633000Y218000D01*
X629250Y169751D02*
Y214250D01*
X616499Y157000D02*
X629250Y169751D01*
X616499Y167500D02*
Y191000D01*
X626499Y201000D01*
Y224250D01*
X629499Y227250D01*
X572000Y149000D02*
X579250Y156250D01*
X593499D01*
X599750Y162501D01*
Y219750D01*
X596750Y150250D02*
X599750Y153250D01*
X583745Y150250D02*
X596750D01*
X512399Y78904D02*
X583745Y150250D01*
X601199Y147950D02*
X606499Y153250D01*
X603899Y145650D02*
X609499Y151250D01*
X509499Y79257D02*
X572000Y141758D01*
X508750Y331578D02*
X513499Y336327D01*
X515250Y325500D02*
X519499Y329749D01*
Y335250D01*
X521750Y325500D02*
X521799Y325549D01*
Y331559D01*
X519499Y335250D02*
X523199Y338950D01*
X521799Y331559D02*
X526490Y336250D01*
X549500Y362000D02*
X557499Y369999D01*
X520000Y359000D02*
X551499D01*
X526749Y346250D02*
X533499D01*
X537499Y350250D01*
X523000Y355000D02*
X544249D01*
X523199Y338950D02*
X545199D01*
X548499Y342250D02*
Y352250D01*
X562499Y366250D01*
Y375250D01*
X545199Y338950D02*
X548499Y342250D01*
X554000Y346250D02*
Y353751D01*
X565499Y365250D01*
Y372250D01*
X538500Y341250D02*
X543500Y346250D01*
X516249D02*
Y355249D01*
X520000Y359000D01*
X516249Y343000D02*
Y346250D01*
X513499Y340250D02*
X516249Y343000D01*
X513499Y336327D02*
Y340250D01*
X647499Y385250D02*
Y469250D01*
X667499Y489250D01*
Y505250D01*
X675499Y513250D01*
X711499D01*
X727499Y507250D02*
X734499Y500250D01*
X717499Y507250D02*
X727499D01*
X711499Y513250D02*
X717499Y507250D01*
X713499Y434250D02*
X734499Y455250D01*
Y500250D01*
X701499Y434250D02*
X713499D01*
X707750Y442000D02*
X720000Y454250D01*
X674500Y442000D02*
X707750D01*
X720000Y454250D02*
Y461000D01*
X147499Y385250D02*
Y396000D01*
X147249Y396250D02*
X147499Y396000D01*
X157749Y396250D02*
X170340Y408841D01*
Y411050D01*
X408774Y145848D02*
X429094Y166168D01*
X599470Y411221D02*
X605749Y417500D01*
X607500D01*
X551499Y359000D02*
X559699Y367200D01*
Y379699D01*
X567500Y387500D01*
X450250Y259162D02*
X453900Y255512D01*
Y251088D02*
Y255512D01*
X442804Y273297D02*
X443952D01*
X439051Y277050D02*
X442804Y273297D01*
X438206Y277050D02*
X439051D01*
X443952Y266947D02*
X447499Y270494D01*
X442353Y276647D02*
X445339D01*
X447499Y270494D02*
Y274487D01*
X445339Y276647D02*
X447499Y274487D01*
X322220Y298816D02*
X322922Y299518D01*
X322220Y248550D02*
X327999Y242771D01*
Y211631D02*
Y242771D01*
X325970Y209602D02*
X327999Y211631D01*
X322220Y248550D02*
Y298816D01*
X456750Y194392D02*
Y234500D01*
Y194392D02*
X457034Y194108D01*
X432250Y302750D02*
X440500D01*
X433250Y309250D02*
X440500D01*
X432430Y257200D02*
X440450D01*
X430750Y255520D02*
X432430Y257200D01*
X440537Y250787D02*
X443750Y254000D01*
X433195Y250787D02*
X440537D01*
X440499Y210594D02*
Y237749D01*
Y210594D02*
X440499Y210593D01*
X440499Y237749D02*
X443750Y241000D01*
X453500Y231250D02*
Y237750D01*
X468464Y197918D02*
Y203965D01*
X469749Y205250D01*
X479894Y231645D02*
X482749Y234500D01*
X539500Y252250D02*
X547508D01*
X534750Y247500D02*
X539500Y252250D01*
X547750Y234500D02*
X550349Y231901D01*
Y225651D02*
Y231901D01*
X553475Y199725D02*
Y222526D01*
X552500Y198750D02*
X553475Y199725D01*
X550349Y225651D02*
X553475Y222526D01*
X554250Y228000D02*
X556224Y226026D01*
Y213026D02*
Y226026D01*
Y213026D02*
X560750Y208500D01*
X534750Y286500D02*
X537950Y289700D01*
X634700D01*
X645100Y300100D01*
X538050Y283300D02*
X638300D01*
X534750Y280000D02*
X538050Y283300D01*
X638300D02*
X650100Y295100D01*
X534750Y273500D02*
X537950Y276700D01*
X544950D01*
X469750Y325500D02*
X473050Y328800D01*
X479450D02*
X479500Y328750D01*
X482750Y325500D02*
X486050Y328800D01*
X492450D02*
X492500Y328750D01*
X495750Y325500D02*
X499050Y328800D01*
X508749Y338500D02*
Y355500D01*
X515249Y362000D01*
X549500D01*
X521749Y341250D02*
X538500D01*
X502250Y325500D02*
X505672Y328922D01*
X505249Y340373D02*
X505271Y340395D01*
Y360605D01*
X510666Y366000D01*
X548500D01*
X505249Y334893D02*
X505672Y334470D01*
X505249Y334893D02*
Y340373D01*
X505672Y328922D02*
Y334470D01*
X389724Y190298D02*
X393534D01*
X420426Y217190D01*
X435225Y267000D02*
X437250D01*
X420426Y252201D02*
X435225Y267000D01*
X392264Y187758D02*
X394804D01*
X422744Y215698D01*
X431836Y260500D02*
X437250D01*
X422744Y251408D02*
X431836Y260500D01*
X422744Y215698D02*
Y251408D01*
X420426Y217190D02*
Y252201D01*
X409949Y215750D02*
X417999Y223801D01*
X399884Y222915D02*
Y232208D01*
Y222915D02*
X407049Y215750D01*
X409949D01*
X409999Y231750D02*
Y247394D01*
X412499Y229250D02*
X414499D01*
X409999Y231750D02*
X412499Y229250D01*
X473544Y202998D02*
Y218200D01*
X476249Y220905D01*
Y234500D01*
X452499Y249687D02*
X453900Y251088D01*
X452499Y245251D02*
Y249687D01*
Y245251D02*
X459750Y238000D01*
X473199Y237800D02*
X485950D01*
X472999Y238000D02*
X473199Y237800D01*
X459750Y238000D02*
X472999D01*
X330499Y386501D02*
Y390713D01*
X308698Y324302D02*
Y337449D01*
Y324302D02*
X312000Y321000D01*
X308698Y337449D02*
X310984Y339735D01*
Y379528D01*
Y384000D01*
X306249Y337000D02*
Y384569D01*
X304249Y335000D02*
X306249Y337000D01*
X300000Y335000D02*
X304249D01*
X469749Y205250D02*
Y234500D01*
X327821Y187417D02*
Y193821D01*
X325970Y185566D02*
X327821Y187417D01*
X310367Y202502D02*
X311999Y200871D01*
Y178869D02*
Y200871D01*
X309206Y203760D02*
X310367Y202502D01*
X541249Y273500D02*
X545499D01*
X548999Y277000D01*
X647850Y273850D02*
X661000Y287000D01*
X550608Y271395D02*
X553062Y273850D01*
X546223Y271395D02*
X550608D01*
X541827Y267000D02*
X546223Y271395D01*
X553062Y273850D02*
X647850D01*
X549798Y267475D02*
X553973Y271650D01*
X534750Y267000D02*
X541827D01*
X579001Y488000D02*
X591750D01*
X533000Y483000D02*
Y486251D01*
X535001Y488252D01*
X555751D01*
X562751Y481252D01*
X325970Y176030D02*
X329000Y173000D01*
X321501Y172752D02*
X324001Y170252D01*
X317934Y186080D02*
X321501Y182514D01*
X317934Y186080D02*
Y204614D01*
X319874Y206554D01*
X318604Y333808D02*
X319874Y335078D01*
X321501Y172752D02*
Y182514D01*
X317001Y170252D02*
X319501Y172752D01*
Y181485D01*
X315734Y185252D02*
X319501Y181485D01*
X313524Y206554D02*
X315734Y204344D01*
X313524Y206554D02*
X316404Y209434D01*
X315734Y185252D02*
Y204344D01*
X313524Y335078D02*
X316404Y332198D01*
Y209434D02*
Y332198D01*
X213000Y194997D02*
Y320997D01*
X560751Y438751D02*
Y442252D01*
X558000Y436000D02*
X560751Y438751D01*
X55001Y218252D02*
X66752D01*
X75001Y226501D01*
X85001Y283252D02*
X100500D01*
Y267750D02*
Y283252D01*
X75498Y228002D02*
X76000Y227500D01*
X53001Y228002D02*
X75001D01*
X75498D01*
X112753Y252500D02*
X113001Y252252D01*
X100000Y252500D02*
X112753D01*
X794499Y44000D02*
X804750D01*
X789000Y49499D02*
X794499Y44000D01*
X750501Y79499D02*
X755749D01*
X747000Y83000D02*
X750501Y79499D01*
X747000Y83000D02*
Y109000D01*
X751000Y113000D02*
X775000D01*
X779000Y117000D01*
X747000Y109000D02*
X751000Y113000D01*
X759000Y107000D02*
X774000D01*
X778000Y111000D01*
X791000D01*
X797000Y105000D01*
X803000D01*
X815250Y54250D02*
Y57000D01*
X661000Y170000D02*
X664000Y173000D01*
X676000Y162000D02*
Y173000D01*
X670000Y147000D02*
X682000Y159000D01*
X673000Y135000D02*
X689000Y151000D01*
X676000Y125000D02*
X695000Y144000D01*
X779000Y117000D02*
Y129000D01*
Y129500D01*
X732000Y63000D02*
X742000D01*
X415000Y317500D02*
Y332750D01*
X402750Y340000D02*
X407750D01*
X415000Y332750D01*
X417700Y320647D02*
Y336000D01*
X391000Y362000D02*
Y368000D01*
X386494Y362506D02*
X403000Y346000D01*
X407700D01*
X417700Y336000D01*
X391000Y362000D02*
X404000Y349000D01*
X409000D01*
X327212Y394000D02*
X330499Y390713D01*
X400000Y368000D02*
Y371000D01*
X306249Y384569D02*
X315681Y394000D01*
X327212D01*
X403500Y364500D02*
X407000Y361000D01*
Y368000D02*
Y371000D01*
X396000Y363000D02*
Y371000D01*
X403500Y364500D02*
Y370500D01*
X584000Y493000D02*
X594000D01*
X171000Y515000D02*
X191000Y495000D01*
X609000Y498000D02*
X618000Y489000D01*
X195000Y516000D02*
X213000Y498000D01*
X609000D01*
X431000Y329000D02*
X431050Y328950D01*
X437250Y325600D02*
Y360750D01*
X424100Y310900D02*
Y333900D01*
X409000Y349000D02*
X424100Y333900D01*
X435056Y312500D02*
X437250D01*
X431050Y316506D02*
Y328950D01*
Y316506D02*
X435056Y312500D01*
X433050Y317950D02*
X435250Y315750D01*
X440500D01*
X443750Y312500D01*
X437250Y319000D02*
X441000Y322750D01*
X417000Y349000D02*
Y364000D01*
X433050Y317950D02*
Y359264D01*
X431000Y329000D02*
Y358485D01*
X428700Y313800D02*
Y357957D01*
X426400Y312847D02*
Y357428D01*
X521906Y423000D02*
X537000D01*
X487000Y399000D02*
X491000D01*
X511205Y392500D02*
X537500D01*
X512961Y397085D02*
X537692D01*
X513048Y400000D02*
X541000D01*
X534750Y452500D02*
X539750Y457500D01*
X530000Y452500D02*
X534750D01*
X527485Y455015D02*
X530000Y452500D01*
X170340Y436450D02*
X182000Y448110D01*
Y462507D01*
X202993Y483500D01*
X539750Y469750D02*
Y470000D01*
X530000Y460000D02*
X539750Y469750D01*
X527485Y457485D02*
X530000Y460000D01*
X144940Y474550D02*
X190550D01*
X201800Y485800D01*
X511642Y455015D02*
X527485D01*
X512000Y457485D02*
X527485D01*
X454000Y368000D02*
X458000D01*
X499050Y328800D02*
Y367050D01*
X504000Y372000D01*
X495750Y332000D02*
Y367750D01*
X503000Y375000D01*
X463250Y332000D02*
Y367173D01*
X486050Y328800D02*
Y370174D01*
X482750Y332000D02*
Y369702D01*
X479450Y328800D02*
Y369231D01*
X476250Y332000D02*
Y368859D01*
X473050Y328800D02*
Y368488D01*
X469750Y332000D02*
Y368016D01*
X466500Y328750D02*
Y367594D01*
X452000Y374000D02*
X460000D01*
X492450Y328800D02*
Y369450D01*
X501000Y378000D01*
X537000D01*
X489250Y332000D02*
Y370545D01*
X511205Y392500D01*
X486050Y370174D02*
X512961Y397085D01*
X482750Y369702D02*
X513048Y400000D01*
X452499Y359250D02*
X483000Y389751D01*
X460000Y374000D02*
X479000Y393000D01*
X458000Y368000D02*
X481000Y391000D01*
X479000Y393000D02*
Y412000D01*
X481000Y391000D02*
Y411172D01*
X483000Y389751D02*
Y410343D01*
X479000Y412000D02*
X493000Y426000D01*
X481000Y411172D02*
X495000Y425172D01*
X483000Y410343D02*
X497000Y424343D01*
X502250Y477500D02*
X512500Y487750D01*
X514499Y465000D02*
X520000D01*
X511799Y467700D02*
X514499Y465000D01*
X525000Y470000D02*
Y477250D01*
X525000Y470000D02*
X525000D01*
X520000Y465000D02*
X525000Y470000D01*
X170340Y487250D02*
X171190Y488100D01*
X517500Y470000D02*
Y472250D01*
X512500Y477250D02*
X517500Y472250D01*
X174050Y499950D02*
X183600Y490400D01*
X144940Y499950D02*
X174050D01*
X515749Y442500D02*
X515749Y442500D01*
X535000D01*
X540500Y403000D02*
X547500Y410000D01*
X540431Y406000D02*
X542892Y408461D01*
X479450Y369231D02*
X513219Y403000D01*
X540500D01*
X476250Y368859D02*
X513391Y406000D01*
X540431D01*
X473050Y368488D02*
X517562Y413000D01*
X537000D01*
X469750Y368016D02*
X519234Y417500D01*
X527500D01*
X466500Y367594D02*
X521906Y423000D01*
X463250Y367173D02*
X523077Y427000D01*
X515749Y423749D02*
Y432000D01*
X491000Y399000D02*
X515749Y423749D01*
X508250Y448000D02*
X551000D01*
X491000Y427000D02*
Y459000D01*
X493000Y426000D02*
Y460000D01*
X495000Y425172D02*
Y461000D01*
X497000Y424343D02*
Y462000D01*
X479000Y480000D02*
X497000Y462000D01*
X503828Y465657D02*
X512000Y457485D01*
X500314Y470000D02*
X517500D01*
X499785Y467700D02*
X511799D01*
X499000Y465657D02*
X503828D01*
X499000Y462828D02*
X503828D01*
X511642Y455015D01*
X478000Y472000D02*
X491000Y459000D01*
X478000Y475000D02*
X493000Y460000D01*
X279400Y475000D02*
X478000D01*
X257000Y478000D02*
X478000D01*
X495000Y461000D01*
X582000Y495000D02*
X584000Y493000D01*
X574301Y492700D02*
X579001Y488000D01*
X191000Y495000D02*
X582000D01*
X189300Y492700D02*
X574301D01*
X183600Y490400D02*
X479914D01*
X500314Y470000D01*
X171190Y488100D02*
X479385D01*
X499785Y467700D01*
X201800Y485800D02*
X478857D01*
X499000Y465657D01*
X202993Y483500D02*
X478328D01*
X499000Y462828D01*
X236400Y457400D02*
X257000Y478000D01*
X211000Y432000D02*
X223000Y420000D01*
X244000D01*
X249000Y425000D01*
X261800Y457400D02*
X279400Y475000D01*
X275000Y463000D02*
X284000Y472000D01*
X478000D01*
X275000Y454000D02*
Y463000D01*
Y445200D02*
X287200Y457400D01*
X300000Y444800D02*
X312600Y457400D01*
X779000Y63000D02*
X792000D01*
X794000Y61000D01*
X550500Y238500D02*
X560750Y228250D01*
X545250Y238500D02*
X550500D01*
X544000Y237250D02*
X545250Y238500D01*
X538500Y237250D02*
X544000D01*
X534750Y241000D02*
X538500Y237250D01*
X560750Y221500D02*
Y228250D01*
X527000Y231000D02*
X534000D01*
X521549Y214251D02*
X526800Y209000D01*
X521549Y214251D02*
Y221500D01*
X515250Y205750D02*
Y221500D01*
X525000Y233000D02*
X527000Y231000D01*
X525000Y233000D02*
Y237750D01*
X534750Y241000D02*
Y241000D01*
X383212Y310788D02*
X407000Y287000D01*
X436256Y279000D02*
X438206Y277050D01*
X417250Y287000D02*
X425250Y279000D01*
X436256D01*
X407000Y287000D02*
X417250D01*
X428500Y281750D02*
X437250D01*
X420250Y290000D02*
X428500Y281750D01*
X409000Y290000D02*
X420250D01*
X437250Y281750D02*
X442353Y276647D01*
X287200Y432000D02*
X311200Y408000D01*
X275000Y424000D02*
X294000Y405000D01*
X261800Y432000D02*
X291800Y402000D01*
X689750Y382500D02*
X707500D01*
X680000Y392250D02*
X689750Y382500D01*
X575500Y336250D02*
X579250Y340000D01*
Y353750D01*
X580500Y355000D01*
X526490Y336250D02*
X575500D01*
X620000Y360750D02*
X622250Y363000D01*
X620000Y355000D02*
Y360750D01*
X629250Y370000D02*
X630000D01*
X622250Y363000D02*
X629250Y370000D01*
X630000Y370750D01*
X622250Y368303D02*
Y372000D01*
X628250Y378000D02*
X640249D01*
X647499Y385250D01*
X622250Y372000D02*
X628250Y378000D01*
X608947Y355000D02*
X622250Y368303D01*
X580500Y355000D02*
X608947D01*
X161250Y204000D02*
Y232000D01*
X129500Y263750D02*
X161250Y232000D01*
X129500Y263750D02*
Y268000D01*
X161250Y204000D02*
X187750Y177500D01*
X164250Y206000D02*
X190250Y180000D01*
X164250Y206000D02*
Y234000D01*
X137250Y261000D02*
X164250Y234000D01*
X137250Y261000D02*
Y274000D01*
X127998Y283252D02*
X137250Y274000D01*
X100500Y283252D02*
X127998D01*
X443750Y402000D02*
X450000D01*
X457250Y394750D01*
X441000Y322750D02*
Y347750D01*
X447250Y354000D01*
Y369250D01*
X452000Y374000D01*
X365000Y402000D02*
X396000Y371000D01*
X291800Y402000D02*
X365000D01*
X366000Y405000D02*
X400000Y371000D01*
X294000Y405000D02*
X366000D01*
X366000Y408000D02*
X403500Y370500D01*
X311200Y408000D02*
X366000D01*
X314000Y411000D02*
X367000D01*
X329600Y415000D02*
X366000D01*
X405250Y387064D02*
X433050Y359264D01*
X405250Y387064D02*
Y408000D01*
X413250Y416000D01*
X402250Y387235D02*
X431000Y358485D01*
X399250Y387407D02*
X428700Y357957D01*
X376000Y407828D02*
X426400Y357428D01*
X570499Y375250D02*
X580250D01*
X575000Y392500D02*
X577500Y395000D01*
X585250D01*
X590000Y399750D01*
X570499Y383250D02*
X572500D01*
X581250Y392000D01*
X580250Y379000D02*
X588368Y387118D01*
X591815D01*
X580250Y375250D02*
Y375250D01*
Y379000D01*
X591815Y387118D02*
X599470Y394773D01*
Y411221D01*
X597000Y396750D02*
Y413023D01*
X592250Y392000D02*
X597000Y396750D01*
X581250Y392000D02*
X592250D01*
X562499Y375250D02*
X570499Y383250D01*
X137250Y360000D02*
Y371000D01*
X143250Y377000D01*
X158250D01*
X184250Y403000D01*
Y458000D01*
X203250Y477000D01*
X207250D01*
X142250Y365000D02*
Y370000D01*
X145250Y373000D01*
X158250D01*
X188250Y403000D01*
Y457000D01*
X203250Y472000D01*
X216250D01*
X221250Y477000D01*
X423250Y374750D02*
X437250Y360750D01*
X471250Y407250D02*
X491000Y427000D01*
X457250Y405250D02*
X471000D01*
X471250Y405000D01*
Y399000D02*
Y405000D01*
Y407250D01*
X656000Y26600D02*
X667600Y15000D01*
X656000Y48000D02*
X661000Y53000D01*
X681500D01*
X656000Y26600D02*
Y48000D01*
X631000Y26200D02*
X642200Y15000D01*
X528000Y27600D02*
X540600Y15000D01*
X528000Y27600D02*
Y49000D01*
X540600Y40400D02*
Y51600D01*
X554000Y27000D02*
X566000Y15000D01*
X554000Y27000D02*
Y52000D01*
X566000Y40400D02*
Y52000D01*
X579000Y27400D02*
X591400Y15000D01*
X579000Y27400D02*
Y49000D01*
X591400Y40400D02*
Y50400D01*
X605000Y26800D02*
Y47000D01*
Y26800D02*
X616800Y15000D01*
X274000Y27600D02*
X286600Y15000D01*
X274000Y27600D02*
Y62000D01*
X263000Y90000D02*
Y120250D01*
X218250Y165000D02*
X263000Y120250D01*
X268000Y97000D02*
Y120250D01*
X221250Y167000D02*
X268000Y120250D01*
X312000Y40400D02*
X325000Y53400D01*
X331400Y59800D01*
X335250Y72000D02*
X343000D01*
X325000Y27400D02*
X337400Y15000D01*
X325000Y27400D02*
Y45000D01*
X337500Y57500D01*
X337400Y40400D02*
X352000Y55000D01*
X362800Y40400D02*
X374400Y52000D01*
X352000Y55000D02*
X391000D01*
X415149Y79149D01*
Y88900D01*
X412799Y79627D02*
Y89874D01*
X410499Y80156D02*
Y90826D01*
X408149Y80634D02*
Y92900D01*
X374400Y52000D02*
X392000D01*
X423249Y83249D01*
Y91000D01*
X428000Y83000D02*
Y91251D01*
X388200Y40400D02*
Y43200D01*
X428000Y83000D01*
X433300Y84000D02*
Y90046D01*
X426000Y27400D02*
Y66247D01*
X435600Y75847D01*
X413600Y15000D02*
X426000Y27400D01*
X435600Y75847D02*
Y89093D01*
X439000Y40400D02*
X456350Y57750D01*
X452000Y27400D02*
X464400Y15000D01*
X452000Y27400D02*
Y48000D01*
X459250Y55250D01*
X464400Y40400D02*
X477100Y53100D01*
X478000Y26800D02*
X489800Y15000D01*
X478000Y26800D02*
Y46000D01*
X483000Y51000D01*
X489800Y40400D02*
X497400Y48000D01*
X456350Y57750D02*
X496249D01*
X509499Y71000D01*
Y79257D01*
X500250Y55250D02*
X510000Y65000D01*
X459250Y55250D02*
X500250D01*
X510000Y65000D02*
X512399Y67399D01*
Y78904D01*
X504100Y53100D02*
X514699Y63699D01*
X477100Y53100D02*
X504100D01*
X514699Y63699D02*
Y77952D01*
X483000Y51000D02*
X505000D01*
X516999Y62999D01*
Y76999D01*
X497400Y48000D02*
X504828D01*
X503000Y27200D02*
X515200Y15000D01*
X503000Y27200D02*
Y43000D01*
X528000Y49000D02*
X547000Y68000D01*
X540600Y51600D02*
X554000Y65000D01*
Y52000D02*
X564000Y62000D01*
X566000Y52000D02*
X574000Y60000D01*
X579000Y49000D02*
X587000Y57000D01*
X591400Y50400D02*
X596000Y55000D01*
X605000Y47000D02*
X610000Y52000D01*
X224000Y466000D02*
X238000Y480000D01*
X224000Y444400D02*
Y466000D01*
Y444400D02*
X236400Y432000D01*
X238000Y480000D02*
X479000D01*
X249000Y443000D02*
X253000Y447000D01*
X268000D01*
X249000Y425000D02*
Y443000D01*
X268000Y447000D02*
X275000Y454000D01*
X376000Y407828D02*
Y442000D01*
X399250Y387407D02*
Y440250D01*
X376000Y442000D02*
X382000Y448000D01*
X426800D01*
X439200Y460400D01*
X405000Y446000D02*
X428200D01*
X399250Y440250D02*
X405000Y446000D01*
X428200D02*
X439200Y435000D01*
X402250Y387235D02*
Y411250D01*
X413000Y422000D01*
X446000D01*
X453000Y429000D01*
Y448800D01*
X464600Y460400D01*
X445600Y416000D02*
X464600Y435000D01*
X413250Y416000D02*
X445600D01*
X515200Y40400D02*
X544800Y70000D01*
X503000Y43000D02*
X532000Y72000D01*
X504828Y48000D02*
X531000Y74172D01*
Y79000D01*
X539000Y87000D01*
X616499Y157000D02*
X624000Y149499D01*
X613373Y65000D02*
X649499Y101126D01*
Y193250D01*
X613544Y68000D02*
X644499Y98955D01*
Y191250D01*
X612716Y70000D02*
X638499Y95783D01*
Y198250D01*
X554000Y65000D02*
X613373D01*
X547000Y68000D02*
X613544D01*
X544800Y70000D02*
X612716D01*
X539000Y87000D02*
X564000D01*
X572000Y79000D01*
X642200Y40400D02*
Y53200D01*
X676000Y87000D01*
Y125000D01*
X631000Y26200D02*
Y48000D01*
X673000Y90000D01*
Y135000D01*
X616800Y40400D02*
X670000Y93600D01*
Y147000D01*
X610000Y52000D02*
X622000D01*
X667000Y97000D01*
Y153000D01*
X596000Y55000D02*
X620000D01*
X664000Y99000D01*
Y158000D01*
X587000Y57000D02*
X619000D01*
X661000Y99000D01*
Y170000D01*
X574000Y60000D02*
X618000D01*
X658000Y100000D01*
Y180000D01*
X564000Y62000D02*
X616000D01*
X653499Y99499D01*
Y188250D01*
X532000Y72000D02*
X611000D01*
X633499Y94499D01*
Y204250D01*
X572000Y79000D02*
X612000D01*
X624000Y91000D01*
Y149499D01*
X300000Y46000D02*
X316150Y62150D01*
X300000Y27000D02*
X312000Y15000D01*
X300000Y27000D02*
Y46000D01*
X316150Y62150D02*
X343150D01*
X355000Y74000D01*
X401515D01*
X408149Y80634D01*
X331400Y59800D02*
X348000D01*
X398343Y68000D02*
X410499Y80156D01*
X353000Y57500D02*
X357500Y62000D01*
X337500Y57500D02*
X353000D01*
X395172Y62000D02*
X412799Y79627D01*
X357500Y62000D02*
X395172D01*
X348000Y59800D02*
X356200Y68000D01*
X398343D01*
X398007Y110750D02*
X407750D01*
X397257Y110000D02*
X398007Y110750D01*
X336000Y110000D02*
X397257D01*
X283000Y116000D02*
X403500D01*
X285000Y119000D02*
X399788D01*
X287000Y122000D02*
X399394D01*
X289000Y125000D02*
X399000D01*
X370551Y135565D02*
X412838Y177852D01*
Y194135D01*
X371891Y133095D02*
X417918Y179122D01*
Y195378D01*
X373231Y130625D02*
X422744Y180138D01*
Y196394D01*
X374571Y128155D02*
X427824Y181408D01*
Y197664D01*
X345274Y214979D02*
X352001Y208252D01*
X345274Y214979D02*
Y227128D01*
X352001Y208252D02*
X371001D01*
X375001Y238252D02*
X380001Y243252D01*
X343274Y214151D02*
Y214151D01*
X338924Y227252D02*
X343274Y222902D01*
Y214151D02*
X345087Y212338D01*
X343274Y214151D02*
X351173Y206252D01*
X343274Y214151D02*
Y222902D01*
X377201Y234452D02*
X380001Y237252D01*
X375001Y206252D02*
X377201Y208452D01*
Y234452D01*
X351173Y206252D02*
X375001D01*
X371001Y208252D02*
X375001Y212252D01*
Y238252D01*
D11*
X635251Y432751D02*
D03*
Y448752D02*
D03*
X635249Y417249D02*
D03*
Y401248D02*
D03*
X593251Y363751D02*
D03*
Y379752D02*
D03*
X790251Y390752D02*
D03*
Y374751D02*
D03*
X453501Y323751D02*
D03*
Y339752D02*
D03*
X572251Y328001D02*
D03*
Y344002D02*
D03*
D12*
X707001Y380999D02*
D03*
X723002D02*
D03*
X706751Y357999D02*
D03*
X722752D02*
D03*
X475250Y67249D02*
D03*
X491251D02*
D03*
X489250Y113249D02*
D03*
X505251D02*
D03*
X733748Y157251D02*
D03*
X717747D02*
D03*
X707249Y210001D02*
D03*
X691248D02*
D03*
X476250Y82749D02*
D03*
X492251D02*
D03*
X611250Y330874D02*
D03*
X627251D02*
D03*
X145001Y308999D02*
D03*
X161002D02*
D03*
X144001Y326999D02*
D03*
X160002D02*
D03*
X591249Y240001D02*
D03*
X575248D02*
D03*
X145001Y341999D02*
D03*
X161002D02*
D03*
X217751Y59999D02*
D03*
X233752D02*
D03*
X814499Y335001D02*
D03*
X798498D02*
D03*
X104751Y473999D02*
D03*
X120752D02*
D03*
X641751Y237999D02*
D03*
X657752D02*
D03*
X641751Y222999D02*
D03*
X657752D02*
D03*
X611250Y315796D02*
D03*
X627251D02*
D03*
X541083Y303166D02*
D03*
X557084D02*
D03*
D13*
X297000Y389000D02*
D03*
X287000D02*
D03*
X263000D02*
D03*
X273000D02*
D03*
X664000Y188000D02*
D03*
X674000D02*
D03*
X570000Y457500D02*
D03*
X580000D02*
D03*
X540000Y482500D02*
D03*
X550000D02*
D03*
X495499Y228250D02*
D03*
X485499D02*
D03*
Y218250D02*
D03*
X495499D02*
D03*
X413250Y296000D02*
D03*
X423250D02*
D03*
X355000Y390000D02*
D03*
X345000D02*
D03*
X335000D02*
D03*
X325000D02*
D03*
X345499Y204250D02*
D03*
X335499D02*
D03*
X341000Y183000D02*
D03*
X331000D02*
D03*
X365000Y195000D02*
D03*
X355000D02*
D03*
X298000Y184000D02*
D03*
X288000D02*
D03*
X262000D02*
D03*
X272000D02*
D03*
X122000Y456000D02*
D03*
X112000D02*
D03*
X130250Y252000D02*
D03*
X120250D02*
D03*
X90000Y252500D02*
D03*
X100000D02*
D03*
X52250Y253000D02*
D03*
X62250D02*
D03*
X353499Y262250D02*
D03*
X343499D02*
D03*
X61000Y49000D02*
D03*
X71000D02*
D03*
X468250Y267000D02*
D03*
X458250D02*
D03*
X469499Y255250D02*
D03*
X459499D02*
D03*
X507000Y267000D02*
D03*
X517000D02*
D03*
X461996Y288250D02*
D03*
X471996D02*
D03*
X747499Y445250D02*
D03*
X737499D02*
D03*
X594499Y426250D02*
D03*
X604499D02*
D03*
X542000Y78000D02*
D03*
X552000D02*
D03*
X507000Y276750D02*
D03*
X517000D02*
D03*
X507000Y286500D02*
D03*
X517000D02*
D03*
X611000Y255000D02*
D03*
X621000D02*
D03*
X562500Y198750D02*
D03*
X552500D02*
D03*
X578500D02*
D03*
X588500D02*
D03*
X349250Y374000D02*
D03*
X339250D02*
D03*
X807000Y90000D02*
D03*
X797000D02*
D03*
D14*
X157749Y396250D02*
D03*
X147249D02*
D03*
X108751Y207252D02*
D03*
X119251D02*
D03*
X788250Y522000D02*
D03*
X777750D02*
D03*
X804750Y44000D02*
D03*
X815250D02*
D03*
Y70000D02*
D03*
X804750D02*
D03*
X815250Y57000D02*
D03*
X804750D02*
D03*
X606250Y484000D02*
D03*
X595750D02*
D03*
X606250Y472000D02*
D03*
X595750D02*
D03*
X640250Y388000D02*
D03*
X629750D02*
D03*
X554000Y346250D02*
D03*
X543500D02*
D03*
X516249D02*
D03*
X526749D02*
D03*
X560751Y442252D02*
D03*
X571251D02*
D03*
X562751Y481252D02*
D03*
X573251D02*
D03*
X525250Y385997D02*
D03*
X535750D02*
D03*
X539750Y457500D02*
D03*
X550250D02*
D03*
X539750Y470000D02*
D03*
X550250D02*
D03*
X495749Y205250D02*
D03*
X485249D02*
D03*
X402750Y340000D02*
D03*
X392250D02*
D03*
X54750Y472500D02*
D03*
X65250D02*
D03*
X54750Y457500D02*
D03*
X65250D02*
D03*
X129500Y268000D02*
D03*
X119000D02*
D03*
X100250Y267500D02*
D03*
X89750D02*
D03*
X75250D02*
D03*
X64750D02*
D03*
X335250Y72000D02*
D03*
X324750D02*
D03*
X60750Y61000D02*
D03*
X71250D02*
D03*
X630000Y370000D02*
D03*
X640500D02*
D03*
X581750Y226000D02*
D03*
X592250D02*
D03*
X642750Y209000D02*
D03*
X653250D02*
D03*
D15*
X53001Y228002D02*
D03*
Y238502D02*
D03*
X47000Y50750D02*
D03*
Y61250D02*
D03*
X712000Y474250D02*
D03*
Y463750D02*
D03*
X698000Y474250D02*
D03*
Y463750D02*
D03*
X678000Y498250D02*
D03*
Y487750D02*
D03*
X692000Y498250D02*
D03*
Y487750D02*
D03*
X706000Y498250D02*
D03*
Y487750D02*
D03*
X679250Y418750D02*
D03*
Y429250D02*
D03*
Y401250D02*
D03*
Y390750D02*
D03*
X737001Y397002D02*
D03*
Y407502D02*
D03*
X827499Y361000D02*
D03*
Y371500D02*
D03*
X777000Y236750D02*
D03*
Y247250D02*
D03*
X674000Y199750D02*
D03*
Y210250D02*
D03*
X706000Y263750D02*
D03*
Y274250D02*
D03*
X693000Y263750D02*
D03*
Y274250D02*
D03*
X580250Y375250D02*
D03*
Y364750D02*
D03*
X577500Y410250D02*
D03*
Y399750D02*
D03*
X590000D02*
D03*
Y410250D02*
D03*
X607499Y400000D02*
D03*
Y410500D02*
D03*
X550000Y432250D02*
D03*
Y442750D02*
D03*
X525000Y477250D02*
D03*
Y487750D02*
D03*
X512500Y477250D02*
D03*
Y487750D02*
D03*
X457250Y394750D02*
D03*
Y405250D02*
D03*
X482499Y189250D02*
D03*
Y178750D02*
D03*
X131000Y160750D02*
D03*
Y171250D02*
D03*
X729000Y474250D02*
D03*
Y463750D02*
D03*
X794499Y310750D02*
D03*
Y300250D02*
D03*
X616499Y201500D02*
D03*
Y191000D02*
D03*
Y167500D02*
D03*
Y157000D02*
D03*
X296000Y61750D02*
D03*
Y72250D02*
D03*
X395000Y99250D02*
D03*
Y88750D02*
D03*
X261000Y61750D02*
D03*
Y72250D02*
D03*
X102000Y160750D02*
D03*
Y171250D02*
D03*
X71000Y36250D02*
D03*
Y25750D02*
D03*
X632500Y344750D02*
D03*
Y355250D02*
D03*
X515749Y442500D02*
D03*
Y432000D02*
D03*
X805250Y372750D02*
D03*
Y383250D02*
D03*
X696000Y89250D02*
D03*
Y78750D02*
D03*
X683000Y89250D02*
D03*
Y78750D02*
D03*
D35*
X698000Y396500D02*
D03*
X707500D02*
D03*
X698000Y423500D02*
D03*
X717000Y396500D02*
D03*
Y423500D02*
D03*
D36*
X750000Y461000D02*
D03*
Y471000D02*
D03*
X537000Y201000D02*
D03*
Y191000D02*
D03*
X570250Y365000D02*
D03*
Y375000D02*
D03*
X614250Y372000D02*
D03*
Y382000D02*
D03*
X605250Y372000D02*
D03*
Y382000D02*
D03*
X540000Y432500D02*
D03*
Y442500D02*
D03*
X501000Y487000D02*
D03*
Y477000D02*
D03*
X470499Y179250D02*
D03*
Y189250D02*
D03*
X117000Y171000D02*
D03*
Y161000D02*
D03*
X369000Y384000D02*
D03*
Y374000D02*
D03*
X294000Y344000D02*
D03*
Y334000D02*
D03*
X303000Y223000D02*
D03*
Y213000D02*
D03*
X307000Y72000D02*
D03*
Y62000D02*
D03*
X274000Y72000D02*
D03*
Y62000D02*
D03*
X285000Y72000D02*
D03*
Y62000D02*
D03*
X341000Y323000D02*
D03*
Y333000D02*
D03*
X726000Y178000D02*
D03*
Y188000D02*
D03*
X412250Y388000D02*
D03*
Y398000D02*
D03*
X89000Y171000D02*
D03*
Y161000D02*
D03*
X76000Y171000D02*
D03*
Y161000D02*
D03*
X517499Y129250D02*
D03*
Y139250D02*
D03*
X620000Y345000D02*
D03*
Y355000D02*
D03*
X585499Y304250D02*
D03*
Y314250D02*
D03*
X287000Y273000D02*
D03*
Y283000D02*
D03*
X489250Y255750D02*
D03*
Y245750D02*
D03*
X479500Y255750D02*
D03*
Y245750D02*
D03*
X571499Y314250D02*
D03*
Y304250D02*
D03*
X598499Y314250D02*
D03*
Y304250D02*
D03*
X502250Y297750D02*
D03*
Y307750D02*
D03*
X502499Y256250D02*
D03*
Y246250D02*
D03*
X473000Y297750D02*
D03*
Y307750D02*
D03*
X482750Y297750D02*
D03*
Y307750D02*
D03*
X463250D02*
D03*
Y297750D02*
D03*
X492500D02*
D03*
Y307750D02*
D03*
X534000Y322000D02*
D03*
Y332000D02*
D03*
X512000Y307750D02*
D03*
Y297750D02*
D03*
X171499Y261250D02*
D03*
Y251250D02*
D03*
X508499Y226250D02*
D03*
Y236250D02*
D03*
X530499Y139250D02*
D03*
Y129250D02*
D03*
X522000Y257000D02*
D03*
Y247000D02*
D03*
X543000Y213000D02*
D03*
Y223000D02*
D03*
X462499Y111250D02*
D03*
Y121250D02*
D03*
X816250Y371000D02*
D03*
Y361000D02*
D03*
X331250Y276000D02*
D03*
Y266000D02*
D03*
D40*
X816250Y371000D02*
X839749D01*
X340250Y285000D02*
X347000D01*
X331250Y276000D02*
X340250Y285000D01*
X20000Y353500D02*
X20500Y353000D01*
X20000Y353500D02*
Y362000D01*
X61000Y353500D02*
X61500Y353000D01*
X61000Y353500D02*
Y362000D01*
X101000Y353000D02*
Y362000D01*
X119251Y198752D02*
Y207252D01*
X594499Y426250D02*
X595000Y425749D01*
Y418812D02*
Y425749D01*
X604499Y426250D02*
X610499D01*
X178253Y261250D02*
X179000Y261997D01*
X171499Y261250D02*
X178253D01*
X171499Y251250D02*
X171752Y250997D01*
X181000D01*
X733748Y157251D02*
X734499Y158003D01*
Y173250D01*
X730750D02*
X734499D01*
X726000Y178000D02*
X730750Y173250D01*
X717747Y157251D02*
X719000Y158504D01*
Y173000D01*
X621000Y255000D02*
X628000D01*
X577500Y410250D02*
X590000D01*
X605000Y485250D02*
X606250Y484000D01*
X605000Y485250D02*
Y492500D01*
X106000Y456000D02*
X112000D01*
X104750Y474000D02*
X104751Y473999D01*
X97000Y474000D02*
X104750D01*
X570500Y198750D02*
X578250D01*
X562750D02*
X570500D01*
Y185750D02*
Y198750D01*
X632249Y447500D02*
X632501Y447752D01*
X535000Y442500D02*
X540000D01*
X567500Y452500D02*
Y455000D01*
X570000Y457500D01*
X582500Y452500D02*
Y455000D01*
X580000Y457500D02*
X582500Y455000D01*
X597501Y364251D02*
X609251D01*
X612500Y367500D01*
X617500Y387500D02*
Y397000D01*
X622500Y402000D01*
X632251D01*
X638249Y418249D02*
X642500Y422500D01*
X634999Y418249D02*
X638249D01*
X617500Y460000D02*
X622500Y455000D01*
X522000Y247000D02*
X522500Y247500D01*
X528250D01*
X708250Y209000D02*
X716000D01*
X707249Y210001D02*
X708250Y209000D01*
X659000Y193000D02*
X664000Y188000D01*
X539500Y483000D02*
X540000Y482500D01*
X533000Y483000D02*
X539500D01*
X517000Y286500D02*
X521750D01*
X517000D02*
Y294750D01*
X521750Y299500D01*
X580000Y457500D02*
X595500D01*
X598000Y460000D01*
X617500D01*
X508499Y236250D02*
X510500D01*
X515250Y241000D01*
X497499Y228250D02*
X499499Y226250D01*
X508499D01*
X495750Y234500D02*
X499749Y230501D01*
X470499Y179250D02*
X481999D01*
X482499Y178750D01*
X607499Y410500D02*
X609749D01*
X622500Y423251D01*
Y455000D01*
X607499Y400000D02*
X609250D01*
X626800Y417550D01*
Y460250D01*
X288000Y384000D02*
Y388000D01*
X287000Y389000D02*
X288000Y388000D01*
X482499Y178750D02*
X482999Y178250D01*
X488499D01*
X834000Y412000D02*
Y494000D01*
X828499Y513250D02*
X834000Y507749D01*
Y494000D02*
Y507749D01*
X782000Y509751D02*
X785499Y513250D01*
X782000Y494000D02*
Y509751D01*
X785499Y513250D02*
X828499D01*
X834000Y412000D02*
X840499Y405501D01*
X840249Y371500D02*
X840499Y371250D01*
Y361250D02*
Y371250D01*
X456499Y108250D02*
X459499D01*
X462499Y111250D01*
X467499Y121250D02*
X468499Y122250D01*
X462499Y121250D02*
X467499D01*
X284000Y251250D02*
X287000Y254250D01*
X284000Y245000D02*
Y251250D01*
X287000Y254250D02*
Y273000D01*
Y283000D02*
Y291000D01*
X591249Y240001D02*
Y241751D01*
X708000Y136000D02*
Y143000D01*
X705000Y133000D02*
X708000Y136000D01*
X693000Y133000D02*
X705000D01*
X689000Y129000D02*
X693000Y133000D01*
X689000Y109000D02*
Y129000D01*
Y109000D02*
X705000Y93000D01*
Y57000D02*
Y89000D01*
Y93000D01*
X839749Y371000D02*
X840249Y371500D01*
X840499Y371250D02*
Y405501D01*
X816250Y361000D02*
X827499D01*
X813499Y358249D02*
X816250Y361000D01*
X813499Y344250D02*
Y358249D01*
X784000Y372000D02*
X784750Y372750D01*
X632249Y447500D02*
X642500D01*
X784750Y372750D02*
X805250D01*
X633250Y432500D02*
X642500D01*
X605250Y382000D02*
Y397751D01*
X607499Y400000D01*
X597500Y382000D02*
X605250D01*
X597500D02*
Y387500D01*
X614250Y384250D02*
X617500Y387500D01*
X614250Y382000D02*
Y384250D01*
X605250Y372000D02*
X614250D01*
X612500Y367500D02*
Y370250D01*
X614250Y372000D01*
X412250Y388000D02*
X421250D01*
X427250Y382000D01*
X434250D01*
X449250D01*
X452250Y379000D01*
X412250Y398000D02*
X416250Y402000D01*
X424750D01*
X425250Y402500D01*
Y412000D01*
X554250Y80250D02*
X556499D01*
X552000Y78000D02*
X554250Y80250D01*
D41*
X52250Y255000D02*
X64750Y267500D01*
X52250Y253000D02*
Y255000D01*
X783250Y310750D02*
X794499D01*
X777000Y317000D02*
X783250Y310750D01*
X777000Y317000D02*
Y372000D01*
X769000Y380000D02*
X777000Y372000D01*
X769000Y380000D02*
Y394000D01*
X71000Y25750D02*
X83750D01*
X117000Y171000D02*
Y176000D01*
X113000Y180000D02*
X117000Y176000D01*
X71000Y180000D02*
X113000D01*
X67000Y176000D02*
X71000Y180000D01*
X67000Y171000D02*
Y176000D01*
Y171000D02*
X76000D01*
X89000D01*
X670000Y223000D02*
Y242000D01*
X662000Y250000D02*
X670000Y242000D01*
X617000Y250000D02*
X662000D01*
X612000Y255000D02*
X617000Y250000D01*
X611000Y255000D02*
X612000D01*
X591000Y253000D02*
X605000D01*
X607000Y255000D01*
X611000D01*
X632250Y345000D02*
X632500Y344750D01*
X620000Y345000D02*
X632250D01*
X602000Y343000D02*
X604000Y345000D01*
X620000D01*
X25500Y457500D02*
X54750D01*
X18000Y450000D02*
X25500Y457500D01*
X18000Y403750D02*
Y450000D01*
Y403750D02*
X32250Y389500D01*
X41500Y472500D02*
X54750D01*
X32500Y481500D02*
X41500Y472500D01*
X32500Y481500D02*
Y496250D01*
X670000Y223000D02*
X674000Y219000D01*
Y210250D02*
Y219000D01*
Y210250D02*
X690999D01*
X691248Y210001D01*
X674000Y188000D02*
Y199750D01*
X674000Y188000D02*
X674000Y188000D01*
X680000Y182000D02*
X689000D01*
X674000Y188000D02*
X680000Y182000D01*
X683000Y89250D02*
X696000D01*
X704750D01*
X705000Y89000D01*
X493000Y487000D02*
X501000D01*
X261000Y72250D02*
Y81000D01*
X307000Y62000D02*
X309000D01*
X313000Y66000D01*
X545999Y81999D02*
Y83000D01*
X542000Y78000D02*
X545999Y81999D01*
D42*
X119000Y268000D02*
X130250Y256750D01*
Y252000D02*
Y256750D01*
X291600Y40400D02*
X293400D01*
X91000Y155000D02*
X96250D01*
X79000D02*
X90950D01*
Y155050D01*
Y128000D02*
Y155000D01*
Y155050D02*
X91000Y155000D01*
X96250D02*
X102000Y160750D01*
X76000Y158000D02*
X79000Y155000D01*
X110000Y109500D02*
Y144000D01*
X120750Y161000D02*
X131000Y171250D01*
X117000Y161000D02*
X120750D01*
X126750Y160750D02*
X131000D01*
X110000Y144000D02*
X126750Y160750D01*
X103650Y147650D02*
X117000Y161000D01*
X103650Y128000D02*
Y147650D01*
X76000Y158000D02*
Y161000D01*
X805250Y383250D02*
X830499D01*
X831499Y382250D01*
X285000Y42000D02*
Y62000D01*
Y42000D02*
X286600Y40400D01*
X314500Y17500D02*
X317000Y15000D01*
X296250Y72000D02*
X305750D01*
X296000Y72250D02*
X296250Y72000D01*
X285000Y62000D02*
X295750D01*
X296000Y61750D01*
X307000Y72000D02*
X324750D01*
X307000Y72000D02*
X307000Y72000D01*
D43*
X332000Y374000D02*
X341250D01*
X331250Y260000D02*
Y266000D01*
X355999Y374000D02*
X356000Y374000D01*
X349250Y374000D02*
X355999D01*
X390250Y325000D02*
X402750D01*
X341250Y374000D02*
X390250Y325000D01*
X402750D02*
X410250Y317500D01*
Y309000D02*
Y317500D01*
Y309000D02*
X423250Y296000D01*
X434250Y285000D01*
X438750D01*
X443750Y280000D01*
X68253Y253000D02*
X71001Y250252D01*
X62250Y253000D02*
X68253D01*
X30000Y333000D02*
X31000Y332000D01*
Y323000D02*
Y332000D01*
X71000Y323000D02*
Y333000D01*
X110500D02*
X111000Y332500D01*
Y323000D02*
Y332500D01*
X815250Y221750D02*
X816000Y222500D01*
X770750Y221750D02*
X815250D01*
X741000Y192000D02*
X770750Y221750D01*
X717747Y157251D02*
X735998Y139000D01*
X717500Y123000D02*
Y157004D01*
X717747Y157251D01*
X726000Y192000D02*
X741000D01*
X719000D02*
X726000D01*
Y188000D02*
X726000Y188000D01*
X726000Y188000D02*
Y192000D01*
X815000Y222500D02*
X816000D01*
X212100Y40400D02*
X215400D01*
Y47400D01*
X837499Y247499D02*
Y253250D01*
X831500Y241500D02*
X837499Y247499D01*
X485499Y230749D02*
X489250Y234500D01*
X485499Y228250D02*
Y230749D01*
X345499Y204250D02*
X348000Y201749D01*
Y197000D02*
Y201749D01*
X332000Y200751D02*
X335499Y204250D01*
X332000Y197000D02*
Y200751D01*
X352000Y255000D02*
Y258250D01*
X353499Y259749D01*
Y262250D01*
X343499D02*
X344000Y261749D01*
Y255000D02*
Y261749D01*
X288000Y179000D02*
Y183179D01*
X296000Y179000D02*
Y182000D01*
X298000Y184000D01*
X272000Y179000D02*
Y182965D01*
X382500Y357500D02*
X392250Y347750D01*
Y340000D02*
Y347750D01*
X590000Y410250D02*
Y413812D01*
X595000Y418812D01*
X369000Y384000D02*
X369000Y384000D01*
X360000Y384000D02*
X369000D01*
X364000Y374000D02*
X369000D01*
X272000Y388000D02*
X273000Y389000D01*
X272000Y384000D02*
Y388000D01*
X263000Y389000D02*
X264000Y388000D01*
Y384000D02*
Y388000D01*
X352000Y387000D02*
X355000Y390000D01*
X352000Y384000D02*
Y387000D01*
X344000Y389000D02*
X345000Y390000D01*
X344000Y384000D02*
Y389000D01*
X335000Y390000D02*
X336000Y389000D01*
Y384000D02*
Y389000D01*
X324000Y389000D02*
X325000Y390000D01*
X324000Y384000D02*
Y389000D01*
X337000Y336000D02*
X340000Y333000D01*
X336000Y336000D02*
X337000D01*
X264000Y179000D02*
Y183035D01*
X263035Y184000D02*
X264000Y183035D01*
X356000Y189000D02*
Y194000D01*
X355000Y195000D02*
X356000Y194000D01*
X364000Y189000D02*
Y194000D01*
X365000Y195000D01*
X331000Y183000D02*
Y188000D01*
X332000Y189000D01*
X344000Y179000D02*
Y180000D01*
X341000Y183000D02*
X344000Y180000D01*
X336000Y179000D02*
X337000D01*
X341000Y183000D01*
X308000Y218000D02*
X308000D01*
X303000Y223000D02*
X308000Y218000D01*
X495750Y241000D02*
X495750D01*
X535000Y430000D02*
X537500Y432500D01*
X549750D02*
X550000Y432250D01*
X540000Y432500D02*
X549750D01*
X537500D02*
X540000D01*
X640000Y362500D02*
X640250Y362750D01*
X521750Y257250D02*
Y260500D01*
Y257250D02*
X522000Y257000D01*
X541250Y223250D02*
Y228000D01*
X537000Y191000D02*
X539000D01*
X543000Y195000D01*
X788250Y522000D02*
X798000D01*
X485249Y205250D02*
Y218000D01*
X485499Y218250D01*
Y228250D01*
X485249Y198000D02*
Y205250D01*
X482499Y195250D02*
X485249Y198000D01*
X482499Y189250D02*
Y195250D01*
X470499Y189250D02*
X482499D01*
X482499Y189250D01*
X296000Y384000D02*
Y388000D01*
X297000Y389000D01*
X300749Y344000D02*
X302499Y342250D01*
X294000Y344000D02*
X300749D01*
X53001Y238502D02*
X64251D01*
X71001Y245252D01*
Y250252D01*
X757000Y127000D02*
X759000Y125000D01*
X754000Y127000D02*
X757000D01*
X755000Y98000D02*
X759000Y94000D01*
Y88000D02*
Y94000D01*
Y120500D02*
Y125000D01*
X815000Y241500D02*
X816000D01*
X831500D01*
X722000Y72500D02*
X722500Y72000D01*
X759000Y72500D02*
X760500D01*
X769000Y64000D01*
Y30000D02*
Y64000D01*
X722000Y53500D02*
X757000D01*
X759000D01*
X804000Y80000D02*
Y87000D01*
X807000Y90000D01*
X823000Y106000D01*
Y125000D01*
X790000Y90000D02*
X797000D01*
X803000Y105000D02*
Y115500D01*
Y134500D01*
X402500Y306750D02*
X413250Y296000D01*
X402500Y306750D02*
Y315000D01*
X722500Y72000D02*
X759000D01*
X735998Y139000D02*
X759000D01*
X272000Y182965D02*
X273035Y184000D01*
X287179Y183179D02*
Y184000D01*
X340000Y318000D02*
Y323000D01*
X757000Y53500D02*
Y60000D01*
X640000Y362500D02*
Y369500D01*
X640500Y370000D01*
X401250Y82500D02*
X401499D01*
X395000Y88750D02*
X401250Y82500D01*
D44*
X728250Y362000D02*
X742250Y348000D01*
D45*
X149000Y210000D02*
Y222000D01*
X684000Y423500D02*
X694250D01*
X679250Y418750D02*
X684000Y423500D01*
X48750Y49000D02*
X61000D01*
X71000Y37250D02*
Y49000D01*
X71250Y49250D01*
Y61000D01*
X90250Y80000D02*
X90950D01*
X71250Y61000D02*
X90250Y80000D01*
X144000Y227000D02*
X149000Y222000D01*
X136000Y227000D02*
X144000D01*
X515249Y332000D02*
X515799Y332550D01*
Y336550D01*
X520499Y341250D01*
X521749D01*
X450018Y234500D02*
X450249D01*
X447000Y231482D02*
X450018Y234500D01*
X547749Y267000D02*
X549394D01*
X552611Y270217D01*
X779000Y92000D02*
Y97500D01*
Y92000D02*
X794000Y77000D01*
Y70000D02*
Y77000D01*
X274000Y72000D02*
Y98000D01*
X286000Y110000D01*
X336000D01*
X261000Y61750D02*
X263750D01*
X274000Y72000D01*
X299000Y99000D02*
X307000Y107000D01*
X285000Y72000D02*
X299000Y86000D01*
Y99000D01*
X388200Y15000D02*
X401000Y27800D01*
Y52000D02*
X431000Y82000D01*
X401000Y27800D02*
Y52000D01*
X431000Y82000D02*
Y89000D01*
X413600Y40400D02*
Y58600D01*
X433300Y78300D01*
Y84000D01*
X410000Y107000D02*
X423000Y120000D01*
X395000Y99250D02*
Y107000D01*
X307000D02*
X395000D01*
X410000D01*
D46*
X42250Y61250D02*
X47000D01*
X39000Y58000D02*
X42250Y61250D01*
X39000Y43000D02*
Y58000D01*
X45000Y37000D02*
X53000D01*
X39000Y43000D02*
X45000Y37000D01*
X47250Y61000D02*
X60750D01*
D47*
X120000Y353000D02*
X143250D01*
X724750Y407750D02*
X736753D01*
X80000Y343000D02*
X110000D01*
X42000D02*
X80000D01*
X80500Y343500D01*
Y353000D01*
X110000Y343000D02*
X120000Y353000D01*
X39500Y345500D02*
X42000Y343000D01*
X39500Y345500D02*
Y353000D01*
X837499Y265500D02*
X837999Y266000D01*
X837499Y253250D02*
Y265500D01*
X837999Y318500D02*
X838499Y319000D01*
Y331250D01*
X658752Y232999D02*
X659752Y233999D01*
X591249Y240001D02*
X592250Y239000D01*
X606000D01*
X505750Y245750D02*
X515000Y255000D01*
X717000Y415500D02*
Y423500D01*
X706751Y358752D02*
Y364999D01*
X707500Y382500D02*
Y396500D01*
X706751Y364999D02*
X707500Y365748D01*
X635000Y332500D02*
X640000Y337500D01*
X635000Y330000D02*
Y332500D01*
X629500Y387500D02*
X634502Y382498D01*
X541250Y312500D02*
X547750D01*
X557084Y303166D01*
X538416D02*
X541083D01*
X534750Y299500D02*
X538416Y303166D01*
X573249Y242000D02*
X575248Y240001D01*
X581750Y226000D02*
Y233499D01*
X575248Y240001D02*
X581750Y233499D01*
X592250Y221750D02*
X595000Y219000D01*
X592250Y221750D02*
Y226000D01*
X564000Y242000D02*
X573249D01*
X515000Y255000D02*
Y265000D01*
X517000Y267000D01*
X750000Y454000D02*
Y461000D01*
X534000Y332000D02*
X534000Y332000D01*
X528250Y332000D02*
X534000D01*
X640250Y388000D02*
Y396997D01*
X634999Y402248D02*
X640250Y396997D01*
X722750Y429250D02*
Y433501D01*
X717000Y423500D02*
X722750Y429250D01*
X747499Y445250D02*
Y451499D01*
X750000Y454000D01*
X707500Y365748D02*
Y374124D01*
X736753Y407750D02*
X737001Y407502D01*
X736753Y397250D02*
X737001Y397002D01*
X717750Y397250D02*
X736753D01*
X722750Y433501D02*
X740000Y450751D01*
X658752Y221502D02*
Y232999D01*
X704625Y356625D02*
X706751Y358752D01*
X707500Y374124D02*
Y382500D01*
X752001Y468999D02*
X776940D01*
X750000Y471000D02*
X752001Y468999D01*
X741000Y471000D02*
X750000D01*
X740000Y470000D02*
X741000Y471000D01*
X740000Y450751D02*
Y470000D01*
X717000Y415500D02*
X724750Y407750D01*
X91000Y55000D02*
Y60000D01*
X100000Y69000D01*
D48*
X721600Y39400D02*
X745000D01*
X520250Y280000D02*
X521750D01*
X517000Y276750D02*
X520250Y280000D01*
X487500Y245750D02*
X489250D01*
X491000D02*
X495750Y241000D01*
X489250Y245750D02*
X491000D01*
X479500Y244250D02*
Y245750D01*
X476250Y241000D02*
X479500Y244250D01*
X482750Y241000D02*
X487500Y245750D01*
X712000Y49000D02*
X721600Y39400D01*
X712000Y49000D02*
Y98000D01*
X699000Y111000D02*
X712000Y98000D01*
X699000Y111000D02*
Y122500D01*
X698500Y123000D02*
X699000Y122500D01*
D50*
X218250Y154000D02*
X251250Y121000D01*
X137250Y190000D02*
X173250Y154000D01*
X218250D01*
X65001Y190000D02*
X137250D01*
X251250Y86000D02*
Y121000D01*
X240800Y40400D02*
Y75550D01*
X251250Y86000D01*
X700875Y356625D02*
X704625D01*
X685250Y341000D02*
X700875Y356625D01*
X685250Y337251D02*
Y341000D01*
X49000Y142000D02*
Y143000D01*
X40001Y215000D02*
Y281753D01*
Y215000D02*
X65001Y190000D01*
X162001Y293252D02*
X163001Y294252D01*
X51500Y293252D02*
X162001D01*
X40001Y281753D02*
X51500Y293252D01*
D101*
X637500Y522500D02*
D03*
X592000Y112500D02*
D03*
X215000D02*
D03*
Y390000D02*
D03*
D102*
X736000Y232000D02*
D03*
D103*
X691000D02*
D03*
D104*
X768500Y189500D02*
D03*
Y274500D02*
D03*
D105*
X19000Y82000D02*
D03*
X745000Y40000D02*
D03*
Y14600D02*
D03*
X362200Y91000D02*
D03*
X337600D02*
D03*
X286800D02*
D03*
X312200D02*
D03*
X464600Y435000D02*
D03*
X388400D02*
D03*
X464600Y460400D02*
D03*
X388400D02*
D03*
X439200Y435000D02*
D03*
X413800D02*
D03*
X439200Y460400D02*
D03*
X413800D02*
D03*
X363000D02*
D03*
X286800Y511000D02*
D03*
X312200D02*
D03*
X363000D02*
D03*
X388400D02*
D03*
X439200D02*
D03*
X464600D02*
D03*
X515400D02*
D03*
X540800D02*
D03*
X591600D02*
D03*
X236000Y536400D02*
D03*
X286800D02*
D03*
X312200D02*
D03*
X363000D02*
D03*
X388400D02*
D03*
X439200D02*
D03*
X464600D02*
D03*
X515400D02*
D03*
X540800D02*
D03*
X591600D02*
D03*
X261400Y511000D02*
D03*
X337600D02*
D03*
X413800D02*
D03*
X490000D02*
D03*
X566200D02*
D03*
X261400Y536400D02*
D03*
X337600D02*
D03*
X413800D02*
D03*
X490000D02*
D03*
X566200D02*
D03*
X235800Y15000D02*
D03*
X261200D02*
D03*
X312000D02*
D03*
X337400D02*
D03*
X388200D02*
D03*
X413600D02*
D03*
X464400D02*
D03*
X489800D02*
D03*
X540600D02*
D03*
X185000Y40400D02*
D03*
X235800D02*
D03*
X261200D02*
D03*
X312000D02*
D03*
X337400D02*
D03*
X388200D02*
D03*
X413600D02*
D03*
X464400D02*
D03*
X489800D02*
D03*
X540600D02*
D03*
X210400Y15000D02*
D03*
X286600D02*
D03*
X362800D02*
D03*
X439000D02*
D03*
X515200D02*
D03*
X210400Y40400D02*
D03*
X286600D02*
D03*
X362800D02*
D03*
X439000D02*
D03*
X515200D02*
D03*
X642200D02*
D03*
X566000D02*
D03*
X642200Y15000D02*
D03*
X566000D02*
D03*
X667600Y40400D02*
D03*
X616800D02*
D03*
X591400D02*
D03*
X667600Y15000D02*
D03*
X616800D02*
D03*
X591400D02*
D03*
X211000Y460400D02*
D03*
X261800D02*
D03*
X287200D02*
D03*
X261800Y435000D02*
D03*
X287200D02*
D03*
X236400Y460400D02*
D03*
X312600D02*
D03*
X236400Y435000D02*
D03*
X312600D02*
D03*
D106*
X64000Y82000D02*
D03*
D107*
X680250Y308750D02*
D03*
Y365750D02*
D03*
X750250D02*
D03*
Y308750D02*
D03*
D108*
X685250Y337251D02*
D03*
X705250D02*
D03*
X725250D02*
D03*
X745250D02*
D03*
X80001Y208252D02*
D03*
X10001D02*
D03*
X80001Y310752D02*
D03*
X10001D02*
D03*
D109*
X834250Y14000D02*
D03*
Y171000D02*
D03*
X785000Y19500D02*
D03*
X784750Y164500D02*
D03*
D110*
X723500Y497500D02*
D03*
X803500D02*
D03*
X804000Y474999D02*
D03*
Y431001D02*
D03*
D111*
X170340Y487250D02*
D03*
X144940Y499950D02*
D03*
Y474550D02*
D03*
X170340Y461850D02*
D03*
Y436450D02*
D03*
Y411050D02*
D03*
X144940Y423750D02*
D03*
Y449150D02*
D03*
X32500Y521500D02*
D03*
X32250Y389500D02*
D03*
X32500Y496250D02*
D03*
X32250Y415000D02*
D03*
D112*
X81440Y512650D02*
D03*
Y398350D02*
D03*
D113*
X111250Y532970D02*
D03*
Y378030D02*
D03*
D114*
X363000Y435000D02*
D03*
X236000Y511000D02*
D03*
X185000Y15000D02*
D03*
X211000Y435000D02*
D03*
D115*
X815999Y292250D02*
D03*
X842999D02*
D03*
D116*
X128250Y210000D02*
D03*
X143250Y211000D02*
D03*
Y353000D02*
D03*
X331250Y260000D02*
D03*
X168250Y104000D02*
D03*
X158250D02*
D03*
X139250D02*
D03*
X148250D02*
D03*
X130250D02*
D03*
X170250Y53000D02*
D03*
X685250Y410000D02*
D03*
X692250D02*
D03*
X462250Y64000D02*
D03*
X167250Y140000D02*
D03*
X159250Y149000D02*
D03*
X150250D02*
D03*
X142250D02*
D03*
X134250D02*
D03*
X126250D02*
D03*
Y140000D02*
D03*
X111000Y323000D02*
D03*
X71000D02*
D03*
X31000D02*
D03*
X20000Y362000D02*
D03*
X61000D02*
D03*
X101000D02*
D03*
X792000Y344000D02*
D03*
X803000D02*
D03*
X822000D02*
D03*
X792000Y335000D02*
D03*
X833000Y344000D02*
D03*
X722000Y417000D02*
D03*
X716000Y410000D02*
D03*
X700000D02*
D03*
X815000Y448000D02*
D03*
X805000Y460000D02*
D03*
X719000Y192000D02*
D03*
X57000Y6000D02*
D03*
Y15000D02*
D03*
X50000Y163000D02*
D03*
X41000D02*
D03*
X32000D02*
D03*
X24000D02*
D03*
X15000D02*
D03*
X50000Y173000D02*
D03*
X41000D02*
D03*
X32000D02*
D03*
X24000D02*
D03*
X15000D02*
D03*
X14000Y44000D02*
D03*
X681500Y53000D02*
D03*
X170000Y43000D02*
D03*
Y35000D02*
D03*
Y26000D02*
D03*
X53000Y37000D02*
D03*
X95000Y95000D02*
D03*
X103000D02*
D03*
X67000Y171000D02*
D03*
X56000Y97000D02*
D03*
X22000Y44000D02*
D03*
X119251Y198752D02*
D03*
X34000Y66000D02*
D03*
Y75000D02*
D03*
X380001Y251252D02*
D03*
X377001Y202252D02*
D03*
X569499Y406250D02*
D03*
X610499Y426250D02*
D03*
X576499Y447250D02*
D03*
X600499Y440250D02*
D03*
X592499D02*
D03*
X595000Y418812D02*
D03*
X831499Y382250D02*
D03*
X837499Y253250D02*
D03*
X838499Y331250D02*
D03*
X794499Y291250D02*
D03*
X668499Y353250D02*
D03*
X401499Y82500D02*
D03*
X161250Y360000D02*
D03*
X179000Y261997D02*
D03*
X456499Y108250D02*
D03*
X734499Y173250D02*
D03*
X527500Y437500D02*
D03*
Y427500D02*
D03*
X283000Y162000D02*
D03*
X265343Y172000D02*
D03*
X253400Y170600D02*
D03*
X267000Y163497D02*
D03*
X249000Y194997D02*
D03*
X244500Y185997D02*
D03*
X226500D02*
D03*
X235500D02*
D03*
X222000Y194997D02*
D03*
X217500Y185997D02*
D03*
X213000Y194997D02*
D03*
X208500Y185997D02*
D03*
X204000Y194997D02*
D03*
X199500Y185997D02*
D03*
X195000Y194997D02*
D03*
X190500Y185997D02*
D03*
X186000Y194997D02*
D03*
X258000Y320997D02*
D03*
X253500Y311997D02*
D03*
X249324Y320967D02*
D03*
X244659Y311997D02*
D03*
X240000Y320997D02*
D03*
X236000Y312000D02*
D03*
X231000Y320997D02*
D03*
X222000D02*
D03*
X213000D02*
D03*
X226500Y311997D02*
D03*
X217500Y311997D02*
D03*
X208500Y311997D02*
D03*
X204000Y320997D02*
D03*
X199500Y311997D02*
D03*
X195000Y320997D02*
D03*
X190500Y311997D02*
D03*
X186000Y320997D02*
D03*
X231000Y195000D02*
D03*
X240000D02*
D03*
X264000Y308000D02*
D03*
X272000Y179000D02*
D03*
X280000D02*
D03*
X288000D02*
D03*
X296000D02*
D03*
X272000Y308000D02*
D03*
Y255000D02*
D03*
X280000Y308000D02*
D03*
X288000D02*
D03*
X296000D02*
D03*
X732000Y272000D02*
D03*
X716000Y209000D02*
D03*
X719000Y173000D02*
D03*
X659000Y193000D02*
D03*
Y208000D02*
D03*
X633000Y218000D02*
D03*
X658000Y180000D02*
D03*
X664000Y173000D02*
D03*
X676000D02*
D03*
X670000Y164000D02*
D03*
X682000Y159000D02*
D03*
X689000Y151000D02*
D03*
X695000Y144000D02*
D03*
X628000Y255000D02*
D03*
X706000Y282000D02*
D03*
X653000Y286000D02*
D03*
X600000Y247000D02*
D03*
X612000Y242000D02*
D03*
X614000Y234000D02*
D03*
X591000Y253000D02*
D03*
X616000Y226000D02*
D03*
X606000Y239000D02*
D03*
X617000Y218000D02*
D03*
X622000Y212000D02*
D03*
X573750Y351500D02*
D03*
X567250Y348250D02*
D03*
X602000Y351000D02*
D03*
X593000D02*
D03*
X512000Y105000D02*
D03*
X508000Y130000D02*
D03*
X489000Y105000D02*
D03*
Y122000D02*
D03*
X512000Y123000D02*
D03*
Y116000D02*
D03*
X572000Y149000D02*
D03*
X532000Y151000D02*
D03*
X527000Y156000D02*
D03*
X584000Y343000D02*
D03*
X602000D02*
D03*
X584000Y351000D02*
D03*
X825000Y35000D02*
D03*
X815000Y80000D02*
D03*
X790000Y135000D02*
D03*
Y120000D02*
D03*
Y105000D02*
D03*
Y90000D02*
D03*
X794000Y61000D02*
D03*
X42500Y95000D02*
D03*
Y85000D02*
D03*
Y75000D02*
D03*
X22500Y52500D02*
D03*
X82500D02*
D03*
Y65000D02*
D03*
X22500D02*
D03*
X80000Y277500D02*
D03*
X134000Y140000D02*
D03*
X159000D02*
D03*
X142000D02*
D03*
X150000D02*
D03*
X570000Y397500D02*
D03*
X605000Y492500D02*
D03*
X567500Y452500D02*
D03*
X582500D02*
D03*
X535000Y442500D02*
D03*
Y430000D02*
D03*
X106000Y456000D02*
D03*
X97000Y474000D02*
D03*
X551000Y376000D02*
D03*
X726000Y98000D02*
D03*
X794000Y70000D02*
D03*
X755000Y98000D02*
D03*
X754000Y127000D02*
D03*
X328000Y308000D02*
D03*
X324000Y318000D02*
D03*
X340000Y310000D02*
D03*
X331998Y317998D02*
D03*
X340000Y318000D02*
D03*
X336000Y336000D02*
D03*
X364000Y310000D02*
D03*
X356000D02*
D03*
Y318000D02*
D03*
X364000D02*
D03*
Y374000D02*
D03*
X324000Y384000D02*
D03*
X360000D02*
D03*
X352000D02*
D03*
X336000D02*
D03*
X316000Y366000D02*
D03*
X324000D02*
D03*
X344000Y384000D02*
D03*
X310984D02*
D03*
X296000D02*
D03*
X288000D02*
D03*
X280000D02*
D03*
X272000D02*
D03*
X264000D02*
D03*
X275999Y317998D02*
D03*
X267999D02*
D03*
X299998Y325998D02*
D03*
X348000Y326000D02*
D03*
X284060Y325934D02*
D03*
X332066D02*
D03*
X311492Y307138D02*
D03*
X276186Y325934D02*
D03*
X292188Y317806D02*
D03*
X356196Y325934D02*
D03*
X295744Y166168D02*
D03*
X300062Y373940D02*
D03*
X408774Y145848D02*
D03*
X308190Y244908D02*
D03*
X325970Y254814D02*
D03*
X316064Y373940D02*
D03*
X322922Y299518D02*
D03*
X325970Y178868D02*
D03*
X402424Y148388D02*
D03*
X359244Y153468D02*
D03*
X308000Y318000D02*
D03*
X300000Y335000D02*
D03*
X332000Y374000D02*
D03*
X347000Y285000D02*
D03*
X348068Y301932D02*
D03*
X284000Y245000D02*
D03*
X324000Y237000D02*
D03*
X332000Y245000D02*
D03*
X336000Y255000D02*
D03*
X348000Y245000D02*
D03*
X356000D02*
D03*
X352000Y255000D02*
D03*
X360000D02*
D03*
X308000Y237000D02*
D03*
X344000Y255000D02*
D03*
X292000Y260000D02*
D03*
X332000Y197000D02*
D03*
Y189000D02*
D03*
X336000Y179000D02*
D03*
X340000Y189000D02*
D03*
X292000Y245000D02*
D03*
X311999Y178869D02*
D03*
X264000Y255000D02*
D03*
Y179000D02*
D03*
X279981Y172016D02*
D03*
X288000Y170356D02*
D03*
X300000Y173000D02*
D03*
X308000Y197000D02*
D03*
X344000Y179000D02*
D03*
X348000Y189000D02*
D03*
X364000D02*
D03*
X348000Y197000D02*
D03*
X356000Y189000D02*
D03*
X305000Y264607D02*
D03*
X300083Y197000D02*
D03*
X302000Y207000D02*
D03*
X308000Y218000D02*
D03*
X287000Y291000D02*
D03*
X537500Y422500D02*
D03*
Y412500D02*
D03*
X527500Y417500D02*
D03*
X537500Y392500D02*
D03*
X562500Y402500D02*
D03*
X617501Y452331D02*
D03*
X602499Y452499D02*
D03*
X607500Y442500D02*
D03*
X612498Y447498D02*
D03*
X560000Y412014D02*
D03*
X622500Y392500D02*
D03*
X642500Y432500D02*
D03*
X617500Y387500D02*
D03*
X612500Y367500D02*
D03*
X597500Y387500D02*
D03*
X642500Y447500D02*
D03*
Y422500D02*
D03*
X582500Y387500D02*
D03*
X575000Y392500D02*
D03*
X567500Y387500D02*
D03*
X607500Y417500D02*
D03*
X599750Y153250D02*
D03*
X685000Y455000D02*
D03*
Y432500D02*
D03*
X777500Y430000D02*
D03*
X787500D02*
D03*
X707500Y410000D02*
D03*
Y417500D02*
D03*
Y425000D02*
D03*
X442500Y80000D02*
D03*
Y72500D02*
D03*
X465000Y87500D02*
D03*
X442500D02*
D03*
X470000Y82500D02*
D03*
X264000Y263000D02*
D03*
X640000Y337500D02*
D03*
Y362500D02*
D03*
Y355000D02*
D03*
X629998Y362498D02*
D03*
X635000Y310000D02*
D03*
Y320000D02*
D03*
Y330000D02*
D03*
X642500Y407500D02*
D03*
X652500Y392500D02*
D03*
Y407500D02*
D03*
X613250Y353000D02*
D03*
X572000Y178000D02*
D03*
Y161000D02*
D03*
Y169000D02*
D03*
X532000Y172000D02*
D03*
X527000Y167000D02*
D03*
X532000Y162000D02*
D03*
X595000Y219000D02*
D03*
X564000Y242000D02*
D03*
X583000Y262000D02*
D03*
X596000D02*
D03*
X454000Y368000D02*
D03*
X713000Y456000D02*
D03*
X784000Y372000D02*
D03*
X720000Y461000D02*
D03*
X795000Y437000D02*
D03*
X557500Y475000D02*
D03*
X750000Y454000D02*
D03*
X533000Y483000D02*
D03*
X580000Y481000D02*
D03*
X705000Y460000D02*
D03*
X715000Y487000D02*
D03*
X692000Y479000D02*
D03*
X677998Y478998D02*
D03*
X721000Y474000D02*
D03*
X706000Y508000D02*
D03*
X558000Y436000D02*
D03*
X557000Y463000D02*
D03*
X618000Y480000D02*
D03*
Y489000D02*
D03*
X769000Y518000D02*
D03*
X798000Y522000D02*
D03*
X264000Y291000D02*
D03*
Y272000D02*
D03*
Y282000D02*
D03*
X165500Y343497D02*
D03*
X173250Y360000D02*
D03*
X181000Y250997D02*
D03*
X181250Y240000D02*
D03*
X322000Y154997D02*
D03*
X517499Y382250D02*
D03*
X452499Y359250D02*
D03*
X501999Y82750D02*
D03*
X556499Y80250D02*
D03*
X653499Y188250D02*
D03*
X647499Y199250D02*
D03*
X644499Y191250D02*
D03*
X638499Y198250D02*
D03*
X633499Y204250D02*
D03*
X629499Y227250D02*
D03*
X611499Y143250D02*
D03*
X537499Y350250D02*
D03*
X729499Y457250D02*
D03*
X813499Y344250D02*
D03*
X840499Y361250D02*
D03*
X678499Y383250D02*
D03*
X707500Y374124D02*
D03*
X147499Y385250D02*
D03*
X468499Y122250D02*
D03*
X302499Y342250D02*
D03*
X356000Y374000D02*
D03*
X324001Y189252D02*
D03*
Y170252D02*
D03*
X319874Y206554D02*
D03*
Y335078D02*
D03*
X317001Y170252D02*
D03*
X313524Y206554D02*
D03*
Y335078D02*
D03*
X85001Y283252D02*
D03*
X125001Y278252D02*
D03*
X71001Y250252D02*
D03*
X113001Y252252D02*
D03*
X789000Y49499D02*
D03*
X804000Y80000D02*
D03*
X803000Y105000D02*
D03*
X755749Y79499D02*
D03*
X769000Y30000D02*
D03*
X757000Y60000D02*
D03*
X732000Y63000D02*
D03*
X705000Y57000D02*
D03*
X594000Y493000D02*
D03*
X195000Y516000D02*
D03*
X487000Y399000D02*
D03*
Y406000D02*
D03*
X530000Y452500D02*
D03*
Y460000D02*
D03*
X493000Y487000D02*
D03*
X525000Y470000D02*
D03*
X517500D02*
D03*
X472000Y416000D02*
D03*
X676000Y67000D02*
D03*
X384250Y28000D02*
D03*
X764250Y404000D02*
D03*
X123250Y328500D02*
D03*
X173250Y321000D02*
D03*
X163250D02*
D03*
Y302000D02*
D03*
X622250Y363000D02*
D03*
X634502Y382498D02*
D03*
X452250Y379000D02*
D03*
X425250Y412000D02*
D03*
X137250Y360000D02*
D03*
X142250Y365000D02*
D03*
X207250Y477000D02*
D03*
X221250D02*
D03*
X423250Y374750D02*
D03*
X471250Y399000D02*
D03*
X263000Y90000D02*
D03*
X268000Y97000D02*
D03*
X261000Y81000D02*
D03*
X325000Y53400D02*
D03*
X313000Y66000D02*
D03*
X343000Y72000D02*
D03*
X502000D02*
D03*
X510000Y65000D02*
D03*
X545999Y83000D02*
D03*
X345274Y227128D02*
D03*
X338924Y227252D02*
D03*
D117*
X63000Y210000D02*
D03*
X55001Y218252D02*
D03*
X96000Y212000D02*
D03*
X421000Y261000D02*
D03*
X414499Y263250D02*
D03*
X388501Y300138D02*
D03*
X382751Y303252D02*
D03*
X403001Y258252D02*
D03*
X541250Y260500D02*
D03*
X534750D02*
D03*
X625999Y303997D02*
D03*
X534750Y267000D02*
D03*
X517998Y185999D02*
D03*
X515250Y234500D02*
D03*
Y241000D02*
D03*
X450250Y332000D02*
D03*
X456750Y286500D02*
D03*
Y280000D02*
D03*
X443750Y286500D02*
D03*
X456750Y273500D02*
D03*
X443750Y312500D02*
D03*
Y306000D02*
D03*
X456824Y299574D02*
D03*
X456750Y312500D02*
D03*
X382500Y357500D02*
D03*
X402500Y315000D02*
D03*
X495750Y267000D02*
D03*
X489250D02*
D03*
X482750D02*
D03*
X476250D02*
D03*
X502250D02*
D03*
X489250Y260500D02*
D03*
X482750D02*
D03*
X476250D02*
D03*
X469750D02*
D03*
X502250D02*
D03*
X495750Y273500D02*
D03*
X489250D02*
D03*
X482750D02*
D03*
X476250D02*
D03*
X469750D02*
D03*
X502250D02*
D03*
X495750Y280000D02*
D03*
X489250D02*
D03*
X482750D02*
D03*
X476250D02*
D03*
X469750D02*
D03*
X502250D02*
D03*
X476250Y286500D02*
D03*
X482750D02*
D03*
X489250D02*
D03*
X495750D02*
D03*
X502250D02*
D03*
X508750Y293000D02*
D03*
X502250D02*
D03*
X469750D02*
D03*
X476250D02*
D03*
X482750D02*
D03*
X489250D02*
D03*
X495750D02*
D03*
X570500Y185750D02*
D03*
X534750Y273500D02*
D03*
X521750Y325500D02*
D03*
X515250Y325500D02*
D03*
X495750Y325500D02*
D03*
X482750D02*
D03*
X476250D02*
D03*
X469750D02*
D03*
X463250D02*
D03*
X443750Y299500D02*
D03*
X468464Y197918D02*
D03*
X463250Y234500D02*
D03*
X473544Y202998D02*
D03*
X457034Y194108D02*
D03*
X479894Y210618D02*
D03*
X437984Y195378D02*
D03*
X445604D02*
D03*
X437856Y190298D02*
D03*
X386494Y374506D02*
D03*
X391000Y368000D02*
D03*
X508750Y325500D02*
D03*
X502250D02*
D03*
X489250D02*
D03*
X508749Y338500D02*
D03*
X534750Y286500D02*
D03*
Y293000D02*
D03*
X450250D02*
D03*
X469750Y247500D02*
D03*
X495750D02*
D03*
X502250Y241000D02*
D03*
X521752Y267000D02*
D03*
X528250D02*
D03*
X521750Y280000D02*
D03*
Y312500D02*
D03*
X515250D02*
D03*
X508750D02*
D03*
X495750D02*
D03*
X469750D02*
D03*
X482750D02*
D03*
X463250D02*
D03*
X534750Y280000D02*
D03*
X521750Y299500D02*
D03*
X534750D02*
D03*
X541250Y312500D02*
D03*
Y247500D02*
D03*
X565000Y215000D02*
D03*
X554250Y228000D02*
D03*
X575000Y215000D02*
D03*
X570000Y220000D02*
D03*
X541250Y241000D02*
D03*
X534750Y234500D02*
D03*
X495750Y260500D02*
D03*
X521750D02*
D03*
X495750Y241000D02*
D03*
X489250Y234500D02*
D03*
X495750D02*
D03*
X528250Y260500D02*
D03*
X521750Y241000D02*
D03*
X508750Y260500D02*
D03*
X537000Y177000D02*
D03*
X545000Y181000D02*
D03*
X537000Y184000D02*
D03*
X543000Y195000D02*
D03*
X547000Y190000D02*
D03*
X541440Y206440D02*
D03*
X505000Y167000D02*
D03*
X513000Y194000D02*
D03*
X519000Y198000D02*
D03*
X521000Y205000D02*
D03*
X521750Y286500D02*
D03*
X433499Y187250D02*
D03*
X495499Y211750D02*
D03*
X498499Y197250D02*
D03*
X450250Y241000D02*
D03*
X443952Y266947D02*
D03*
X456750Y247500D02*
D03*
X443750Y254000D02*
D03*
X408499Y219250D02*
D03*
X437250Y273500D02*
D03*
X456750Y260500D02*
D03*
X443750Y241000D02*
D03*
X437250Y267000D02*
D03*
X443750Y260500D02*
D03*
X464499Y191250D02*
D03*
X504499Y174250D02*
D03*
X503499Y185250D02*
D03*
X499499Y190250D02*
D03*
X488499Y178250D02*
D03*
Y166250D02*
D03*
X528250Y332000D02*
D03*
X521750Y354750D02*
D03*
X544249Y355000D02*
D03*
X515249Y332000D02*
D03*
X414499Y229250D02*
D03*
X413950Y234800D02*
D03*
X409499Y225250D02*
D03*
X396000Y363000D02*
D03*
X407000Y361000D02*
D03*
X417000Y349000D02*
D03*
X400000Y368000D02*
D03*
X407000D02*
D03*
X444000Y319044D02*
D03*
X560750Y221500D02*
D03*
X541250Y228000D02*
D03*
X547750Y234500D02*
D03*
X528250Y221500D02*
D03*
X521549D02*
D03*
X515250D02*
D03*
Y228000D02*
D03*
X521750D02*
D03*
X534750Y241000D02*
D03*
X450250Y254000D02*
D03*
X380001Y243252D02*
D03*
Y237252D02*
D03*
D118*
X437250Y299500D02*
D03*
X456750Y234500D02*
D03*
X482749Y234500D02*
D03*
X469750Y332000D02*
D03*
X437252Y247501D02*
D03*
X443750Y234500D02*
D03*
X437249Y234500D02*
D03*
X450249D02*
D03*
X476249D02*
D03*
X437250Y319000D02*
D03*
X521750Y234500D02*
D03*
D119*
X469749Y234500D02*
D03*
D120*
X151250Y345000D02*
D03*
Y321000D02*
D03*
Y303000D02*
D03*
D123*
X60000Y128000D02*
D03*
Y110000D02*
D03*
D124*
X583500Y166250D02*
D03*
X558500D02*
D03*
X583500Y184750D02*
D03*
X558500D02*
D03*
D125*
X709000Y191500D02*
D03*
Y172500D02*
D03*
X689000Y182000D02*
D03*
X823000Y125000D02*
D03*
X803000Y134500D02*
D03*
Y115500D02*
D03*
X779000Y129000D02*
D03*
X759000Y138500D02*
D03*
Y119500D02*
D03*
X779000Y63000D02*
D03*
X759000Y72500D02*
D03*
Y53500D02*
D03*
X779000Y97500D02*
D03*
X759000Y107000D02*
D03*
Y88000D02*
D03*
X742000Y63000D02*
D03*
X722000Y72500D02*
D03*
Y53500D02*
D03*
X796000Y232000D02*
D03*
X816000Y222500D02*
D03*
Y241500D02*
D03*
D126*
X91000Y55000D02*
D03*
X109000D02*
D03*
X129000D02*
D03*
X147000D02*
D03*
X129000Y34000D02*
D03*
X147000D02*
D03*
X109000Y13000D02*
D03*
X91000D02*
D03*
X109000Y34000D02*
D03*
X91000D02*
D03*
X94000Y227500D02*
D03*
X76000D02*
D03*
X118000Y227000D02*
D03*
X136000D02*
D03*
D127*
X33000Y102000D02*
D03*
Y142000D02*
D03*
D128*
X90950Y128000D02*
D03*
X103650D02*
D03*
X116350D02*
D03*
X129050D02*
D03*
X90950Y80000D02*
D03*
X103650D02*
D03*
X116350D02*
D03*
X129050D02*
D03*
D129*
X776940Y453000D02*
D03*
Y461001D02*
D03*
Y437001D02*
D03*
Y444999D02*
D03*
Y468999D02*
D03*
D130*
X834000Y494000D02*
D03*
X782000D02*
D03*
X834000Y412000D02*
D03*
X782000D02*
D03*
D131*
X20500Y353000D02*
D03*
X39500D02*
D03*
X30000Y333000D02*
D03*
X101000Y353000D02*
D03*
X120000D02*
D03*
X110500Y333000D02*
D03*
X61500Y353000D02*
D03*
X80500D02*
D03*
X71000Y333000D02*
D03*
X717500Y123000D02*
D03*
X698500D02*
D03*
X708000Y143000D02*
D03*
X424750Y402000D02*
D03*
X443750D02*
D03*
X434250Y382000D02*
D03*
D132*
X837999Y318500D02*
D03*
Y266000D02*
D03*
X820999Y318500D02*
D03*
Y266000D02*
D03*
D133*
X717000Y365501D02*
Y396500D01*
Y365501D02*
X723627Y358874D01*
D134*
X122000Y456000D02*
Y509000D01*
Y456000D02*
X128850Y449150D01*
X144940D01*
X122000Y509000D02*
X136000Y523000D01*
X626800Y460250D02*
Y493200D01*
X136000Y523000D02*
X597000D01*
X626800Y493200D01*
D135*
X580250Y360000D02*
Y364750D01*
Y360000D02*
X583000Y357250D01*
X607766D01*
X620100Y369585D01*
Y374850D01*
X627748Y382498D01*
X634502D01*
D136*
X123750Y320000D02*
D03*
D137*
X163250Y130000D02*
D03*
D138*
X194750Y67500D02*
D03*
D139*
X168750Y83500D02*
D03*
D140*
X827250Y334500D02*
D03*
D141*
X813750Y340500D02*
D03*
D142*
X796750Y340000D02*
D03*
D143*
X702250Y365500D02*
D03*
D144*
X698750Y383000D02*
D03*
D145*
X209750Y48500D02*
D03*
D146*
X695625Y410000D02*
D03*
D147*
X140125Y324500D02*
D03*
D148*
X66000Y11000D02*
D03*
D149*
X36000Y163000D02*
D03*
D150*
X184500Y28000D02*
D03*
D151*
X168000Y36500D02*
D03*
D152*
X77000Y122000D02*
D03*
D153*
X98500Y108000D02*
D03*
D154*
X100000Y95000D02*
D03*
D155*
X103000Y82000D02*
D03*
D156*
X139500Y88500D02*
D03*
D157*
X38500Y69500D02*
D03*
D158*
X41500Y84000D02*
D03*
D159*
X89000Y35500D02*
D03*
D160*
X44500Y102500D02*
D03*
D161*
X154000Y66500D02*
D03*
D162*
X189500Y29000D02*
D03*
D163*
X150000Y12000D02*
D03*
D164*
X118500Y33500D02*
D03*
D165*
X142750Y134500D02*
D03*
D166*
X47000Y138500D02*
D03*
D167*
X117000Y56500D02*
D03*
D168*
X658749Y218000D02*
D03*
D169*
X570500Y346625D02*
D03*
D170*
X573750Y348250D02*
D03*
D171*
X453500Y339125D02*
D03*
D172*
X166250Y311125D02*
D03*
D173*
X22500Y45500D02*
D03*
D174*
X781001Y433750D02*
D03*
D175*
X237250Y37000D02*
D03*
D176*
X727125Y418000D02*
D03*
D177*
X473750Y83750D02*
D03*
D178*
X466250Y86250D02*
D03*
D179*
X631250Y321250D02*
D03*
D180*
X585999Y303500D02*
D03*
D181*
X497999Y230250D02*
D03*
D182*
X487750Y113500D02*
D03*
D183*
X495750Y79000D02*
D03*
D184*
X492750Y71000D02*
D03*
D185*
X437250Y306000D02*
D03*
X463250Y332000D02*
D03*
X476250D02*
D03*
X489250D02*
D03*
X502250D02*
D03*
X541249Y273500D02*
D03*
X541250Y286500D02*
D03*
X534750Y247500D02*
D03*
X437250Y254000D02*
D03*
X476250Y241000D02*
D03*
X482750D02*
D03*
X547749Y267000D02*
D03*
X437250Y312500D02*
D03*
D186*
X482750Y332000D02*
D03*
X495750D02*
D03*
X541250Y280000D02*
D03*
Y293000D02*
D03*
X528250Y247500D02*
D03*
Y241000D02*
D03*
X437250Y260500D02*
D03*
D187*
X443952Y273297D02*
D03*
X443750Y280000D02*
D03*
X437250Y325600D02*
D03*
M02*
