G04 Layer_Color=65535*
%FSLAX44Y44*%
%MOMM*%
G71*
G01*
G75*
%ADD10C,0.1000*%
%ADD41C,0.1500*%
%ADD42C,0.1200*%
%ADD43C,0.2000*%
%ADD47C,0.5000*%
%ADD49C,0.2032*%
%ADD135C,0.1300*%
%ADD188C,0.2540*%
%ADD189C,0.9000*%
%ADD190C,1.2000*%
%ADD191C,1.1000*%
%ADD192C,0.2500*%
%ADD193C,0.0800*%
%ADD194C,0.0900*%
G36*
X649434Y150365D02*
X649719Y150336D01*
X650033Y150308D01*
X650404Y150251D01*
X650804Y150194D01*
X651661Y149994D01*
X652117Y149880D01*
X652574Y149708D01*
X653031Y149508D01*
X653459Y149309D01*
X653859Y149052D01*
X654258Y148766D01*
X654287Y148737D01*
X654344Y148680D01*
X654430Y148595D01*
X654573Y148481D01*
X654715Y148309D01*
X654887Y148109D01*
X655058Y147910D01*
X655258Y147653D01*
X655429Y147367D01*
X655629Y147053D01*
X655943Y146339D01*
X656086Y145968D01*
X656171Y145540D01*
X656228Y145112D01*
X656257Y144655D01*
Y144598D01*
Y144484D01*
Y144284D01*
X656228Y144055D01*
X656200Y143770D01*
X656171Y143484D01*
X656029Y142856D01*
Y142828D01*
X655972Y142713D01*
X655943Y142571D01*
X655857Y142371D01*
X655743Y142142D01*
X655629Y141857D01*
X655315Y141286D01*
X660996D01*
Y139002D01*
X642439D01*
Y141286D01*
X643866D01*
X643838Y141315D01*
X643752Y141429D01*
X643609Y141600D01*
X643438Y141828D01*
X643238Y142114D01*
X643010Y142428D01*
X642810Y142771D01*
X642610Y143142D01*
X642582Y143199D01*
X642525Y143313D01*
X642439Y143541D01*
X642325Y143827D01*
X642239Y144170D01*
X642153Y144541D01*
X642096Y144969D01*
X642068Y145426D01*
Y145454D01*
Y145540D01*
Y145654D01*
X642096Y145825D01*
X642125Y145997D01*
X642153Y146225D01*
X642296Y146768D01*
X642525Y147339D01*
X642667Y147653D01*
X642839Y147967D01*
X643067Y148252D01*
X643324Y148538D01*
X643609Y148823D01*
X643923Y149080D01*
X643952Y149109D01*
X644009Y149137D01*
X644123Y149194D01*
X644266Y149280D01*
X644437Y149394D01*
X644666Y149508D01*
X644923Y149622D01*
X645237Y149737D01*
X645579Y149851D01*
X645950Y149965D01*
X646350Y150079D01*
X646778Y150194D01*
X647264Y150279D01*
X647778Y150336D01*
X648292Y150393D01*
X649177D01*
X649434Y150365D01*
D02*
G37*
G36*
X656000Y160985D02*
X654515D01*
X654544Y160928D01*
X654658Y160814D01*
X654829Y160614D01*
X655029Y160329D01*
X655258Y160015D01*
X655486Y159672D01*
X655714Y159329D01*
X655914Y158958D01*
X655943Y158930D01*
X655972Y158787D01*
X656057Y158587D01*
X656143Y158359D01*
X656228Y158045D01*
X656285Y157674D01*
X656343Y157302D01*
X656371Y156874D01*
Y156846D01*
Y156731D01*
X656343Y156560D01*
Y156332D01*
X656314Y156075D01*
X656257Y155789D01*
X656086Y155190D01*
X656057Y155161D01*
X656029Y155047D01*
X655972Y154904D01*
X655857Y154733D01*
X655743Y154504D01*
X655572Y154276D01*
X655400Y154048D01*
X655172Y153819D01*
X655144Y153791D01*
X655058Y153734D01*
X654915Y153619D01*
X654744Y153505D01*
X654515Y153363D01*
X654230Y153220D01*
X653944Y153077D01*
X653602Y152934D01*
X653545D01*
X653430Y152877D01*
X653231Y152849D01*
X652945Y152792D01*
X652603Y152734D01*
X652203Y152677D01*
X651746Y152649D01*
X651261Y152620D01*
X642439D01*
Y154904D01*
X650804D01*
X651089Y154933D01*
X651689D01*
X651974Y154961D01*
X652003D01*
X652089Y154990D01*
X652232Y155018D01*
X652374Y155047D01*
X652774Y155161D01*
X653202Y155332D01*
X653231D01*
X653288Y155390D01*
X653373Y155447D01*
X653488Y155532D01*
X653745Y155761D01*
X653973Y156075D01*
Y156103D01*
X654001Y156160D01*
X654030Y156275D01*
X654087Y156417D01*
X654116Y156617D01*
X654173Y156846D01*
X654201Y157131D01*
Y157445D01*
Y157474D01*
Y157588D01*
X654173Y157759D01*
X654144Y157988D01*
X654087Y158273D01*
X654001Y158559D01*
X653887Y158901D01*
X653745Y159244D01*
X653716Y159301D01*
X653659Y159415D01*
X653545Y159586D01*
X653402Y159815D01*
X653231Y160072D01*
X653031Y160386D01*
X652574Y160985D01*
X642439D01*
Y163269D01*
X656000D01*
Y160985D01*
D02*
G37*
G36*
X659940Y129581D02*
Y127554D01*
X637129Y134577D01*
Y136661D01*
X659940Y129581D01*
D02*
G37*
G36*
X656000Y112479D02*
X652545D01*
Y115392D01*
X656000D01*
Y112479D01*
D02*
G37*
G36*
X659940Y120074D02*
Y118047D01*
X637129Y125070D01*
Y127154D01*
X659940Y120074D01*
D02*
G37*
G36*
X655886Y216115D02*
X655914Y216029D01*
X655943Y215915D01*
X655972Y215743D01*
X656000Y215544D01*
X656057Y215315D01*
X656143Y214830D01*
Y214801D01*
X656171Y214716D01*
Y214601D01*
X656200Y214430D01*
X656228Y214030D01*
X656257Y213602D01*
Y213574D01*
Y213517D01*
Y213431D01*
X656228Y213288D01*
X656200Y212974D01*
X656114Y212546D01*
X656000Y212089D01*
X655800Y211604D01*
X655543Y211118D01*
X655201Y210690D01*
X655144Y210633D01*
X655001Y210519D01*
X654744Y210376D01*
X654373Y210176D01*
X653916Y209976D01*
X653345Y209834D01*
X652660Y209719D01*
X652260Y209662D01*
X644352D01*
Y208121D01*
X642439D01*
Y209662D01*
X638556D01*
Y211946D01*
X642439D01*
Y216143D01*
X644352D01*
Y211946D01*
X651917D01*
X652174Y211975D01*
X652488D01*
X652603Y212003D01*
X652745Y212032D01*
X653059Y212118D01*
X653430Y212260D01*
X653459D01*
X653488Y212289D01*
X653659Y212432D01*
X653887Y212631D01*
X654059Y212917D01*
Y212945D01*
X654087Y213003D01*
X654116Y213117D01*
X654144Y213260D01*
X654201Y213431D01*
X654230Y213631D01*
X654258Y213888D01*
Y214173D01*
Y214202D01*
Y214259D01*
Y214373D01*
X654230Y214516D01*
X654201Y214858D01*
X654116Y215229D01*
Y215258D01*
X654087Y215315D01*
X654059Y215401D01*
X654001Y215544D01*
X653916Y215772D01*
X653887Y215915D01*
X653830Y216000D01*
Y216143D01*
X655886D01*
Y216115D01*
D02*
G37*
G36*
X649462Y219169D02*
X649690D01*
X649862Y219198D01*
X650062D01*
X650290Y219226D01*
X650804Y219312D01*
X651375Y219455D01*
X652003Y219655D01*
X652574Y219940D01*
X653088Y220340D01*
Y220368D01*
X653145Y220397D01*
X653288Y220568D01*
X653488Y220825D01*
X653688Y221196D01*
X653916Y221682D01*
X654116Y222253D01*
X654258Y222909D01*
X654287Y223281D01*
X654316Y223652D01*
Y223680D01*
Y223766D01*
Y223937D01*
X654287Y224108D01*
Y224337D01*
X654258Y224594D01*
X654173Y225108D01*
Y225136D01*
X654144Y225222D01*
X654116Y225365D01*
X654059Y225564D01*
X653916Y225964D01*
X653716Y226421D01*
Y226450D01*
X653659Y226535D01*
X653630Y226649D01*
X653545Y226792D01*
X653402Y227135D01*
X653202Y227477D01*
Y227506D01*
X653145Y227563D01*
X653031Y227734D01*
X652888Y227963D01*
X652688Y228191D01*
Y228334D01*
X655201D01*
Y228305D01*
X655229Y228248D01*
X655258Y228162D01*
X655315Y228048D01*
X655429Y227734D01*
X655600Y227306D01*
Y227277D01*
X655629Y227220D01*
X655686Y227106D01*
X655714Y226963D01*
X655829Y226621D01*
X655943Y226250D01*
Y226221D01*
X655972Y226136D01*
X656000Y226021D01*
X656029Y225850D01*
X656114Y225479D01*
X656200Y225051D01*
Y225022D01*
X656228Y224965D01*
Y224822D01*
X656257Y224679D01*
X656285Y224480D01*
Y224251D01*
X656314Y223966D01*
Y223680D01*
Y223652D01*
Y223537D01*
Y223366D01*
X656285Y223138D01*
X656257Y222881D01*
X656228Y222567D01*
X656171Y222196D01*
X656086Y221824D01*
X655886Y221025D01*
X655714Y220597D01*
X655543Y220169D01*
X655343Y219769D01*
X655115Y219369D01*
X654829Y218969D01*
X654515Y218627D01*
X654487Y218598D01*
X654430Y218541D01*
X654316Y218456D01*
X654173Y218341D01*
X654001Y218227D01*
X653745Y218056D01*
X653488Y217913D01*
X653174Y217742D01*
X652831Y217571D01*
X652431Y217428D01*
X652003Y217257D01*
X651546Y217142D01*
X651061Y217028D01*
X650518Y216943D01*
X649919Y216885D01*
X649319Y216857D01*
X649005D01*
X648777Y216885D01*
X648492Y216914D01*
X648177Y216943D01*
X647806Y217000D01*
X647407Y217085D01*
X646579Y217285D01*
X646122Y217428D01*
X645694Y217571D01*
X645265Y217770D01*
X644837Y217999D01*
X644409Y218256D01*
X644038Y218570D01*
X644009Y218598D01*
X643952Y218655D01*
X643866Y218741D01*
X643724Y218884D01*
X643581Y219055D01*
X643410Y219284D01*
X643238Y219512D01*
X643038Y219797D01*
X642867Y220112D01*
X642696Y220454D01*
X642525Y220825D01*
X642382Y221225D01*
X642239Y221682D01*
X642153Y222139D01*
X642096Y222624D01*
X642068Y223138D01*
Y223166D01*
Y223195D01*
Y223338D01*
X642096Y223594D01*
X642125Y223880D01*
X642153Y224223D01*
X642211Y224622D01*
X642325Y224993D01*
X642439Y225365D01*
X642467Y225422D01*
X642496Y225536D01*
X642610Y225707D01*
X642724Y225936D01*
X642867Y226221D01*
X643067Y226507D01*
X643295Y226792D01*
X643581Y227078D01*
X643609Y227106D01*
X643724Y227192D01*
X643895Y227334D01*
X644095Y227477D01*
X644380Y227677D01*
X644723Y227848D01*
X645094Y228020D01*
X645494Y228191D01*
X645551Y228220D01*
X645694Y228248D01*
X645922Y228305D01*
X646265Y228391D01*
X646664Y228477D01*
X647121Y228534D01*
X647635Y228562D01*
X648234Y228591D01*
X649462D01*
Y219169D01*
D02*
G37*
G36*
X649177Y199927D02*
X647007D01*
Y206779D01*
X649177D01*
Y199927D01*
D02*
G37*
G36*
X656000Y181941D02*
X647606D01*
X647349Y181912D01*
X647035D01*
X646436Y181855D01*
X646407D01*
X646293Y181826D01*
X646150D01*
X645979Y181798D01*
X645579Y181684D01*
X645380Y181627D01*
X645208Y181541D01*
X645180D01*
X645123Y181512D01*
X644923Y181370D01*
X644694Y181170D01*
X644494Y180856D01*
Y180827D01*
X644466Y180770D01*
X644409Y180685D01*
X644352Y180542D01*
X644323Y180371D01*
X644266Y180171D01*
X644238Y179942D01*
Y179657D01*
Y179628D01*
Y179543D01*
X644266Y179400D01*
X644295Y179200D01*
X644352Y178972D01*
X644437Y178715D01*
X644552Y178429D01*
X644694Y178144D01*
X644723Y178115D01*
X644780Y178001D01*
X644866Y177858D01*
X645008Y177630D01*
X645180Y177401D01*
X645380Y177116D01*
X645637Y176802D01*
X645922Y176488D01*
X646208D01*
X646407Y176516D01*
X646464D01*
X646607Y176545D01*
X656000D01*
Y174261D01*
X647606D01*
X647349Y174232D01*
X647035D01*
X646436Y174175D01*
X646407D01*
X646293Y174147D01*
X646150D01*
X645979Y174118D01*
X645579Y174004D01*
X645380Y173947D01*
X645208Y173861D01*
X645180D01*
X645123Y173833D01*
X644923Y173690D01*
X644694Y173490D01*
X644494Y173176D01*
Y173147D01*
X644466Y173090D01*
X644409Y173005D01*
X644352Y172862D01*
X644323Y172691D01*
X644266Y172491D01*
X644238Y172262D01*
Y171977D01*
Y171948D01*
Y171863D01*
X644266Y171691D01*
X644295Y171492D01*
X644352Y171263D01*
X644437Y171006D01*
X644552Y170721D01*
X644723Y170407D01*
X644752Y170378D01*
X644809Y170264D01*
X644894Y170121D01*
X645037Y169921D01*
X645208Y169693D01*
X645408Y169407D01*
X645637Y169151D01*
X645893Y168865D01*
X656000D01*
Y166581D01*
X642439D01*
Y168865D01*
X643952D01*
X643923Y168894D01*
X643809Y169008D01*
X643638Y169179D01*
X643438Y169407D01*
X643238Y169693D01*
X643010Y169978D01*
X642782Y170292D01*
X642582Y170606D01*
X642553Y170635D01*
X642496Y170749D01*
X642410Y170949D01*
X642325Y171178D01*
X642239Y171463D01*
X642153Y171806D01*
X642096Y172148D01*
X642068Y172548D01*
Y172605D01*
Y172748D01*
X642096Y172976D01*
X642125Y173262D01*
X642211Y173604D01*
X642296Y173947D01*
X642439Y174318D01*
X642639Y174660D01*
X642667Y174689D01*
X642753Y174803D01*
X642867Y174975D01*
X643067Y175203D01*
X643295Y175431D01*
X643609Y175660D01*
X643981Y175888D01*
X644409Y176088D01*
X644352Y176145D01*
X644209Y176259D01*
X644009Y176459D01*
X643752Y176716D01*
X643467Y177030D01*
X643181Y177373D01*
X642924Y177715D01*
X642667Y178086D01*
X642639Y178144D01*
X642582Y178258D01*
X642467Y178458D01*
X642353Y178743D01*
X642268Y179057D01*
X642153Y179400D01*
X642096Y179799D01*
X642068Y180228D01*
Y180256D01*
Y180371D01*
Y180542D01*
X642096Y180770D01*
X642125Y180998D01*
X642182Y181284D01*
X642353Y181826D01*
Y181855D01*
X642410Y181941D01*
X642467Y182083D01*
X642582Y182255D01*
X642696Y182455D01*
X642839Y182654D01*
X643038Y182883D01*
X643238Y183083D01*
X643267Y183111D01*
X643353Y183168D01*
X643495Y183283D01*
X643667Y183397D01*
X643895Y183511D01*
X644152Y183654D01*
X644437Y183796D01*
X644780Y183911D01*
X644809Y183939D01*
X644951Y183968D01*
X645151Y184025D01*
X645408Y184082D01*
X645751Y184139D01*
X646150Y184168D01*
X646579Y184225D01*
X656000D01*
Y181941D01*
D02*
G37*
G36*
Y195016D02*
X654573D01*
X654601Y194959D01*
X654715Y194817D01*
X654887Y194560D01*
X655144Y194246D01*
X655172Y194217D01*
X655201Y194160D01*
X655286Y194074D01*
X655343Y193960D01*
X655543Y193675D01*
X655743Y193361D01*
Y193332D01*
X655800Y193246D01*
X655829Y193132D01*
X655914Y192989D01*
X656057Y192590D01*
X656200Y192161D01*
Y192133D01*
X656228Y192076D01*
X656257Y191933D01*
X656285Y191762D01*
X656314Y191533D01*
X656343Y191276D01*
X656371Y190962D01*
Y190591D01*
Y190563D01*
Y190448D01*
X656343Y190277D01*
Y190077D01*
X656285Y189849D01*
X656228Y189563D01*
X656171Y189278D01*
X656057Y188992D01*
X656029Y188964D01*
X656000Y188878D01*
X655914Y188736D01*
X655829Y188564D01*
X655543Y188136D01*
X655172Y187679D01*
X655144Y187651D01*
X655086Y187593D01*
X654944Y187479D01*
X654801Y187365D01*
X654601Y187222D01*
X654373Y187080D01*
X654116Y186937D01*
X653830Y186794D01*
X653802D01*
X653688Y186737D01*
X653516Y186709D01*
X653288Y186651D01*
X653031Y186594D01*
X652745Y186537D01*
X652431Y186509D01*
X652089Y186480D01*
X651860D01*
X651603Y186509D01*
X651261Y186566D01*
X650890Y186623D01*
X650490Y186709D01*
X650090Y186851D01*
X649690Y187051D01*
X649633Y187080D01*
X649519Y187165D01*
X649348Y187308D01*
X649120Y187508D01*
X648863Y187765D01*
X648606Y188107D01*
X648349Y188479D01*
X648120Y188935D01*
X648092Y188992D01*
X648035Y189135D01*
X647949Y189392D01*
X647835Y189706D01*
X647721Y190106D01*
X647606Y190563D01*
X647492Y191048D01*
X647407Y191619D01*
Y191647D01*
Y191705D01*
X647378Y191790D01*
Y191905D01*
X647349Y192047D01*
Y192218D01*
X647292Y192647D01*
X647235Y193132D01*
X647178Y193703D01*
X647150Y194360D01*
X647093Y195016D01*
X646379D01*
X646208Y194988D01*
X645779Y194902D01*
X645579Y194845D01*
X645380Y194760D01*
X645351D01*
X645294Y194702D01*
X645208Y194645D01*
X645094Y194588D01*
X644837Y194360D01*
X644609Y194074D01*
Y194046D01*
X644552Y193989D01*
X644523Y193903D01*
X644466Y193789D01*
X644380Y193617D01*
X644323Y193446D01*
X644238Y193018D01*
Y192989D01*
X644209Y192904D01*
Y192789D01*
X644181Y192618D01*
X644152Y192418D01*
Y192190D01*
X644123Y191705D01*
Y191676D01*
Y191562D01*
Y191391D01*
X644152Y191191D01*
X644181Y190905D01*
X644238Y190591D01*
X644295Y190249D01*
X644380Y189849D01*
Y189792D01*
X644409Y189678D01*
X644466Y189449D01*
X644552Y189192D01*
X644637Y188850D01*
X644752Y188507D01*
X645066Y187708D01*
Y187593D01*
X642753D01*
Y187622D01*
X642724Y187708D01*
X642696Y187850D01*
X642639Y188050D01*
X642582Y188307D01*
X642525Y188621D01*
X642439Y188992D01*
X642353Y189392D01*
Y189449D01*
X642325Y189592D01*
X642268Y189820D01*
X642239Y190134D01*
X642182Y190477D01*
X642153Y190877D01*
X642125Y191733D01*
Y191762D01*
Y191790D01*
Y191962D01*
Y192218D01*
X642153Y192561D01*
X642182Y192932D01*
X642211Y193303D01*
X642268Y193703D01*
X642353Y194074D01*
Y194131D01*
X642410Y194246D01*
X642467Y194417D01*
X642525Y194645D01*
X642639Y194931D01*
X642782Y195216D01*
X642953Y195530D01*
X643153Y195816D01*
X643181Y195844D01*
X643238Y195930D01*
X643381Y196073D01*
X643524Y196244D01*
X643752Y196415D01*
X643981Y196587D01*
X644266Y196786D01*
X644580Y196929D01*
X644609Y196958D01*
X644752Y196986D01*
X644923Y197043D01*
X645180Y197129D01*
X645494Y197186D01*
X645865Y197243D01*
X646293Y197272D01*
X646750Y197300D01*
X656000D01*
Y195016D01*
D02*
G37*
G36*
X645893Y112479D02*
X642439D01*
Y115392D01*
X645893D01*
Y112479D01*
D02*
G37*
G36*
X595001Y287202D02*
X594750D01*
X594591Y287225D01*
X594386Y287248D01*
X594181Y287271D01*
X593930Y287339D01*
X593702Y287407D01*
X593680D01*
X593657Y287430D01*
X593520Y287476D01*
X593315Y287567D01*
X593064Y287704D01*
X592745Y287886D01*
X592404Y288091D01*
X592039Y288342D01*
X591675Y288638D01*
X591652D01*
X591629Y288683D01*
X591492Y288797D01*
X591287Y289002D01*
X591014Y289276D01*
X590672Y289618D01*
X590262Y290050D01*
X589829Y290552D01*
X589351Y291121D01*
X589328Y291144D01*
X589259Y291235D01*
X589146Y291349D01*
X589009Y291531D01*
X588849Y291736D01*
X588644Y291964D01*
X588166Y292465D01*
X587665Y293035D01*
X587118Y293582D01*
X586844Y293855D01*
X586594Y294083D01*
X586343Y294311D01*
X586115Y294493D01*
X586092D01*
X586070Y294539D01*
X586001Y294584D01*
X585910Y294630D01*
X585682Y294767D01*
X585386Y294949D01*
X585022Y295108D01*
X584634Y295245D01*
X584247Y295336D01*
X583837Y295382D01*
X583791D01*
X583655Y295359D01*
X583450Y295336D01*
X583176Y295291D01*
X582880Y295177D01*
X582561Y295040D01*
X582242Y294835D01*
X581946Y294562D01*
X581923Y294516D01*
X581832Y294425D01*
X581695Y294243D01*
X581559Y294015D01*
X581422Y293696D01*
X581285Y293354D01*
X581194Y292944D01*
X581171Y292488D01*
Y292465D01*
Y292420D01*
Y292352D01*
X581194Y292260D01*
X581217Y292010D01*
X581285Y291714D01*
X581376Y291349D01*
X581536Y290985D01*
X581741Y290620D01*
X582014Y290301D01*
X582060Y290278D01*
X582174Y290187D01*
X582356Y290050D01*
X582607Y289914D01*
X582926Y289754D01*
X583313Y289640D01*
X583769Y289549D01*
X584270Y289504D01*
X584065Y287567D01*
X583974D01*
X583860Y287590D01*
X583700Y287613D01*
X583518Y287658D01*
X583313Y287704D01*
X582834Y287818D01*
X582310Y288000D01*
X581764Y288273D01*
X581490Y288433D01*
X581240Y288615D01*
X580989Y288820D01*
X580761Y289048D01*
X580738Y289071D01*
X580716Y289116D01*
X580647Y289185D01*
X580579Y289276D01*
X580488Y289412D01*
X580397Y289572D01*
X580305Y289754D01*
X580191Y289982D01*
X580078Y290210D01*
X579986Y290460D01*
X579895Y290757D01*
X579804Y291076D01*
X579736Y291395D01*
X579668Y291759D01*
X579645Y292124D01*
X579622Y292534D01*
Y292557D01*
Y292625D01*
Y292739D01*
X579645Y292898D01*
X579668Y293081D01*
X579690Y293309D01*
X579713Y293536D01*
X579781Y293810D01*
X579918Y294357D01*
X580146Y294949D01*
X580283Y295222D01*
X580442Y295496D01*
X580624Y295769D01*
X580852Y296020D01*
X580875Y296043D01*
X580898Y296065D01*
X580966Y296134D01*
X581080Y296225D01*
X581194Y296316D01*
X581331Y296430D01*
X581513Y296544D01*
X581695Y296681D01*
X582128Y296908D01*
X582652Y297113D01*
X582926Y297204D01*
X583245Y297273D01*
X583541Y297296D01*
X583882Y297318D01*
X584042D01*
X584224Y297296D01*
X584452Y297273D01*
X584748Y297227D01*
X585045Y297159D01*
X585363Y297068D01*
X585705Y296931D01*
X585751Y296908D01*
X585865Y296863D01*
X586024Y296772D01*
X586252Y296635D01*
X586548Y296453D01*
X586867Y296248D01*
X587209Y295974D01*
X587574Y295678D01*
X587619Y295632D01*
X587756Y295518D01*
X587847Y295427D01*
X587984Y295291D01*
X588120Y295154D01*
X588280Y294995D01*
X588462Y294812D01*
X588667Y294584D01*
X588872Y294357D01*
X589123Y294083D01*
X589373Y293810D01*
X589647Y293491D01*
X589943Y293149D01*
X590262Y292785D01*
X590285Y292762D01*
X590330Y292716D01*
X590399Y292625D01*
X590490Y292511D01*
X590740Y292238D01*
X591037Y291873D01*
X591356Y291509D01*
X591675Y291167D01*
X591971Y290848D01*
X592085Y290734D01*
X592199Y290620D01*
X592221Y290597D01*
X592290Y290552D01*
X592381Y290460D01*
X592518Y290347D01*
X592654Y290210D01*
X592836Y290073D01*
X593201Y289823D01*
Y297341D01*
X595001D01*
Y287202D01*
D02*
G37*
G36*
Y300417D02*
X592859D01*
Y302559D01*
X595001D01*
Y300417D01*
D02*
G37*
G36*
Y276152D02*
Y274375D01*
X583882Y270160D01*
Y272142D01*
X590558Y274535D01*
X590581D01*
X590604Y274557D01*
X590740Y274603D01*
X590968Y274671D01*
X591242Y274762D01*
X591583Y274876D01*
X591948Y274990D01*
X592358Y275127D01*
X592791Y275241D01*
X592745Y275264D01*
X592631Y275287D01*
X592449Y275355D01*
X592199Y275423D01*
X591880Y275514D01*
X591515Y275651D01*
X591105Y275788D01*
X590672Y275947D01*
X583882Y278408D01*
Y280345D01*
X595001Y276152D01*
D02*
G37*
G36*
X585979Y257606D02*
X585956Y257584D01*
X585910Y257492D01*
X585842Y257356D01*
X585774Y257173D01*
X585705Y256968D01*
X585637Y256740D01*
X585591Y256490D01*
X585569Y256239D01*
Y256217D01*
Y256125D01*
X585591Y256011D01*
X585614Y255875D01*
X585660Y255693D01*
X585728Y255510D01*
X585819Y255305D01*
X585956Y255123D01*
X585979Y255100D01*
X586024Y255054D01*
X586115Y254963D01*
X586229Y254849D01*
X586366Y254736D01*
X586548Y254644D01*
X586753Y254531D01*
X586981Y254439D01*
X587027Y254417D01*
X587163Y254394D01*
X587368Y254348D01*
X587642Y254303D01*
X587961Y254234D01*
X588325Y254189D01*
X588758Y254166D01*
X589191Y254143D01*
X595001D01*
Y252252D01*
X583882D01*
Y253961D01*
X585546D01*
X585523Y253984D01*
X585386Y254075D01*
X585181Y254189D01*
X584931Y254348D01*
X584680Y254531D01*
X584407Y254736D01*
X584179Y254941D01*
X584019Y255146D01*
X583996Y255168D01*
X583951Y255237D01*
X583905Y255351D01*
X583814Y255510D01*
X583746Y255693D01*
X583700Y255898D01*
X583655Y256103D01*
X583632Y256353D01*
Y256399D01*
Y256513D01*
X583655Y256695D01*
X583700Y256946D01*
X583791Y257242D01*
X583882Y257561D01*
X584042Y257925D01*
X584247Y258290D01*
X585979Y257606D01*
D02*
G37*
G36*
X589920Y268998D02*
Y260705D01*
X590011D01*
X590103Y260728D01*
X590216D01*
X590376Y260751D01*
X590558Y260773D01*
X590968Y260864D01*
X591424Y261001D01*
X591880Y261183D01*
X592335Y261411D01*
X592745Y261730D01*
X592791Y261776D01*
X592905Y261890D01*
X593042Y262095D01*
X593224Y262368D01*
X593406Y262710D01*
X593543Y263097D01*
X593657Y263553D01*
X593702Y264054D01*
Y264077D01*
Y264100D01*
Y264236D01*
X593680Y264419D01*
X593634Y264669D01*
X593566Y264943D01*
X593475Y265239D01*
X593361Y265535D01*
X593178Y265831D01*
X593156Y265854D01*
X593064Y265945D01*
X592951Y266082D01*
X592745Y266264D01*
X592518Y266446D01*
X592199Y266651D01*
X591834Y266834D01*
X591424Y267016D01*
X591675Y268953D01*
X591697D01*
X591743Y268930D01*
X591834Y268907D01*
X591948Y268862D01*
X592108Y268816D01*
X592267Y268748D01*
X592654Y268565D01*
X593064Y268337D01*
X593520Y268041D01*
X593930Y267677D01*
X594318Y267244D01*
Y267221D01*
X594363Y267198D01*
X594409Y267107D01*
X594454Y267016D01*
X594523Y266902D01*
X594614Y266743D01*
X594705Y266583D01*
X594773Y266378D01*
X594955Y265922D01*
X595115Y265376D01*
X595206Y264738D01*
X595252Y264054D01*
Y264031D01*
Y263940D01*
Y263826D01*
X595229Y263644D01*
X595206Y263439D01*
X595183Y263211D01*
X595138Y262938D01*
X595069Y262664D01*
X594887Y262049D01*
X594773Y261707D01*
X594636Y261388D01*
X594454Y261069D01*
X594249Y260751D01*
X594021Y260454D01*
X593771Y260181D01*
X593748Y260158D01*
X593702Y260112D01*
X593611Y260044D01*
X593497Y259953D01*
X593338Y259862D01*
X593156Y259725D01*
X592928Y259611D01*
X592677Y259475D01*
X592404Y259338D01*
X592085Y259224D01*
X591743Y259087D01*
X591356Y258996D01*
X590946Y258905D01*
X590513Y258837D01*
X590057Y258791D01*
X589556Y258768D01*
X589282D01*
X589100Y258791D01*
X588849Y258814D01*
X588576Y258837D01*
X588280Y258882D01*
X587938Y258951D01*
X587254Y259110D01*
X586890Y259247D01*
X586525Y259383D01*
X586161Y259543D01*
X585819Y259725D01*
X585477Y259953D01*
X585181Y260204D01*
X585158Y260226D01*
X585113Y260272D01*
X585045Y260363D01*
X584931Y260454D01*
X584817Y260614D01*
X584680Y260773D01*
X584543Y260978D01*
X584407Y261206D01*
X584270Y261457D01*
X584110Y261753D01*
X583996Y262049D01*
X583882Y262391D01*
X583769Y262733D01*
X583700Y263120D01*
X583655Y263530D01*
X583632Y263940D01*
Y263963D01*
Y264031D01*
Y264145D01*
X583655Y264305D01*
X583677Y264510D01*
X583723Y264715D01*
X583769Y264965D01*
X583814Y265239D01*
X583996Y265809D01*
X584133Y266105D01*
X584270Y266424D01*
X584452Y266720D01*
X584657Y267016D01*
X584885Y267312D01*
X585158Y267586D01*
X585181Y267608D01*
X585227Y267654D01*
X585318Y267722D01*
X585432Y267813D01*
X585591Y267927D01*
X585774Y268041D01*
X586001Y268178D01*
X586252Y268315D01*
X586548Y268429D01*
X586867Y268565D01*
X587209Y268679D01*
X587596Y268793D01*
X588006Y268884D01*
X588439Y268953D01*
X588918Y268998D01*
X589419Y269021D01*
X589715D01*
X589920Y268998D01*
D02*
G37*
G36*
X655886Y95749D02*
X655914Y95664D01*
X655943Y95550D01*
X655972Y95378D01*
X656000Y95178D01*
X656057Y94950D01*
X656143Y94465D01*
Y94436D01*
X656171Y94351D01*
Y94236D01*
X656200Y94065D01*
X656228Y93665D01*
X656257Y93237D01*
Y93209D01*
Y93151D01*
Y93066D01*
X656228Y92923D01*
X656200Y92609D01*
X656114Y92181D01*
X656000Y91724D01*
X655800Y91239D01*
X655543Y90753D01*
X655201Y90325D01*
X655144Y90268D01*
X655001Y90154D01*
X654744Y90011D01*
X654373Y89811D01*
X653916Y89611D01*
X653345Y89468D01*
X652660Y89354D01*
X652260Y89297D01*
X644352D01*
Y87756D01*
X642439D01*
Y89297D01*
X638556D01*
Y91581D01*
X642439D01*
Y95778D01*
X644352D01*
Y91581D01*
X651917D01*
X652174Y91610D01*
X652488D01*
X652603Y91638D01*
X652745Y91667D01*
X653059Y91753D01*
X653430Y91895D01*
X653459D01*
X653488Y91924D01*
X653659Y92066D01*
X653887Y92266D01*
X654059Y92552D01*
Y92580D01*
X654087Y92638D01*
X654116Y92752D01*
X654144Y92894D01*
X654201Y93066D01*
X654230Y93266D01*
X654258Y93523D01*
Y93808D01*
Y93837D01*
Y93894D01*
Y94008D01*
X654230Y94151D01*
X654201Y94493D01*
X654116Y94864D01*
Y94893D01*
X654087Y94950D01*
X654059Y95036D01*
X654001Y95178D01*
X653916Y95407D01*
X653887Y95550D01*
X653830Y95635D01*
Y95778D01*
X655886D01*
Y95749D01*
D02*
G37*
G36*
X649434Y108825D02*
X649719Y108797D01*
X650033Y108768D01*
X650404Y108711D01*
X650804Y108654D01*
X651661Y108454D01*
X652117Y108340D01*
X652574Y108168D01*
X653031Y107969D01*
X653459Y107769D01*
X653859Y107512D01*
X654258Y107226D01*
X654287Y107198D01*
X654344Y107141D01*
X654430Y107055D01*
X654573Y106941D01*
X654715Y106770D01*
X654887Y106570D01*
X655058Y106370D01*
X655258Y106113D01*
X655429Y105827D01*
X655629Y105513D01*
X655943Y104800D01*
X656086Y104429D01*
X656171Y104000D01*
X656228Y103572D01*
X656257Y103115D01*
Y103058D01*
Y102944D01*
Y102744D01*
X656228Y102516D01*
X656200Y102230D01*
X656171Y101945D01*
X656029Y101317D01*
Y101288D01*
X655972Y101174D01*
X655943Y101031D01*
X655857Y100831D01*
X655743Y100603D01*
X655629Y100317D01*
X655315Y99746D01*
X660996D01*
Y97462D01*
X642439D01*
Y99746D01*
X643866D01*
X643838Y99775D01*
X643752Y99889D01*
X643609Y100060D01*
X643438Y100289D01*
X643238Y100574D01*
X643010Y100888D01*
X642810Y101231D01*
X642610Y101602D01*
X642582Y101659D01*
X642525Y101773D01*
X642439Y102002D01*
X642325Y102287D01*
X642239Y102630D01*
X642153Y103001D01*
X642096Y103429D01*
X642068Y103886D01*
Y103915D01*
Y104000D01*
Y104115D01*
X642096Y104286D01*
X642125Y104457D01*
X642153Y104685D01*
X642296Y105228D01*
X642525Y105799D01*
X642667Y106113D01*
X642839Y106427D01*
X643067Y106713D01*
X643324Y106998D01*
X643609Y107283D01*
X643923Y107540D01*
X643952Y107569D01*
X644009Y107598D01*
X644123Y107655D01*
X644266Y107740D01*
X644437Y107854D01*
X644666Y107969D01*
X644923Y108083D01*
X645237Y108197D01*
X645579Y108311D01*
X645950Y108426D01*
X646350Y108540D01*
X646778Y108654D01*
X647264Y108740D01*
X647778Y108797D01*
X648292Y108854D01*
X649177D01*
X649434Y108825D01*
D02*
G37*
G36*
X655886Y87442D02*
X655914Y87356D01*
X655943Y87242D01*
X655972Y87070D01*
X656000Y86870D01*
X656057Y86642D01*
X656143Y86157D01*
Y86128D01*
X656171Y86043D01*
Y85928D01*
X656200Y85757D01*
X656228Y85357D01*
X656257Y84929D01*
Y84901D01*
Y84844D01*
Y84758D01*
X656228Y84615D01*
X656200Y84301D01*
X656114Y83873D01*
X656000Y83416D01*
X655800Y82931D01*
X655543Y82445D01*
X655201Y82017D01*
X655144Y81960D01*
X655001Y81846D01*
X654744Y81703D01*
X654373Y81503D01*
X653916Y81303D01*
X653345Y81161D01*
X652660Y81046D01*
X652260Y80989D01*
X644352D01*
Y79448D01*
X642439D01*
Y80989D01*
X638556D01*
Y83273D01*
X642439D01*
Y87470D01*
X644352D01*
Y83273D01*
X651917D01*
X652174Y83302D01*
X652488D01*
X652603Y83330D01*
X652745Y83359D01*
X653059Y83445D01*
X653430Y83587D01*
X653459D01*
X653488Y83616D01*
X653659Y83759D01*
X653887Y83959D01*
X654059Y84244D01*
Y84272D01*
X654087Y84330D01*
X654116Y84444D01*
X654144Y84586D01*
X654201Y84758D01*
X654230Y84958D01*
X654258Y85215D01*
Y85500D01*
Y85529D01*
Y85586D01*
Y85700D01*
X654230Y85843D01*
X654201Y86185D01*
X654116Y86557D01*
Y86585D01*
X654087Y86642D01*
X654059Y86728D01*
X654001Y86870D01*
X653916Y87099D01*
X653887Y87242D01*
X653830Y87327D01*
Y87470D01*
X655886D01*
Y87442D01*
D02*
G37*
G36*
X595001Y310510D02*
X583040D01*
X583062Y310487D01*
X583153Y310396D01*
X583267Y310237D01*
X583450Y310032D01*
X583632Y309781D01*
X583860Y309462D01*
X584088Y309098D01*
X584338Y308710D01*
Y308688D01*
X584361Y308665D01*
X584452Y308528D01*
X584566Y308323D01*
X584703Y308050D01*
X584862Y307753D01*
X584999Y307435D01*
X585158Y307093D01*
X585295Y306751D01*
X583472D01*
Y306774D01*
X583450Y306819D01*
X583404Y306910D01*
X583336Y307024D01*
X583267Y307161D01*
X583176Y307320D01*
X582971Y307685D01*
X582720Y308118D01*
X582424Y308574D01*
X582083Y309029D01*
X581695Y309485D01*
X581673Y309508D01*
X581650Y309531D01*
X581513Y309690D01*
X581308Y309895D01*
X581035Y310146D01*
X580716Y310419D01*
X580374Y310693D01*
X580009Y310966D01*
X579622Y311171D01*
Y312401D01*
X595001D01*
Y310510D01*
D02*
G37*
G36*
X656000Y75365D02*
X647721D01*
X647464Y75336D01*
X647150Y75308D01*
X646550Y75251D01*
X646522D01*
X646407Y75222D01*
X646265D01*
X646093Y75165D01*
X645665Y75079D01*
X645465Y74994D01*
X645265Y74908D01*
X645237D01*
X645180Y74851D01*
X645094Y74794D01*
X644980Y74708D01*
X644723Y74451D01*
X644494Y74137D01*
Y74109D01*
X644466Y74052D01*
X644409Y73938D01*
X644352Y73795D01*
X644323Y73595D01*
X644266Y73367D01*
X644238Y73110D01*
Y72796D01*
Y72767D01*
Y72653D01*
X644266Y72481D01*
X644295Y72253D01*
X644352Y71996D01*
X644437Y71682D01*
X644552Y71368D01*
X644694Y71026D01*
X644723Y70997D01*
X644780Y70883D01*
X644866Y70711D01*
X645008Y70483D01*
X645180Y70226D01*
X645380Y69912D01*
X645637Y69598D01*
X645893Y69284D01*
X656000D01*
Y67000D01*
X637129D01*
Y69284D01*
X643952D01*
X643923Y69341D01*
X643809Y69455D01*
X643638Y69655D01*
X643438Y69912D01*
X643238Y70226D01*
X643010Y70540D01*
X642782Y70911D01*
X642582Y71282D01*
X642553Y71340D01*
X642496Y71454D01*
X642410Y71654D01*
X642325Y71911D01*
X642239Y72225D01*
X642153Y72596D01*
X642096Y72967D01*
X642068Y73367D01*
Y73395D01*
Y73452D01*
Y73566D01*
X642096Y73709D01*
Y73880D01*
X642125Y74080D01*
X642239Y74509D01*
X642382Y75022D01*
X642639Y75536D01*
X642953Y76050D01*
X643181Y76279D01*
X643410Y76507D01*
X643438D01*
X643467Y76564D01*
X643552Y76621D01*
X643667Y76678D01*
X643781Y76764D01*
X643952Y76878D01*
X644152Y76964D01*
X644380Y77078D01*
X644637Y77192D01*
X644923Y77278D01*
X645237Y77392D01*
X645551Y77478D01*
X646322Y77592D01*
X647207Y77649D01*
X656000D01*
Y75365D01*
D02*
G37*
G36*
X619722Y277208D02*
X620080D01*
X620439Y277172D01*
X621227Y277136D01*
X622086Y277029D01*
X622981Y276921D01*
X623841Y276742D01*
X623877D01*
X623948Y276706D01*
X624056D01*
X624199Y276670D01*
X624593Y276527D01*
X625130Y276384D01*
X625703Y276169D01*
X626312Y275918D01*
X626921Y275596D01*
X627494Y275238D01*
X627566Y275202D01*
X627745Y275059D01*
X627995Y274808D01*
X628318Y274522D01*
X628676Y274128D01*
X629034Y273662D01*
X629392Y273125D01*
X629715Y272552D01*
Y272516D01*
X629750Y272480D01*
X629786Y272373D01*
X629822Y272265D01*
X629965Y271907D01*
X630073Y271442D01*
X630216Y270833D01*
X630359Y270152D01*
X630431Y269364D01*
X630467Y268505D01*
Y268469D01*
Y268397D01*
Y268290D01*
Y268111D01*
X630431Y267896D01*
Y267645D01*
X630359Y267108D01*
X630288Y266463D01*
X630144Y265783D01*
X629965Y265067D01*
X629715Y264422D01*
X629679Y264350D01*
X629571Y264135D01*
X629392Y263849D01*
X629141Y263455D01*
X628819Y263061D01*
X628461Y262596D01*
X627995Y262166D01*
X627458Y261736D01*
X627387Y261700D01*
X627207Y261557D01*
X626885Y261378D01*
X626455Y261163D01*
X625918Y260912D01*
X625309Y260662D01*
X624593Y260447D01*
X623805Y260232D01*
X623769D01*
X623698Y260196D01*
X623590D01*
X623411Y260160D01*
X623196Y260124D01*
X622946Y260089D01*
X622659Y260053D01*
X622337Y260017D01*
X621585Y259909D01*
X620725Y259838D01*
X619758Y259802D01*
X618684Y259766D01*
X617932D01*
X617609Y259802D01*
X617287D01*
X616929Y259838D01*
X616105Y259874D01*
X615246Y259945D01*
X614386Y260053D01*
X613562Y260196D01*
X613526D01*
X613455Y260232D01*
X613348D01*
X613204Y260303D01*
X612810Y260411D01*
X612309Y260554D01*
X611700Y260769D01*
X611091Y261056D01*
X610482Y261378D01*
X609874Y261772D01*
X609802Y261808D01*
X609623Y261951D01*
X609372Y262202D01*
X609014Y262488D01*
X608656Y262882D01*
X608298Y263348D01*
X607940Y263885D01*
X607617Y264494D01*
Y264529D01*
X607581Y264565D01*
X607546Y264673D01*
X607510Y264780D01*
X607366Y265138D01*
X607223Y265640D01*
X607116Y266213D01*
X606973Y266893D01*
X606901Y267681D01*
X606865Y268505D01*
Y268541D01*
Y268612D01*
Y268755D01*
Y268899D01*
X606901Y269114D01*
Y269364D01*
X606973Y269937D01*
X607044Y270582D01*
X607188Y271227D01*
X607402Y271907D01*
X607653Y272552D01*
Y272588D01*
X607689Y272623D01*
X607796Y272838D01*
X607975Y273125D01*
X608226Y273519D01*
X608548Y273949D01*
X608942Y274414D01*
X609408Y274844D01*
X609945Y275274D01*
X610017Y275310D01*
X610196Y275453D01*
X610518Y275632D01*
X610984Y275847D01*
X611521Y276097D01*
X612130Y276348D01*
X612846Y276563D01*
X613634Y276778D01*
X613670D01*
X613741Y276814D01*
X613849D01*
X614028Y276849D01*
X614243Y276885D01*
X614458Y276921D01*
X614744Y276957D01*
X615066Y277029D01*
X615819Y277100D01*
X616678Y277172D01*
X617645Y277208D01*
X618684Y277243D01*
X619436D01*
X619722Y277208D01*
D02*
G37*
G36*
X625094Y293933D02*
X625417Y293897D01*
X625775Y293825D01*
X626169Y293718D01*
X626563Y293575D01*
X626993Y293396D01*
X627028Y293360D01*
X627172Y293288D01*
X627387Y293145D01*
X627601Y292966D01*
X627888Y292751D01*
X628210Y292464D01*
X628497Y292142D01*
X628783Y291784D01*
X628819Y291748D01*
X628927Y291605D01*
X629070Y291354D01*
X629249Y291068D01*
X629464Y290674D01*
X629643Y290244D01*
X629858Y289743D01*
X630037Y289205D01*
Y289134D01*
X630108Y288955D01*
X630180Y288632D01*
X630252Y288202D01*
X630323Y287701D01*
X630395Y287092D01*
X630431Y286412D01*
X630467Y285660D01*
Y285624D01*
Y285588D01*
Y285481D01*
Y285337D01*
X630431Y284979D01*
Y284514D01*
X630359Y283941D01*
X630288Y283332D01*
X630216Y282723D01*
X630073Y282078D01*
Y282043D01*
X630037Y282007D01*
X630001Y281792D01*
X629929Y281505D01*
X629786Y281111D01*
X629679Y280682D01*
X629500Y280216D01*
X629320Y279750D01*
X629106Y279321D01*
X624593D01*
Y279750D01*
X624665Y279822D01*
X624808Y280001D01*
X625023Y280252D01*
X625274Y280610D01*
Y280646D01*
X625345Y280717D01*
X625381Y280825D01*
X625488Y280968D01*
X625596Y281147D01*
X625703Y281398D01*
X625847Y281684D01*
X625990Y281971D01*
Y282007D01*
X626026Y282114D01*
X626097Y282257D01*
X626169Y282472D01*
X626276Y282723D01*
X626384Y283009D01*
X626563Y283654D01*
Y283690D01*
X626599Y283833D01*
X626634Y284012D01*
X626670Y284263D01*
X626742Y284550D01*
X626778Y284908D01*
X626814Y285695D01*
Y285731D01*
Y285875D01*
X626778Y286089D01*
Y286376D01*
X626742Y286663D01*
X626670Y286985D01*
X626491Y287665D01*
X626455Y287701D01*
X626420Y287809D01*
X626348Y287952D01*
X626205Y288131D01*
X626061Y288274D01*
X625882Y288417D01*
X625632Y288525D01*
X625381Y288561D01*
X625274D01*
X625023Y288525D01*
X624736Y288382D01*
X624593Y288274D01*
X624486Y288131D01*
Y288095D01*
X624414Y288059D01*
X624378Y287952D01*
X624306Y287809D01*
X624199Y287594D01*
X624092Y287307D01*
X624020Y286985D01*
X623913Y286591D01*
Y286555D01*
X623877Y286483D01*
X623841Y286340D01*
X623805Y286161D01*
X623769Y285946D01*
X623698Y285695D01*
X623662Y285373D01*
X623590Y285051D01*
Y285015D01*
X623554Y284908D01*
X623519Y284729D01*
X623483Y284514D01*
X623340Y283976D01*
X623161Y283403D01*
Y283368D01*
X623125Y283332D01*
X623089Y283224D01*
X623053Y283081D01*
X622910Y282723D01*
X622695Y282293D01*
X622444Y281792D01*
X622122Y281290D01*
X621764Y280825D01*
X621334Y280395D01*
X621262Y280359D01*
X621119Y280252D01*
X620833Y280073D01*
X620475Y279894D01*
X620009Y279715D01*
X619472Y279536D01*
X618827Y279428D01*
X618111Y279392D01*
X617932D01*
X617681Y279428D01*
X617394Y279464D01*
X617072Y279500D01*
X616714Y279607D01*
X616356Y279715D01*
X615962Y279894D01*
X615926Y279930D01*
X615783Y280001D01*
X615604Y280109D01*
X615353Y280288D01*
X615066Y280502D01*
X614780Y280789D01*
X614458Y281075D01*
X614171Y281434D01*
X614135Y281469D01*
X614028Y281613D01*
X613885Y281828D01*
X613706Y282150D01*
X613526Y282508D01*
X613312Y282938D01*
X613097Y283439D01*
X612918Y283976D01*
X612882Y284048D01*
X612846Y284227D01*
X612774Y284550D01*
X612667Y284979D01*
X612595Y285445D01*
X612524Y286018D01*
X612488Y286663D01*
X612452Y287343D01*
Y287379D01*
Y287415D01*
Y287522D01*
Y287665D01*
X612488Y287988D01*
Y288417D01*
X612560Y288919D01*
X612631Y289492D01*
X612703Y290065D01*
X612846Y290638D01*
Y290674D01*
Y290709D01*
X612918Y290889D01*
X612989Y291175D01*
X613097Y291533D01*
X613204Y291963D01*
X613348Y292393D01*
X613526Y292822D01*
X613706Y293216D01*
X618003D01*
Y292787D01*
X617967Y292751D01*
X617860Y292572D01*
X617717Y292285D01*
X617466Y291891D01*
X617430Y291856D01*
X617394Y291784D01*
X617323Y291677D01*
X617251Y291533D01*
X617036Y291175D01*
X616821Y290745D01*
Y290709D01*
X616786Y290638D01*
X616714Y290495D01*
X616642Y290315D01*
X616571Y290065D01*
X616499Y289814D01*
X616320Y289241D01*
Y289205D01*
X616284Y289098D01*
X616248Y288919D01*
X616213Y288740D01*
X616177Y288453D01*
X616141Y288202D01*
X616105Y287558D01*
Y287522D01*
Y287379D01*
X616141Y287128D01*
Y286877D01*
X616213Y286555D01*
X616284Y286233D01*
X616356Y285910D01*
X616499Y285588D01*
Y285552D01*
X616571Y285481D01*
X616642Y285337D01*
X616786Y285194D01*
X616929Y285051D01*
X617108Y284908D01*
X617323Y284836D01*
X617574Y284800D01*
X617681D01*
X617896Y284836D01*
X618182Y284979D01*
X618326Y285051D01*
X618469Y285194D01*
Y285230D01*
X618540Y285266D01*
X618576Y285373D01*
X618684Y285552D01*
X618755Y285803D01*
X618863Y286089D01*
X619006Y286448D01*
X619114Y286913D01*
Y286949D01*
X619149Y287021D01*
X619185Y287164D01*
X619221Y287379D01*
X619293Y287594D01*
X619328Y287880D01*
X619472Y288489D01*
Y288525D01*
X619507Y288632D01*
X619543Y288811D01*
X619579Y289026D01*
X619651Y289313D01*
X619722Y289599D01*
X619901Y290208D01*
Y290244D01*
X619937Y290280D01*
X620009Y290495D01*
X620152Y290853D01*
X620331Y291247D01*
X620582Y291677D01*
X620868Y292142D01*
X621227Y292608D01*
X621620Y293002D01*
X621656Y293037D01*
X621835Y293145D01*
X622086Y293324D01*
X622444Y293503D01*
X622874Y293646D01*
X623375Y293825D01*
X623984Y293933D01*
X624665Y293969D01*
X624880D01*
X625094Y293933D01*
D02*
G37*
G36*
X630001Y241716D02*
X626061D01*
Y246479D01*
X614100D01*
Y241716D01*
X610411D01*
Y241752D01*
Y241895D01*
Y242110D01*
Y242361D01*
X610375Y242683D01*
Y243005D01*
X610303Y243757D01*
Y243793D01*
X610267Y243936D01*
X610232Y244116D01*
X610196Y244366D01*
X610053Y244903D01*
X609945Y245190D01*
X609838Y245441D01*
Y245476D01*
X609766Y245548D01*
X609694Y245691D01*
X609587Y245835D01*
X609265Y246229D01*
X608871Y246551D01*
X608835Y246587D01*
X608763Y246623D01*
X608620Y246694D01*
X608441Y246766D01*
X608226Y246837D01*
X607975Y246945D01*
X607653Y246981D01*
X607331Y247016D01*
Y251995D01*
X626061D01*
Y256650D01*
X630001D01*
Y241716D01*
D02*
G37*
G36*
Y200243D02*
X614995D01*
X624665Y196125D01*
Y192221D01*
X614995Y188138D01*
X630001D01*
Y182766D01*
X607331D01*
Y189320D01*
X618540Y194334D01*
X607331Y199312D01*
Y205938D01*
X630001D01*
Y200243D01*
D02*
G37*
G36*
Y223881D02*
X625417Y222484D01*
Y215249D01*
X630001Y213853D01*
Y208158D01*
X607331Y215822D01*
Y222018D01*
X630001Y229718D01*
Y223881D01*
D02*
G37*
G36*
X456897Y71915D02*
X457500Y71665D01*
X458018Y71268D01*
X458415Y70750D01*
X458665Y70147D01*
X458750Y69500D01*
X458665Y68853D01*
X458415Y68250D01*
X458018Y67732D01*
X457500Y67335D01*
X456897Y67085D01*
X456250Y67000D01*
X455603Y67085D01*
X455000Y67335D01*
X454482Y67732D01*
X454085Y68250D01*
X453835Y68853D01*
X453750Y69500D01*
X453835Y70147D01*
X454085Y70750D01*
X454482Y71268D01*
X455000Y71665D01*
X455603Y71915D01*
X456250Y72000D01*
X456897Y71915D01*
D02*
G37*
G36*
X622647Y346165D02*
X623250Y345915D01*
X623768Y345518D01*
X624165Y345000D01*
X624415Y344397D01*
X624500Y343750D01*
X624415Y343103D01*
X624165Y342500D01*
X623768Y341982D01*
X623250Y341585D01*
X622647Y341335D01*
X622000Y341250D01*
X621353Y341335D01*
X620750Y341585D01*
X620232Y341982D01*
X619835Y342500D01*
X619585Y343103D01*
X619500Y343750D01*
X619585Y344397D01*
X619835Y345000D01*
X620232Y345518D01*
X620750Y345915D01*
X621353Y346165D01*
X622000Y346250D01*
X622647Y346165D01*
D02*
G37*
G36*
X630000Y356000D02*
X625000D01*
Y361000D01*
X630000Y356000D01*
D02*
G37*
G36*
X171897Y317165D02*
X172500Y316915D01*
X173018Y316518D01*
X173415Y316000D01*
X173665Y315397D01*
X173750Y314750D01*
X173665Y314103D01*
X173415Y313500D01*
X173018Y312982D01*
X172500Y312585D01*
X171897Y312335D01*
X171250Y312250D01*
X170603Y312335D01*
X170000Y312585D01*
X169482Y312982D01*
X169085Y313500D01*
X168835Y314103D01*
X168750Y314750D01*
X168835Y315397D01*
X169085Y316000D01*
X169482Y316518D01*
X170000Y316915D01*
X170603Y317165D01*
X171250Y317250D01*
X171897Y317165D01*
D02*
G37*
G36*
X444000Y72500D02*
X439000D01*
X444000Y77500D01*
Y72500D01*
D02*
G37*
G36*
X168250Y297500D02*
X163250Y302500D01*
X168250D01*
Y297500D01*
D02*
G37*
G36*
X644923Y270758D02*
Y270701D01*
X644894Y270587D01*
X644866Y270416D01*
X644837Y270216D01*
Y270159D01*
X644809Y270016D01*
Y269816D01*
Y269531D01*
Y269502D01*
Y269388D01*
X644837Y269188D01*
X644866Y268960D01*
X644894Y268674D01*
X644980Y268389D01*
X645066Y268046D01*
X645208Y267704D01*
X645237Y267675D01*
X645294Y267561D01*
X645380Y267361D01*
X645494Y267161D01*
X645665Y266876D01*
X645893Y266590D01*
X646122Y266305D01*
X646407Y265991D01*
X656000D01*
Y263707D01*
X642439D01*
Y265991D01*
X644466D01*
Y266019D01*
X644409Y266048D01*
X644295Y266191D01*
X644095Y266419D01*
X643838Y266733D01*
X643581Y267047D01*
X643324Y267418D01*
X643096Y267789D01*
X642896Y268132D01*
X642867Y268189D01*
X642810Y268303D01*
X642753Y268475D01*
X642667Y268703D01*
X642582Y268988D01*
X642496Y269303D01*
X642467Y269617D01*
X642439Y269959D01*
Y269988D01*
Y270016D01*
Y270159D01*
Y270330D01*
X642467Y270473D01*
Y270501D01*
X642496Y270616D01*
Y270730D01*
X642525Y270901D01*
X644923D01*
Y270758D01*
D02*
G37*
G36*
X656000Y280922D02*
X654515D01*
X654544Y280865D01*
X654658Y280751D01*
X654829Y280551D01*
X655029Y280266D01*
X655258Y279951D01*
X655486Y279609D01*
X655714Y279266D01*
X655914Y278895D01*
X655943Y278867D01*
X655972Y278724D01*
X656057Y278524D01*
X656143Y278296D01*
X656228Y277981D01*
X656285Y277610D01*
X656343Y277239D01*
X656371Y276811D01*
Y276782D01*
Y276668D01*
X656343Y276497D01*
Y276269D01*
X656314Y276012D01*
X656257Y275726D01*
X656086Y275127D01*
X656057Y275098D01*
X656029Y274984D01*
X655972Y274841D01*
X655857Y274670D01*
X655743Y274441D01*
X655572Y274213D01*
X655400Y273985D01*
X655172Y273756D01*
X655144Y273728D01*
X655058Y273671D01*
X654915Y273556D01*
X654744Y273442D01*
X654515Y273299D01*
X654230Y273157D01*
X653944Y273014D01*
X653602Y272871D01*
X653545D01*
X653430Y272814D01*
X653231Y272785D01*
X652945Y272728D01*
X652603Y272671D01*
X652203Y272614D01*
X651746Y272586D01*
X651261Y272557D01*
X642439D01*
Y274841D01*
X650804D01*
X651089Y274870D01*
X651689D01*
X651974Y274898D01*
X652003D01*
X652089Y274927D01*
X652232Y274955D01*
X652374Y274984D01*
X652774Y275098D01*
X653202Y275269D01*
X653231D01*
X653288Y275326D01*
X653373Y275383D01*
X653488Y275469D01*
X653745Y275698D01*
X653973Y276012D01*
Y276040D01*
X654001Y276097D01*
X654030Y276211D01*
X654087Y276354D01*
X654116Y276554D01*
X654173Y276782D01*
X654201Y277068D01*
Y277382D01*
Y277411D01*
Y277525D01*
X654173Y277696D01*
X654144Y277924D01*
X654087Y278210D01*
X654001Y278495D01*
X653887Y278838D01*
X653745Y279181D01*
X653716Y279238D01*
X653659Y279352D01*
X653545Y279523D01*
X653402Y279752D01*
X653231Y280009D01*
X653031Y280323D01*
X652574Y280922D01*
X642439D01*
Y283206D01*
X656000D01*
Y280922D01*
D02*
G37*
G36*
Y256855D02*
X652545D01*
Y259767D01*
X656000D01*
Y256855D01*
D02*
G37*
G36*
X655258Y240239D02*
X655286Y240210D01*
X655372Y240039D01*
X655486Y239754D01*
X655657Y239411D01*
Y239382D01*
X655686Y239325D01*
X655714Y239240D01*
X655772Y239097D01*
X655886Y238811D01*
X655972Y238469D01*
Y238440D01*
X656000Y238383D01*
X656029Y238269D01*
X656057Y238126D01*
X656114Y237784D01*
X656200Y237441D01*
Y237413D01*
X656228Y237355D01*
Y237270D01*
X656257Y237127D01*
X656285Y236956D01*
Y236756D01*
X656314Y236499D01*
Y236242D01*
Y236213D01*
Y236185D01*
Y236014D01*
X656285Y235728D01*
X656257Y235385D01*
X656200Y235014D01*
X656143Y234558D01*
X656029Y234129D01*
X655886Y233673D01*
X655857Y233615D01*
X655800Y233473D01*
X655714Y233273D01*
X655572Y232987D01*
X655372Y232673D01*
X655172Y232359D01*
X654915Y232017D01*
X654601Y231674D01*
X654573Y231646D01*
X654430Y231531D01*
X654258Y231389D01*
X654001Y231217D01*
X653688Y230989D01*
X653288Y230789D01*
X652860Y230589D01*
X652403Y230389D01*
X652374D01*
X652346Y230361D01*
X652260D01*
X652174Y230332D01*
X651889Y230247D01*
X651518Y230161D01*
X651032Y230075D01*
X650518Y230018D01*
X649919Y229961D01*
X649262Y229933D01*
X648948D01*
X648805Y229961D01*
X648634D01*
X648206Y229990D01*
X647721Y230047D01*
X647207Y230132D01*
X646693Y230247D01*
X646179Y230389D01*
X646150D01*
X646122Y230418D01*
X645950Y230475D01*
X645722Y230589D01*
X645408Y230732D01*
X645066Y230903D01*
X644694Y231132D01*
X644323Y231389D01*
X643981Y231674D01*
X643952Y231703D01*
X643838Y231817D01*
X643667Y231988D01*
X643467Y232216D01*
X643267Y232502D01*
X643038Y232845D01*
X642810Y233244D01*
X642610Y233673D01*
X642582Y233730D01*
X642525Y233872D01*
X642467Y234129D01*
X642353Y234443D01*
X642268Y234814D01*
X642211Y235271D01*
X642153Y235728D01*
X642125Y236242D01*
Y236299D01*
Y236442D01*
X642153Y236642D01*
Y236927D01*
X642211Y237241D01*
X642268Y237612D01*
X642353Y237983D01*
X642467Y238383D01*
Y238440D01*
X642525Y238554D01*
X642582Y238754D01*
X642667Y239011D01*
X642782Y239297D01*
X642896Y239611D01*
X643181Y240268D01*
X645722D01*
Y240125D01*
X645694Y240068D01*
X645579Y239953D01*
X645437Y239754D01*
X645265Y239468D01*
Y239440D01*
X645208Y239411D01*
X645180Y239325D01*
X645094Y239211D01*
X644923Y238926D01*
X644723Y238554D01*
Y238526D01*
X644694Y238469D01*
X644637Y238383D01*
X644580Y238241D01*
X644523Y238069D01*
X644466Y237898D01*
X644323Y237441D01*
Y237413D01*
X644295Y237327D01*
X644266Y237213D01*
X644209Y237041D01*
X644152Y236642D01*
X644123Y236185D01*
Y236156D01*
Y236099D01*
Y236014D01*
X644152Y235899D01*
X644181Y235557D01*
X644295Y235157D01*
X644437Y234700D01*
X644694Y234244D01*
X645008Y233758D01*
X645237Y233530D01*
X645465Y233330D01*
X645494D01*
X645522Y233273D01*
X645608Y233244D01*
X645722Y233159D01*
X645836Y233073D01*
X646008Y232987D01*
X646208Y232902D01*
X646436Y232816D01*
X646693Y232702D01*
X646978Y232616D01*
X647635Y232445D01*
X648406Y232331D01*
X649262Y232274D01*
X649491D01*
X649662Y232302D01*
X649862D01*
X650090Y232331D01*
X650633Y232416D01*
X651232Y232531D01*
X651860Y232702D01*
X652460Y232959D01*
X653002Y233301D01*
X653059Y233358D01*
X653202Y233501D01*
X653430Y233730D01*
X653659Y234044D01*
X653887Y234472D01*
X654116Y234957D01*
X654258Y235528D01*
X654287Y235842D01*
X654316Y236185D01*
Y236242D01*
Y236385D01*
X654287Y236613D01*
X654258Y236870D01*
X654201Y237213D01*
X654144Y237584D01*
X654030Y237955D01*
X653887Y238326D01*
X653859Y238383D01*
X653802Y238497D01*
X653716Y238697D01*
X653573Y238926D01*
X653402Y239211D01*
X653174Y239497D01*
X652945Y239811D01*
X652688Y240125D01*
Y240268D01*
X655258D01*
Y240239D01*
D02*
G37*
G36*
X656000Y250717D02*
X647721D01*
X647464Y250688D01*
X647150Y250660D01*
X646550Y250602D01*
X646522D01*
X646407Y250574D01*
X646265D01*
X646093Y250517D01*
X645665Y250431D01*
X645465Y250345D01*
X645265Y250260D01*
X645237D01*
X645180Y250203D01*
X645094Y250146D01*
X644980Y250060D01*
X644723Y249803D01*
X644494Y249489D01*
Y249461D01*
X644466Y249403D01*
X644409Y249289D01*
X644352Y249146D01*
X644323Y248947D01*
X644266Y248718D01*
X644238Y248461D01*
Y248147D01*
Y248119D01*
Y248004D01*
X644266Y247833D01*
X644295Y247605D01*
X644352Y247348D01*
X644437Y247034D01*
X644552Y246720D01*
X644694Y246377D01*
X644723Y246349D01*
X644780Y246234D01*
X644866Y246063D01*
X645008Y245835D01*
X645180Y245578D01*
X645380Y245264D01*
X645637Y244950D01*
X645893Y244636D01*
X656000D01*
Y242352D01*
X637129D01*
Y244636D01*
X643952D01*
X643923Y244693D01*
X643809Y244807D01*
X643638Y245007D01*
X643438Y245264D01*
X643238Y245578D01*
X643010Y245892D01*
X642782Y246263D01*
X642582Y246634D01*
X642553Y246691D01*
X642496Y246805D01*
X642410Y247005D01*
X642325Y247262D01*
X642239Y247576D01*
X642153Y247947D01*
X642096Y248319D01*
X642068Y248718D01*
Y248747D01*
Y248804D01*
Y248918D01*
X642096Y249061D01*
Y249232D01*
X642125Y249432D01*
X642239Y249860D01*
X642382Y250374D01*
X642639Y250888D01*
X642953Y251402D01*
X643181Y251630D01*
X643410Y251859D01*
X643438D01*
X643467Y251916D01*
X643552Y251973D01*
X643667Y252030D01*
X643781Y252116D01*
X643952Y252230D01*
X644152Y252315D01*
X644380Y252430D01*
X644637Y252544D01*
X644923Y252630D01*
X645237Y252744D01*
X645551Y252829D01*
X646322Y252943D01*
X647207Y253001D01*
X656000D01*
Y250717D01*
D02*
G37*
G36*
X615066Y156658D02*
X615461Y156622D01*
X615926Y156550D01*
X616463Y156479D01*
X617001Y156335D01*
X617538Y156156D01*
X617609Y156121D01*
X617753Y156049D01*
X618039Y155941D01*
X618361Y155798D01*
X618720Y155583D01*
X619114Y155333D01*
X619507Y155046D01*
X619901Y154724D01*
X619937Y154688D01*
X620009Y154616D01*
X620116Y154509D01*
X620260Y154366D01*
X620618Y153936D01*
X621012Y153434D01*
X621048Y153399D01*
X621083Y153327D01*
X621191Y153184D01*
X621298Y153005D01*
X621441Y152754D01*
X621585Y152503D01*
X621871Y151930D01*
Y151894D01*
X621907Y151787D01*
X621979Y151608D01*
X622050Y151393D01*
X622158Y151107D01*
X622229Y150820D01*
X622408Y150104D01*
Y150068D01*
X622444Y149925D01*
X622480Y149746D01*
Y149459D01*
X622516Y149137D01*
X622552Y148779D01*
X622588Y148349D01*
Y147919D01*
Y144946D01*
X630001D01*
Y139252D01*
X607331D01*
Y148027D01*
Y148062D01*
Y148098D01*
Y148206D01*
Y148349D01*
Y148707D01*
X607366Y149173D01*
X607402Y149710D01*
X607474Y150283D01*
X607581Y150856D01*
X607689Y151393D01*
Y151465D01*
X607761Y151644D01*
X607832Y151894D01*
X607975Y152253D01*
X608119Y152647D01*
X608334Y153112D01*
X608548Y153542D01*
X608835Y154008D01*
X608871Y154079D01*
X608978Y154222D01*
X609193Y154437D01*
X609444Y154724D01*
X609766Y155046D01*
X610160Y155368D01*
X610626Y155691D01*
X611127Y155977D01*
X611199Y156013D01*
X611378Y156085D01*
X611664Y156192D01*
X612058Y156335D01*
X612560Y156479D01*
X613133Y156586D01*
X613777Y156658D01*
X614493Y156693D01*
X614780D01*
X615066Y156658D01*
D02*
G37*
G36*
X622480Y178397D02*
X622838Y178361D01*
X623232Y178289D01*
X623698Y178218D01*
X624163Y178146D01*
X625202Y177860D01*
X625739Y177645D01*
X626276Y177430D01*
X626814Y177143D01*
X627315Y176821D01*
X627816Y176463D01*
X628246Y176033D01*
X628282Y175997D01*
X628354Y175926D01*
X628461Y175782D01*
X628604Y175603D01*
X628747Y175317D01*
X628962Y175030D01*
X629141Y174672D01*
X629356Y174242D01*
X629571Y173777D01*
X629750Y173240D01*
X629965Y172667D01*
X630108Y172022D01*
X630252Y171306D01*
X630359Y170553D01*
X630431Y169766D01*
X630467Y168906D01*
Y168870D01*
Y168691D01*
Y168476D01*
X630431Y168154D01*
X630395Y167760D01*
X630359Y167330D01*
X630288Y166865D01*
X630180Y166327D01*
X629929Y165181D01*
X629750Y164608D01*
X629535Y164035D01*
X629285Y163462D01*
X628998Y162889D01*
X628676Y162388D01*
X628282Y161887D01*
X628246Y161851D01*
X628175Y161779D01*
X628031Y161672D01*
X627852Y161493D01*
X627637Y161313D01*
X627351Y161134D01*
X627028Y160884D01*
X626634Y160669D01*
X626205Y160454D01*
X625739Y160239D01*
X625202Y160024D01*
X624629Y159845D01*
X623984Y159666D01*
X623340Y159559D01*
X622588Y159487D01*
X621835Y159451D01*
X607331D01*
Y165146D01*
X621871D01*
X622301Y165181D01*
X622802Y165253D01*
X623375Y165361D01*
X623948Y165504D01*
X624521Y165719D01*
X624987Y166005D01*
X625023Y166041D01*
X625166Y166184D01*
X625345Y166399D01*
X625560Y166721D01*
X625775Y167115D01*
X625954Y167617D01*
X626097Y168190D01*
X626133Y168906D01*
Y168942D01*
Y168978D01*
Y169085D01*
X626097Y169228D01*
X626061Y169587D01*
X625990Y170016D01*
X625847Y170482D01*
X625667Y170947D01*
X625381Y171413D01*
X625023Y171807D01*
X624987Y171843D01*
X624808Y171950D01*
X624557Y172094D01*
X624163Y172273D01*
X623662Y172452D01*
X623053Y172595D01*
X622337Y172702D01*
X621477Y172738D01*
X607331D01*
Y178433D01*
X622193D01*
X622480Y178397D01*
D02*
G37*
%LPC*%
G36*
X614995Y150820D02*
X614458D01*
X614279Y150784D01*
X614064Y150748D01*
X613526Y150641D01*
X613240Y150498D01*
X612989Y150354D01*
X612953Y150319D01*
X612882Y150283D01*
X612774Y150175D01*
X612595Y150032D01*
X612309Y149674D01*
X612130Y149495D01*
X612022Y149244D01*
Y149208D01*
X611951Y149101D01*
X611915Y148958D01*
X611843Y148743D01*
X611700Y148277D01*
X611628Y147704D01*
Y147668D01*
Y147561D01*
X611593Y147418D01*
Y147203D01*
Y146916D01*
X611557Y146558D01*
Y146164D01*
Y145734D01*
Y144946D01*
X618361D01*
Y145305D01*
Y145340D01*
Y145448D01*
Y145591D01*
Y145806D01*
Y146307D01*
Y146845D01*
Y146881D01*
Y146952D01*
Y147095D01*
Y147274D01*
X618326Y147668D01*
X618254Y148062D01*
Y148098D01*
Y148134D01*
X618182Y148349D01*
X618111Y148671D01*
X617967Y149029D01*
Y149065D01*
X617932Y149101D01*
X617824Y149316D01*
X617681Y149566D01*
X617466Y149817D01*
X617430Y149853D01*
X617359Y149925D01*
X617251Y149996D01*
X617108Y150140D01*
X616714Y150390D01*
X616284Y150605D01*
X616248D01*
X616177Y150641D01*
X616034Y150677D01*
X615854Y150713D01*
X615604Y150748D01*
X615317Y150784D01*
X614995Y150820D01*
D02*
G37*
G36*
X588371Y267039D02*
X588303D01*
X588234Y267016D01*
X588143D01*
X587892Y266970D01*
X587596Y266902D01*
X587254Y266811D01*
X586890Y266674D01*
X586571Y266515D01*
X586275Y266310D01*
X586252D01*
X586229Y266264D01*
X586092Y266150D01*
X585933Y265945D01*
X585728Y265695D01*
X585523Y265353D01*
X585341Y264965D01*
X585227Y264510D01*
X585204Y264259D01*
X585181Y263986D01*
Y263963D01*
Y263917D01*
Y263849D01*
X585204Y263758D01*
X585227Y263530D01*
X585295Y263211D01*
X585386Y262869D01*
X585546Y262505D01*
X585774Y262118D01*
X586070Y261776D01*
X586115Y261730D01*
X586229Y261639D01*
X586412Y261502D01*
X586685Y261343D01*
X587004Y261161D01*
X587414Y261001D01*
X587870Y260887D01*
X588371Y260819D01*
Y267039D01*
D02*
G37*
G36*
X647721Y226364D02*
X647578D01*
X647407Y226335D01*
X647178D01*
X646921Y226307D01*
X646664Y226250D01*
X646150Y226136D01*
X646122D01*
X646036Y226107D01*
X645922Y226050D01*
X645751Y225993D01*
X645380Y225821D01*
X645008Y225564D01*
X644980Y225536D01*
X644923Y225507D01*
X644837Y225393D01*
X644723Y225279D01*
X644580Y225136D01*
X644466Y224965D01*
X644238Y224537D01*
Y224508D01*
X644181Y224422D01*
X644152Y224280D01*
X644095Y224108D01*
X644038Y223880D01*
X644009Y223623D01*
X643952Y223338D01*
Y222995D01*
Y222966D01*
Y222852D01*
Y222681D01*
X643981Y222453D01*
X644009Y222224D01*
X644066Y221939D01*
X644238Y221425D01*
Y221396D01*
X644295Y221311D01*
X644352Y221196D01*
X644437Y221054D01*
X644694Y220683D01*
X645037Y220283D01*
X645066Y220254D01*
X645123Y220197D01*
X645237Y220112D01*
X645380Y219997D01*
X645579Y219855D01*
X645779Y219740D01*
X646236Y219483D01*
X646265D01*
X646350Y219455D01*
X646493Y219398D01*
X646664Y219341D01*
X646864Y219284D01*
X647121Y219255D01*
X647407Y219198D01*
X647721Y219169D01*
Y226364D01*
D02*
G37*
G36*
X621262Y221194D02*
X613706Y218867D01*
X621262Y216503D01*
Y221194D01*
D02*
G37*
G36*
X649576Y148052D02*
X648748D01*
X648549Y148024D01*
X648320D01*
X647806Y147967D01*
X647235Y147852D01*
X646636Y147738D01*
X646036Y147538D01*
X645522Y147282D01*
X645494D01*
X645465Y147253D01*
X645322Y147139D01*
X645123Y146967D01*
X644866Y146711D01*
X644637Y146368D01*
X644437Y145968D01*
X644295Y145454D01*
X644238Y145197D01*
Y144883D01*
Y144855D01*
Y144712D01*
X644266Y144541D01*
X644295Y144284D01*
X644352Y143998D01*
X644437Y143684D01*
X644552Y143342D01*
X644694Y142999D01*
X644723Y142971D01*
X644780Y142856D01*
X644866Y142656D01*
X644980Y142457D01*
X645151Y142171D01*
X645322Y141886D01*
X645779Y141286D01*
X653459D01*
X653488Y141315D01*
X653516Y141429D01*
X653602Y141600D01*
X653688Y141800D01*
X653802Y142057D01*
X653887Y142285D01*
X654059Y142799D01*
Y142828D01*
X654087Y142913D01*
X654116Y143056D01*
Y143227D01*
X654144Y143456D01*
X654173Y143713D01*
X654201Y144284D01*
Y144312D01*
Y144369D01*
Y144455D01*
X654173Y144569D01*
X654144Y144883D01*
X654030Y145283D01*
X653887Y145740D01*
X653659Y146197D01*
X653345Y146653D01*
X653145Y146853D01*
X652917Y147053D01*
X652888D01*
X652860Y147110D01*
X652774Y147139D01*
X652688Y147224D01*
X652545Y147282D01*
X652374Y147367D01*
X652174Y147453D01*
X651946Y147567D01*
X651718Y147653D01*
X651432Y147738D01*
X651118Y147824D01*
X650775Y147910D01*
X650404Y147967D01*
X650005Y148024D01*
X649576Y148052D01*
D02*
G37*
G36*
X619436Y271549D02*
X618003D01*
X617645Y271513D01*
X617251D01*
X616821Y271477D01*
X616356D01*
X615389Y271370D01*
X614422Y271262D01*
X613956Y271155D01*
X613526Y271083D01*
X613133Y270976D01*
X612774Y270833D01*
X612739D01*
X612703Y270797D01*
X612488Y270690D01*
X612237Y270546D01*
X611915Y270296D01*
X611593Y269973D01*
X611306Y269579D01*
X611127Y269078D01*
X611091Y268791D01*
X611055Y268505D01*
Y268433D01*
X611091Y268254D01*
X611127Y267932D01*
X611270Y267610D01*
X611485Y267215D01*
X611772Y266822D01*
X612201Y266463D01*
X612488Y266284D01*
X612774Y266141D01*
X612810D01*
X612846Y266105D01*
X612953Y266070D01*
X613097Y266034D01*
X613276Y265998D01*
X613526Y265926D01*
X613813Y265855D01*
X614135Y265819D01*
X614529Y265747D01*
X614959Y265676D01*
X615425Y265604D01*
X615962Y265568D01*
X616571Y265532D01*
X617215Y265496D01*
X617932Y265461D01*
X619364D01*
X619687Y265496D01*
X620080D01*
X620510Y265532D01*
X620976D01*
X621943Y265640D01*
X622910Y265747D01*
X623375Y265819D01*
X623805Y265926D01*
X624199Y266034D01*
X624557Y266141D01*
X624593D01*
X624629Y266177D01*
X624808Y266284D01*
X625094Y266463D01*
X625417Y266714D01*
X625739Y267036D01*
X625990Y267430D01*
X626205Y267932D01*
X626241Y268218D01*
X626276Y268505D01*
Y268541D01*
Y268577D01*
X626241Y268755D01*
X626169Y269042D01*
X626061Y269400D01*
X625847Y269794D01*
X625560Y270152D01*
X625130Y270510D01*
X624844Y270690D01*
X624557Y270833D01*
X624521D01*
X624486Y270868D01*
X624378Y270904D01*
X624235Y270940D01*
X624020Y271012D01*
X623805Y271048D01*
X623519Y271119D01*
X623161Y271191D01*
X622802Y271262D01*
X622373Y271334D01*
X621871Y271370D01*
X621370Y271442D01*
X620761Y271477D01*
X620116Y271513D01*
X619436Y271549D01*
D02*
G37*
G36*
X652660Y195016D02*
X648948D01*
Y194988D01*
X648977Y194874D01*
Y194702D01*
X649005Y194445D01*
X649034Y194131D01*
X649091Y193789D01*
X649120Y193389D01*
X649177Y192932D01*
Y192875D01*
X649205Y192732D01*
X649234Y192504D01*
X649262Y192218D01*
X649319Y191876D01*
X649377Y191562D01*
X649434Y191219D01*
X649519Y190905D01*
Y190877D01*
X649576Y190763D01*
X649633Y190591D01*
X649719Y190363D01*
X649976Y189877D01*
X650147Y189620D01*
X650347Y189392D01*
X650376Y189364D01*
X650461Y189307D01*
X650576Y189221D01*
X650747Y189107D01*
X650975Y188992D01*
X651261Y188907D01*
X651575Y188850D01*
X651946Y188821D01*
X652146D01*
X652346Y188850D01*
X652603Y188907D01*
X652860Y188992D01*
X653174Y189107D01*
X653430Y189249D01*
X653688Y189478D01*
X653716Y189506D01*
X653773Y189592D01*
X653859Y189763D01*
X653973Y189963D01*
X654087Y190220D01*
X654173Y190563D01*
X654230Y190962D01*
X654258Y191391D01*
Y191448D01*
Y191562D01*
X654230Y191790D01*
X654201Y192047D01*
X654144Y192361D01*
X654059Y192675D01*
X653944Y193018D01*
X653802Y193361D01*
X653773Y193389D01*
X653716Y193503D01*
X653630Y193675D01*
X653488Y193903D01*
X653316Y194160D01*
X653117Y194445D01*
X652660Y195016D01*
D02*
G37*
G36*
X649576Y106513D02*
X648748D01*
X648549Y106484D01*
X648320D01*
X647806Y106427D01*
X647235Y106313D01*
X646636Y106199D01*
X646036Y105999D01*
X645522Y105742D01*
X645494D01*
X645465Y105713D01*
X645322Y105599D01*
X645123Y105428D01*
X644866Y105171D01*
X644637Y104828D01*
X644437Y104429D01*
X644295Y103915D01*
X644238Y103658D01*
Y103344D01*
Y103315D01*
Y103172D01*
X644266Y103001D01*
X644295Y102744D01*
X644352Y102459D01*
X644437Y102145D01*
X644552Y101802D01*
X644694Y101459D01*
X644723Y101431D01*
X644780Y101317D01*
X644866Y101117D01*
X644980Y100917D01*
X645151Y100631D01*
X645322Y100346D01*
X645779Y99746D01*
X653459D01*
X653488Y99775D01*
X653516Y99889D01*
X653602Y100060D01*
X653688Y100260D01*
X653802Y100517D01*
X653887Y100746D01*
X654059Y101259D01*
Y101288D01*
X654087Y101374D01*
X654116Y101517D01*
Y101688D01*
X654144Y101916D01*
X654173Y102173D01*
X654201Y102744D01*
Y102773D01*
Y102830D01*
Y102915D01*
X654173Y103030D01*
X654144Y103344D01*
X654030Y103743D01*
X653887Y104200D01*
X653659Y104657D01*
X653345Y105114D01*
X653145Y105314D01*
X652917Y105513D01*
X652888D01*
X652860Y105570D01*
X652774Y105599D01*
X652688Y105685D01*
X652545Y105742D01*
X652374Y105827D01*
X652174Y105913D01*
X651946Y106027D01*
X651718Y106113D01*
X651432Y106199D01*
X651118Y106284D01*
X650775Y106370D01*
X650404Y106427D01*
X650005Y106484D01*
X649576Y106513D01*
D02*
G37*
%LPD*%
D10*
X367750Y295750D02*
G03*
X367750Y304250I-4250J4250D01*
G01*
X352250D02*
G03*
X352250Y295750I4250J-4250D01*
G01*
X654750Y474250D02*
G03*
X654750Y465750I4250J-4250D01*
G01*
X670250D02*
G03*
X670250Y474250I-4250J4250D01*
G01*
X665250Y410750D02*
G03*
X665250Y419250I-4250J4250D01*
G01*
X649750D02*
G03*
X649750Y410750I4250J-4250D01*
G01*
X341750Y295750D02*
G03*
X341750Y304250I-4250J4250D01*
G01*
X326250D02*
G03*
X326250Y295750I4250J-4250D01*
G01*
X260250Y304250D02*
G03*
X260250Y295750I4250J-4250D01*
G01*
X275750D02*
G03*
X275750Y304250I-4250J4250D01*
G01*
X456249Y55000D02*
G03*
X456249Y63500I-4250J4250D01*
G01*
X440749D02*
G03*
X440749Y55000I4250J-4250D01*
G01*
X411249Y84500D02*
G03*
X419749Y84500I4250J4250D01*
G01*
Y100000D02*
G03*
X411249Y100000I-4250J-4250D01*
G01*
X657249Y357500D02*
G03*
X665749Y357500I4250J4250D01*
G01*
Y373000D02*
G03*
X657249Y373000I-4250J-4250D01*
G01*
X299750Y295750D02*
G03*
X299750Y304250I-4250J4250D01*
G01*
X284250D02*
G03*
X284250Y295750I4250J-4250D01*
G01*
X700750Y58750D02*
G03*
X700750Y67250I-4250J4250D01*
G01*
X685250D02*
G03*
X685250Y58750I4250J-4250D01*
G01*
X352250Y295750D02*
X367750Y295750D01*
X352250Y304250D02*
X367750Y304250D01*
X654750Y474250D02*
X670250Y474250D01*
X654750Y465750D02*
X670250Y465750D01*
X649750Y410750D02*
X665250Y410750D01*
X649750Y419250D02*
X665250Y419250D01*
X661250Y423000D02*
X665000D01*
X676750Y436250D02*
Y443750D01*
X649500Y436250D02*
Y443750D01*
X661250Y457000D02*
X665000D01*
X612875Y478000D02*
Y488000D01*
X582875Y476750D02*
Y489250D01*
X610875D01*
Y476750D02*
Y489250D01*
X582875Y476750D02*
X610875D01*
X326250Y295750D02*
X341750Y295750D01*
X326250Y304250D02*
X341750Y304250D01*
X260250D02*
X275750Y304250D01*
X260250Y295750D02*
X275750Y295750D01*
X179375Y234250D02*
X207375D01*
X179375Y221750D02*
Y234250D01*
Y221750D02*
X207375D01*
Y234250D01*
X177375Y223000D02*
Y233000D01*
X440749Y55000D02*
X456249Y55000D01*
X440749Y63500D02*
X456249Y63500D01*
X411249Y84500D02*
X411249Y100000D01*
X419749D02*
X419749Y84500D01*
X657249Y357500D02*
X657249Y373000D01*
X665749D02*
X665749Y357500D01*
X284250Y295750D02*
X299750Y295750D01*
X284250Y304250D02*
X299750Y304250D01*
X685250Y58750D02*
X700750Y58750D01*
X685250Y67250D02*
X700750Y67250D01*
D41*
X226250Y262738D02*
G03*
X240007Y263000I6699J9571D01*
G01*
Y288262D02*
G03*
X226250Y288000I-6699J-9571D01*
G01*
X471739Y89500D02*
G03*
X472000Y75743I9571J-6699D01*
G01*
X497262D02*
G03*
X497000Y89500I-9571J6699D01*
G01*
X568261Y164000D02*
G03*
X568000Y177757I-9571J6699D01*
G01*
X542738D02*
G03*
X543000Y164000I9571J-6699D01*
G01*
X129739Y22000D02*
G03*
X130000Y8243I9571J-6699D01*
G01*
X155261D02*
G03*
X155000Y22000I-9571J6699D01*
G01*
X129739Y39000D02*
G03*
X130000Y25243I9571J-6699D01*
G01*
X155261D02*
G03*
X155000Y39000I-9571J6699D01*
G01*
X129739Y72000D02*
G03*
X130000Y58243I9571J-6699D01*
G01*
X155261D02*
G03*
X155000Y72000I-9571J6699D01*
G01*
X568261Y149000D02*
G03*
X568000Y162757I-9571J6699D01*
G01*
X542738D02*
G03*
X543000Y149000I9571J-6699D01*
G01*
X385499Y74989D02*
G03*
X399256Y75250I6699J9571D01*
G01*
Y100512D02*
G03*
X385499Y100250I-6699J-9571D01*
G01*
X173250Y262738D02*
G03*
X187007Y263000I6699J9571D01*
G01*
Y288262D02*
G03*
X173250Y288000I-6699J-9571D01*
G01*
X207250Y262738D02*
G03*
X221007Y263000I6699J9571D01*
G01*
Y288262D02*
G03*
X207250Y288000I-6699J-9571D01*
G01*
X147489Y340500D02*
G03*
X147750Y326743I9571J-6699D01*
G01*
X173011D02*
G03*
X172750Y340500I-9571J6699D01*
G01*
X619499Y356512D02*
G03*
X605742Y356250I-6699J-9571D01*
G01*
Y330989D02*
G03*
X619499Y331250I6699J9571D01*
G01*
X667000Y405761D02*
G03*
X653243Y405500I-6699J-9571D01*
G01*
Y380238D02*
G03*
X667000Y380500I6699J9571D01*
G01*
X129739Y56000D02*
G03*
X130000Y42243I9571J-6699D01*
G01*
X155261D02*
G03*
X155000Y56000I-9571J6699D01*
G01*
X204007Y288262D02*
G03*
X190250Y288000I-6699J-9571D01*
G01*
Y262738D02*
G03*
X204007Y263000I6699J9571D01*
G01*
X240007D02*
Y288262D01*
X226250Y262738D02*
Y288000D01*
X472000Y75743D02*
X497262D01*
X471739Y89500D02*
X497000D01*
X300750Y290500D02*
X321750D01*
X300750Y279500D02*
X321750D01*
X300750D02*
Y290500D01*
X321750Y279500D02*
Y290500D01*
X399500Y185247D02*
Y206247D01*
X388500Y185247D02*
Y206247D01*
X399500D01*
X388500Y185247D02*
X399500D01*
X410500D02*
Y206247D01*
X399500Y185247D02*
Y206247D01*
X410500D01*
X399500Y185247D02*
X410500D01*
X629500Y464500D02*
X650500D01*
X629500Y475500D02*
X650500D01*
Y464500D02*
Y475500D01*
X629500Y464500D02*
Y475500D01*
X299500Y160500D02*
X320500D01*
X299500Y149500D02*
X320500D01*
X299500D02*
Y160500D01*
X320500Y149500D02*
Y160500D01*
X458750Y389500D02*
Y410500D01*
X469750Y389500D02*
Y410500D01*
X458750Y389500D02*
X469750D01*
X458750Y410500D02*
X469750D01*
X457250Y389500D02*
Y410500D01*
X446250Y389500D02*
Y410500D01*
X457250D01*
X446250Y389500D02*
X457250D01*
X542738Y177757D02*
X568000D01*
X543000Y164000D02*
X568261D01*
X130000Y8243D02*
X155261D01*
X129739Y22000D02*
X155000D01*
X483750Y389500D02*
Y410500D01*
X472750Y389500D02*
Y410500D01*
X483750D01*
X472750Y389500D02*
X483750D01*
X117600Y140000D02*
X175600D01*
X117600Y76000D02*
X175600D01*
X117600D02*
Y140000D01*
X175600Y76000D02*
Y140000D01*
X130000Y25243D02*
X155261D01*
X129739Y39000D02*
X155000D01*
X130000Y58243D02*
X155261D01*
X129739Y72000D02*
X155000D01*
X587500Y142500D02*
Y163500D01*
X598500Y142500D02*
Y163500D01*
X587500Y142500D02*
X598500D01*
X587500Y163500D02*
X598500D01*
X574500Y142500D02*
Y163500D01*
X585500Y142500D02*
Y163500D01*
X574500Y142500D02*
X585500D01*
X574500Y163500D02*
X585500D01*
X185750Y256500D02*
X206750D01*
X185750Y245500D02*
X206750D01*
X185750D02*
Y256500D01*
X206750Y245500D02*
Y256500D01*
X389749Y59750D02*
X410749D01*
X389749Y70750D02*
X410749D01*
Y59750D02*
Y70750D01*
X389749Y59750D02*
Y70750D01*
X413999Y59750D02*
X434999D01*
X413999Y70750D02*
X434999D01*
Y59750D02*
Y70750D01*
X413999Y59750D02*
Y70750D01*
X542738Y162757D02*
X568000D01*
X543000Y149000D02*
X568261D01*
X399256Y75250D02*
Y100512D01*
X385499Y74989D02*
Y100250D01*
X187007Y263000D02*
Y288262D01*
X173250Y262738D02*
Y288000D01*
X221007Y263000D02*
Y288262D01*
X207250Y262738D02*
Y288000D01*
X147750Y326743D02*
X173011D01*
X147489Y340500D02*
X172750D01*
X605742Y330989D02*
Y356250D01*
X619499Y331250D02*
Y356512D01*
X653243Y380238D02*
Y405500D01*
X667000Y380500D02*
Y405761D01*
X444000Y72500D02*
Y102500D01*
X436000Y72500D02*
Y102500D01*
X444000D01*
X436000Y72500D02*
X444000D01*
X625000Y356000D02*
X655000D01*
X625000Y364000D02*
X655000D01*
Y356000D02*
Y364000D01*
X625000Y356000D02*
Y364000D01*
X130000Y42243D02*
X155261D01*
X129739Y56000D02*
X155000D01*
X555750Y492500D02*
X576750D01*
X555750Y481500D02*
X576750D01*
X555750D02*
Y492500D01*
X576750Y481500D02*
Y492500D01*
X727500Y57500D02*
Y68500D01*
X706500Y57500D02*
Y68500D01*
Y57500D02*
X727500D01*
X706500Y68500D02*
X727500D01*
X287750Y478500D02*
X308750D01*
X287750Y489500D02*
X308750D01*
Y478500D02*
Y489500D01*
X287750Y478500D02*
Y489500D01*
X258750Y478500D02*
X279750D01*
X258750Y489500D02*
X279750D01*
Y478500D02*
Y489500D01*
X258750Y478500D02*
Y489500D01*
X190250Y262738D02*
Y288000D01*
X204007Y263000D02*
Y288262D01*
X138250Y302500D02*
X168250D01*
X138250Y294500D02*
X168250D01*
X138250D02*
Y302500D01*
X168250Y294500D02*
Y302500D01*
X202750Y480500D02*
Y501500D01*
X191750Y480500D02*
Y501500D01*
X202750D01*
X191750Y480500D02*
X202750D01*
X219750D02*
Y501500D01*
X208750Y480500D02*
Y501500D01*
X219750D01*
X208750Y480500D02*
X219750D01*
X414750Y399250D02*
X435750D01*
X414750Y410250D02*
X435750D01*
Y399250D02*
Y410250D01*
X414750Y399250D02*
Y410250D01*
X389500Y487500D02*
X410500D01*
X389500Y476500D02*
X410500D01*
X389500D02*
Y487500D01*
X410500Y476500D02*
Y487500D01*
X444750Y473500D02*
Y494500D01*
X433750Y473500D02*
Y494500D01*
X444750D01*
X433750Y473500D02*
X444750D01*
X464750D02*
Y494500D01*
X453750Y473500D02*
Y494500D01*
X464750D01*
X453750Y473500D02*
X464750D01*
X509750Y493500D02*
X530750D01*
X509750Y482500D02*
X530750D01*
X509750D02*
Y493500D01*
X530750Y482500D02*
Y493500D01*
X469750D02*
X490750D01*
X469750Y482500D02*
X490750D01*
X469750D02*
Y493500D01*
X490750Y482500D02*
Y493500D01*
X172300Y2300D02*
Y53100D01*
X680300Y2300D02*
Y53100D01*
X172300Y2300D02*
X680300D01*
X395041Y359950D02*
X390470Y371947D01*
X385900Y359950D01*
X387614Y363949D02*
X393327D01*
X397840Y369662D02*
X398983Y370233D01*
X400697Y371947D01*
Y359950D01*
X282002Y111952D02*
Y117189D01*
X285811Y114333D01*
Y115761D01*
X286287Y116713D01*
X286763Y117189D01*
X288191Y117665D01*
X289144D01*
X290572Y117189D01*
X291524Y116237D01*
X292000Y114809D01*
Y113380D01*
X291524Y111952D01*
X291048Y111476D01*
X290096Y111000D01*
X291048Y120379D02*
X291524Y119903D01*
X292000Y120379D01*
X291524Y120855D01*
X291048Y120379D01*
X282002Y123997D02*
Y129234D01*
X285811Y126378D01*
Y127806D01*
X286287Y128758D01*
X286763Y129234D01*
X288191Y129710D01*
X289144D01*
X290572Y129234D01*
X291524Y128282D01*
X292000Y126854D01*
Y125426D01*
X291524Y123997D01*
X291048Y123521D01*
X290096Y123045D01*
X282002Y131948D02*
X292000Y135757D01*
X282002Y139565D02*
X292000Y135757D01*
X308002Y113333D02*
X318000D01*
X308002Y110000D02*
Y116665D01*
Y117856D02*
X318000Y124521D01*
X308002D02*
X318000Y117856D01*
X333002Y110000D02*
X343000D01*
X333002D02*
Y114285D01*
X333478Y115713D01*
X333954Y116189D01*
X334907Y116665D01*
X335859D01*
X336811Y116189D01*
X337287Y115713D01*
X337763Y114285D01*
Y110000D01*
Y113333D02*
X343000Y116665D01*
X333002Y118903D02*
X343000Y125568D01*
X333002D02*
X343000Y118903D01*
X360383Y117141D02*
X359430Y116665D01*
X358478Y115713D01*
X358002Y114761D01*
Y112857D01*
X358478Y111904D01*
X359430Y110952D01*
X360383Y110476D01*
X361811Y110000D01*
X364191D01*
X365620Y110476D01*
X366572Y110952D01*
X367524Y111904D01*
X368000Y112857D01*
Y114761D01*
X367524Y115713D01*
X366572Y116665D01*
X365620Y117141D01*
X364191D01*
Y114761D02*
Y117141D01*
X358002Y119427D02*
X368000D01*
X358002D02*
X368000Y126092D01*
X358002D02*
X368000D01*
X358002Y128853D02*
X368000D01*
X358002D02*
Y132186D01*
X358478Y133614D01*
X359430Y134566D01*
X360383Y135042D01*
X361811Y135518D01*
X364191D01*
X365620Y135042D01*
X366572Y134566D01*
X367524Y133614D01*
X368000Y132186D01*
Y128853D01*
X254002Y72000D02*
X261143D01*
X262572Y72476D01*
X263524Y73428D01*
X264000Y74857D01*
Y75809D01*
X263524Y77237D01*
X262572Y78189D01*
X261143Y78665D01*
X254002D01*
X264000Y89044D02*
X254002Y85235D01*
X264000Y81427D01*
X260667Y82855D02*
Y87616D01*
X254002Y91377D02*
X264000D01*
X254002D02*
Y95662D01*
X254478Y97090D01*
X254954Y97566D01*
X255907Y98042D01*
X256859D01*
X257811Y97566D01*
X258287Y97090D01*
X258763Y95662D01*
Y91377D01*
Y94709D02*
X264000Y98042D01*
X254002Y103612D02*
X264000D01*
X254002Y100280D02*
Y106945D01*
Y110992D02*
X254478Y109563D01*
X255907Y108611D01*
X258287Y108135D01*
X259715D01*
X262096Y108611D01*
X263524Y109563D01*
X264000Y110992D01*
Y111944D01*
X263524Y113372D01*
X262096Y114324D01*
X259715Y114800D01*
X258287D01*
X255907Y114324D01*
X254478Y113372D01*
X254002Y111944D01*
Y110992D01*
D42*
X193250Y71997D02*
X199914Y62000D01*
Y71997D02*
X193250Y62000D01*
X203247D02*
Y71997D01*
X208245D01*
X209911Y70331D01*
Y66998D01*
X208245Y65332D01*
X203247D01*
X213244Y62000D02*
X216576D01*
X214910D01*
Y71997D01*
X213244Y70331D01*
X221574D02*
X223240Y71997D01*
X226573D01*
X228239Y70331D01*
Y63666D01*
X226573Y62000D01*
X223240D01*
X221574Y63666D01*
Y70331D01*
X330250Y492747D02*
X336914Y482750D01*
Y492747D02*
X330250Y482750D01*
X340247D02*
Y492747D01*
X345245D01*
X346911Y491081D01*
Y487748D01*
X345245Y486082D01*
X340247D01*
X350244Y482750D02*
X353576D01*
X351910D01*
Y492747D01*
X350244Y491081D01*
X358574Y482750D02*
X361907D01*
X360240D01*
Y492747D01*
X358574Y491081D01*
X354250Y417997D02*
X360914Y408000D01*
Y417997D02*
X354250Y408000D01*
X364247D02*
Y417997D01*
X369245D01*
X370911Y416331D01*
Y412998D01*
X369245Y411332D01*
X364247D01*
X374244Y417997D02*
X380908D01*
Y416331D01*
X374244Y409666D01*
Y408000D01*
X287250Y416997D02*
X293915Y407000D01*
Y416997D02*
X287250Y407000D01*
X297247D02*
Y416997D01*
X302245D01*
X303911Y415331D01*
Y411998D01*
X302245Y410332D01*
X297247D01*
X307244Y407000D02*
X310576D01*
X308910D01*
Y416997D01*
X307244Y415331D01*
X320573Y407000D02*
Y416997D01*
X315574Y411998D01*
X322239D01*
D43*
X513001Y101252D02*
X563001D01*
X513001Y81252D02*
X563001D01*
Y101252D01*
X513001Y81252D02*
Y101252D01*
X350300Y422300D02*
X478000D01*
X350300Y472700D02*
X478000D01*
Y422300D02*
Y472700D01*
X350300Y422700D02*
Y472700D01*
X398000Y415000D02*
Y422300D01*
Y415000D02*
X428000D01*
Y422300D01*
X276000Y415000D02*
Y422300D01*
X246000Y415000D02*
X276000D01*
X246000D02*
Y422300D01*
X198300Y422700D02*
Y472700D01*
X326000Y422300D02*
Y472700D01*
X198300D02*
X326000D01*
X198300Y422300D02*
X326000D01*
X705919Y4000D02*
X704253Y5666D01*
Y8998D01*
X705919Y10664D01*
X707586D01*
X709252Y8998D01*
Y7332D01*
Y8998D01*
X710918Y10664D01*
X712584D01*
X714250Y8998D01*
Y5666D01*
X712584Y4000D01*
X704253Y13997D02*
X710918D01*
X714250Y17329D01*
X710918Y20661D01*
X704253D01*
X714250Y23994D02*
X704253D01*
Y28992D01*
X705919Y30658D01*
X709252D01*
X710918Y28992D01*
Y23994D01*
Y27326D02*
X714250Y30658D01*
X704253Y33990D02*
Y40655D01*
Y37323D01*
X714250D01*
X705919Y50652D02*
X704253Y48986D01*
Y45653D01*
X705919Y43987D01*
X712584D01*
X714250Y45653D01*
Y48986D01*
X712584Y50652D01*
X217665Y531000D02*
X211000D01*
X217665Y537664D01*
Y539331D01*
X215998Y540997D01*
X212666D01*
X211000Y539331D01*
X213500Y503500D02*
X216832D01*
X215166D01*
Y513497D01*
X213500Y511831D01*
X167665Y36000D02*
X161000D01*
X167665Y42664D01*
Y44331D01*
X165998Y45997D01*
X162666D01*
X161000Y44331D01*
X162500Y7500D02*
X165832D01*
X164166D01*
Y17497D01*
X162500Y15831D01*
X694000Y37998D02*
X684003D01*
X689002Y33000D01*
Y39664D01*
X685669Y42997D02*
X684003Y44663D01*
Y47995D01*
X685669Y49661D01*
X692334D01*
X694000Y47995D01*
Y44663D01*
X692334Y42997D01*
X685669D01*
D47*
X574528Y94612D02*
G03*
X580643Y134777I17472J17888D01*
G01*
D49*
X256001Y308002D02*
Y384001D01*
Y308002D02*
X368000D01*
X256000Y384001D02*
X367999D01*
Y379251D02*
Y384001D01*
Y379251D02*
X368000Y308002D01*
X256001Y179252D02*
Y255251D01*
Y179252D02*
X368000D01*
X256000Y255251D02*
X367999D01*
Y250501D02*
Y255251D01*
Y250501D02*
X368000Y179252D01*
D135*
X730000Y113500D02*
Y140500D01*
X751500D01*
Y113500D02*
Y140500D01*
X730000Y113500D02*
X751500D01*
X730000Y84250D02*
Y111250D01*
X751500D01*
Y84250D02*
Y111250D01*
X730000Y84250D02*
X751500D01*
D188*
X364162Y393162D02*
G03*
X364162Y393162I-3162J0D01*
G01*
X684377Y427623D02*
G03*
X684377Y427623I-1627J0D01*
G01*
X364162Y264412D02*
G03*
X364162Y264412I-3162J0D01*
G01*
X616070Y442000D02*
G03*
X616070Y442000I-3535J0D01*
G01*
X633535Y460000D02*
G03*
X633535Y460000I-3535J0D01*
G01*
X716500Y549500D02*
G03*
X708500Y541500I0J-8000D01*
G01*
X818484Y542002D02*
G03*
X810500Y549500I-7984J-502D01*
G01*
X716500Y593000D02*
G03*
X708500Y585000I0J-8000D01*
G01*
X716500Y559500D02*
G03*
X708500Y551500I0J-8000D01*
G01*
X818500Y585000D02*
G03*
X810500Y593000I-8000J0D01*
G01*
X818500Y551500D02*
G03*
X810500Y559500I-8000J0D01*
G01*
X727750Y137750D02*
G03*
X727750Y137750I-250J0D01*
G01*
Y108500D02*
G03*
X727750Y108500I-250J0D01*
G01*
X725000Y11000D02*
Y18000D01*
X725001Y32252D02*
Y40252D01*
X721001Y36252D02*
X729001D01*
X560000Y450000D02*
X620000D01*
X560000Y390000D02*
Y450000D01*
Y390000D02*
X620000D01*
Y450000D01*
X419250Y210000D02*
Y350000D01*
X419250Y350000D02*
X559250D01*
Y210000D02*
Y350000D01*
X419250Y210000D02*
X559250D01*
X408000Y351500D02*
X417750D01*
Y361250D01*
X404750Y364500D02*
X417750Y351500D01*
X419250Y342500D02*
X426750Y350000D01*
X783500Y282000D02*
X788500D01*
Y182000D02*
Y282000D01*
X783500Y182000D02*
X788500D01*
X676000D02*
Y217000D01*
Y182000D02*
X753500D01*
X676000Y282000D02*
X753500D01*
X676000Y244500D02*
Y282000D01*
X788500Y189500D02*
X871000D01*
Y274500D01*
X788500D02*
X871000D01*
X38000Y35000D02*
X60000D01*
X38000Y130000D02*
X60000D01*
X-30000Y129000D02*
X0D01*
Y145000D01*
X-30000Y35000D02*
X0D01*
Y19000D02*
Y35000D01*
X99000D02*
X118000D01*
X-30000D02*
Y129000D01*
X0Y34000D02*
Y129000D01*
X110000Y70000D02*
X118000D01*
X110000D02*
Y130000D01*
X118000Y35000D02*
Y70000D01*
X100000Y130000D02*
X110000D01*
X866750Y365750D02*
Y371750D01*
Y303750D02*
Y317750D01*
Y308750D02*
Y365750D01*
X673240Y324340D02*
Y350890D01*
X694950Y308750D02*
X733050D01*
X771150D02*
X866750D01*
X694950Y365750D02*
X733050D01*
X771150D02*
X866750D01*
X771000Y149500D02*
Y172750D01*
Y11000D02*
Y42500D01*
X869500Y94500D02*
Y172000D01*
Y17000D02*
Y94500D01*
X860500Y11000D02*
X869500D01*
Y172750D01*
X855250D02*
X869500D01*
X849710Y11000D02*
X869500D01*
X796770Y10680D02*
X819230D01*
X771000Y11000D02*
X774780D01*
X848440Y172750D02*
X869500D01*
X795000D02*
X819000D01*
X771000D02*
X774780D01*
X797640D02*
X819000D01*
X716500Y549500D02*
X810500D01*
X723500Y530500D02*
X831000D01*
X716500Y593000D02*
X810500D01*
X716500Y559500D02*
X810500D01*
X684000Y537500D02*
X709000D01*
X684000Y411000D02*
Y476000D01*
X708500Y537500D02*
Y585000D01*
X818500Y530500D02*
Y585000D01*
X831000Y410500D02*
Y476000D01*
X684000Y510500D02*
Y537500D01*
X700000Y392500D02*
X721500D01*
X709000Y537500D02*
X723500Y530500D01*
X831000Y510500D02*
Y530500D01*
X732500Y2500D02*
Y55000D01*
X757500D01*
Y2500D02*
Y55000D01*
X732500Y2500D02*
X757500D01*
X732500Y50800D02*
Y53300D01*
X377200Y76000D02*
Y106000D01*
X272200D02*
X377200D01*
X272200Y76000D02*
X377200D01*
X272200D02*
Y106000D01*
X544000Y127500D02*
X556000D01*
X544000Y147500D02*
X556000D01*
X487000Y130000D02*
X497000Y120000D01*
X483000Y130000D02*
X487000D01*
X473000Y120000D02*
X483000Y130000D01*
X491000Y94000D02*
X498000Y101000D01*
X479000Y94000D02*
X491000D01*
X473000Y100000D02*
X479000Y94000D01*
X480000D02*
X490000D01*
X626000Y310997D02*
X636000Y300997D01*
X640000D01*
X650000Y310997D01*
X625000Y329997D02*
X632000Y336997D01*
X644000D01*
X650000Y330997D01*
X633000Y336997D02*
X643000D01*
X186250Y417995D02*
Y493005D01*
X2700Y535510D02*
X34450D01*
X2700Y375490D02*
X34450D01*
X-28250D02*
Y535510D01*
X-28010Y375490D02*
X72550D01*
X-27510Y535510D02*
X72550D01*
X186250Y493005D02*
Y535510D01*
Y375490D02*
Y417995D01*
X-28250Y535510D02*
X90000D01*
X134450D02*
X186250D01*
X128100Y375490D02*
X186250D01*
X-28250D02*
X90000D01*
X110001Y238252D02*
X115001D01*
X70001D02*
X80001D01*
X-5999D02*
X11501D01*
X11501Y238252D02*
X11501Y238252D01*
X115001Y212252D02*
Y238252D01*
Y191252D02*
Y208252D01*
Y212252D01*
X-5999Y178252D02*
Y238252D01*
X-25999Y208252D02*
X-25999Y208252D01*
Y238252D01*
Y178252D02*
Y208252D01*
X-25999Y178252D02*
X-25999Y178252D01*
X-25999Y178252D02*
X-5999D01*
X-25999Y238252D02*
X-5999D01*
X-5999Y238252D01*
X11501Y178252D02*
X92001D01*
X-5999Y238252D02*
X11501D01*
X-5999Y178252D02*
X11501D01*
X110001Y340752D02*
X115001D01*
X70001D02*
X80001D01*
X-5999D02*
X11501D01*
X11501Y340752D02*
X11501Y340752D01*
X115001Y314752D02*
Y340752D01*
Y293752D02*
Y310752D01*
Y314752D01*
X-5999Y280752D02*
Y340752D01*
X-25999Y310752D02*
X-25999Y310752D01*
Y340752D01*
Y280752D02*
Y310752D01*
X-25999Y280752D02*
X-25999Y280752D01*
X-25999Y280752D02*
X-5999D01*
X-25999Y340752D02*
X-5999D01*
X-5999Y340752D01*
X11501Y280752D02*
X92001D01*
X-5999Y340752D02*
X11501D01*
X-5999Y280752D02*
X11501D01*
X339000Y426000D02*
X344078D01*
X341539D01*
Y441235D01*
X339000Y438696D01*
X187000Y426000D02*
X192078D01*
X189539D01*
Y441235D01*
X187000Y438696D01*
D189*
X659500Y522500D02*
G03*
X659500Y522500I-22000J0D01*
G01*
D190*
X240000Y390000D02*
G03*
X240000Y390000I-25000J0D01*
G01*
D191*
Y112500D02*
G03*
X240000Y112500I-25000J0D01*
G01*
D192*
X566801Y114752D02*
G03*
X566801Y114752I-1250J0D01*
G01*
X223300Y498300D02*
Y549100D01*
X604300Y498300D02*
Y549100D01*
X223300Y498300D02*
X604300D01*
X223300Y549100D02*
X604300D01*
X396000Y491000D02*
Y498000D01*
Y491000D02*
X431000D01*
Y498300D01*
D193*
X311250Y481000D02*
Y485998D01*
X313749D01*
X314582Y485165D01*
Y483499D01*
X313749Y482666D01*
X311250D01*
X312916D02*
X314582Y481000D01*
X316248D02*
X317915D01*
X317082D01*
Y485998D01*
X316248Y485165D01*
X320414Y481833D02*
X321247Y481000D01*
X322913D01*
X323746Y481833D01*
Y485165D01*
X322913Y485998D01*
X321247D01*
X320414Y485165D01*
Y484332D01*
X321247Y483499D01*
X323746D01*
X243250Y481000D02*
Y485998D01*
X245749D01*
X246582Y485165D01*
Y483499D01*
X245749Y482666D01*
X243250D01*
X244916D02*
X246582Y481000D01*
X248248D02*
X249914D01*
X249081D01*
Y485998D01*
X248248Y485165D01*
X255746Y485998D02*
X252414D01*
Y483499D01*
X254080Y484332D01*
X254913D01*
X255746Y483499D01*
Y481833D01*
X254913Y481000D01*
X253247D01*
X252414Y481833D01*
X504002Y86000D02*
X509000D01*
Y88499D01*
X508167Y89332D01*
X504835D01*
X504002Y88499D01*
Y86000D01*
Y90998D02*
X509000D01*
Y93498D01*
X508167Y94331D01*
X504835D01*
X504002Y93498D01*
Y90998D01*
Y95997D02*
Y99329D01*
X504835D01*
X508167Y95997D01*
X509000D01*
X232085Y297332D02*
X231252Y296499D01*
Y294833D01*
X232085Y294000D01*
X235417D01*
X236250Y294833D01*
Y296499D01*
X235417Y297332D01*
X236250Y298998D02*
Y300665D01*
Y299831D01*
X231252D01*
X232085Y298998D01*
X758501Y153970D02*
X763499Y157302D01*
X758501D02*
X763499Y153970D01*
Y158968D02*
X758501D01*
Y161468D01*
X759334Y162301D01*
X761000D01*
X761833Y161468D01*
Y158968D01*
X759334Y163967D02*
X758501Y164800D01*
Y166466D01*
X759334Y167299D01*
X760167D01*
X761000Y166466D01*
X761833Y167299D01*
X762666D01*
X763499Y166466D01*
Y164800D01*
X762666Y163967D01*
X761833D01*
X761000Y164800D01*
X760167Y163967D01*
X759334D01*
X761000Y164800D02*
Y166466D01*
X323000Y70998D02*
X326332Y66000D01*
Y70998D02*
X323000Y66000D01*
X327998D02*
Y70998D01*
X330498D01*
X331331Y70165D01*
Y68499D01*
X330498Y67666D01*
X327998D01*
X332997Y66833D02*
X333830Y66000D01*
X335496D01*
X336329Y66833D01*
Y70165D01*
X335496Y70998D01*
X333830D01*
X332997Y70165D01*
Y69332D01*
X333830Y68499D01*
X336329D01*
X480752Y372002D02*
X475754D01*
Y374501D01*
X476587Y375334D01*
X478253D01*
X479086Y374501D01*
Y372002D01*
Y373668D02*
X480752Y375334D01*
X476587Y377000D02*
X475754Y377834D01*
Y379500D01*
X476587Y380333D01*
X477420D01*
X478253Y379500D01*
Y378666D01*
Y379500D01*
X479086Y380333D01*
X479919D01*
X480752Y379500D01*
Y377834D01*
X479919Y377000D01*
X480752Y384498D02*
X475754D01*
X478253Y381999D01*
Y385331D01*
X142250Y157998D02*
Y153000D01*
X145582D01*
X147248D02*
X148914D01*
X148082D01*
Y157998D01*
X147248Y157165D01*
X154746Y153000D02*
X151414D01*
X154746Y156332D01*
Y157165D01*
X153913Y157998D01*
X152247D01*
X151414Y157165D01*
X110332Y29165D02*
X109499Y29998D01*
X107833D01*
X107000Y29165D01*
Y25833D01*
X107833Y25000D01*
X109499D01*
X110332Y25833D01*
X111998Y25000D02*
X113665D01*
X112831D01*
Y29998D01*
X111998Y29165D01*
X116164D02*
X116997Y29998D01*
X118663D01*
X119496Y29165D01*
Y28332D01*
X118663Y27499D01*
X117830D01*
X118663D01*
X119496Y26666D01*
Y25833D01*
X118663Y25000D01*
X116997D01*
X116164Y25833D01*
X121162Y29165D02*
X121995Y29998D01*
X123661D01*
X124494Y29165D01*
Y25833D01*
X123661Y25000D01*
X121995D01*
X121162Y25833D01*
Y29165D01*
X164332Y70165D02*
X163499Y70998D01*
X161833D01*
X161000Y70165D01*
Y66833D01*
X161833Y66000D01*
X163499D01*
X164332Y66833D01*
X165998Y66000D02*
X167665D01*
X166831D01*
Y70998D01*
X165998Y70165D01*
X173496Y66000D02*
X170164D01*
X173496Y69332D01*
Y70165D01*
X172663Y70998D01*
X170997D01*
X170164Y70165D01*
X175162Y66833D02*
X175995Y66000D01*
X177661D01*
X178494Y66833D01*
Y70165D01*
X177661Y70998D01*
X175995D01*
X175162Y70165D01*
Y69332D01*
X175995Y68499D01*
X178494D01*
X466752Y371749D02*
X461754D01*
Y374248D01*
X462587Y375081D01*
X464253D01*
X465086Y374248D01*
Y371749D01*
Y373415D02*
X466752Y375081D01*
X461754Y376747D02*
Y380080D01*
X462587D01*
X465919Y376747D01*
X466752D01*
Y385078D02*
Y381746D01*
X463420Y385078D01*
X462587D01*
X461754Y384245D01*
Y382579D01*
X462587Y381746D01*
X454252Y372002D02*
X449254D01*
Y374501D01*
X450087Y375334D01*
X451753D01*
X452586Y374501D01*
Y372002D01*
Y373668D02*
X454252Y375334D01*
X449254Y380333D02*
X450087Y378666D01*
X451753Y377000D01*
X453419D01*
X454252Y377833D01*
Y379500D01*
X453419Y380333D01*
X452586D01*
X451753Y379500D01*
Y377000D01*
X453419Y381999D02*
X454252Y382832D01*
Y384498D01*
X453419Y385331D01*
X450087D01*
X449254Y384498D01*
Y382832D01*
X450087Y381999D01*
X450920D01*
X451753Y382832D01*
Y385331D01*
X351333Y292417D02*
X350500Y293250D01*
X348834D01*
X348001Y292417D01*
Y289085D01*
X348834Y288252D01*
X350500D01*
X351333Y289085D01*
X356332Y288252D02*
X352999D01*
X356332Y291584D01*
Y292417D01*
X355499Y293250D01*
X353832D01*
X352999Y292417D01*
X361330Y288252D02*
X357998D01*
X361330Y291584D01*
Y292417D01*
X360497Y293250D01*
X358831D01*
X357998Y292417D01*
X596501Y168252D02*
X591503D01*
Y170751D01*
X592336Y171584D01*
X594002D01*
X594835Y170751D01*
Y168252D01*
Y169918D02*
X596501Y171584D01*
X591503Y173250D02*
Y176583D01*
X592336D01*
X595668Y173250D01*
X596501D01*
X592336Y178249D02*
X591503Y179082D01*
Y180748D01*
X592336Y181581D01*
X593169D01*
X594002Y180748D01*
X594835Y181581D01*
X595668D01*
X596501Y180748D01*
Y179082D01*
X595668Y178249D01*
X594835D01*
X594002Y179082D01*
X593169Y178249D01*
X592336D01*
X594002Y179082D02*
Y180748D01*
X582001Y169252D02*
X577003D01*
Y171751D01*
X577836Y172584D01*
X579502D01*
X580335Y171751D01*
Y169252D01*
Y170918D02*
X582001Y172584D01*
X577003Y174250D02*
Y177583D01*
X577836D01*
X581168Y174250D01*
X582001D01*
X577003Y182581D02*
X577836Y180915D01*
X579502Y179249D01*
X581168D01*
X582001Y180082D01*
Y181748D01*
X581168Y182581D01*
X580335D01*
X579502Y181748D01*
Y179249D01*
X522003Y132252D02*
X527001D01*
Y134751D01*
X526168Y135584D01*
X525335D01*
X524502Y134751D01*
Y132252D01*
Y134751D01*
X523669Y135584D01*
X522836D01*
X522003Y134751D01*
Y132252D01*
X526168Y140583D02*
X522836D01*
X522003Y139750D01*
Y138083D01*
X522836Y137250D01*
X526168D01*
X527001Y138083D01*
Y139750D01*
X525335Y138917D02*
X527001Y140583D01*
Y139750D02*
X526168Y140583D01*
X522836Y142249D02*
X522003Y143082D01*
Y144748D01*
X522836Y145581D01*
X523669D01*
X524502Y144748D01*
Y143915D01*
Y144748D01*
X525335Y145581D01*
X526168D01*
X527001Y144748D01*
Y143082D01*
X526168Y142249D01*
X169250Y248000D02*
Y252998D01*
X171749D01*
X172582Y252165D01*
Y250499D01*
X171749Y249666D01*
X169250D01*
X170916D02*
X172582Y248000D01*
X174248Y252998D02*
X177581D01*
Y252165D01*
X174248Y248833D01*
Y248000D01*
X179247Y252998D02*
X182579D01*
Y252165D01*
X179247Y248833D01*
Y248000D01*
X184250Y217998D02*
Y213000D01*
X187582D01*
X192581Y217998D02*
X189248D01*
Y213000D01*
X192581D01*
X189248Y215499D02*
X190914D01*
X194247Y217998D02*
Y213000D01*
X196746D01*
X197579Y213833D01*
Y217165D01*
X196746Y217998D01*
X194247D01*
X202577Y213000D02*
X199245D01*
X202577Y216332D01*
Y217165D01*
X201744Y217998D01*
X200078D01*
X199245Y217165D01*
X408001Y74252D02*
X403003D01*
Y76751D01*
X403836Y77584D01*
X405502D01*
X406335Y76751D01*
Y74252D01*
Y75918D02*
X408001Y77584D01*
X403836Y79250D02*
X403003Y80084D01*
Y81750D01*
X403836Y82583D01*
X404669D01*
X405502Y81750D01*
X406335Y82583D01*
X407168D01*
X408001Y81750D01*
Y80084D01*
X407168Y79250D01*
X406335D01*
X405502Y80084D01*
X404669Y79250D01*
X403836D01*
X405502Y80084D02*
Y81750D01*
X408001Y87581D02*
Y84249D01*
X404669Y87581D01*
X403836D01*
X403003Y86748D01*
Y85082D01*
X403836Y84249D01*
X438001Y65252D02*
Y70251D01*
X440500D01*
X441333Y69417D01*
Y67751D01*
X440500Y66918D01*
X438001D01*
X439667D02*
X441333Y65252D01*
X442999Y69417D02*
X443832Y70251D01*
X445499D01*
X446332Y69417D01*
Y68584D01*
X445499Y67751D01*
X446332Y66918D01*
Y66085D01*
X445499Y65252D01*
X443832D01*
X442999Y66085D01*
Y66918D01*
X443832Y67751D01*
X442999Y68584D01*
Y69417D01*
X443832Y67751D02*
X445499D01*
X447998Y69417D02*
X448831Y70251D01*
X450497D01*
X451330Y69417D01*
Y66085D01*
X450497Y65252D01*
X448831D01*
X447998Y66085D01*
Y69417D01*
X521333Y158417D02*
X520500Y159250D01*
X518834D01*
X518001Y158417D01*
Y155085D01*
X518834Y154252D01*
X520500D01*
X521333Y155085D01*
X522999Y154252D02*
X524665D01*
X523832D01*
Y159250D01*
X522999Y158417D01*
X527165D02*
X527998Y159250D01*
X529664D01*
X530497Y158417D01*
Y155085D01*
X529664Y154252D01*
X527998D01*
X527165Y155085D01*
Y158417D01*
X532163D02*
X532996Y159250D01*
X534662D01*
X535495Y158417D01*
Y157584D01*
X534662Y156751D01*
X535495Y155918D01*
Y155085D01*
X534662Y154252D01*
X532996D01*
X532163Y155085D01*
Y155918D01*
X532996Y156751D01*
X532163Y157584D01*
Y158417D01*
X532996Y156751D02*
X534662D01*
X389333Y110417D02*
X388500Y111250D01*
X386834D01*
X386001Y110417D01*
Y107085D01*
X386834Y106252D01*
X388500D01*
X389333Y107085D01*
X390999D02*
X391832Y106252D01*
X393498D01*
X394332Y107085D01*
Y110417D01*
X393498Y111250D01*
X391832D01*
X390999Y110417D01*
Y109584D01*
X391832Y108751D01*
X394332D01*
X399330Y111250D02*
X395998D01*
Y108751D01*
X397664Y109584D01*
X398497D01*
X399330Y108751D01*
Y107085D01*
X398497Y106252D01*
X396831D01*
X395998Y107085D01*
X179085Y298332D02*
X178252Y297499D01*
Y295833D01*
X179085Y295000D01*
X182417D01*
X183250Y295833D01*
Y297499D01*
X182417Y298332D01*
X183250Y299998D02*
Y301665D01*
Y300831D01*
X178252D01*
X179085Y299998D01*
X183250Y304164D02*
Y305830D01*
Y304997D01*
X178252D01*
X179085Y304164D01*
Y308329D02*
X178252Y309162D01*
Y310828D01*
X179085Y311661D01*
X179918D01*
X180751Y310828D01*
X181584Y311661D01*
X182417D01*
X183250Y310828D01*
Y309162D01*
X182417Y308329D01*
X181584D01*
X180751Y309162D01*
X179918Y308329D01*
X179085D01*
X180751Y309162D02*
Y310828D01*
X212085Y298332D02*
X211252Y297499D01*
Y295833D01*
X212085Y295000D01*
X215417D01*
X216250Y295833D01*
Y297499D01*
X215417Y298332D01*
X216250Y299998D02*
Y301665D01*
Y300831D01*
X211252D01*
X212085Y299998D01*
X216250Y304164D02*
Y305830D01*
Y304997D01*
X211252D01*
X212085Y304164D01*
X211252Y308329D02*
Y311661D01*
X212085D01*
X215417Y308329D01*
X216250D01*
X154582Y349165D02*
X153749Y349998D01*
X152083D01*
X151250Y349165D01*
Y345833D01*
X152083Y345000D01*
X153749D01*
X154582Y345833D01*
X156248Y345000D02*
X157914D01*
X157081D01*
Y349998D01*
X156248Y349165D01*
X160414Y345000D02*
X162080D01*
X161247D01*
Y349998D01*
X160414Y349165D01*
X167911Y349998D02*
X164579D01*
Y347499D01*
X166245Y348332D01*
X167078D01*
X167911Y347499D01*
Y345833D01*
X167078Y345000D01*
X165412D01*
X164579Y345833D01*
X597836Y338584D02*
X597003Y337751D01*
Y336085D01*
X597836Y335252D01*
X601168D01*
X602001Y336085D01*
Y337751D01*
X601168Y338584D01*
X602001Y340250D02*
Y341917D01*
Y341083D01*
X597003D01*
X597836Y340250D01*
Y344416D02*
X597003Y345249D01*
Y346915D01*
X597836Y347748D01*
X601168D01*
X602001Y346915D01*
Y345249D01*
X601168Y344416D01*
X597836D01*
Y349414D02*
X597003Y350247D01*
Y351913D01*
X597836Y352746D01*
X598669D01*
X599502Y351913D01*
Y351080D01*
Y351913D01*
X600335Y352746D01*
X601168D01*
X602001Y351913D01*
Y350247D01*
X601168Y349414D01*
X645836Y394584D02*
X645003Y393751D01*
Y392085D01*
X645836Y391252D01*
X649168D01*
X650001Y392085D01*
Y393751D01*
X649168Y394584D01*
Y396250D02*
X650001Y397084D01*
Y398750D01*
X649168Y399583D01*
X645836D01*
X645003Y398750D01*
Y397084D01*
X645836Y396250D01*
X646669D01*
X647502Y397084D01*
Y399583D01*
X645836Y401249D02*
X645003Y402082D01*
Y403748D01*
X645836Y404581D01*
X646669D01*
X647502Y403748D01*
Y402915D01*
Y403748D01*
X648335Y404581D01*
X649168D01*
X650001Y403748D01*
Y402082D01*
X649168Y401249D01*
X467001Y131603D02*
Y126605D01*
X470333D01*
X471999Y131603D02*
X475332D01*
Y130770D01*
X471999Y127438D01*
Y126605D01*
X434001Y111250D02*
Y106252D01*
X436500D01*
X437333Y107085D01*
Y110417D01*
X436500Y111250D01*
X434001D01*
X438999D02*
Y106252D01*
X441498D01*
X442332Y107085D01*
Y110417D01*
X441498Y111250D01*
X438999D01*
X443998Y107085D02*
X444831Y106252D01*
X446497D01*
X447330Y107085D01*
Y110417D01*
X446497Y111250D01*
X444831D01*
X443998Y110417D01*
Y109584D01*
X444831Y108751D01*
X447330D01*
X631001Y387251D02*
Y382252D01*
X633500D01*
X634333Y383085D01*
Y386417D01*
X633500Y387251D01*
X631001D01*
X635999D02*
Y382252D01*
X638498D01*
X639332Y383085D01*
Y386417D01*
X638498Y387251D01*
X635999D01*
X640998Y386417D02*
X641831Y387251D01*
X643497D01*
X644330Y386417D01*
Y385584D01*
X643497Y384751D01*
X644330Y383918D01*
Y383085D01*
X643497Y382252D01*
X641831D01*
X640998Y383085D01*
Y383918D01*
X641831Y384751D01*
X640998Y385584D01*
Y386417D01*
X641831Y384751D02*
X643497D01*
X464333Y61417D02*
X463500Y62250D01*
X461834D01*
X461001Y61417D01*
Y58085D01*
X461834Y57252D01*
X463500D01*
X464333Y58085D01*
X465999Y57252D02*
X467665D01*
X466832D01*
Y62250D01*
X465999Y61417D01*
X470165D02*
X470998Y62250D01*
X472664D01*
X473497Y61417D01*
Y58085D01*
X472664Y57252D01*
X470998D01*
X470165Y58085D01*
Y61417D01*
X475163Y57252D02*
X476829D01*
X475996D01*
Y62250D01*
X475163Y61417D01*
X41250Y23998D02*
X44582Y19000D01*
Y23998D02*
X41250Y19000D01*
X46248D02*
Y23998D01*
X48748D01*
X49581Y23165D01*
Y21499D01*
X48748Y20666D01*
X46248D01*
X51247Y19000D02*
X52913D01*
X52080D01*
Y23998D01*
X51247Y23165D01*
X55412D02*
X56245Y23998D01*
X57911D01*
X58744Y23165D01*
Y22332D01*
X57911Y21499D01*
X57078D01*
X57911D01*
X58744Y20666D01*
Y19833D01*
X57911Y19000D01*
X56245D01*
X55412Y19833D01*
X710001Y175250D02*
X713333Y170252D01*
Y175250D02*
X710001Y170252D01*
X714999D02*
Y175250D01*
X717498D01*
X718332Y174417D01*
Y172751D01*
X717498Y171918D01*
X714999D01*
X723330Y175250D02*
X721664Y174417D01*
X719998Y172751D01*
Y171085D01*
X720831Y170252D01*
X722497D01*
X723330Y171085D01*
Y171918D01*
X722497Y172751D01*
X719998D01*
X375333Y301417D02*
X374500Y302250D01*
X372834D01*
X372001Y301417D01*
Y298085D01*
X372834Y297252D01*
X374500D01*
X375333Y298085D01*
X376999Y297252D02*
X378666D01*
X377832D01*
Y302250D01*
X376999Y301417D01*
X381165Y298085D02*
X381998Y297252D01*
X383664D01*
X384497Y298085D01*
Y301417D01*
X383664Y302250D01*
X381998D01*
X381165Y301417D01*
Y300584D01*
X381998Y299751D01*
X384497D01*
X670836Y407584D02*
X670003Y406751D01*
Y405085D01*
X670836Y404252D01*
X674168D01*
X675001Y405085D01*
Y406751D01*
X674168Y407584D01*
X675001Y409250D02*
Y410917D01*
Y410084D01*
X670003D01*
X670836Y409250D01*
X670003Y416748D02*
X670836Y415082D01*
X672502Y413416D01*
X674168D01*
X675001Y414249D01*
Y415915D01*
X674168Y416748D01*
X673335D01*
X672502Y415915D01*
Y413416D01*
X659333Y482417D02*
X658500Y483250D01*
X656834D01*
X656001Y482417D01*
Y479085D01*
X656834Y478252D01*
X658500D01*
X659333Y479085D01*
X660999Y478252D02*
X662665D01*
X661832D01*
Y483250D01*
X660999Y482417D01*
X665165Y483250D02*
X668497D01*
Y482417D01*
X665165Y479085D01*
Y478252D01*
X483001Y360251D02*
Y355252D01*
X485500D01*
X486333Y356085D01*
Y359417D01*
X485500Y360251D01*
X483001D01*
X487999D02*
Y355252D01*
X490499D01*
X491332Y356085D01*
Y359417D01*
X490499Y360251D01*
X487999D01*
X492998Y355252D02*
X494664D01*
X493831D01*
Y360251D01*
X492998Y359417D01*
X580001Y366250D02*
Y361252D01*
X582500D01*
X583333Y362085D01*
Y365417D01*
X582500Y366250D01*
X580001D01*
X584999D02*
Y361252D01*
X587499D01*
X588332Y362085D01*
Y365417D01*
X587499Y366250D01*
X584999D01*
X593330Y361252D02*
X589998D01*
X593330Y364584D01*
Y365417D01*
X592497Y366250D01*
X590831D01*
X589998Y365417D01*
X238001Y349250D02*
Y344252D01*
X240500D01*
X241333Y345085D01*
Y348417D01*
X240500Y349250D01*
X238001D01*
X242999D02*
Y344252D01*
X245499D01*
X246332Y345085D01*
Y348417D01*
X245499Y349250D01*
X242999D01*
X247998Y348417D02*
X248831Y349250D01*
X250497D01*
X251330Y348417D01*
Y347584D01*
X250497Y346751D01*
X249664D01*
X250497D01*
X251330Y345918D01*
Y345085D01*
X250497Y344252D01*
X248831D01*
X247998Y345085D01*
X237252Y217250D02*
Y212252D01*
X239751D01*
X240584Y213085D01*
Y216417D01*
X239751Y217250D01*
X237252D01*
X242250D02*
Y212252D01*
X244750D01*
X245583Y213085D01*
Y216417D01*
X244750Y217250D01*
X242250D01*
X250581D02*
X248915Y216417D01*
X247249Y214751D01*
Y213085D01*
X248082Y212252D01*
X249748D01*
X250581Y213085D01*
Y213918D01*
X249748Y214751D01*
X247249D01*
X632001Y478252D02*
Y483250D01*
X634500D01*
X635333Y482417D01*
Y480751D01*
X634500Y479918D01*
X632001D01*
X633667D02*
X635333Y478252D01*
X640332D02*
X636999D01*
X640332Y481584D01*
Y482417D01*
X639498Y483250D01*
X637832D01*
X636999Y482417D01*
X645330Y483250D02*
X641998D01*
Y480751D01*
X643664Y481584D01*
X644497D01*
X645330Y480751D01*
Y479085D01*
X644497Y478252D01*
X642831D01*
X641998Y479085D01*
X396156Y171577D02*
X391158D01*
Y174076D01*
X391991Y174909D01*
X393657D01*
X394490Y174076D01*
Y171577D01*
Y173243D02*
X396156Y174909D01*
X391158Y176575D02*
Y179907D01*
X391991D01*
X395323Y176575D01*
X396156D01*
X408001Y171252D02*
X403003D01*
Y173751D01*
X403836Y174584D01*
X405502D01*
X406335Y173751D01*
Y171252D01*
Y172918D02*
X408001Y174584D01*
X407168Y176250D02*
X408001Y177083D01*
Y178750D01*
X407168Y179583D01*
X403836D01*
X403003Y178750D01*
Y177083D01*
X403836Y176250D01*
X404669D01*
X405502Y177083D01*
Y179583D01*
X326251Y278252D02*
Y283250D01*
X328750D01*
X329583Y282417D01*
Y280751D01*
X328750Y279918D01*
X326251D01*
X327917D02*
X329583Y278252D01*
X331249D02*
X332915D01*
X332082D01*
Y283250D01*
X331249Y282417D01*
X335415Y283250D02*
X338747D01*
Y282417D01*
X335415Y279085D01*
Y278252D01*
X304903Y140271D02*
Y145269D01*
X307402D01*
X308235Y144436D01*
Y142770D01*
X307402Y141937D01*
X304903D01*
X306569D02*
X308235Y140271D01*
X309901D02*
X311567D01*
X310734D01*
Y145269D01*
X309901Y144436D01*
X314066D02*
X314899Y145269D01*
X316566D01*
X317399Y144436D01*
Y143603D01*
X316566Y142770D01*
X317399Y141937D01*
Y141104D01*
X316566Y140271D01*
X314899D01*
X314066Y141104D01*
Y141937D01*
X314899Y142770D01*
X314066Y143603D01*
Y144436D01*
X314899Y142770D02*
X316566D01*
X833999Y236252D02*
X829001Y232920D01*
X833999D02*
X829001Y236252D01*
Y231254D02*
X833999D01*
Y228755D01*
X833166Y227922D01*
X831500D01*
X830667Y228755D01*
Y231254D01*
X833999Y222923D02*
Y226255D01*
X831500D01*
X832333Y224589D01*
Y223756D01*
X831500Y222923D01*
X829834D01*
X829001Y223756D01*
Y225422D01*
X829834Y226255D01*
X755000Y522248D02*
X758332Y517250D01*
Y522248D02*
X755000Y517250D01*
X763331Y521415D02*
X762498Y522248D01*
X760831D01*
X759998Y521415D01*
Y520582D01*
X760831Y519749D01*
X762498D01*
X763331Y518916D01*
Y518083D01*
X762498Y517250D01*
X760831D01*
X759998Y518083D01*
X768329Y517250D02*
X764997D01*
X768329Y520582D01*
Y521415D01*
X767496Y522248D01*
X765830D01*
X764997Y521415D01*
X710001Y302250D02*
X713333Y297252D01*
Y302250D02*
X710001Y297252D01*
X714999D02*
Y302250D01*
X717498D01*
X718332Y301417D01*
Y299751D01*
X717498Y298918D01*
X714999D01*
X723330Y297252D02*
X719998D01*
X723330Y300584D01*
Y301417D01*
X722497Y302250D01*
X720831D01*
X719998Y301417D01*
X413333Y108417D02*
X412500Y109250D01*
X410834D01*
X410001Y108417D01*
Y105085D01*
X410834Y104252D01*
X412500D01*
X413333Y105085D01*
X414999D02*
X415832Y104252D01*
X417499D01*
X418332Y105085D01*
Y108417D01*
X417499Y109250D01*
X415832D01*
X414999Y108417D01*
Y107584D01*
X415832Y106751D01*
X418332D01*
X423330Y109250D02*
X421664Y108417D01*
X419998Y106751D01*
Y105085D01*
X420831Y104252D01*
X422497D01*
X423330Y105085D01*
Y105918D01*
X422497Y106751D01*
X419998D01*
X660836Y342584D02*
X660003Y341751D01*
Y340085D01*
X660836Y339252D01*
X664168D01*
X665001Y340085D01*
Y341751D01*
X664168Y342584D01*
Y344250D02*
X665001Y345084D01*
Y346750D01*
X664168Y347583D01*
X660836D01*
X660003Y346750D01*
Y345084D01*
X660836Y344250D01*
X661669D01*
X662502Y345084D01*
Y347583D01*
X665001Y351748D02*
X660003D01*
X662502Y349249D01*
Y352581D01*
X121835Y43332D02*
X121002Y42499D01*
Y40833D01*
X121835Y40000D01*
X125167D01*
X126000Y40833D01*
Y42499D01*
X125167Y43332D01*
X126000Y44998D02*
Y46665D01*
Y45831D01*
X121002D01*
X121835Y44998D01*
X126000Y52496D02*
Y49164D01*
X122668Y52496D01*
X121835D01*
X121002Y51663D01*
Y49997D01*
X121835Y49164D01*
Y54162D02*
X121002Y54995D01*
Y56661D01*
X121835Y57494D01*
X122668D01*
X123501Y56661D01*
X124334Y57494D01*
X125167D01*
X126000Y56661D01*
Y54995D01*
X125167Y54162D01*
X124334D01*
X123501Y54995D01*
X122668Y54162D01*
X121835D01*
X123501Y54995D02*
Y56661D01*
X602001Y321250D02*
Y316252D01*
X605333D01*
X610332Y321250D02*
X606999D01*
Y318751D01*
X608666Y319584D01*
X609498D01*
X610332Y318751D01*
Y317085D01*
X609498Y316252D01*
X607832D01*
X606999Y317085D01*
X616250Y489998D02*
Y485000D01*
X619582D01*
X624581Y489998D02*
X621248D01*
Y485000D01*
X624581D01*
X621248Y487499D02*
X622915D01*
X626247Y489998D02*
Y485000D01*
X628746D01*
X629579Y485833D01*
Y489165D01*
X628746Y489998D01*
X626247D01*
X631245Y485000D02*
X632911D01*
X632078D01*
Y489998D01*
X631245Y489165D01*
X642003Y434252D02*
X647001D01*
Y436751D01*
X646168Y437584D01*
X645335D01*
X644502Y436751D01*
Y434252D01*
Y436751D01*
X643669Y437584D01*
X642836D01*
X642003Y436751D01*
Y434252D01*
X646168Y442583D02*
X642836D01*
X642003Y441750D01*
Y440084D01*
X642836Y439250D01*
X646168D01*
X647001Y440084D01*
Y441750D01*
X645335Y440917D02*
X647001Y442583D01*
Y441750D02*
X646168Y442583D01*
X647001Y444249D02*
Y445915D01*
Y445082D01*
X642003D01*
X642836Y444249D01*
X159001Y369250D02*
X162333Y364252D01*
Y369250D02*
X159001Y364252D01*
X167332Y368417D02*
X166499Y369250D01*
X164832D01*
X163999Y368417D01*
Y367584D01*
X164832Y366751D01*
X166499D01*
X167332Y365918D01*
Y365085D01*
X166499Y364252D01*
X164832D01*
X163999Y365085D01*
X168998Y364252D02*
X170664D01*
X169831D01*
Y369250D01*
X168998Y368417D01*
X538250Y484000D02*
Y488998D01*
X540749D01*
X541582Y488165D01*
Y486499D01*
X540749Y485666D01*
X538250D01*
X539916D02*
X541582Y484000D01*
X543248Y488998D02*
X546581D01*
Y488165D01*
X543248Y484833D01*
Y484000D01*
X548247Y488165D02*
X549080Y488998D01*
X550746D01*
X551579Y488165D01*
Y487332D01*
X550746Y486499D01*
X549913D01*
X550746D01*
X551579Y485666D01*
Y484833D01*
X550746Y484000D01*
X549080D01*
X548247Y484833D01*
X45250Y171998D02*
X48582Y167000D01*
Y171998D02*
X45250Y167000D01*
X50248D02*
Y171998D01*
X52748D01*
X53581Y171165D01*
Y169499D01*
X52748Y168666D01*
X50248D01*
X55247Y171165D02*
X56080Y171998D01*
X57746D01*
X58579Y171165D01*
Y170332D01*
X57746Y169499D01*
X56913D01*
X57746D01*
X58579Y168666D01*
Y167833D01*
X57746Y167000D01*
X56080D01*
X55247Y167833D01*
X47250Y274998D02*
X50582Y270000D01*
Y274998D02*
X47250Y270000D01*
X52248D02*
Y274998D01*
X54748D01*
X55581Y274165D01*
Y272499D01*
X54748Y271666D01*
X52248D01*
X57247Y270000D02*
X58913D01*
X58080D01*
Y274998D01*
X57247Y274165D01*
X719252Y120985D02*
X722584D01*
X724250Y122651D01*
X722584Y124317D01*
X719252D01*
Y125983D02*
X724250D01*
Y128483D01*
X723417Y129316D01*
X720085D01*
X719252Y128483D01*
Y125983D01*
X724250Y130982D02*
Y132648D01*
Y131815D01*
X719252D01*
X720085Y130982D01*
X719252Y91000D02*
X722584D01*
X724250Y92666D01*
X722584Y94332D01*
X719252D01*
Y95998D02*
X724250D01*
Y98497D01*
X723417Y99331D01*
X720085D01*
X719252Y98497D01*
Y95998D01*
X724250Y104329D02*
Y100997D01*
X720918Y104329D01*
X720085D01*
X719252Y103496D01*
Y101830D01*
X720085Y100997D01*
X685582Y76165D02*
X684749Y76998D01*
X683083D01*
X682250Y76165D01*
Y72833D01*
X683083Y72000D01*
X684749D01*
X685582Y72833D01*
X687248Y72000D02*
X688914D01*
X688082D01*
Y76998D01*
X687248Y76165D01*
X693913Y72000D02*
Y76998D01*
X691414Y74499D01*
X694746D01*
X696412Y76165D02*
X697245Y76998D01*
X698911D01*
X699744Y76165D01*
Y75332D01*
X698911Y74499D01*
X698078D01*
X698911D01*
X699744Y73666D01*
Y72833D01*
X698911Y72000D01*
X697245D01*
X696412Y72833D01*
X710250Y73000D02*
Y77998D01*
X712749D01*
X713582Y77165D01*
Y75499D01*
X712749Y74666D01*
X710250D01*
X711916D02*
X713582Y73000D01*
X715248D02*
X716915D01*
X716081D01*
Y77998D01*
X715248Y77165D01*
X721913Y73000D02*
Y77998D01*
X719414Y75499D01*
X722746D01*
X195085Y296332D02*
X194252Y295499D01*
Y293833D01*
X195085Y293000D01*
X198417D01*
X199250Y293833D01*
Y295499D01*
X198417Y296332D01*
X195085Y297998D02*
X194252Y298831D01*
Y300497D01*
X195085Y301331D01*
X195918D01*
X196751Y300497D01*
Y299664D01*
Y300497D01*
X197584Y301331D01*
X198417D01*
X199250Y300497D01*
Y298831D01*
X198417Y297998D01*
X195085Y302997D02*
X194252Y303830D01*
Y305496D01*
X195085Y306329D01*
X195918D01*
X196751Y305496D01*
X197584Y306329D01*
X198417D01*
X199250Y305496D01*
Y303830D01*
X198417Y302997D01*
X197584D01*
X196751Y303830D01*
X195918Y302997D01*
X195085D01*
X196751Y303830D02*
Y305496D01*
X128252Y293000D02*
X133250D01*
Y295499D01*
X132417Y296332D01*
X129085D01*
X128252Y295499D01*
Y293000D01*
Y297998D02*
X133250D01*
Y300497D01*
X132417Y301331D01*
X129085D01*
X128252Y300497D01*
Y297998D01*
Y306329D02*
Y302997D01*
X130751D01*
X129918Y304663D01*
Y305496D01*
X130751Y306329D01*
X132417D01*
X133250Y305496D01*
Y303830D01*
X132417Y302997D01*
D194*
X111332Y16165D02*
X110499Y16998D01*
X108833D01*
X108000Y16165D01*
Y12833D01*
X108833Y12000D01*
X110499D01*
X111332Y12833D01*
X112998Y12000D02*
X114664D01*
X113831D01*
Y16998D01*
X112998Y16165D01*
X119663Y12000D02*
Y16998D01*
X117164Y14499D01*
X120496D01*
X122162Y12000D02*
X123828D01*
X122995D01*
Y16998D01*
X122162Y16165D01*
X475333Y71417D02*
X474500Y72250D01*
X472834D01*
X472001Y71417D01*
Y68085D01*
X472834Y67252D01*
X474500D01*
X475333Y68085D01*
X476999Y67252D02*
X478666D01*
X477832D01*
Y72250D01*
X476999Y71417D01*
X481165D02*
X481998Y72250D01*
X483664D01*
X484497Y71417D01*
Y68085D01*
X483664Y67252D01*
X481998D01*
X481165Y68085D01*
Y71417D01*
X489495Y72250D02*
X487829Y71417D01*
X486163Y69751D01*
Y68085D01*
X486996Y67252D01*
X488662D01*
X489495Y68085D01*
Y68918D01*
X488662Y69751D01*
X486163D01*
X521333Y171417D02*
X520500Y172250D01*
X518834D01*
X518001Y171417D01*
Y168085D01*
X518834Y167252D01*
X520500D01*
X521333Y168085D01*
X522999Y167252D02*
X524665D01*
X523832D01*
Y172250D01*
X522999Y171417D01*
X527165D02*
X527998Y172250D01*
X529664D01*
X530497Y171417D01*
Y168085D01*
X529664Y167252D01*
X527998D01*
X527165Y168085D01*
Y171417D01*
X532163Y168085D02*
X532996Y167252D01*
X534662D01*
X535495Y168085D01*
Y171417D01*
X534662Y172250D01*
X532996D01*
X532163Y171417D01*
Y170584D01*
X532996Y169751D01*
X535495D01*
X373000Y480000D02*
Y484998D01*
X375499D01*
X376332Y484165D01*
Y482499D01*
X375499Y481666D01*
X373000D01*
X374666D02*
X376332Y480000D01*
X381331D02*
X377998D01*
X381331Y483332D01*
Y484165D01*
X380498Y484998D01*
X378831D01*
X377998Y484165D01*
X386329Y484998D02*
X384663Y484165D01*
X382997Y482499D01*
Y480833D01*
X383830Y480000D01*
X385496D01*
X386329Y480833D01*
Y481666D01*
X385496Y482499D01*
X382997D01*
X420000Y392000D02*
Y396998D01*
X422499D01*
X423332Y396165D01*
Y394499D01*
X422499Y393666D01*
X420000D01*
X421666D02*
X423332Y392000D01*
X428331D02*
X424998D01*
X428331Y395332D01*
Y396165D01*
X427497Y396998D01*
X425831D01*
X424998Y396165D01*
X429997Y396998D02*
X433329D01*
Y396165D01*
X429997Y392833D01*
Y392000D01*
X199250Y506000D02*
X194252D01*
Y508499D01*
X195085Y509332D01*
X196751D01*
X197584Y508499D01*
Y506000D01*
Y507666D02*
X199250Y509332D01*
Y513498D02*
X194252D01*
X196751Y510998D01*
Y514331D01*
X199250Y515997D02*
Y517663D01*
Y516830D01*
X194252D01*
X195085Y515997D01*
X223250Y486000D02*
Y490998D01*
X225749D01*
X226582Y490165D01*
Y488499D01*
X225749Y487666D01*
X223250D01*
X224916D02*
X226582Y486000D01*
X230748D02*
Y490998D01*
X228248Y488499D01*
X231581D01*
X236579Y486000D02*
X233247D01*
X236579Y489332D01*
Y490165D01*
X235746Y490998D01*
X234080D01*
X233247Y490165D01*
X430000Y475000D02*
X425002D01*
Y477499D01*
X425835Y478332D01*
X427501D01*
X428334Y477499D01*
Y475000D01*
Y476666D02*
X430000Y478332D01*
Y482497D02*
X425002D01*
X427501Y479998D01*
Y483331D01*
X425002Y484997D02*
Y488329D01*
X425835D01*
X429167Y484997D01*
X430000D01*
X452250Y477000D02*
X447252D01*
Y479499D01*
X448085Y480332D01*
X449751D01*
X450584Y479499D01*
Y477000D01*
Y478666D02*
X452250Y480332D01*
X447252Y485331D02*
Y481998D01*
X449751D01*
X448918Y483665D01*
Y484498D01*
X449751Y485331D01*
X451417D01*
X452250Y484498D01*
Y482831D01*
X451417Y481998D01*
X452250Y489496D02*
X447252D01*
X449751Y486997D01*
Y490329D01*
X474000Y475000D02*
Y479998D01*
X476499D01*
X477332Y479165D01*
Y477499D01*
X476499Y476666D01*
X474000D01*
X475666D02*
X477332Y475000D01*
X482331Y479998D02*
X478998D01*
Y477499D01*
X480664Y478332D01*
X481497D01*
X482331Y477499D01*
Y475833D01*
X481497Y475000D01*
X479831D01*
X478998Y475833D01*
X487329Y479998D02*
X483997D01*
Y477499D01*
X485663Y478332D01*
X486496D01*
X487329Y477499D01*
Y475833D01*
X486496Y475000D01*
X484830D01*
X483997Y475833D01*
X512590Y474000D02*
Y478998D01*
X515090D01*
X515923Y478165D01*
Y476499D01*
X515090Y475666D01*
X512590D01*
X514257D02*
X515923Y474000D01*
X517589Y478165D02*
X518422Y478998D01*
X520088D01*
X520921Y478165D01*
Y477332D01*
X520088Y476499D01*
X520921Y475666D01*
Y474833D01*
X520088Y474000D01*
X518422D01*
X517589Y474833D01*
Y475666D01*
X518422Y476499D01*
X517589Y477332D01*
Y478165D01*
X518422Y476499D02*
X520088D01*
X522587Y478165D02*
X523420Y478998D01*
X525086D01*
X525919Y478165D01*
Y477332D01*
X525086Y476499D01*
X524253D01*
X525086D01*
X525919Y475666D01*
Y474833D01*
X525086Y474000D01*
X523420D01*
X522587Y474833D01*
M02*
