G04 Layer_Color=7962120*
%FSLAX44Y44*%
%MOMM*%
G71*
G01*
G75*
%ADD10C,0.1000*%
%ADD41C,0.1500*%
%ADD43C,0.2000*%
%ADD47C,0.5000*%
%ADD188C,0.2540*%
%ADD189C,0.9000*%
%ADD192C,0.2500*%
%ADD193C,0.0800*%
%ADD194C,0.0900*%
%ADD246C,1.9000*%
%ADD247C,0.3048*%
G36*
X726147Y396165D02*
X726750Y395915D01*
X727268Y395518D01*
X727665Y395000D01*
X727915Y394397D01*
X728000Y393750D01*
X727915Y393103D01*
X727665Y392500D01*
X727268Y391982D01*
X726750Y391585D01*
X726147Y391335D01*
X725500Y391250D01*
X724853Y391335D01*
X724250Y391585D01*
X723732Y391982D01*
X723335Y392500D01*
X723085Y393103D01*
X723000Y393750D01*
X723085Y394397D01*
X723335Y395000D01*
X723732Y395518D01*
X724250Y395915D01*
X724853Y396165D01*
X725500Y396250D01*
X726147Y396165D01*
D02*
G37*
G36*
X722500Y406000D02*
X717500D01*
X722500Y411000D01*
Y406000D01*
D02*
G37*
D10*
X299750Y384750D02*
G03*
X299750Y393250I-4250J4250D01*
G01*
X284250D02*
G03*
X284250Y384750I4250J-4250D01*
G01*
X260250Y393250D02*
G03*
X260250Y384750I4250J-4250D01*
G01*
X275750D02*
G03*
X275750Y393250I-4250J4250D01*
G01*
X661250Y192250D02*
G03*
X661250Y183750I4250J-4250D01*
G01*
X676750D02*
G03*
X676750Y192250I-4250J4250D01*
G01*
X745750Y458250D02*
G03*
X754250Y458250I4250J4250D01*
G01*
Y473750D02*
G03*
X745750Y473750I-4250J-4250D01*
G01*
X541250Y203750D02*
G03*
X532750Y203750I-4250J-4250D01*
G01*
Y188250D02*
G03*
X541250Y188250I4250J4250D01*
G01*
X566000Y362250D02*
G03*
X574500Y362250I4250J4250D01*
G01*
Y377750D02*
G03*
X566000Y377750I-4250J-4250D01*
G01*
X610000Y369250D02*
G03*
X618500Y369250I4250J4250D01*
G01*
Y384750D02*
G03*
X610000Y384750I-4250J-4250D01*
G01*
X601000Y369250D02*
G03*
X609500Y369250I4250J4250D01*
G01*
Y384750D02*
G03*
X601000Y384750I-4250J-4250D01*
G01*
X567250Y461750D02*
G03*
X567250Y453250I4250J-4250D01*
G01*
X582750D02*
G03*
X582750Y461750I-4250J4250D01*
G01*
X535750Y429750D02*
G03*
X544250Y429750I4250J4250D01*
G01*
Y445250D02*
G03*
X535750Y445250I-4250J-4250D01*
G01*
X537250Y486750D02*
G03*
X537250Y478250I4250J-4250D01*
G01*
X552750D02*
G03*
X552750Y486750I-4250J4250D01*
G01*
X505250Y489750D02*
G03*
X496750Y489750I-4250J-4250D01*
G01*
Y474250D02*
G03*
X505250Y474250I4250J4250D01*
G01*
X498249Y224000D02*
G03*
X498249Y232500I-4250J4250D01*
G01*
X482749D02*
G03*
X482749Y224000I4250J-4250D01*
G01*
Y222500D02*
G03*
X482749Y214000I4250J-4250D01*
G01*
X498249D02*
G03*
X498249Y222500I-4250J4250D01*
G01*
X466249Y176500D02*
G03*
X474749Y176500I4250J4250D01*
G01*
Y192000D02*
G03*
X466249Y192000I-4250J-4250D01*
G01*
X121250Y173750D02*
G03*
X112750Y173750I-4250J-4250D01*
G01*
Y158250D02*
G03*
X121250Y158250I4250J4250D01*
G01*
X410500Y300250D02*
G03*
X410500Y291750I4250J-4250D01*
G01*
X426000D02*
G03*
X426000Y300250I-4250J4250D01*
G01*
X373250Y386750D02*
G03*
X364750Y386750I-4250J-4250D01*
G01*
Y371250D02*
G03*
X373250Y371250I4250J4250D01*
G01*
X357750Y385750D02*
G03*
X357750Y394250I-4250J4250D01*
G01*
X342250D02*
G03*
X342250Y385750I4250J-4250D01*
G01*
X337750D02*
G03*
X337750Y394250I-4250J4250D01*
G01*
X322250D02*
G03*
X322250Y385750I4250J-4250D01*
G01*
X298250Y346750D02*
G03*
X289750Y346750I-4250J-4250D01*
G01*
Y331250D02*
G03*
X298250Y331250I4250J4250D01*
G01*
X307250Y225750D02*
G03*
X298750Y225750I-4250J-4250D01*
G01*
Y210250D02*
G03*
X307250Y210250I4250J4250D01*
G01*
X348249Y200000D02*
G03*
X348249Y208500I-4250J4250D01*
G01*
X332749D02*
G03*
X332749Y200000I4250J-4250D01*
G01*
X343750Y178750D02*
G03*
X343750Y187250I-4250J4250D01*
G01*
X328250D02*
G03*
X328250Y178750I4250J-4250D01*
G01*
X367750Y190750D02*
G03*
X367750Y199250I-4250J4250D01*
G01*
X352250D02*
G03*
X352250Y190750I4250J-4250D01*
G01*
X300750Y179750D02*
G03*
X300750Y188250I-4250J4250D01*
G01*
X285250D02*
G03*
X285250Y179750I4250J-4250D01*
G01*
X259250Y188250D02*
G03*
X259250Y179750I4250J-4250D01*
G01*
X274750D02*
G03*
X274750Y188250I-4250J4250D01*
G01*
X124750Y451750D02*
G03*
X124750Y460250I-4250J4250D01*
G01*
X109250D02*
G03*
X109250Y451750I4250J-4250D01*
G01*
X133000Y247750D02*
G03*
X133000Y256250I-4250J4250D01*
G01*
X117500D02*
G03*
X117500Y247750I4250J-4250D01*
G01*
X87250Y256750D02*
G03*
X87250Y248250I4250J-4250D01*
G01*
X102750D02*
G03*
X102750Y256750I-4250J4250D01*
G01*
X49500Y257250D02*
G03*
X49500Y248750I4250J-4250D01*
G01*
X65000D02*
G03*
X65000Y257250I-4250J4250D01*
G01*
X356249Y258000D02*
G03*
X356249Y266500I-4250J4250D01*
G01*
X340749D02*
G03*
X340749Y258000I4250J-4250D01*
G01*
X311250Y74750D02*
G03*
X302750Y74750I-4250J-4250D01*
G01*
Y59250D02*
G03*
X311250Y59250I4250J4250D01*
G01*
X278250Y74750D02*
G03*
X269750Y74750I-4250J-4250D01*
G01*
Y59250D02*
G03*
X278250Y59250I4250J4250D01*
G01*
X289250Y74750D02*
G03*
X280750Y74750I-4250J-4250D01*
G01*
Y59250D02*
G03*
X289250Y59250I4250J4250D01*
G01*
X336750Y320250D02*
G03*
X345250Y320250I4250J4250D01*
G01*
Y335750D02*
G03*
X336750Y335750I-4250J-4250D01*
G01*
X721750Y175250D02*
G03*
X730250Y175250I4250J4250D01*
G01*
Y190750D02*
G03*
X721750Y190750I-4250J-4250D01*
G01*
X408000Y385250D02*
G03*
X416500Y385250I4250J4250D01*
G01*
Y400750D02*
G03*
X408000Y400750I-4250J-4250D01*
G01*
X93250Y173750D02*
G03*
X84750Y173750I-4250J-4250D01*
G01*
Y158250D02*
G03*
X93250Y158250I4250J4250D01*
G01*
X80250Y173750D02*
G03*
X71750Y173750I-4250J-4250D01*
G01*
Y158250D02*
G03*
X80250Y158250I4250J4250D01*
G01*
X58250Y53250D02*
G03*
X58250Y44750I4250J-4250D01*
G01*
X73750D02*
G03*
X73750Y53250I-4250J4250D01*
G01*
X513249Y126500D02*
G03*
X521749Y126500I4250J4250D01*
G01*
Y142000D02*
G03*
X513249Y142000I-4250J-4250D01*
G01*
X615750Y342250D02*
G03*
X624250Y342250I4250J4250D01*
G01*
Y357750D02*
G03*
X615750Y357750I-4250J-4250D01*
G01*
X581249Y301500D02*
G03*
X589749Y301500I4250J4250D01*
G01*
Y317000D02*
G03*
X581249Y317000I-4250J-4250D01*
G01*
X471000Y262750D02*
G03*
X471000Y271250I-4250J4250D01*
G01*
X455500D02*
G03*
X455500Y262750I4250J-4250D01*
G01*
X282750Y270250D02*
G03*
X291250Y270250I4250J4250D01*
G01*
Y285750D02*
G03*
X282750Y285750I-4250J-4250D01*
G01*
X493500Y258500D02*
G03*
X485000Y258500I-4250J-4250D01*
G01*
Y243000D02*
G03*
X493500Y243000I4250J4250D01*
G01*
X472249Y251000D02*
G03*
X472249Y259500I-4250J4250D01*
G01*
X456749D02*
G03*
X456749Y251000I4250J-4250D01*
G01*
X483750Y258500D02*
G03*
X475250Y258500I-4250J-4250D01*
G01*
Y243000D02*
G03*
X483750Y243000I4250J4250D01*
G01*
X575749Y317000D02*
G03*
X567249Y317000I-4250J-4250D01*
G01*
Y301500D02*
G03*
X575749Y301500I4250J4250D01*
G01*
X602749Y317000D02*
G03*
X594249Y317000I-4250J-4250D01*
G01*
Y301500D02*
G03*
X602749Y301500I4250J4250D01*
G01*
X498000Y295000D02*
G03*
X506500Y295000I4250J4250D01*
G01*
Y310500D02*
G03*
X498000Y310500I-4250J-4250D01*
G01*
X504250Y271250D02*
G03*
X504250Y262750I4250J-4250D01*
G01*
X519750D02*
G03*
X519750Y271250I-4250J4250D01*
G01*
X506749Y259000D02*
G03*
X498249Y259000I-4250J-4250D01*
G01*
Y243500D02*
G03*
X506749Y243500I4250J4250D01*
G01*
X468750Y295000D02*
G03*
X477250Y295000I4250J4250D01*
G01*
Y310500D02*
G03*
X468750Y310500I-4250J-4250D01*
G01*
X478500Y295000D02*
G03*
X487000Y295000I4250J4250D01*
G01*
Y310500D02*
G03*
X478500Y310500I-4250J-4250D01*
G01*
X459245Y292500D02*
G03*
X459245Y284000I4250J-4250D01*
G01*
X474745D02*
G03*
X474745Y292500I-4250J4250D01*
G01*
X467500Y310500D02*
G03*
X459000Y310500I-4250J-4250D01*
G01*
Y295000D02*
G03*
X467500Y295000I4250J4250D01*
G01*
X488250D02*
G03*
X496750Y295000I4250J4250D01*
G01*
Y310500D02*
G03*
X488250Y310500I-4250J-4250D01*
G01*
X750249Y441000D02*
G03*
X750249Y449500I-4250J4250D01*
G01*
X734749D02*
G03*
X734749Y441000I4250J-4250D01*
G01*
X529750Y319250D02*
G03*
X538250Y319250I4250J4250D01*
G01*
Y334750D02*
G03*
X529750Y334750I-4250J-4250D01*
G01*
X516250Y310500D02*
G03*
X507750Y310500I-4250J-4250D01*
G01*
Y295000D02*
G03*
X516250Y295000I4250J4250D01*
G01*
X591749Y430500D02*
G03*
X591749Y422000I4250J-4250D01*
G01*
X607249D02*
G03*
X607249Y430500I-4250J4250D01*
G01*
X539250Y82250D02*
G03*
X539250Y73750I4250J-4250D01*
G01*
X554750D02*
G03*
X554750Y82250I-4250J4250D01*
G01*
X504250Y281000D02*
G03*
X504250Y272500I4250J-4250D01*
G01*
X519750D02*
G03*
X519750Y281000I-4250J4250D01*
G01*
X175749Y264000D02*
G03*
X167249Y264000I-4250J-4250D01*
G01*
Y248500D02*
G03*
X175749Y248500I4250J4250D01*
G01*
X504250Y290750D02*
G03*
X504250Y282250I4250J-4250D01*
G01*
X519750D02*
G03*
X519750Y290750I-4250J4250D01*
G01*
X504249Y223500D02*
G03*
X512749Y223500I4250J4250D01*
G01*
Y239000D02*
G03*
X504249Y239000I-4250J-4250D01*
G01*
X534749Y142000D02*
G03*
X526249Y142000I-4250J-4250D01*
G01*
Y126500D02*
G03*
X534749Y126500I4250J4250D01*
G01*
X608250Y259250D02*
G03*
X608250Y250750I4250J-4250D01*
G01*
X623750D02*
G03*
X623750Y259250I-4250J4250D01*
G01*
X526250Y259750D02*
G03*
X517750Y259750I-4250J-4250D01*
G01*
Y244250D02*
G03*
X526250Y244250I4250J4250D01*
G01*
X538750Y210250D02*
G03*
X547250Y210250I4250J4250D01*
G01*
Y225750D02*
G03*
X538750Y225750I-4250J-4250D01*
G01*
X458249Y108500D02*
G03*
X466749Y108500I4250J4250D01*
G01*
Y124000D02*
G03*
X458249Y124000I-4250J-4250D01*
G01*
X565250Y194500D02*
G03*
X565250Y203000I-4250J4250D01*
G01*
X549750D02*
G03*
X549750Y194500I4250J-4250D01*
G01*
X575750Y203000D02*
G03*
X575750Y194500I4250J-4250D01*
G01*
X591250D02*
G03*
X591250Y203000I-4250J4250D01*
G01*
X352000Y369750D02*
G03*
X352000Y378250I-4250J4250D01*
G01*
X336500D02*
G03*
X336500Y369750I4250J-4250D01*
G01*
X820500Y373750D02*
G03*
X812000Y373750I-4250J-4250D01*
G01*
Y358250D02*
G03*
X820500Y358250I4250J4250D01*
G01*
X809750Y85750D02*
G03*
X809750Y94250I-4250J4250D01*
G01*
X794250D02*
G03*
X794250Y85750I4250J-4250D01*
G01*
X335500Y278750D02*
G03*
X327000Y278750I-4250J-4250D01*
G01*
Y263250D02*
G03*
X335500Y263250I4250J4250D01*
G01*
X588000Y173750D02*
Y177500D01*
X567250Y162000D02*
X574750D01*
X567250Y189250D02*
X574750D01*
X554000Y173750D02*
Y177500D01*
X284250Y393250D02*
X299750Y393250D01*
X284250Y384750D02*
X299750Y384750D01*
X260250D02*
X275750Y384750D01*
X260250Y393250D02*
X275750Y393250D01*
X661250Y183750D02*
X676750Y183750D01*
X661250Y192250D02*
X676750Y192250D01*
X754250Y473750D02*
X754250Y458250D01*
X745750D02*
X745750Y473750D01*
X532750Y203750D02*
X532750Y188250D01*
X541250D02*
X541250Y203750D01*
X574500Y377750D02*
X574500Y362250D01*
X566000D02*
X566000Y377750D01*
X618500Y384750D02*
X618500Y369250D01*
X610000D02*
X610000Y384750D01*
X609500D02*
X609500Y369250D01*
X601000D02*
X601000Y384750D01*
X567250Y453250D02*
X582750Y453250D01*
X567250Y461750D02*
X582750Y461750D01*
X544250Y445250D02*
X544250Y429750D01*
X535750D02*
X535750Y445250D01*
X537250Y478250D02*
X552750Y478250D01*
X537250Y486750D02*
X552750Y486750D01*
X496750Y489750D02*
X496750Y474250D01*
X505250D02*
X505250Y489750D01*
X482749Y232500D02*
X498249Y232500D01*
X482749Y224000D02*
X498249Y224000D01*
X482749Y214000D02*
X498249Y214000D01*
X482749Y222500D02*
X498249Y222500D01*
X474749Y192000D02*
X474749Y176500D01*
X466249D02*
X466249Y192000D01*
X112750Y173750D02*
X112750Y158250D01*
X121250D02*
X121250Y173750D01*
X410500Y291750D02*
X426000Y291750D01*
X410500Y300250D02*
X426000Y300250D01*
X364750Y386750D02*
X364750Y371250D01*
X373250D02*
X373250Y386750D01*
X342250Y394250D02*
X357750Y394250D01*
X342250Y385750D02*
X357750Y385750D01*
X322250Y394250D02*
X337750Y394250D01*
X322250Y385750D02*
X337750Y385750D01*
X289750Y346750D02*
X289750Y331250D01*
X298250D02*
X298250Y346750D01*
X298750Y225750D02*
X298750Y210250D01*
X307250D02*
X307250Y225750D01*
X332749Y208500D02*
X348249Y208500D01*
X332749Y200000D02*
X348249Y200000D01*
X328250Y187250D02*
X343750Y187250D01*
X328250Y178750D02*
X343750Y178750D01*
X352250Y199250D02*
X367750Y199250D01*
X352250Y190750D02*
X367750Y190750D01*
X285250Y188250D02*
X300750Y188250D01*
X285250Y179750D02*
X300750Y179750D01*
X259250D02*
X274750Y179750D01*
X259250Y188250D02*
X274750Y188250D01*
X109250Y460250D02*
X124750Y460250D01*
X109250Y451750D02*
X124750Y451750D01*
X117500Y256250D02*
X133000Y256250D01*
X117500Y247750D02*
X133000Y247750D01*
X87250Y248250D02*
X102750Y248250D01*
X87250Y256750D02*
X102750Y256750D01*
X49500Y248750D02*
X65000Y248750D01*
X49500Y257250D02*
X65000Y257250D01*
X340749Y266500D02*
X356249Y266500D01*
X340749Y258000D02*
X356249Y258000D01*
X302750Y74750D02*
X302750Y59250D01*
X311250D02*
X311250Y74750D01*
X269750D02*
X269750Y59250D01*
X278250D02*
X278250Y74750D01*
X280750D02*
X280750Y59250D01*
X289250D02*
X289250Y74750D01*
X345250Y335750D02*
X345250Y320250D01*
X336750D02*
X336750Y335750D01*
X730250Y190750D02*
X730250Y175250D01*
X721750D02*
X721750Y190750D01*
X416500Y400750D02*
X416500Y385250D01*
X408000D02*
X408000Y400750D01*
X84750Y173750D02*
X84750Y158250D01*
X93250D02*
X93250Y173750D01*
X71750D02*
X71750Y158250D01*
X80250D02*
X80250Y173750D01*
X58250Y44750D02*
X73750Y44750D01*
X58250Y53250D02*
X73750Y53250D01*
X521749Y142000D02*
X521749Y126500D01*
X513249D02*
X513249Y142000D01*
X624250Y357750D02*
X624250Y342250D01*
X615750D02*
X615750Y357750D01*
X589749Y317000D02*
X589749Y301500D01*
X581249D02*
X581249Y317000D01*
X455500Y271250D02*
X471000Y271250D01*
X455500Y262750D02*
X471000Y262750D01*
X291250Y285750D02*
X291250Y270250D01*
X282750D02*
X282750Y285750D01*
X485000Y258500D02*
X485000Y243000D01*
X493500D02*
X493500Y258500D01*
X456749Y259500D02*
X472249Y259500D01*
X456749Y251000D02*
X472249Y251000D01*
X475250Y258500D02*
X475250Y243000D01*
X483750D02*
X483750Y258500D01*
X567249Y317000D02*
X567249Y301500D01*
X575749D02*
X575749Y317000D01*
X594249D02*
X594249Y301500D01*
X602749D02*
X602749Y317000D01*
X506500Y310500D02*
X506500Y295000D01*
X498000D02*
X498000Y310500D01*
X504250Y262750D02*
X519750Y262750D01*
X504250Y271250D02*
X519750Y271250D01*
X498249Y259000D02*
X498249Y243500D01*
X506749D02*
X506749Y259000D01*
X477250Y310500D02*
X477250Y295000D01*
X468750D02*
X468750Y310500D01*
X487000D02*
X487000Y295000D01*
X478500D02*
X478500Y310500D01*
X459245Y284000D02*
X474745Y284000D01*
X459245Y292500D02*
X474745Y292500D01*
X459000Y310500D02*
X459000Y295000D01*
X467500D02*
X467500Y310500D01*
X496750D02*
X496750Y295000D01*
X488250D02*
X488250Y310500D01*
X734749Y449500D02*
X750249Y449500D01*
X734749Y441000D02*
X750249Y441000D01*
X538250Y334750D02*
X538250Y319250D01*
X529750D02*
X529750Y334750D01*
X507750Y310500D02*
X507750Y295000D01*
X516250D02*
X516250Y310500D01*
X591749Y422000D02*
X607249Y422000D01*
X591749Y430500D02*
X607249Y430500D01*
X539250Y73750D02*
X554750Y73750D01*
X539250Y82250D02*
X554750Y82250D01*
X504250Y272500D02*
X519750Y272500D01*
X504250Y281000D02*
X519750Y281000D01*
X167249Y264000D02*
X167249Y248500D01*
X175749D02*
X175749Y264000D01*
X504250Y282250D02*
X519750Y282250D01*
X504250Y290750D02*
X519750Y290750D01*
X512749Y239000D02*
X512749Y223500D01*
X504249D02*
X504249Y239000D01*
X526249Y142000D02*
X526249Y126500D01*
X534749D02*
X534749Y142000D01*
X608250Y250750D02*
X623750Y250750D01*
X608250Y259250D02*
X623750Y259250D01*
X517750Y259750D02*
X517750Y244250D01*
X526250D02*
X526250Y259750D01*
X547250Y225750D02*
X547250Y210250D01*
X538750D02*
X538750Y225750D01*
X466749Y124000D02*
X466749Y108500D01*
X458249D02*
X458249Y124000D01*
X549750Y203000D02*
X565250Y203000D01*
X549750Y194500D02*
X565250Y194500D01*
X575750D02*
X591250Y194500D01*
X575750Y203000D02*
X591250Y203000D01*
X336500Y378250D02*
X352000Y378250D01*
X336500Y369750D02*
X352000Y369750D01*
X812000Y358250D02*
X812000Y373750D01*
X820500D02*
X820500Y358250D01*
X794250Y94250D02*
X809750Y94250D01*
X794250Y85750D02*
X809750Y85750D01*
X327000Y278750D02*
X327000Y263250D01*
X335500D02*
X335500Y278750D01*
D41*
X702250Y387757D02*
G03*
X701989Y374000I9309J-7058D01*
G01*
X727250D02*
G03*
X727512Y387757I-9309J7058D01*
G01*
X69500Y134500D02*
G03*
X50500Y134500I-9500J-19000D01*
G01*
Y103500D02*
G03*
X69500Y103500I9500J19000D01*
G01*
X628493Y428000D02*
G03*
X642250Y427738I7058J9309D01*
G01*
Y453000D02*
G03*
X628493Y453261I-7058J-9309D01*
G01*
X642007Y422000D02*
G03*
X628250Y422262I-7058J-9309D01*
G01*
Y397000D02*
G03*
X642007Y396739I7058J9309D01*
G01*
X586493Y359000D02*
G03*
X600250Y358739I7058J9309D01*
G01*
Y384000D02*
G03*
X586493Y384262I-7058J-9309D01*
G01*
X84500Y64500D02*
G03*
X84500Y45500I19000J-9500D01*
G01*
X115500D02*
G03*
X115500Y64500I-19000J9500D01*
G01*
X122500D02*
G03*
X122500Y45500I19000J-9500D01*
G01*
X153500D02*
G03*
X153500Y64500I-19000J9500D01*
G01*
X702000Y364757D02*
G03*
X701739Y351000I9309J-7058D01*
G01*
X727000D02*
G03*
X727262Y364757I-9309J7058D01*
G01*
X122500Y43500D02*
G03*
X122500Y24500I19000J-9500D01*
G01*
X153500D02*
G03*
X153500Y43500I-19000J9500D01*
G01*
X115500Y3500D02*
G03*
X115500Y22500I-19000J9500D01*
G01*
X84500D02*
G03*
X84500Y3500I19000J-9500D01*
G01*
X115500Y24500D02*
G03*
X115500Y43500I-19000J9500D01*
G01*
X84500D02*
G03*
X84500Y24500I19000J-9500D01*
G01*
X797250Y395000D02*
G03*
X783493Y395261I-7058J-9309D01*
G01*
Y370000D02*
G03*
X797250Y369739I7058J9309D01*
G01*
X470499Y74007D02*
G03*
X470238Y60250I9309J-7058D01*
G01*
X495499D02*
G03*
X495760Y74007I-9309J7058D01*
G01*
X484499Y120007D02*
G03*
X484238Y106250I9309J-7058D01*
G01*
X509499D02*
G03*
X509760Y120007I-9309J7058D01*
G01*
X738499Y150493D02*
G03*
X738760Y164250I-9309J7058D01*
G01*
X713499D02*
G03*
X713238Y150493I9309J-7058D01*
G01*
X712000Y203243D02*
G03*
X712262Y217000I-9309J7058D01*
G01*
X687000D02*
G03*
X686739Y203243I9309J-7058D01*
G01*
X471499Y89507D02*
G03*
X471237Y75750I9309J-7058D01*
G01*
X496499D02*
G03*
X496760Y89507I-9309J7058D01*
G01*
X606499Y337632D02*
G03*
X606237Y323875I9309J-7058D01*
G01*
X631499D02*
G03*
X631760Y337632I-9309J7058D01*
G01*
X446743Y319000D02*
G03*
X460500Y318739I7058J9309D01*
G01*
Y344000D02*
G03*
X446743Y344262I-7058J-9309D01*
G01*
X140250Y315757D02*
G03*
X139988Y302000I9309J-7058D01*
G01*
X165250D02*
G03*
X165511Y315757I-9309J7058D01*
G01*
X139250Y333757D02*
G03*
X138989Y320000I9309J-7058D01*
G01*
X164250D02*
G03*
X164512Y333757I-9309J7058D01*
G01*
X596000Y233243D02*
G03*
X596261Y247000I-9309J7058D01*
G01*
X571000D02*
G03*
X570738Y233243I9309J-7058D01*
G01*
X140250Y348757D02*
G03*
X139988Y335000I9309J-7058D01*
G01*
X165250D02*
G03*
X165511Y348757I-9309J7058D01*
G01*
X213000Y66757D02*
G03*
X212738Y53000I9309J-7058D01*
G01*
X238000D02*
G03*
X238262Y66757I-9309J7058D01*
G01*
X819250Y328243D02*
G03*
X819511Y342000I-9309J7058D01*
G01*
X794250D02*
G03*
X793989Y328243I9309J-7058D01*
G01*
X100000Y480757D02*
G03*
X99739Y467000I9309J-7058D01*
G01*
X125000D02*
G03*
X125261Y480757I-9309J7058D01*
G01*
X100500Y218000D02*
G03*
X100500Y237000I-19000J9500D01*
G01*
X69500D02*
G03*
X69500Y218000I19000J-9500D01*
G01*
X111500Y236500D02*
G03*
X111500Y217500I19000J-9500D01*
G01*
X142500D02*
G03*
X142500Y236500I-19000J9500D01*
G01*
X637000Y244757D02*
G03*
X636739Y231000I9309J-7058D01*
G01*
X662000D02*
G03*
X662262Y244757I-9309J7058D01*
G01*
X637000Y229757D02*
G03*
X636739Y216000I9309J-7058D01*
G01*
X662000D02*
G03*
X662262Y229757I-9309J7058D01*
G01*
X606499Y322554D02*
G03*
X606237Y308797I9309J-7058D01*
G01*
X631499D02*
G03*
X631760Y322554I-9309J7058D01*
G01*
X536835Y310165D02*
G03*
X536573Y296408I9309J-7058D01*
G01*
X561835D02*
G03*
X562096Y310165I-9309J7058D01*
G01*
X565493Y323250D02*
G03*
X579250Y322989I7058J9309D01*
G01*
Y348250D02*
G03*
X565493Y348512I-7058J-9309D01*
G01*
X702250Y387757D02*
X727512D01*
X701989Y374000D02*
X727250D01*
X69500Y103500D02*
Y134500D01*
X50500Y103500D02*
Y134500D01*
X162999Y390750D02*
Y401750D01*
X141999Y390750D02*
Y401750D01*
X162999D01*
X141999Y390750D02*
X162999D01*
X103501Y201752D02*
X124501D01*
X103501Y212752D02*
X124501D01*
X103501Y201752D02*
Y212752D01*
X124501Y201752D02*
Y212752D01*
X58501Y222752D02*
Y243752D01*
X47501Y222752D02*
Y243752D01*
Y222752D02*
X58501D01*
X47501Y243752D02*
X58501D01*
X772500Y527500D02*
X793500D01*
X772500Y516500D02*
X793500D01*
Y527500D01*
X772500Y516500D02*
Y527500D01*
X52500Y45500D02*
Y66500D01*
X41500Y45500D02*
Y66500D01*
Y45500D02*
X52500D01*
X41500Y66500D02*
X52500D01*
X799500Y38500D02*
X820500D01*
X799500Y49500D02*
X820500D01*
X799500Y38500D02*
Y49500D01*
X820500Y38500D02*
Y49500D01*
X692500Y406000D02*
X722500D01*
X692500Y414000D02*
X722500D01*
X692500Y406000D02*
Y414000D01*
X722500Y406000D02*
Y414000D01*
X706500Y458500D02*
Y479500D01*
X717500Y458500D02*
Y479500D01*
X706500D02*
X717500D01*
X706500Y458500D02*
X717500D01*
X692500D02*
Y479500D01*
X703500Y458500D02*
Y479500D01*
X692500D02*
X703500D01*
X692500Y458500D02*
X703500D01*
X672500Y482500D02*
Y503500D01*
X683500Y482500D02*
Y503500D01*
X672500D02*
X683500D01*
X672500Y482500D02*
X683500D01*
X686500D02*
Y503500D01*
X697500Y482500D02*
Y503500D01*
X686500D02*
X697500D01*
X686500Y482500D02*
X697500D01*
X700500D02*
Y503500D01*
X711500Y482500D02*
Y503500D01*
X700500D02*
X711500D01*
X700500Y482500D02*
X711500D01*
X684750Y413500D02*
Y434500D01*
X673750Y413500D02*
Y434500D01*
Y413500D02*
X684750D01*
X673750Y434500D02*
X684750D01*
X673750Y385500D02*
Y406500D01*
X684750Y385500D02*
Y406500D01*
X673750D02*
X684750D01*
X673750Y385500D02*
X684750D01*
X742501Y391752D02*
Y412752D01*
X731501Y391752D02*
Y412752D01*
Y391752D02*
X742501D01*
X731501Y412752D02*
X742501D01*
X821999Y355750D02*
X832999D01*
X821999Y376750D02*
X832999D01*
Y355750D02*
Y376750D01*
X821999Y355750D02*
Y376750D01*
X782500Y231500D02*
Y252500D01*
X771500Y231500D02*
Y252500D01*
Y231500D02*
X782500D01*
X771500Y252500D02*
X782500D01*
X668500Y194500D02*
X679500D01*
X668500Y215500D02*
X679500D01*
Y194500D02*
Y215500D01*
X668500Y194500D02*
Y215500D01*
X799500Y75500D02*
X820500D01*
X799500Y64500D02*
X820500D01*
Y75500D01*
X799500Y64500D02*
Y75500D01*
Y62500D02*
X820500D01*
X799500Y51500D02*
X820500D01*
Y62500D01*
X799500Y51500D02*
Y62500D01*
X711500Y258500D02*
Y279500D01*
X700500Y258500D02*
Y279500D01*
Y258500D02*
X711500D01*
X700500Y279500D02*
X711500D01*
X698500Y258500D02*
Y279500D01*
X687500Y258500D02*
Y279500D01*
Y258500D02*
X698500D01*
X687500Y279500D02*
X698500D01*
X590500Y489500D02*
X611500D01*
X590500Y478500D02*
X611500D01*
Y489500D01*
X590500Y478500D02*
Y489500D01*
Y477500D02*
X611500D01*
X590500Y466500D02*
X611500D01*
Y477500D01*
X590500Y466500D02*
Y477500D01*
X628493Y428000D02*
Y453261D01*
X642250Y427738D02*
Y453000D01*
X642007Y396739D02*
Y422000D01*
X628250Y397000D02*
Y422262D01*
X645500Y382500D02*
Y393500D01*
X624500Y382500D02*
Y393500D01*
X645500D01*
X624500Y382500D02*
X645500D01*
X538250Y351750D02*
X559250D01*
X538250Y340750D02*
X559250D01*
Y351750D01*
X538250Y340750D02*
Y351750D01*
X510999Y340750D02*
X531999D01*
X510999Y351750D02*
X531999D01*
X510999Y340750D02*
Y351750D01*
X531999Y340750D02*
Y351750D01*
X574750Y359500D02*
Y380500D01*
X585750Y359500D02*
Y380500D01*
X574750D02*
X585750D01*
X574750Y359500D02*
X585750D01*
X586493Y359000D02*
Y384262D01*
X600250Y358739D02*
Y384000D01*
X572000Y394500D02*
Y415500D01*
X583000Y394500D02*
Y415500D01*
X572000D02*
X583000D01*
X572000Y394500D02*
X583000D01*
X595500D02*
Y415500D01*
X584500Y394500D02*
Y415500D01*
Y394500D02*
X595500D01*
X584500Y415500D02*
X595500D01*
X601999Y394750D02*
X612999D01*
X601999Y415750D02*
X612999D01*
Y394750D02*
Y415750D01*
X601999Y394750D02*
Y415750D01*
X555501Y436752D02*
X576501D01*
X555501Y447752D02*
X576501D01*
X555501Y436752D02*
Y447752D01*
X576501Y436752D02*
Y447752D01*
X557501Y475752D02*
X578501D01*
X557501Y486752D02*
X578501D01*
X557501Y475752D02*
Y486752D01*
X578501Y475752D02*
Y486752D01*
X555500Y427000D02*
Y448000D01*
X544500Y427000D02*
Y448000D01*
Y427000D02*
X555500D01*
X544500Y448000D02*
X555500D01*
X520000Y380497D02*
X541000D01*
X520000Y391497D02*
X541000D01*
X520000Y380497D02*
Y391497D01*
X541000Y380497D02*
Y391497D01*
X534500Y452000D02*
X555500D01*
X534500Y463000D02*
X555500D01*
X534500Y452000D02*
Y463000D01*
X555500Y452000D02*
Y463000D01*
X534500Y464500D02*
X555500D01*
X534500Y475500D02*
X555500D01*
X534500Y464500D02*
Y475500D01*
X555500Y464500D02*
Y475500D01*
X530500Y472000D02*
Y493000D01*
X519500Y472000D02*
Y493000D01*
Y472000D02*
X530500D01*
X519500Y493000D02*
X530500D01*
X518000Y472000D02*
Y493000D01*
X507000Y472000D02*
Y493000D01*
Y472000D02*
X518000D01*
X507000Y493000D02*
X518000D01*
X451750Y389500D02*
X462750D01*
X451750Y410500D02*
X462750D01*
Y389500D02*
Y410500D01*
X451750Y389500D02*
Y410500D01*
X479999Y210750D02*
X500999D01*
X479999Y199750D02*
X500999D01*
Y210750D01*
X479999Y199750D02*
Y210750D01*
X476999Y173500D02*
Y194500D01*
X487999Y173500D02*
Y194500D01*
X476999D02*
X487999D01*
X476999Y173500D02*
X487999D01*
X84500Y64500D02*
X115500D01*
X84500Y45500D02*
X115500D01*
X122500Y64500D02*
X153500D01*
X122500Y45500D02*
X153500D01*
X136500Y155500D02*
Y176500D01*
X125500Y155500D02*
Y176500D01*
Y155500D02*
X136500D01*
X125500Y176500D02*
X136500D01*
X387000Y345500D02*
X408000D01*
X387000Y334500D02*
X408000D01*
Y345500D01*
X387000Y334500D02*
Y345500D01*
X49500Y467000D02*
X70500D01*
X49500Y478000D02*
X70500D01*
X49500Y467000D02*
Y478000D01*
X70500Y467000D02*
Y478000D01*
X49500Y452000D02*
X70500D01*
X49500Y463000D02*
X70500D01*
X49500Y452000D02*
Y463000D01*
X70500Y452000D02*
Y463000D01*
X113750Y273500D02*
X134750D01*
X113750Y262500D02*
X134750D01*
Y273500D01*
X113750Y262500D02*
Y273500D01*
X84500Y273000D02*
X105500D01*
X84500Y262000D02*
X105500D01*
Y273000D01*
X84500Y262000D02*
Y273000D01*
X59500D02*
X80500D01*
X59500Y262000D02*
X80500D01*
Y273000D01*
X59500Y262000D02*
Y273000D01*
X702000Y364757D02*
X727262D01*
X701739Y351000D02*
X727000D01*
X723500Y458500D02*
Y479500D01*
X734500Y458500D02*
Y479500D01*
X723500D02*
X734500D01*
X723500Y458500D02*
X734500D01*
X122500Y43500D02*
X153500D01*
X122500Y24500D02*
X153500D01*
X84500Y3500D02*
X115500D01*
X84500Y22500D02*
X115500D01*
X84500Y24500D02*
X115500D01*
X84500Y43500D02*
X115500D01*
X797250Y369739D02*
Y395000D01*
X783493Y370000D02*
Y395261D01*
X788999Y295000D02*
Y316000D01*
X799999Y295000D02*
Y316000D01*
X788999D02*
X799999D01*
X788999Y295000D02*
X799999D01*
X610999Y185750D02*
Y206750D01*
X621999Y185750D02*
Y206750D01*
X610999D02*
X621999D01*
X610999Y185750D02*
X621999D01*
X470499Y74007D02*
X495760D01*
X470238Y60250D02*
X495499D01*
X610999Y151750D02*
Y172750D01*
X621999Y151750D02*
Y172750D01*
X610999D02*
X621999D01*
X610999Y151750D02*
X621999D01*
X484499Y120007D02*
X509760D01*
X484238Y106250D02*
X509499D01*
X713238Y150493D02*
X738499D01*
X713499Y164250D02*
X738760D01*
X857249Y279250D02*
Y293750D01*
Y305000D01*
X846999D02*
X857249D01*
X846999Y279250D02*
X857249D01*
X301500Y56500D02*
Y77500D01*
X290500Y56500D02*
Y77500D01*
Y56500D02*
X301500D01*
X290500Y77500D02*
X301500D01*
X319500D02*
X340500D01*
X319500Y66500D02*
X340500D01*
Y77500D01*
X319500Y66500D02*
Y77500D01*
X389500Y83500D02*
Y104500D01*
X400500Y83500D02*
Y104500D01*
X389500D02*
X400500D01*
X389500Y83500D02*
X400500D01*
X266500Y56500D02*
Y77500D01*
X255500Y56500D02*
Y77500D01*
Y56500D02*
X266500D01*
X255500Y77500D02*
X266500D01*
X107500Y155500D02*
Y176500D01*
X96500Y155500D02*
Y176500D01*
Y155500D02*
X107500D01*
X96500Y176500D02*
X107500D01*
X65500Y20500D02*
Y41500D01*
X76500Y20500D02*
Y41500D01*
X65500D02*
X76500D01*
X65500Y20500D02*
X76500D01*
X55500Y55500D02*
X76500D01*
X55500Y66500D02*
X76500D01*
X55500Y55500D02*
Y66500D01*
X76500Y55500D02*
Y66500D01*
X624750Y364500D02*
X645750D01*
X624750Y375500D02*
X645750D01*
X624750Y364500D02*
Y375500D01*
X645750Y364500D02*
Y375500D01*
X638000Y339500D02*
Y360500D01*
X627000Y339500D02*
Y360500D01*
Y339500D02*
X638000D01*
X627000Y360500D02*
X638000D01*
X686739Y203243D02*
X712000D01*
X687000Y217000D02*
X712262D01*
X471499Y89507D02*
X496760D01*
X471237Y75750D02*
X496499D01*
X606499Y337632D02*
X631760D01*
X606237Y323875D02*
X631499D01*
X446743Y319000D02*
Y344262D01*
X460500Y318739D02*
Y344000D01*
X140250Y315757D02*
X165511D01*
X139988Y302000D02*
X165250D01*
X139250Y333757D02*
X164512D01*
X138989Y320000D02*
X164250D01*
X570738Y233243D02*
X596000D01*
X571000Y247000D02*
X596261D01*
X576500Y220500D02*
X597500D01*
X576500Y231500D02*
X597500D01*
X576500Y220500D02*
Y231500D01*
X597500Y220500D02*
Y231500D01*
X140250Y348757D02*
X165511D01*
X139988Y335000D02*
X165250D01*
X213000Y66757D02*
X238262D01*
X212738Y53000D02*
X238000D01*
X793989Y328243D02*
X819250D01*
X794250Y342000D02*
X819511D01*
X510249Y426750D02*
Y447750D01*
X521249Y426750D02*
Y447750D01*
X510249D02*
X521249D01*
X510249Y426750D02*
X521249D01*
X100000Y480757D02*
X125261D01*
X99739Y467000D02*
X125000D01*
X69500Y218000D02*
X100500D01*
X69500Y237000D02*
X100500D01*
X111500Y236500D02*
X142500D01*
X111500Y217500D02*
X142500D01*
X810750Y367500D02*
Y388500D01*
X799750Y367500D02*
Y388500D01*
Y367500D02*
X810750D01*
X799750Y388500D02*
X810750D01*
X637000Y244757D02*
X662262D01*
X636739Y231000D02*
X662000D01*
X637000Y229757D02*
X662262D01*
X636739Y216000D02*
X662000D01*
X637500Y203500D02*
X658500D01*
X637500Y214500D02*
X658500D01*
X637500Y203500D02*
Y214500D01*
X658500Y203500D02*
Y214500D01*
X606499Y322554D02*
X631760D01*
X606237Y308797D02*
X631499D01*
X536835Y310165D02*
X562096D01*
X536573Y296408D02*
X561835D01*
X565493Y323250D02*
Y348512D01*
X579250Y322989D02*
Y348250D01*
X690500Y94500D02*
X701500D01*
X690500Y73500D02*
X701500D01*
X690500D02*
Y94500D01*
X701500Y73500D02*
Y94500D01*
X677500D02*
X688500D01*
X677500Y73500D02*
X688500D01*
X677500D02*
Y94500D01*
X688500Y73500D02*
Y94500D01*
D43*
X692000Y197000D02*
X706000D01*
X692000Y189000D02*
Y197000D01*
Y167000D02*
X706000D01*
X692000D02*
Y175000D01*
X46000Y99500D02*
Y144500D01*
X20000Y99500D02*
Y144500D01*
X85000Y95000D02*
Y113000D01*
X135000Y95000D02*
Y113000D01*
X85000D02*
X135000D01*
X85000Y95000D02*
X135000D01*
X15000Y336000D02*
Y350000D01*
Y336000D02*
X23000D01*
X45000D02*
Y350000D01*
X37000Y336000D02*
X45000D01*
X95500D02*
Y350000D01*
Y336000D02*
X103500D01*
X125500D02*
Y350000D01*
X117500Y336000D02*
X125500D01*
X56000D02*
Y350000D01*
Y336000D02*
X64000D01*
X86000D02*
Y350000D01*
X78000Y336000D02*
X86000D01*
X723000Y126000D02*
Y140000D01*
X715000D02*
X723000D01*
X693000Y126000D02*
Y140000D01*
X701000D01*
X820000Y132000D02*
Y140000D01*
X806000D02*
X820000D01*
Y110000D02*
Y118000D01*
X806000Y110000D02*
X820000D01*
X776000Y136000D02*
Y144000D01*
X762000D02*
X776000D01*
Y114000D02*
Y122000D01*
X762000Y114000D02*
X776000D01*
Y70000D02*
Y78000D01*
X762000D02*
X776000D01*
Y48000D02*
Y56000D01*
X762000Y48000D02*
X776000D01*
Y104500D02*
Y112500D01*
X762000D02*
X776000D01*
Y82500D02*
Y90500D01*
X762000Y82500D02*
X776000D01*
X739000Y70000D02*
Y78000D01*
X725000D02*
X739000D01*
Y48000D02*
Y56000D01*
X725000Y48000D02*
X739000D01*
X799000Y217000D02*
Y225000D01*
Y217000D02*
X813000D01*
X799000Y239000D02*
Y247000D01*
X813000D01*
X419250Y385000D02*
Y399000D01*
Y385000D02*
X427250D01*
X449250D02*
Y399000D01*
X441250Y385000D02*
X449250D01*
D47*
X244000Y390000D02*
G03*
X244000Y390000I-29000J0D01*
G01*
D188*
X585005Y156000D02*
G03*
X585005Y156000I-1627J0D01*
G01*
X20500Y157000D02*
X45500D01*
X811999Y298600D02*
Y316250D01*
Y268750D02*
Y285900D01*
X846999Y298600D02*
Y316250D01*
Y268750D02*
Y285900D01*
X248000Y69000D02*
X252000D01*
X248000D02*
Y100000D01*
X255000Y107000D01*
Y107000D01*
X258000Y110000D01*
X316000D01*
D189*
X659500Y522500D02*
G03*
X659500Y522500I-22000J0D01*
G01*
X237000Y112500D02*
G03*
X237000Y112500I-22000J0D01*
G01*
D192*
X710250Y200000D02*
G03*
X710250Y200000I-1250J0D01*
G01*
X19250Y150750D02*
G03*
X19250Y150750I-1250J0D01*
G01*
X138800Y80000D02*
G03*
X138800Y80000I-1250J0D01*
G01*
X13250Y353000D02*
G03*
X13250Y353000I-1250J0D01*
G01*
X93750D02*
G03*
X93750Y353000I-1250J0D01*
G01*
X54250D02*
G03*
X54250Y353000I-1250J0D01*
G01*
X727250Y123000D02*
G03*
X727250Y123000I-1250J0D01*
G01*
X804250Y107000D02*
G03*
X804250Y107000I-1250J0D01*
G01*
X752250Y113000D02*
G03*
X752250Y113000I-1250J0D01*
G01*
X760250Y45000D02*
G03*
X760250Y45000I-1250J0D01*
G01*
Y79500D02*
G03*
X760250Y79500I-1250J0D01*
G01*
X723250Y45000D02*
G03*
X723250Y45000I-1250J0D01*
G01*
X817250Y250000D02*
G03*
X817250Y250000I-1250J0D01*
G01*
X418500Y408000D02*
G03*
X418500Y408000I-1250J0D01*
G01*
D193*
X322769Y267332D02*
X323602Y266499D01*
Y264833D01*
X322769Y264000D01*
X319437D01*
X318604Y264833D01*
Y266499D01*
X319437Y267332D01*
X322769Y268998D02*
X323602Y269831D01*
Y271498D01*
X322769Y272331D01*
X321936D01*
X321103Y271498D01*
Y270665D01*
Y271498D01*
X320270Y272331D01*
X319437D01*
X318604Y271498D01*
Y269831D01*
X319437Y268998D01*
X323602Y277329D02*
Y273997D01*
X321103D01*
X321936Y275663D01*
Y276496D01*
X321103Y277329D01*
X319437D01*
X318604Y276496D01*
Y274830D01*
X319437Y273997D01*
X39250Y371998D02*
Y368666D01*
X37584Y367000D01*
X35918Y368666D01*
Y371998D01*
X34252D02*
Y367000D01*
X31753D01*
X30919Y367833D01*
Y371165D01*
X31753Y371998D01*
X34252D01*
X29253Y367000D02*
X27587D01*
X28420D01*
Y371998D01*
X29253Y371165D01*
X22589Y367000D02*
Y371998D01*
X25088Y369499D01*
X21756D01*
X119250Y321998D02*
Y318666D01*
X117584Y317000D01*
X115918Y318666D01*
Y321998D01*
X114252D02*
Y317000D01*
X111753D01*
X110919Y317833D01*
Y321165D01*
X111753Y321998D01*
X114252D01*
X109253Y317000D02*
X107587D01*
X108420D01*
Y321998D01*
X109253Y321165D01*
X105088D02*
X104255Y321998D01*
X102589D01*
X101756Y321165D01*
Y320332D01*
X102589Y319499D01*
X103422D01*
X102589D01*
X101756Y318666D01*
Y317833D01*
X102589Y317000D01*
X104255D01*
X105088Y317833D01*
X80250Y369998D02*
Y366666D01*
X78584Y365000D01*
X76918Y366666D01*
Y369998D01*
X75252D02*
Y365000D01*
X72752D01*
X71919Y365833D01*
Y369165D01*
X72752Y369998D01*
X75252D01*
X70253Y365000D02*
X68587D01*
X69420D01*
Y369998D01*
X70253Y369165D01*
X62756Y365000D02*
X66088D01*
X62756Y368332D01*
Y369165D01*
X63589Y369998D01*
X65255D01*
X66088Y369165D01*
X348669Y273417D02*
X349502Y274251D01*
X351168D01*
X352001Y273417D01*
Y270085D01*
X351168Y269252D01*
X349502D01*
X348669Y270085D01*
X347003Y273417D02*
X346170Y274251D01*
X344504D01*
X343670Y273417D01*
Y272584D01*
X344504Y271751D01*
X345336D01*
X344504D01*
X343670Y270918D01*
Y270085D01*
X344504Y269252D01*
X346170D01*
X347003Y270085D01*
X792001Y277252D02*
X796999D01*
Y279751D01*
X796166Y280584D01*
X794500D01*
X793667Y279751D01*
Y277252D01*
Y278918D02*
X792001Y280584D01*
X796999Y282250D02*
Y285583D01*
X796166D01*
X792834Y282250D01*
X792001D01*
Y289748D02*
X796999D01*
X794500Y287249D01*
Y290581D01*
X604001Y188252D02*
X608999D01*
Y190751D01*
X608166Y191584D01*
X606500D01*
X605667Y190751D01*
Y188252D01*
Y189918D02*
X604001Y191584D01*
X608999Y196583D02*
X608166Y194917D01*
X606500Y193251D01*
X604834D01*
X604001Y194083D01*
Y195750D01*
X604834Y196583D01*
X605667D01*
X606500Y195750D01*
Y193251D01*
X608999Y201581D02*
X608166Y199915D01*
X606500Y198249D01*
X604834D01*
X604001Y199082D01*
Y200748D01*
X604834Y201581D01*
X605667D01*
X606500Y200748D01*
Y198249D01*
X460669Y69417D02*
X461502Y70251D01*
X463168D01*
X464001Y69417D01*
Y66085D01*
X463168Y65252D01*
X461502D01*
X460669Y66085D01*
X459003Y65252D02*
X457337D01*
X458170D01*
Y70251D01*
X459003Y69417D01*
X454837D02*
X454004Y70251D01*
X452338D01*
X451505Y69417D01*
Y66085D01*
X452338Y65252D01*
X454004D01*
X454837Y66085D01*
Y69417D01*
X449839Y70251D02*
X446507D01*
Y69417D01*
X449839Y66085D01*
Y65252D01*
X603001Y156252D02*
X607999D01*
Y158751D01*
X607166Y159584D01*
X605500D01*
X604667Y158751D01*
Y156252D01*
Y157918D02*
X603001Y159584D01*
X607999Y164583D02*
X607166Y162917D01*
X605500Y161250D01*
X603834D01*
X603001Y162083D01*
Y163750D01*
X603834Y164583D01*
X604667D01*
X605500Y163750D01*
Y161250D01*
X607999Y169581D02*
Y166249D01*
X605500D01*
X606333Y167915D01*
Y168748D01*
X605500Y169581D01*
X603834D01*
X603001Y168748D01*
Y167082D01*
X603834Y166249D01*
X501669Y127417D02*
X502502Y128250D01*
X504168D01*
X505001Y127417D01*
Y124085D01*
X504168Y123252D01*
X502502D01*
X501669Y124085D01*
X500003Y123252D02*
X498336D01*
X499170D01*
Y128250D01*
X500003Y127417D01*
X495837D02*
X495004Y128250D01*
X493338D01*
X492505Y127417D01*
Y124085D01*
X493338Y123252D01*
X495004D01*
X495837Y124085D01*
Y127417D01*
X487507Y123252D02*
X490839D01*
X487507Y126584D01*
Y127417D01*
X488340Y128250D01*
X490006D01*
X490839Y127417D01*
X755918Y160165D02*
X756751Y160998D01*
X758417D01*
X759250Y160165D01*
Y156833D01*
X758417Y156000D01*
X756751D01*
X755918Y156833D01*
X754252Y156000D02*
X752586D01*
X753419D01*
Y160998D01*
X754252Y160165D01*
X750086Y156000D02*
X748420D01*
X749253D01*
Y160998D01*
X750086Y160165D01*
X745921Y156000D02*
X744255D01*
X745088D01*
Y160998D01*
X745921Y160165D01*
X843000Y338592D02*
Y333593D01*
X840501D01*
X839668Y334426D01*
Y335259D01*
X840501Y336092D01*
X843000D01*
X840501D01*
X839668Y336925D01*
Y337758D01*
X840501Y338592D01*
X843000D01*
X838002D02*
X834669D01*
X836336D01*
Y333593D01*
X833003D02*
X831337D01*
X832170D01*
Y338592D01*
X833003Y337758D01*
X295000Y112828D02*
X299998D01*
Y115327D01*
X299165Y116160D01*
X297499D01*
X296666Y115327D01*
Y112828D01*
Y114494D02*
X295000Y116160D01*
X299998Y121159D02*
X299165Y119493D01*
X297499Y117826D01*
X295833D01*
X295000Y118659D01*
Y120325D01*
X295833Y121159D01*
X296666D01*
X297499Y120325D01*
Y117826D01*
X295000Y126157D02*
Y122825D01*
X298332Y126157D01*
X299165D01*
X299998Y125324D01*
Y123658D01*
X299165Y122825D01*
X337000Y58000D02*
Y62998D01*
X334501D01*
X333668Y62165D01*
Y60499D01*
X334501Y59666D01*
X337000D01*
X335334D02*
X333668Y58000D01*
X328669Y62998D02*
X330336Y62165D01*
X332002Y60499D01*
Y58833D01*
X331169Y58000D01*
X329502D01*
X328669Y58833D01*
Y59666D01*
X329502Y60499D01*
X332002D01*
X327003Y62165D02*
X326170Y62998D01*
X324504D01*
X323671Y62165D01*
Y61332D01*
X324504Y60499D01*
X325337D01*
X324504D01*
X323671Y59666D01*
Y58833D01*
X324504Y58000D01*
X326170D01*
X327003Y58833D01*
X392001Y107068D02*
X396999D01*
Y109567D01*
X396166Y110400D01*
X394500D01*
X393667Y109567D01*
Y107068D01*
Y108734D02*
X392001Y110400D01*
X396999Y115399D02*
X396166Y113733D01*
X394500Y112066D01*
X392834D01*
X392001Y112899D01*
Y114565D01*
X392834Y115399D01*
X393667D01*
X394500Y114565D01*
Y112066D01*
X396166Y117065D02*
X396999Y117898D01*
Y119564D01*
X396166Y120397D01*
X392834D01*
X392001Y119564D01*
Y117898D01*
X392834Y117065D01*
X396166D01*
X260000Y114000D02*
X264998D01*
Y116499D01*
X264165Y117332D01*
X262499D01*
X261666Y116499D01*
Y114000D01*
Y115666D02*
X260000Y117332D01*
X264998Y122331D02*
X264165Y120665D01*
X262499Y118998D01*
X260833D01*
X260000Y119831D01*
Y121497D01*
X260833Y122331D01*
X261666D01*
X262499Y121497D01*
Y118998D01*
X260000Y123997D02*
Y125663D01*
Y124830D01*
X264998D01*
X264165Y123997D01*
X310165Y116332D02*
X310998Y115499D01*
Y113833D01*
X310165Y113000D01*
X306833D01*
X306000Y113833D01*
Y115499D01*
X306833Y116332D01*
X310165Y117998D02*
X310998Y118831D01*
Y120498D01*
X310165Y121331D01*
X309332D01*
X308499Y120498D01*
X307666Y121331D01*
X306833D01*
X306000Y120498D01*
Y118831D01*
X306833Y117998D01*
X307666D01*
X308499Y118831D01*
X309332Y117998D01*
X310165D01*
X308499Y118831D02*
Y120498D01*
X306833Y122997D02*
X306000Y123830D01*
Y125496D01*
X306833Y126329D01*
X310165D01*
X310998Y125496D01*
Y123830D01*
X310165Y122997D01*
X309332D01*
X308499Y123830D01*
Y126329D01*
X277098Y116332D02*
X277931Y115499D01*
Y113833D01*
X277098Y113000D01*
X273766D01*
X272932Y113833D01*
Y115499D01*
X273766Y116332D01*
X277098Y117998D02*
X277931Y118831D01*
Y120498D01*
X277098Y121331D01*
X276265D01*
X275432Y120498D01*
X274599Y121331D01*
X273766D01*
X272932Y120498D01*
Y118831D01*
X273766Y117998D01*
X274599D01*
X275432Y118831D01*
X276265Y117998D01*
X277098D01*
X275432Y118831D02*
Y120498D01*
X277098Y122997D02*
X277931Y123830D01*
Y125496D01*
X277098Y126329D01*
X276265D01*
X275432Y125496D01*
X274599Y126329D01*
X273766D01*
X272932Y125496D01*
Y123830D01*
X273766Y122997D01*
X274599D01*
X275432Y123830D01*
X276265Y122997D01*
X277098D01*
X275432Y123830D02*
Y125496D01*
X288165Y116160D02*
X288998Y115327D01*
Y113661D01*
X288165Y112828D01*
X284833D01*
X284000Y113661D01*
Y115327D01*
X284833Y116160D01*
X288165Y117826D02*
X288998Y118659D01*
Y120325D01*
X288165Y121159D01*
X287332D01*
X286499Y120325D01*
X285666Y121159D01*
X284833D01*
X284000Y120325D01*
Y118659D01*
X284833Y117826D01*
X285666D01*
X286499Y118659D01*
X287332Y117826D01*
X288165D01*
X286499Y118659D02*
Y120325D01*
X288998Y122825D02*
Y126157D01*
X288165D01*
X284833Y122825D01*
X284000D01*
X341819Y343490D02*
X342652Y342657D01*
Y340991D01*
X341819Y340158D01*
X338487D01*
X337654Y340991D01*
Y342657D01*
X338487Y343490D01*
X337654Y348489D02*
Y345156D01*
X340986Y348489D01*
X341819D01*
X342652Y347655D01*
Y345989D01*
X341819Y345156D01*
Y350155D02*
X342652Y350988D01*
Y352654D01*
X341819Y353487D01*
X340986D01*
X340153Y352654D01*
Y351821D01*
Y352654D01*
X339320Y353487D01*
X338487D01*
X337654Y352654D01*
Y350988D01*
X338487Y350155D01*
X38000Y56000D02*
Y60998D01*
X35501D01*
X34668Y60165D01*
Y58499D01*
X35501Y57666D01*
X38000D01*
X36334D02*
X34668Y56000D01*
X33002Y60165D02*
X32169Y60998D01*
X30503D01*
X29669Y60165D01*
Y59332D01*
X30503Y58499D01*
X29669Y57666D01*
Y56833D01*
X30503Y56000D01*
X32169D01*
X33002Y56833D01*
Y57666D01*
X32169Y58499D01*
X33002Y59332D01*
Y60165D01*
X32169Y58499D02*
X30503D01*
X28003Y60165D02*
X27170Y60998D01*
X25504D01*
X24671Y60165D01*
Y59332D01*
X25504Y58499D01*
X24671Y57666D01*
Y56833D01*
X25504Y56000D01*
X27170D01*
X28003Y56833D01*
Y57666D01*
X27170Y58499D01*
X28003Y59332D01*
Y60165D01*
X27170Y58499D02*
X25504D01*
X837250Y40000D02*
Y44998D01*
X834751D01*
X833918Y44165D01*
Y42499D01*
X834751Y41666D01*
X837250D01*
X835584D02*
X833918Y40000D01*
X832252Y44998D02*
X828919D01*
Y44165D01*
X832252Y40833D01*
Y40000D01*
X827253D02*
X825587D01*
X826420D01*
Y44998D01*
X827253Y44165D01*
X715250Y112998D02*
Y109666D01*
X713584Y108000D01*
X711918Y109666D01*
Y112998D01*
X710252D02*
Y108000D01*
X707753D01*
X706919Y108833D01*
Y112165D01*
X707753Y112998D01*
X710252D01*
X702754Y108000D02*
Y112998D01*
X705253Y110499D01*
X701921D01*
X738664Y176582D02*
X739497Y175749D01*
Y174083D01*
X738664Y173250D01*
X735332D01*
X734499Y174083D01*
Y175749D01*
X735332Y176582D01*
X734499Y178248D02*
Y179914D01*
Y179081D01*
X739497D01*
X738664Y178248D01*
X734499Y185746D02*
Y182414D01*
X737831Y185746D01*
X738664D01*
X739497Y184913D01*
Y183247D01*
X738664Y182414D01*
Y187412D02*
X739497Y188245D01*
Y189911D01*
X738664Y190744D01*
X735332D01*
X734499Y189911D01*
Y188245D01*
X735332Y187412D01*
X738664D01*
X403415Y388585D02*
X404248Y387752D01*
Y386086D01*
X403415Y385253D01*
X400083D01*
X399250Y386086D01*
Y387752D01*
X400083Y388585D01*
Y390251D02*
X399250Y391085D01*
Y392751D01*
X400083Y393584D01*
X403415D01*
X404248Y392751D01*
Y391085D01*
X403415Y390251D01*
X402582D01*
X401749Y391085D01*
Y393584D01*
X403415Y395250D02*
X404248Y396083D01*
Y397749D01*
X403415Y398582D01*
X400083D01*
X399250Y397749D01*
Y396083D01*
X400083Y395250D01*
X403415D01*
X101000Y180000D02*
X105998D01*
Y182499D01*
X105165Y183332D01*
X103499D01*
X102666Y182499D01*
Y180000D01*
Y181666D02*
X101000Y183332D01*
X101833Y184998D02*
X101000Y185831D01*
Y187498D01*
X101833Y188331D01*
X105165D01*
X105998Y187498D01*
Y185831D01*
X105165Y184998D01*
X104332D01*
X103499Y185831D01*
Y188331D01*
X101000Y193329D02*
Y189997D01*
X104332Y193329D01*
X105165D01*
X105998Y192496D01*
Y190830D01*
X105165Y189997D01*
X61000Y25000D02*
Y29998D01*
X58501D01*
X57668Y29165D01*
Y27499D01*
X58501Y26666D01*
X61000D01*
X59334D02*
X57668Y25000D01*
X56002Y25833D02*
X55169Y25000D01*
X53502D01*
X52669Y25833D01*
Y29165D01*
X53502Y29998D01*
X55169D01*
X56002Y29165D01*
Y28332D01*
X55169Y27499D01*
X52669D01*
X51003Y29165D02*
X50170Y29998D01*
X48504D01*
X47671Y29165D01*
Y25833D01*
X48504Y25000D01*
X50170D01*
X51003Y25833D01*
Y29165D01*
X47000Y73000D02*
Y77998D01*
X44501D01*
X43668Y77165D01*
Y75499D01*
X44501Y74666D01*
X47000D01*
X45334D02*
X43668Y73000D01*
X42002Y77165D02*
X41169Y77998D01*
X39502D01*
X38669Y77165D01*
Y76332D01*
X39502Y75499D01*
X38669Y74666D01*
Y73833D01*
X39502Y73000D01*
X41169D01*
X42002Y73833D01*
Y74666D01*
X41169Y75499D01*
X42002Y76332D01*
Y77165D01*
X41169Y75499D02*
X39502D01*
X37003Y77998D02*
X33671D01*
Y77165D01*
X37003Y73833D01*
Y73000D01*
X659752Y368002D02*
Y373000D01*
X657253D01*
X656420Y372167D01*
Y370501D01*
X657253Y369668D01*
X659752D01*
X658086D02*
X656420Y368002D01*
X654754Y372167D02*
X653921Y373000D01*
X652254D01*
X651422Y372167D01*
Y371334D01*
X652254Y370501D01*
X651422Y369668D01*
Y368835D01*
X652254Y368002D01*
X653921D01*
X654754Y368835D01*
Y369668D01*
X653921Y370501D01*
X654754Y371334D01*
Y372167D01*
X653921Y370501D02*
X652254D01*
X649755Y368002D02*
X648089D01*
X648922D01*
Y373000D01*
X649755Y372167D01*
X655001Y347252D02*
Y352251D01*
X652502D01*
X651669Y351417D01*
Y349751D01*
X652502Y348918D01*
X655001D01*
X653335D02*
X651669Y347252D01*
X650003Y352251D02*
X646670D01*
Y351417D01*
X650003Y348085D01*
Y347252D01*
X645004Y348085D02*
X644171Y347252D01*
X642505D01*
X641672Y348085D01*
Y351417D01*
X642505Y352251D01*
X644171D01*
X645004Y351417D01*
Y350584D01*
X644171Y349751D01*
X641672D01*
X730669Y206417D02*
X731502Y207250D01*
X733168D01*
X734001Y206417D01*
Y203085D01*
X733168Y202252D01*
X731502D01*
X730669Y203085D01*
X729003Y202252D02*
X727337D01*
X728170D01*
Y207250D01*
X729003Y206417D01*
X721505Y202252D02*
X724837D01*
X721505Y205584D01*
Y206417D01*
X722338Y207250D01*
X724004D01*
X724837Y206417D01*
X716507Y202252D02*
X719839D01*
X716507Y205584D01*
Y206417D01*
X717340Y207250D01*
X719006D01*
X719839Y206417D01*
X461669Y84417D02*
X462502Y85251D01*
X464168D01*
X465001Y84417D01*
Y81085D01*
X464168Y80252D01*
X462502D01*
X461669Y81085D01*
X460003Y80252D02*
X458336D01*
X459170D01*
Y85251D01*
X460003Y84417D01*
X455837D02*
X455004Y85251D01*
X453338D01*
X452505Y84417D01*
Y81085D01*
X453338Y80252D01*
X455004D01*
X455837Y81085D01*
Y84417D01*
X447507Y85251D02*
X450839D01*
Y82751D01*
X449173Y83584D01*
X448340D01*
X447507Y82751D01*
Y81085D01*
X448340Y80252D01*
X450006D01*
X450839Y81085D01*
X647168Y333292D02*
X648001Y334126D01*
X649667D01*
X650500Y333292D01*
Y329960D01*
X649667Y329127D01*
X648001D01*
X647168Y329960D01*
X645502D02*
X644669Y329127D01*
X643002D01*
X642169Y329960D01*
Y333292D01*
X643002Y334126D01*
X644669D01*
X645502Y333292D01*
Y332459D01*
X644669Y331626D01*
X642169D01*
X640503Y333292D02*
X639670Y334126D01*
X638004D01*
X637171Y333292D01*
Y332459D01*
X638004Y331626D01*
X637171Y330793D01*
Y329960D01*
X638004Y329127D01*
X639670D01*
X640503Y329960D01*
Y330793D01*
X639670Y331626D01*
X640503Y332459D01*
Y333292D01*
X639670Y331626D02*
X638004D01*
X90165Y182332D02*
X90998Y181499D01*
Y179833D01*
X90165Y179000D01*
X86833D01*
X86000Y179833D01*
Y181499D01*
X86833Y182332D01*
X86000Y183998D02*
Y185665D01*
Y184831D01*
X90998D01*
X90165Y183998D01*
Y188164D02*
X90998Y188997D01*
Y190663D01*
X90165Y191496D01*
X89332D01*
X88499Y190663D01*
Y189830D01*
Y190663D01*
X87666Y191496D01*
X86833D01*
X86000Y190663D01*
Y188997D01*
X86833Y188164D01*
Y193162D02*
X86000Y193995D01*
Y195661D01*
X86833Y196494D01*
X90165D01*
X90998Y195661D01*
Y193995D01*
X90165Y193162D01*
X89332D01*
X88499Y193995D01*
Y196494D01*
X78165Y182332D02*
X78998Y181499D01*
Y179833D01*
X78165Y179000D01*
X74833D01*
X74000Y179833D01*
Y181499D01*
X74833Y182332D01*
X74000Y183998D02*
Y185665D01*
Y184831D01*
X78998D01*
X78165Y183998D01*
Y188164D02*
X78998Y188997D01*
Y190663D01*
X78165Y191496D01*
X77332D01*
X76499Y190663D01*
Y189830D01*
Y190663D01*
X75666Y191496D01*
X74833D01*
X74000Y190663D01*
Y188997D01*
X74833Y188164D01*
X78165Y193162D02*
X78998Y193995D01*
Y195661D01*
X78165Y196494D01*
X77332D01*
X76499Y195661D01*
X75666Y196494D01*
X74833D01*
X74000Y195661D01*
Y193995D01*
X74833Y193162D01*
X75666D01*
X76499Y193995D01*
X77332Y193162D01*
X78165D01*
X76499Y193995D02*
Y195661D01*
X57668Y40165D02*
X58501Y40998D01*
X60167D01*
X61000Y40165D01*
Y36833D01*
X60167Y36000D01*
X58501D01*
X57668Y36833D01*
X56002Y36000D02*
X54335D01*
X55169D01*
Y40998D01*
X56002Y40165D01*
X51836D02*
X51003Y40998D01*
X49337D01*
X48504Y40165D01*
Y39332D01*
X49337Y38499D01*
X50170D01*
X49337D01*
X48504Y37666D01*
Y36833D01*
X49337Y36000D01*
X51003D01*
X51836Y36833D01*
X46838Y40998D02*
X43506D01*
Y40165D01*
X46838Y36833D01*
Y36000D01*
X519166Y150584D02*
X519999Y149751D01*
Y148085D01*
X519166Y147252D01*
X515834D01*
X515001Y148085D01*
Y149751D01*
X515834Y150584D01*
X515001Y152250D02*
Y153917D01*
Y153083D01*
X519999D01*
X519166Y152250D01*
X515001Y156416D02*
Y158082D01*
Y157249D01*
X519999D01*
X519166Y156416D01*
Y160581D02*
X519999Y161414D01*
Y163080D01*
X519166Y163913D01*
X515834D01*
X515001Y163080D01*
Y161414D01*
X515834Y160581D01*
X519166D01*
X613166Y343584D02*
X613999Y342751D01*
Y341085D01*
X613166Y340252D01*
X609834D01*
X609001Y341085D01*
Y342751D01*
X609834Y343584D01*
Y345251D02*
X609001Y346083D01*
Y347750D01*
X609834Y348583D01*
X613166D01*
X613999Y347750D01*
Y346083D01*
X613166Y345251D01*
X612333D01*
X611500Y346083D01*
Y348583D01*
X613999Y350249D02*
Y353581D01*
X613166D01*
X609834Y350249D01*
X609001D01*
X587166Y281584D02*
X587999Y280751D01*
Y279085D01*
X587166Y278252D01*
X583834D01*
X583001Y279085D01*
Y280751D01*
X583834Y281584D01*
X583001Y283251D02*
Y284917D01*
Y284083D01*
X587999D01*
X587166Y283251D01*
Y287416D02*
X587999Y288249D01*
Y289915D01*
X587166Y290748D01*
X583834D01*
X583001Y289915D01*
Y288249D01*
X583834Y287416D01*
X587166D01*
X583001Y294913D02*
X587999D01*
X585500Y292414D01*
Y295746D01*
X690001Y283252D02*
X694999D01*
Y285751D01*
X694166Y286584D01*
X692500D01*
X691667Y285751D01*
Y283252D01*
Y284918D02*
X690001Y286584D01*
Y290750D02*
X694999D01*
X692500Y288251D01*
Y291583D01*
X690001Y295748D02*
X694999D01*
X692500Y293249D01*
Y296581D01*
X703001Y284252D02*
X707999D01*
Y286751D01*
X707166Y287584D01*
X705500D01*
X704667Y286751D01*
Y284252D01*
Y285918D02*
X703001Y287584D01*
Y291750D02*
X707999D01*
X705500Y289251D01*
Y292583D01*
X707166Y294249D02*
X707999Y295082D01*
Y296748D01*
X707166Y297581D01*
X706333D01*
X705500Y296748D01*
Y295915D01*
Y296748D01*
X704667Y297581D01*
X703834D01*
X703001Y296748D01*
Y295082D01*
X703834Y294249D01*
X526669Y197417D02*
X527502Y198251D01*
X529168D01*
X530001Y197417D01*
Y194085D01*
X529168Y193252D01*
X527502D01*
X526669Y194085D01*
X521670Y198251D02*
X525003D01*
Y195751D01*
X523336Y196584D01*
X522504D01*
X521670Y195751D01*
Y194085D01*
X522504Y193252D01*
X524170D01*
X525003Y194085D01*
X520004D02*
X519171Y193252D01*
X517505D01*
X516672Y194085D01*
Y197417D01*
X517505Y198251D01*
X519171D01*
X520004Y197417D01*
Y196584D01*
X519171Y195751D01*
X516672D01*
X838000Y55000D02*
Y59998D01*
X835501D01*
X834668Y59165D01*
Y57499D01*
X835501Y56666D01*
X838000D01*
X836334D02*
X834668Y55000D01*
X833002Y59998D02*
X829669D01*
Y59165D01*
X833002Y55833D01*
Y55000D01*
X828003Y59165D02*
X827170Y59998D01*
X825504D01*
X824671Y59165D01*
Y55833D01*
X825504Y55000D01*
X827170D01*
X828003Y55833D01*
Y59165D01*
X838250Y69000D02*
Y73998D01*
X835751D01*
X834918Y73165D01*
Y71499D01*
X835751Y70666D01*
X838250D01*
X836584D02*
X834918Y69000D01*
X829919Y73998D02*
X831585Y73165D01*
X833252Y71499D01*
Y69833D01*
X832419Y69000D01*
X830752D01*
X829919Y69833D01*
Y70666D01*
X830752Y71499D01*
X833252D01*
X828253Y73165D02*
X827420Y73998D01*
X825754D01*
X824921Y73165D01*
Y72332D01*
X825754Y71499D01*
X824921Y70666D01*
Y69833D01*
X825754Y69000D01*
X827420D01*
X828253Y69833D01*
Y70666D01*
X827420Y71499D01*
X828253Y72332D01*
Y73165D01*
X827420Y71499D02*
X825754D01*
X349669Y401417D02*
X350502Y402251D01*
X352168D01*
X353001Y401417D01*
Y398085D01*
X352168Y397252D01*
X350502D01*
X349669Y398085D01*
X344670Y397252D02*
X348003D01*
X344670Y400584D01*
Y401417D01*
X345503Y402251D01*
X347170D01*
X348003Y401417D01*
X761166Y464584D02*
X761999Y463751D01*
Y462085D01*
X761166Y461252D01*
X757834D01*
X757001Y462085D01*
Y463751D01*
X757834Y464584D01*
X761166Y466250D02*
X761999Y467084D01*
Y468750D01*
X761166Y469583D01*
X760333D01*
X759500Y468750D01*
X758667Y469583D01*
X757834D01*
X757001Y468750D01*
Y467084D01*
X757834Y466250D01*
X758667D01*
X759500Y467084D01*
X760333Y466250D01*
X761166D01*
X759500Y467084D02*
Y468750D01*
X757001Y471249D02*
Y472915D01*
Y472082D01*
X761999D01*
X761166Y471249D01*
X273870Y403833D02*
X274703Y404666D01*
X276369D01*
X277202Y403833D01*
Y400501D01*
X276369Y399668D01*
X274703D01*
X273870Y400501D01*
X268871Y404666D02*
X270537Y403833D01*
X272204Y402167D01*
Y400501D01*
X271371Y399668D01*
X269704D01*
X268871Y400501D01*
Y401334D01*
X269704Y402167D01*
X272204D01*
X378669Y197417D02*
X379502Y198251D01*
X381168D01*
X382001Y197417D01*
Y194085D01*
X381168Y193252D01*
X379502D01*
X378669Y194085D01*
X377003Y198251D02*
X373670D01*
Y197417D01*
X377003Y194085D01*
Y193252D01*
X298000Y403833D02*
X298833Y404666D01*
X300499D01*
X301332Y403833D01*
Y400501D01*
X300499Y399668D01*
X298833D01*
X298000Y400501D01*
X296334Y403833D02*
X295501Y404666D01*
X293834D01*
X293001Y403833D01*
Y403000D01*
X293834Y402167D01*
X293001Y401334D01*
Y400501D01*
X293834Y399668D01*
X295501D01*
X296334Y400501D01*
Y401334D01*
X295501Y402167D01*
X296334Y403000D01*
Y403833D01*
X295501Y402167D02*
X293834D01*
X339669Y215417D02*
X340502Y216250D01*
X342168D01*
X343001Y215417D01*
Y212085D01*
X342168Y211252D01*
X340502D01*
X339669Y212085D01*
X338003D02*
X337170Y211252D01*
X335503D01*
X334670Y212085D01*
Y215417D01*
X335503Y216250D01*
X337170D01*
X338003Y215417D01*
Y214584D01*
X337170Y213751D01*
X334670D01*
X332669Y401165D02*
X333502Y401998D01*
X335168D01*
X336001Y401165D01*
Y397833D01*
X335168Y397000D01*
X333502D01*
X332669Y397833D01*
X331003Y397000D02*
X329337D01*
X330169D01*
Y401998D01*
X331003Y401165D01*
X326837D02*
X326004Y401998D01*
X324338D01*
X323505Y401165D01*
Y397833D01*
X324338Y397000D01*
X326004D01*
X326837Y397833D01*
Y401165D01*
X336668Y193165D02*
X337501Y193998D01*
X339167D01*
X340000Y193165D01*
Y189833D01*
X339167Y189000D01*
X337501D01*
X336668Y189833D01*
X335002Y189000D02*
X333335D01*
X334169D01*
Y193998D01*
X335002Y193165D01*
X330836Y189000D02*
X329170D01*
X330003D01*
Y193998D01*
X330836Y193165D01*
X370166Y357584D02*
X370999Y356751D01*
Y355085D01*
X370166Y354252D01*
X366834D01*
X366001Y355085D01*
Y356751D01*
X366834Y357584D01*
X366001Y359250D02*
Y360917D01*
Y360084D01*
X370999D01*
X370166Y359250D01*
X366001Y365915D02*
X370999D01*
X368500Y363416D01*
Y366748D01*
X268668Y197003D02*
X269501Y197836D01*
X271167D01*
X272000Y197003D01*
Y193671D01*
X271167Y192838D01*
X269501D01*
X268668Y193671D01*
X267002Y192838D02*
X265336D01*
X266169D01*
Y197836D01*
X267002Y197003D01*
X259504Y197836D02*
X262836D01*
Y195337D01*
X261170Y196170D01*
X260337D01*
X259504Y195337D01*
Y193671D01*
X260337Y192838D01*
X262003D01*
X262836Y193671D01*
X295669Y195417D02*
X296502Y196250D01*
X298168D01*
X299001Y195417D01*
Y192085D01*
X298168Y191252D01*
X296502D01*
X295669Y192085D01*
X290670Y191252D02*
X294003D01*
X290670Y194584D01*
Y195417D01*
X291503Y196250D01*
X293169D01*
X294003Y195417D01*
X289004D02*
X288171Y196250D01*
X286505D01*
X285672Y195417D01*
Y192085D01*
X286505Y191252D01*
X288171D01*
X289004Y192085D01*
Y195417D01*
X295166Y354584D02*
X295999Y353751D01*
Y352085D01*
X295166Y351252D01*
X291834D01*
X291001Y352085D01*
Y353751D01*
X291834Y354584D01*
X291001Y359583D02*
Y356250D01*
X294333Y359583D01*
X295166D01*
X295999Y358750D01*
Y357084D01*
X295166Y356250D01*
X291834Y361249D02*
X291001Y362082D01*
Y363748D01*
X291834Y364581D01*
X295166D01*
X295999Y363748D01*
Y362082D01*
X295166Y361249D01*
X294333D01*
X293500Y362082D01*
Y364581D01*
X305166Y235584D02*
X305999Y234751D01*
Y233085D01*
X305166Y232252D01*
X301834D01*
X301001Y233085D01*
Y234751D01*
X301834Y235584D01*
X305166Y237250D02*
X305999Y238083D01*
Y239750D01*
X305166Y240583D01*
X304333D01*
X303500Y239750D01*
Y238917D01*
Y239750D01*
X302667Y240583D01*
X301834D01*
X301001Y239750D01*
Y238083D01*
X301834Y237250D01*
X305166Y242249D02*
X305999Y243082D01*
Y244748D01*
X305166Y245581D01*
X301834D01*
X301001Y244748D01*
Y243082D01*
X301834Y242249D01*
X305166D01*
X402419Y297917D02*
X403252Y298750D01*
X404918D01*
X405751Y297917D01*
Y294585D01*
X404918Y293752D01*
X403252D01*
X402419Y294585D01*
X400753Y297917D02*
X399920Y298750D01*
X398253D01*
X397420Y297917D01*
Y297084D01*
X398253Y296251D01*
X399086D01*
X398253D01*
X397420Y295418D01*
Y294585D01*
X398253Y293752D01*
X399920D01*
X400753Y294585D01*
X395754Y297917D02*
X394921Y298750D01*
X393255D01*
X392422Y297917D01*
Y297084D01*
X393255Y296251D01*
X394088D01*
X393255D01*
X392422Y295418D01*
Y294585D01*
X393255Y293752D01*
X394921D01*
X395754Y294585D01*
X473669Y230417D02*
X474502Y231250D01*
X476168D01*
X477001Y230417D01*
Y227085D01*
X476168Y226252D01*
X474502D01*
X473669Y227085D01*
X472003Y230417D02*
X471170Y231250D01*
X469503D01*
X468670Y230417D01*
Y229584D01*
X469503Y228751D01*
X470336D01*
X469503D01*
X468670Y227918D01*
Y227085D01*
X469503Y226252D01*
X471170D01*
X472003Y227085D01*
X464505Y226252D02*
Y231250D01*
X467004Y228751D01*
X463672D01*
X472629Y161584D02*
X473462Y160751D01*
Y159085D01*
X472629Y158252D01*
X469297D01*
X468464Y159085D01*
Y160751D01*
X469297Y161584D01*
X472629Y163250D02*
X473462Y164083D01*
Y165750D01*
X472629Y166583D01*
X471796D01*
X470963Y165750D01*
Y164917D01*
Y165750D01*
X470130Y166583D01*
X469297D01*
X468464Y165750D01*
Y164083D01*
X469297Y163250D01*
X473462Y171581D02*
X472629Y169915D01*
X470963Y168249D01*
X469297D01*
X468464Y169082D01*
Y170748D01*
X469297Y171581D01*
X470130D01*
X470963Y170748D01*
Y168249D01*
X473669Y219417D02*
X474502Y220250D01*
X476168D01*
X477001Y219417D01*
Y216085D01*
X476168Y215252D01*
X474502D01*
X473669Y216085D01*
X472003Y219417D02*
X471170Y220250D01*
X469503D01*
X468670Y219417D01*
Y218584D01*
X469503Y217751D01*
X470336D01*
X469503D01*
X468670Y216918D01*
Y216085D01*
X469503Y215252D01*
X471170D01*
X472003Y216085D01*
X467004Y220250D02*
X463672D01*
Y219417D01*
X467004Y216085D01*
Y215252D01*
X616916Y393084D02*
X617749Y392251D01*
Y390585D01*
X616916Y389752D01*
X613584D01*
X612751Y390585D01*
Y392251D01*
X613584Y393084D01*
X612751Y397250D02*
X617749D01*
X615250Y394751D01*
Y398083D01*
X650416Y408584D02*
X651249Y407751D01*
Y406085D01*
X650416Y405252D01*
X647084D01*
X646251Y406085D01*
Y407751D01*
X647084Y408584D01*
X651249Y413583D02*
Y410250D01*
X648750D01*
X649583Y411917D01*
Y412750D01*
X648750Y413583D01*
X647084D01*
X646251Y412750D01*
Y411083D01*
X647084Y410250D01*
X541666Y415832D02*
X542499Y414999D01*
Y413332D01*
X541666Y412499D01*
X538334D01*
X537501Y413332D01*
Y414999D01*
X538334Y415832D01*
X537501Y417498D02*
Y419164D01*
Y418331D01*
X542499D01*
X541666Y417498D01*
X537501Y424995D02*
Y421663D01*
X540833Y424995D01*
X541666D01*
X542499Y424162D01*
Y422496D01*
X541666Y421663D01*
X650416Y437084D02*
X651249Y436251D01*
Y434585D01*
X650416Y433752D01*
X647084D01*
X646251Y434585D01*
Y436251D01*
X647084Y437084D01*
X646251Y438750D02*
Y440417D01*
Y439584D01*
X651249D01*
X650416Y438750D01*
Y442916D02*
X651249Y443749D01*
Y445415D01*
X650416Y446248D01*
X649583D01*
X648750Y445415D01*
Y444582D01*
Y445415D01*
X647917Y446248D01*
X647084D01*
X646251Y445415D01*
Y443749D01*
X647084Y442916D01*
X121669Y447417D02*
X122502Y448251D01*
X124168D01*
X125001Y447417D01*
Y444085D01*
X124168Y443252D01*
X122502D01*
X121669Y444085D01*
X120003Y443252D02*
X118336D01*
X119170D01*
Y448251D01*
X120003Y447417D01*
X115837D02*
X115004Y448251D01*
X113338D01*
X112505Y447417D01*
Y446584D01*
X113338Y445751D01*
X112505Y444918D01*
Y444085D01*
X113338Y443252D01*
X115004D01*
X115837Y444085D01*
Y444918D01*
X115004Y445751D01*
X115837Y446584D01*
Y447417D01*
X115004Y445751D02*
X113338D01*
X607915Y356832D02*
X608748Y355999D01*
Y354333D01*
X607915Y353500D01*
X604583D01*
X603750Y354333D01*
Y355999D01*
X604583Y356832D01*
X603750Y361831D02*
Y358498D01*
X607082Y361831D01*
X607915D01*
X608748Y360998D01*
Y359331D01*
X607915Y358498D01*
X608748Y366829D02*
X607915Y365163D01*
X606249Y363497D01*
X604583D01*
X603750Y364330D01*
Y365996D01*
X604583Y366829D01*
X605416D01*
X606249Y365996D01*
Y363497D01*
X595919Y392417D02*
X596752Y393250D01*
X598418D01*
X599251Y392417D01*
Y389085D01*
X598418Y388252D01*
X596752D01*
X595919Y389085D01*
X590920Y388252D02*
X594253D01*
X590920Y391584D01*
Y392417D01*
X591754Y393250D01*
X593420D01*
X594253Y392417D01*
X589254Y393250D02*
X585922D01*
Y392417D01*
X589254Y389085D01*
Y388252D01*
X596669Y459417D02*
X597502Y460251D01*
X599168D01*
X600001Y459417D01*
Y456085D01*
X599168Y455252D01*
X597502D01*
X596669Y456085D01*
X591670Y455252D02*
X595003D01*
X591670Y458584D01*
Y459417D01*
X592503Y460251D01*
X594170D01*
X595003Y459417D01*
X590004D02*
X589171Y460251D01*
X587505D01*
X586672Y459417D01*
Y458584D01*
X587505Y457751D01*
X586672Y456918D01*
Y456085D01*
X587505Y455252D01*
X589171D01*
X590004Y456085D01*
Y456918D01*
X589171Y457751D01*
X590004Y458584D01*
Y459417D01*
X589171Y457751D02*
X587505D01*
X562917Y367334D02*
X563750Y366501D01*
Y364835D01*
X562917Y364002D01*
X559585D01*
X558752Y364835D01*
Y366501D01*
X559585Y367334D01*
X562917Y369000D02*
X563750Y369833D01*
Y371499D01*
X562917Y372333D01*
X562084D01*
X561251Y371499D01*
Y370667D01*
Y371499D01*
X560418Y372333D01*
X559585D01*
X558752Y371499D01*
Y369833D01*
X559585Y369000D01*
X558752Y377331D02*
Y373999D01*
X562084Y377331D01*
X562917D01*
X563750Y376498D01*
Y374832D01*
X562917Y373999D01*
X503166Y459084D02*
X503999Y458251D01*
Y456585D01*
X503166Y455752D01*
X499834D01*
X499001Y456585D01*
Y458251D01*
X499834Y459084D01*
X503166Y460751D02*
X503999Y461584D01*
Y463250D01*
X503166Y464083D01*
X502333D01*
X501500Y463250D01*
Y462417D01*
Y463250D01*
X500667Y464083D01*
X499834D01*
X499001Y463250D01*
Y461584D01*
X499834Y460751D01*
Y465749D02*
X499001Y466582D01*
Y468248D01*
X499834Y469081D01*
X503166D01*
X503999Y468248D01*
Y466582D01*
X503166Y465749D01*
X502333D01*
X501500Y466582D01*
Y469081D01*
X547669Y493417D02*
X548502Y494250D01*
X550168D01*
X551001Y493417D01*
Y490085D01*
X550168Y489252D01*
X548502D01*
X547669Y490085D01*
X543503Y489252D02*
Y494250D01*
X546003Y491751D01*
X542670D01*
X541004Y493417D02*
X540171Y494250D01*
X538505D01*
X537672Y493417D01*
Y490085D01*
X538505Y489252D01*
X540171D01*
X541004Y490085D01*
Y493417D01*
X158250Y108998D02*
Y104000D01*
X155751D01*
X154918Y104833D01*
Y108165D01*
X155751Y108998D01*
X158250D01*
X153252D02*
Y104000D01*
X150752D01*
X149919Y104833D01*
Y108165D01*
X150752Y108998D01*
X153252D01*
X148253Y104000D02*
X146587D01*
X147420D01*
Y108998D01*
X148253Y108165D01*
X144088Y104000D02*
X142422D01*
X143255D01*
Y108998D01*
X144088Y108165D01*
X656001Y391250D02*
Y386252D01*
X652669D01*
X651003D02*
X649336D01*
X650170D01*
Y391250D01*
X651003Y390417D01*
X621999Y404252D02*
X617001D01*
Y407584D01*
Y412583D02*
Y409250D01*
X620333Y412583D01*
X621166D01*
X621999Y411750D01*
Y410084D01*
X621166Y409250D01*
X525500Y355000D02*
Y359998D01*
X523001D01*
X522168Y359165D01*
Y357499D01*
X523001Y356666D01*
X525500D01*
X523834D02*
X522168Y355000D01*
X520502Y359165D02*
X519669Y359998D01*
X518003D01*
X517169Y359165D01*
Y358332D01*
X518003Y357499D01*
X518835D01*
X518003D01*
X517169Y356666D01*
Y355833D01*
X518003Y355000D01*
X519669D01*
X520502Y355833D01*
X588503Y439254D02*
Y444253D01*
X586004D01*
X585171Y443419D01*
Y441753D01*
X586004Y440920D01*
X588503D01*
X586837D02*
X585171Y439254D01*
X581006D02*
Y444253D01*
X583505Y441753D01*
X580172D01*
X572001Y489252D02*
Y494250D01*
X569502D01*
X568669Y493417D01*
Y491751D01*
X569502Y490918D01*
X572001D01*
X570335D02*
X568669Y489252D01*
X563670Y494250D02*
X567003D01*
Y491751D01*
X565336Y492584D01*
X564503D01*
X563670Y491751D01*
Y490085D01*
X564503Y489252D01*
X566170D01*
X567003Y490085D01*
X623001Y470252D02*
Y475251D01*
X620502D01*
X619669Y474417D01*
Y472751D01*
X620502Y471918D01*
X623001D01*
X621335D02*
X619669Y470252D01*
X614670Y475251D02*
X616337Y474417D01*
X618003Y472751D01*
Y471085D01*
X617170Y470252D01*
X615503D01*
X614670Y471085D01*
Y471918D01*
X615503Y472751D01*
X618003D01*
X623001Y482252D02*
Y487251D01*
X620502D01*
X619669Y486417D01*
Y484751D01*
X620502Y483918D01*
X623001D01*
X621335D02*
X619669Y482252D01*
X618003Y486417D02*
X617170Y487251D01*
X615503D01*
X614670Y486417D01*
Y485584D01*
X615503Y484751D01*
X614670Y483918D01*
Y483085D01*
X615503Y482252D01*
X617170D01*
X618003Y483085D01*
Y483918D01*
X617170Y484751D01*
X618003Y485584D01*
Y486417D01*
X617170Y484751D02*
X615503D01*
X547000Y412499D02*
X551999D01*
Y414999D01*
X551166Y415832D01*
X549500D01*
X548666Y414999D01*
Y412499D01*
Y414165D02*
X547000Y415832D01*
Y417498D02*
Y419164D01*
Y418331D01*
X551999D01*
X551166Y417498D01*
X547000Y421663D02*
Y423329D01*
Y422496D01*
X551999D01*
X551166Y421663D01*
X583751Y384252D02*
Y389250D01*
X581252D01*
X580419Y388417D01*
Y386751D01*
X581252Y385918D01*
X583751D01*
X582085D02*
X580419Y384252D01*
X578753D02*
X577086D01*
X577920D01*
Y389250D01*
X578753Y388417D01*
X571255Y384252D02*
X574587D01*
X571255Y387584D01*
Y388417D01*
X572088Y389250D01*
X573754D01*
X574587Y388417D01*
X515001Y383252D02*
Y388251D01*
X512502D01*
X511669Y387417D01*
Y385751D01*
X512502Y384918D01*
X515001D01*
X513335D02*
X511669Y383252D01*
X506670D02*
X510003D01*
X506670Y386584D01*
Y387417D01*
X507503Y388251D01*
X509170D01*
X510003Y387417D01*
X505004D02*
X504171Y388251D01*
X502505D01*
X501672Y387417D01*
Y386584D01*
X502505Y385751D01*
X501672Y384918D01*
Y384085D01*
X502505Y383252D01*
X504171D01*
X505004Y384085D01*
Y384918D01*
X504171Y385751D01*
X505004Y386584D01*
Y387417D01*
X504171Y385751D02*
X502505D01*
X564001Y399252D02*
X568999D01*
Y401751D01*
X568166Y402584D01*
X566500D01*
X565667Y401751D01*
Y399252D01*
Y400918D02*
X564001Y402584D01*
X568166Y404250D02*
X568999Y405084D01*
Y406750D01*
X568166Y407583D01*
X567333D01*
X566500Y406750D01*
Y405917D01*
Y406750D01*
X565667Y407583D01*
X564834D01*
X564001Y406750D01*
Y405084D01*
X564834Y404250D01*
X564001Y409249D02*
Y410915D01*
Y410082D01*
X568999D01*
X568166Y409249D01*
X479894Y156252D02*
X484892D01*
Y158751D01*
X484059Y159584D01*
X482393D01*
X481560Y158751D01*
Y156252D01*
Y157918D02*
X479894Y159584D01*
Y164583D02*
Y161250D01*
X483226Y164583D01*
X484059D01*
X484892Y163750D01*
Y162083D01*
X484059Y161250D01*
X480727Y166249D02*
X479894Y167082D01*
Y168748D01*
X480727Y169581D01*
X484059D01*
X484892Y168748D01*
Y167082D01*
X484059Y166249D01*
X483226D01*
X482393Y167082D01*
Y169581D01*
X477354Y203252D02*
Y208251D01*
X474855D01*
X474022Y207417D01*
Y205751D01*
X474855Y204918D01*
X477354D01*
X475688D02*
X474022Y203252D01*
X472356Y207417D02*
X471523Y208251D01*
X469856D01*
X469023Y207417D01*
Y206584D01*
X469856Y205751D01*
X470690D01*
X469856D01*
X469023Y204918D01*
Y204085D01*
X469856Y203252D01*
X471523D01*
X472356Y204085D01*
X467357Y207417D02*
X466524Y208251D01*
X464858D01*
X464025Y207417D01*
Y204085D01*
X464858Y203252D01*
X466524D01*
X467357Y204085D01*
Y207417D01*
X583001Y419252D02*
X587999D01*
Y421751D01*
X587166Y422584D01*
X585500D01*
X584667Y421751D01*
Y419252D01*
Y420918D02*
X583001Y422584D01*
Y424250D02*
Y425917D01*
Y425084D01*
X587999D01*
X587166Y424250D01*
Y428416D02*
X587999Y429249D01*
Y430915D01*
X587166Y431748D01*
X583834D01*
X583001Y430915D01*
Y429249D01*
X583834Y428416D01*
X587166D01*
X746502Y396004D02*
X751500D01*
Y398503D01*
X750667Y399336D01*
X749001D01*
X748168Y398503D01*
Y396004D01*
Y397670D02*
X746502Y399336D01*
X750667Y401003D02*
X751500Y401836D01*
Y403502D01*
X750667Y404335D01*
X749834D01*
X749001Y403502D01*
Y402669D01*
Y403502D01*
X748168Y404335D01*
X747335D01*
X746502Y403502D01*
Y401836D01*
X747335Y401003D01*
X750667Y406001D02*
X751500Y406834D01*
Y408500D01*
X750667Y409333D01*
X749834D01*
X749001Y408500D01*
Y407667D01*
Y408500D01*
X748168Y409333D01*
X747335D01*
X746502Y408500D01*
Y406834D01*
X747335Y406001D01*
X383374Y338888D02*
Y343886D01*
X380875D01*
X380042Y343053D01*
Y341387D01*
X380875Y340554D01*
X383374D01*
X381708D02*
X380042Y338888D01*
X378376D02*
X376710D01*
X377543D01*
Y343886D01*
X378376Y343053D01*
X370878Y343886D02*
X372544Y343053D01*
X374210Y341387D01*
Y339721D01*
X373377Y338888D01*
X371711D01*
X370878Y339721D01*
Y340554D01*
X371711Y341387D01*
X374210D01*
X510001Y456252D02*
X514999D01*
Y458751D01*
X514166Y459584D01*
X512500D01*
X511667Y458751D01*
Y456252D01*
Y457918D02*
X510001Y459584D01*
Y464583D02*
Y461250D01*
X513333Y464583D01*
X514166D01*
X514999Y463750D01*
Y462084D01*
X514166Y461250D01*
Y466249D02*
X514999Y467082D01*
Y468748D01*
X514166Y469581D01*
X510834D01*
X510001Y468748D01*
Y467082D01*
X510834Y466249D01*
X514166D01*
X522001Y459252D02*
X526999D01*
Y461751D01*
X526166Y462584D01*
X524500D01*
X523667Y461751D01*
Y459252D01*
Y460918D02*
X522001Y462584D01*
Y467583D02*
Y464250D01*
X525333Y467583D01*
X526166D01*
X526999Y466750D01*
Y465084D01*
X526166Y464250D01*
X522001Y469249D02*
Y470915D01*
Y470082D01*
X526999D01*
X526166Y469249D01*
X572001Y466252D02*
Y471250D01*
X569502D01*
X568669Y470417D01*
Y468751D01*
X569502Y467918D01*
X572001D01*
X570335D02*
X568669Y466252D01*
X563670D02*
X567003D01*
X563670Y469584D01*
Y470417D01*
X564503Y471250D01*
X566170D01*
X567003Y470417D01*
X558672Y466252D02*
X562004D01*
X558672Y469584D01*
Y470417D01*
X559505Y471250D01*
X561171D01*
X562004Y470417D01*
X532001Y449252D02*
Y454250D01*
X529502D01*
X528669Y453417D01*
Y451751D01*
X529502Y450918D01*
X532001D01*
X530335D02*
X528669Y449252D01*
X523670D02*
X527003D01*
X523670Y452584D01*
Y453417D01*
X524503Y454250D01*
X526170D01*
X527003Y453417D01*
X522004D02*
X521171Y454250D01*
X519505D01*
X518672Y453417D01*
Y452584D01*
X519505Y451751D01*
X520338D01*
X519505D01*
X518672Y450918D01*
Y450085D01*
X519505Y449252D01*
X521171D01*
X522004Y450085D01*
X45001Y456252D02*
Y461250D01*
X42502D01*
X41669Y460417D01*
Y458751D01*
X42502Y457918D01*
X45001D01*
X43335D02*
X41669Y456252D01*
X40003D02*
X38337D01*
X39169D01*
Y461250D01*
X40003Y460417D01*
X45001Y470252D02*
Y475251D01*
X42502D01*
X41669Y474417D01*
Y472751D01*
X42502Y471918D01*
X45001D01*
X43335D02*
X41669Y470252D01*
X36670D02*
X40003D01*
X36670Y473584D01*
Y474417D01*
X37503Y475251D01*
X39169D01*
X40003Y474417D01*
X554001Y355252D02*
Y360251D01*
X551502D01*
X550669Y359417D01*
Y357751D01*
X551502Y356918D01*
X554001D01*
X552335D02*
X550669Y355252D01*
X549003D02*
X547337D01*
X548170D01*
Y360251D01*
X549003Y359417D01*
X544837D02*
X544004Y360251D01*
X542338D01*
X541505Y359417D01*
Y358584D01*
X542338Y357751D01*
X543171D01*
X542338D01*
X541505Y356918D01*
Y356085D01*
X542338Y355252D01*
X544004D01*
X544837Y356085D01*
X779415Y379332D02*
X780248Y378499D01*
Y376833D01*
X779415Y376000D01*
X776083D01*
X775250Y376833D01*
Y378499D01*
X776083Y379332D01*
X775250Y383498D02*
X780248D01*
X777749Y380998D01*
Y384331D01*
X780248Y385997D02*
Y389329D01*
X779415D01*
X776083Y385997D01*
X775250D01*
X734250Y483000D02*
X739248D01*
Y485499D01*
X738415Y486332D01*
X736749D01*
X735916Y485499D01*
Y483000D01*
Y484666D02*
X734250Y486332D01*
X738415Y487998D02*
X739248Y488831D01*
Y490498D01*
X738415Y491331D01*
X737582D01*
X736749Y490498D01*
Y489664D01*
Y490498D01*
X735916Y491331D01*
X735083D01*
X734250Y490498D01*
Y488831D01*
X735083Y487998D01*
X739248Y496329D02*
X738415Y494663D01*
X736749Y492997D01*
X735083D01*
X734250Y493830D01*
Y495496D01*
X735083Y496329D01*
X735916D01*
X736749Y495496D01*
Y492997D01*
X705001Y443252D02*
X709999D01*
Y445751D01*
X709166Y446584D01*
X707500D01*
X706667Y445751D01*
Y443252D01*
Y444918D02*
X705001Y446584D01*
X709166Y448251D02*
X709999Y449084D01*
Y450750D01*
X709166Y451583D01*
X708333D01*
X707500Y450750D01*
Y449917D01*
Y450750D01*
X706667Y451583D01*
X705834D01*
X705001Y450750D01*
Y449084D01*
X705834Y448251D01*
X709999Y453249D02*
Y456581D01*
X709166D01*
X705834Y453249D01*
X705001D01*
X695001Y442252D02*
X699999D01*
Y444751D01*
X699166Y445584D01*
X697500D01*
X696667Y444751D01*
Y442252D01*
Y443918D02*
X695001Y445584D01*
X699166Y447251D02*
X699999Y448083D01*
Y449750D01*
X699166Y450583D01*
X698333D01*
X697500Y449750D01*
Y448917D01*
Y449750D01*
X696667Y450583D01*
X695834D01*
X695001Y449750D01*
Y448083D01*
X695834Y447251D01*
X699166Y452249D02*
X699999Y453082D01*
Y454748D01*
X699166Y455581D01*
X698333D01*
X697500Y454748D01*
X696667Y455581D01*
X695834D01*
X695001Y454748D01*
Y453082D01*
X695834Y452249D01*
X696667D01*
X697500Y453082D01*
X698333Y452249D01*
X699166D01*
X697500Y453082D02*
Y454748D01*
X684001Y465252D02*
X688999D01*
Y467751D01*
X688166Y468584D01*
X686500D01*
X685667Y467751D01*
Y465252D01*
Y466918D02*
X684001Y468584D01*
X688166Y470250D02*
X688999Y471083D01*
Y472750D01*
X688166Y473583D01*
X687333D01*
X686500Y472750D01*
Y471917D01*
Y472750D01*
X685667Y473583D01*
X684834D01*
X684001Y472750D01*
Y471083D01*
X684834Y470250D01*
Y475249D02*
X684001Y476082D01*
Y477748D01*
X684834Y478581D01*
X688166D01*
X688999Y477748D01*
Y476082D01*
X688166Y475249D01*
X687333D01*
X686500Y476082D01*
Y478581D01*
X671001Y465252D02*
X675999D01*
Y467751D01*
X675166Y468584D01*
X673500D01*
X672667Y467751D01*
Y465252D01*
Y466918D02*
X671001Y468584D01*
Y472750D02*
X675999D01*
X673500Y470250D01*
Y473583D01*
X675166Y475249D02*
X675999Y476082D01*
Y477748D01*
X675166Y478581D01*
X671834D01*
X671001Y477748D01*
Y476082D01*
X671834Y475249D01*
X675166D01*
X713001Y506252D02*
Y511250D01*
X710502D01*
X709669Y510417D01*
Y508751D01*
X710502Y507918D01*
X713001D01*
X711335D02*
X709669Y506252D01*
X708003Y510417D02*
X707170Y511250D01*
X705503D01*
X704670Y510417D01*
Y509584D01*
X705503Y508751D01*
X706337D01*
X705503D01*
X704670Y507918D01*
Y507085D01*
X705503Y506252D01*
X707170D01*
X708003Y507085D01*
X699672Y511250D02*
X703004D01*
Y508751D01*
X701338Y509584D01*
X700505D01*
X699672Y508751D01*
Y507085D01*
X700505Y506252D01*
X702171D01*
X703004Y507085D01*
X784250Y221000D02*
Y225998D01*
X781751D01*
X780918Y225165D01*
Y223499D01*
X781751Y222666D01*
X784250D01*
X782584D02*
X780918Y221000D01*
X775919Y225998D02*
X777586Y225165D01*
X779252Y223499D01*
Y221833D01*
X778419Y221000D01*
X776752D01*
X775919Y221833D01*
Y222666D01*
X776752Y223499D01*
X779252D01*
X771754Y221000D02*
Y225998D01*
X774253Y223499D01*
X770921D01*
X128918Y245165D02*
X129751Y245998D01*
X131417D01*
X132250Y245165D01*
Y241833D01*
X131417Y241000D01*
X129751D01*
X128918Y241833D01*
X123919Y245998D02*
X125586Y245165D01*
X127252Y243499D01*
Y241833D01*
X126419Y241000D01*
X124753D01*
X123919Y241833D01*
Y242666D01*
X124753Y243499D01*
X127252D01*
X122253Y241833D02*
X121420Y241000D01*
X119754D01*
X118921Y241833D01*
Y245165D01*
X119754Y245998D01*
X121420D01*
X122253Y245165D01*
Y244332D01*
X121420Y243499D01*
X118921D01*
X99918Y245165D02*
X100751Y245998D01*
X102417D01*
X103250Y245165D01*
Y241833D01*
X102417Y241000D01*
X100751D01*
X99918Y241833D01*
X94919Y245998D02*
X96586Y245165D01*
X98252Y243499D01*
Y241833D01*
X97419Y241000D01*
X95752D01*
X94919Y241833D01*
Y242666D01*
X95752Y243499D01*
X98252D01*
X93253Y245165D02*
X92420Y245998D01*
X90754D01*
X89921Y245165D01*
Y244332D01*
X90754Y243499D01*
X89921Y242666D01*
Y241833D01*
X90754Y241000D01*
X92420D01*
X93253Y241833D01*
Y242666D01*
X92420Y243499D01*
X93253Y244332D01*
Y245165D01*
X92420Y243499D02*
X90754D01*
X41918Y254165D02*
X42751Y254998D01*
X44417D01*
X45250Y254165D01*
Y250833D01*
X44417Y250000D01*
X42751D01*
X41918Y250833D01*
X40252Y254998D02*
X36919D01*
Y254165D01*
X40252Y250833D01*
Y250000D01*
X35253Y254165D02*
X34420Y254998D01*
X32754D01*
X31921Y254165D01*
Y250833D01*
X32754Y250000D01*
X34420D01*
X35253Y250833D01*
Y254165D01*
X101001Y276252D02*
Y281250D01*
X98502D01*
X97669Y280417D01*
Y278751D01*
X98502Y277918D01*
X101001D01*
X99335D02*
X97669Y276252D01*
X92670Y281250D02*
X96003D01*
Y278751D01*
X94337Y279584D01*
X93503D01*
X92670Y278751D01*
Y277085D01*
X93503Y276252D01*
X95170D01*
X96003Y277085D01*
X91004Y280417D02*
X90171Y281250D01*
X88505D01*
X87672Y280417D01*
Y277085D01*
X88505Y276252D01*
X90171D01*
X91004Y277085D01*
Y280417D01*
X130751Y277752D02*
Y282750D01*
X128252D01*
X127419Y281917D01*
Y280251D01*
X128252Y279418D01*
X130751D01*
X129085D02*
X127419Y277752D01*
X122420Y282750D02*
X125753D01*
Y280251D01*
X124087Y281084D01*
X123253D01*
X122420Y280251D01*
Y278585D01*
X123253Y277752D01*
X124920D01*
X125753Y278585D01*
X120754Y277752D02*
X119088D01*
X119921D01*
Y282750D01*
X120754Y281917D01*
X77001Y276252D02*
Y281250D01*
X74502D01*
X73669Y280417D01*
Y278751D01*
X74502Y277918D01*
X77001D01*
X75335D02*
X73669Y276252D01*
X68670Y281250D02*
X72003D01*
Y278751D01*
X70336Y279584D01*
X69503D01*
X68670Y278751D01*
Y277085D01*
X69503Y276252D01*
X71170D01*
X72003Y277085D01*
X63672Y276252D02*
X67004D01*
X63672Y279584D01*
Y280417D01*
X64505Y281250D01*
X66171D01*
X67004Y280417D01*
X693918Y383165D02*
X694751Y383998D01*
X696417D01*
X697250Y383165D01*
Y379833D01*
X696417Y379000D01*
X694751D01*
X693918Y379833D01*
X688919Y383998D02*
X692252D01*
Y381499D01*
X690585Y382332D01*
X689753D01*
X688919Y381499D01*
Y379833D01*
X689753Y379000D01*
X691419D01*
X692252Y379833D01*
X683921Y379000D02*
X687253D01*
X683921Y382332D01*
Y383165D01*
X684754Y383998D01*
X686420D01*
X687253Y383165D01*
X714669Y371417D02*
X715502Y372251D01*
X717168D01*
X718001Y371417D01*
Y368085D01*
X717168Y367252D01*
X715502D01*
X714669Y368085D01*
X709670Y372251D02*
X713003D01*
Y369751D01*
X711337Y370584D01*
X710503D01*
X709670Y369751D01*
Y368085D01*
X710503Y367252D01*
X712169D01*
X713003Y368085D01*
X708004Y371417D02*
X707171Y372251D01*
X705505D01*
X704672Y371417D01*
Y370584D01*
X705505Y369751D01*
X706338D01*
X705505D01*
X704672Y368918D01*
Y368085D01*
X705505Y367252D01*
X707171D01*
X708004Y368085D01*
X715001Y437251D02*
Y432252D01*
X712502D01*
X711669Y433085D01*
Y436417D01*
X712502Y437251D01*
X715001D01*
X710003D02*
Y432252D01*
X707503D01*
X706670Y433085D01*
Y436417D01*
X707503Y437251D01*
X710003D01*
X702505Y432252D02*
Y437251D01*
X705004Y434751D01*
X701672D01*
X665251Y389752D02*
X670249D01*
Y392251D01*
X669416Y393084D01*
X667750D01*
X666917Y392251D01*
Y389752D01*
Y391418D02*
X665251Y393084D01*
Y397250D02*
X670249D01*
X667750Y394750D01*
Y398083D01*
X670249Y403081D02*
X669416Y401415D01*
X667750Y399749D01*
X666084D01*
X665251Y400582D01*
Y402248D01*
X666084Y403081D01*
X666917D01*
X667750Y402248D01*
Y399749D01*
X665251Y418252D02*
X670249D01*
Y420751D01*
X669416Y421584D01*
X667750D01*
X666917Y420751D01*
Y418252D01*
Y419918D02*
X665251Y421584D01*
Y425750D02*
X670249D01*
X667750Y423250D01*
Y426583D01*
X670249Y431581D02*
Y428249D01*
X667750D01*
X668583Y429915D01*
Y430748D01*
X667750Y431581D01*
X666084D01*
X665251Y430748D01*
Y429082D01*
X666084Y428249D01*
X174668Y54165D02*
X175501Y54998D01*
X177167D01*
X178000Y54165D01*
Y50833D01*
X177167Y50000D01*
X175501D01*
X174668Y50833D01*
X173002Y50000D02*
X171336D01*
X172169D01*
Y54998D01*
X173002Y54165D01*
X165504Y50000D02*
X168836D01*
X165504Y53332D01*
Y54165D01*
X166337Y54998D01*
X168003D01*
X168836Y54165D01*
X161339Y50000D02*
Y54998D01*
X163838Y52499D01*
X160506D01*
X81415Y71332D02*
X82248Y70499D01*
Y68833D01*
X81415Y68000D01*
X78083D01*
X77250Y68833D01*
Y70499D01*
X78083Y71332D01*
X77250Y72998D02*
Y74665D01*
Y73831D01*
X82248D01*
X81415Y72998D01*
X77250Y80496D02*
Y77164D01*
X80582Y80496D01*
X81415D01*
X82248Y79663D01*
Y77997D01*
X81415Y77164D01*
X82248Y85494D02*
Y82162D01*
X79749D01*
X80582Y83828D01*
Y84661D01*
X79749Y85494D01*
X78083D01*
X77250Y84661D01*
Y82995D01*
X78083Y82162D01*
X119165Y181332D02*
X119998Y180499D01*
Y178833D01*
X119165Y178000D01*
X115833D01*
X115000Y178833D01*
Y180499D01*
X115833Y181332D01*
X115000Y182998D02*
Y184664D01*
Y183831D01*
X119998D01*
X119165Y182998D01*
X115000Y190496D02*
Y187164D01*
X118332Y190496D01*
X119165D01*
X119998Y189663D01*
Y187997D01*
X119165Y187164D01*
X119998Y195494D02*
X119165Y193828D01*
X117499Y192162D01*
X115833D01*
X115000Y192995D01*
Y194661D01*
X115833Y195494D01*
X116666D01*
X117499Y194661D01*
Y192162D01*
X141250Y161000D02*
X146248D01*
Y163499D01*
X145415Y164332D01*
X143749D01*
X142916Y163499D01*
Y161000D01*
Y162666D02*
X141250Y164332D01*
X145415Y165998D02*
X146248Y166831D01*
Y168498D01*
X145415Y169331D01*
X144582D01*
X143749Y168498D01*
X142916Y169331D01*
X142083D01*
X141250Y168498D01*
Y166831D01*
X142083Y165998D01*
X142916D01*
X143749Y166831D01*
X144582Y165998D01*
X145415D01*
X143749Y166831D02*
Y168498D01*
X146248Y174329D02*
Y170997D01*
X143749D01*
X144582Y172663D01*
Y173496D01*
X143749Y174329D01*
X142083D01*
X141250Y173496D01*
Y171830D01*
X142083Y170997D01*
X41000Y167998D02*
Y164666D01*
X39334Y163000D01*
X37668Y164666D01*
Y167998D01*
X36002D02*
Y163000D01*
X33502D01*
X32669Y163833D01*
Y167165D01*
X33502Y167998D01*
X36002D01*
X27671D02*
X29337Y167165D01*
X31003Y165499D01*
Y163833D01*
X30170Y163000D01*
X28504D01*
X27671Y163833D01*
Y164666D01*
X28504Y165499D01*
X31003D01*
X836001Y519250D02*
X832669Y514252D01*
Y519250D02*
X836001Y514252D01*
X831003D02*
Y519250D01*
X828503D01*
X827670Y518417D01*
Y516751D01*
X828503Y515918D01*
X831003D01*
X823505Y514252D02*
Y519250D01*
X826004Y516751D01*
X822672D01*
X447669Y268417D02*
X448502Y269251D01*
X450168D01*
X451001Y268417D01*
Y265085D01*
X450168Y264252D01*
X448502D01*
X447669Y265085D01*
X443503Y264252D02*
Y269251D01*
X446003Y266751D01*
X442670D01*
X437672Y264252D02*
X441004D01*
X437672Y267584D01*
Y268417D01*
X438505Y269251D01*
X440171D01*
X441004Y268417D01*
X289166Y294584D02*
X289999Y293751D01*
Y292085D01*
X289166Y291252D01*
X285834D01*
X285001Y292085D01*
Y293751D01*
X285834Y294584D01*
X285001Y298750D02*
X289999D01*
X287500Y296250D01*
Y299583D01*
X289166Y301249D02*
X289999Y302082D01*
Y303748D01*
X289166Y304581D01*
X288333D01*
X287500Y303748D01*
Y302915D01*
Y303748D01*
X286667Y304581D01*
X285834D01*
X285001Y303748D01*
Y302082D01*
X285834Y301249D01*
X490164Y267081D02*
X490997Y266248D01*
Y264582D01*
X490164Y263749D01*
X486832D01*
X485999Y264582D01*
Y266248D01*
X486832Y267081D01*
X485999Y271246D02*
X490997D01*
X488498Y268747D01*
Y272079D01*
X485999Y276245D02*
X490997D01*
X488498Y273745D01*
Y277078D01*
X448669Y257417D02*
X449502Y258251D01*
X451168D01*
X452001Y257417D01*
Y254085D01*
X451168Y253252D01*
X449502D01*
X448669Y254085D01*
X444503Y253252D02*
Y258251D01*
X447003Y255751D01*
X443670D01*
X438672Y258251D02*
X442004D01*
Y255751D01*
X440338Y256584D01*
X439505D01*
X438672Y255751D01*
Y254085D01*
X439505Y253252D01*
X441171D01*
X442004Y254085D01*
X481166Y266584D02*
X481999Y265751D01*
Y264085D01*
X481166Y263252D01*
X477834D01*
X477001Y264085D01*
Y265751D01*
X477834Y266584D01*
X477001Y270750D02*
X481999D01*
X479500Y268251D01*
Y271583D01*
X481999Y276581D02*
X481166Y274915D01*
X479500Y273249D01*
X477834D01*
X477001Y274082D01*
Y275748D01*
X477834Y276581D01*
X478667D01*
X479500Y275748D01*
Y273249D01*
X573166Y286581D02*
X573999Y285748D01*
Y284082D01*
X573166Y283249D01*
X569834D01*
X569001Y284082D01*
Y285748D01*
X569834Y286581D01*
X573999Y291579D02*
Y288247D01*
X571500D01*
X572333Y289913D01*
Y290746D01*
X571500Y291579D01*
X569834D01*
X569001Y290746D01*
Y289080D01*
X569834Y288247D01*
X573166Y293245D02*
X573999Y294079D01*
Y295745D01*
X573166Y296578D01*
X569834D01*
X569001Y295745D01*
Y294079D01*
X569834Y293245D01*
X573166D01*
X600166Y289584D02*
X600999Y288751D01*
Y287085D01*
X600166Y286252D01*
X596834D01*
X596001Y287085D01*
Y288751D01*
X596834Y289584D01*
X600999Y294583D02*
Y291250D01*
X598500D01*
X599333Y292917D01*
Y293750D01*
X598500Y294583D01*
X596834D01*
X596001Y293750D01*
Y292083D01*
X596834Y291250D01*
X596001Y296249D02*
Y297915D01*
Y297082D01*
X600999D01*
X600166Y296249D01*
X456166Y353584D02*
X456999Y352751D01*
Y351085D01*
X456166Y350252D01*
X452834D01*
X452001Y351085D01*
Y352751D01*
X452834Y353584D01*
X452001Y357750D02*
X456999D01*
X454500Y355250D01*
Y358583D01*
X452834Y360249D02*
X452001Y361082D01*
Y362748D01*
X452834Y363581D01*
X456166D01*
X456999Y362748D01*
Y361082D01*
X456166Y360249D01*
X455333D01*
X454500Y361082D01*
Y363581D01*
X503164Y319083D02*
X503997Y318250D01*
Y316584D01*
X503164Y315751D01*
X499832D01*
X498998Y316584D01*
Y318250D01*
X499832Y319083D01*
X503997Y324081D02*
Y320749D01*
X501498D01*
X502331Y322415D01*
Y323248D01*
X501498Y324081D01*
X499832D01*
X498998Y323248D01*
Y321582D01*
X499832Y320749D01*
X498998Y328246D02*
X503997D01*
X501498Y325747D01*
Y329080D01*
X159918Y298165D02*
X160751Y298998D01*
X162417D01*
X163250Y298165D01*
Y294833D01*
X162417Y294000D01*
X160751D01*
X159918Y294833D01*
X158252Y294000D02*
X156586D01*
X157419D01*
Y298998D01*
X158252Y298165D01*
X154086D02*
X153253Y298998D01*
X151587D01*
X150754Y298165D01*
Y297332D01*
X151587Y296499D01*
X152420D01*
X151587D01*
X150754Y295666D01*
Y294833D01*
X151587Y294000D01*
X153253D01*
X154086Y294833D01*
X145756Y298998D02*
X147422Y298165D01*
X149088Y296499D01*
Y294833D01*
X148255Y294000D01*
X146589D01*
X145756Y294833D01*
Y295666D01*
X146589Y296499D01*
X149088D01*
X534668Y267914D02*
X535501Y268747D01*
X537167D01*
X538000Y267914D01*
Y264582D01*
X537167Y263749D01*
X535501D01*
X534668Y264582D01*
X529670Y268747D02*
X533002D01*
Y266248D01*
X531336Y267081D01*
X530503D01*
X529670Y266248D01*
Y264582D01*
X530503Y263749D01*
X532169D01*
X533002Y264582D01*
X524671Y268747D02*
X528004D01*
Y266248D01*
X526337Y267081D01*
X525504D01*
X524671Y266248D01*
Y264582D01*
X525504Y263749D01*
X527170D01*
X528004Y264582D01*
X499166Y266584D02*
X499999Y265751D01*
Y264085D01*
X499166Y263252D01*
X495834D01*
X495001Y264085D01*
Y265751D01*
X495834Y266584D01*
X499999Y271583D02*
Y268251D01*
X497500D01*
X498333Y269917D01*
Y270750D01*
X497500Y271583D01*
X495834D01*
X495001Y270750D01*
Y269083D01*
X495834Y268251D01*
X499999Y276581D02*
X499166Y274915D01*
X497500Y273249D01*
X495834D01*
X495001Y274082D01*
Y275748D01*
X495834Y276581D01*
X496667D01*
X497500Y275748D01*
Y273249D01*
X185918Y331165D02*
X186751Y331998D01*
X188417D01*
X189250Y331165D01*
Y327833D01*
X188417Y327000D01*
X186751D01*
X185918Y327833D01*
X184252Y327000D02*
X182586D01*
X183419D01*
Y331998D01*
X184252Y331165D01*
X180086D02*
X179253Y331998D01*
X177587D01*
X176754Y331165D01*
Y330332D01*
X177587Y329499D01*
X178420D01*
X177587D01*
X176754Y328666D01*
Y327833D01*
X177587Y327000D01*
X179253D01*
X180086Y327833D01*
X172589Y327000D02*
Y331998D01*
X175088Y329499D01*
X171756D01*
X474166Y318584D02*
X474999Y317751D01*
Y316085D01*
X474166Y315252D01*
X470834D01*
X470001Y316085D01*
Y317751D01*
X470834Y318584D01*
X474999Y323583D02*
Y320251D01*
X472500D01*
X473333Y321917D01*
Y322750D01*
X472500Y323583D01*
X470834D01*
X470001Y322750D01*
Y321083D01*
X470834Y320251D01*
X474999Y325249D02*
Y328581D01*
X474166D01*
X470834Y325249D01*
X470001D01*
X483664Y319083D02*
X484497Y318250D01*
Y316584D01*
X483664Y315751D01*
X480332D01*
X479499Y316584D01*
Y318250D01*
X480332Y319083D01*
X484497Y324081D02*
Y320749D01*
X481998D01*
X482831Y322415D01*
Y323248D01*
X481998Y324081D01*
X480332D01*
X479499Y323248D01*
Y321582D01*
X480332Y320749D01*
X483664Y325747D02*
X484497Y326580D01*
Y328246D01*
X483664Y329080D01*
X482831D01*
X481998Y328246D01*
X481165Y329080D01*
X480332D01*
X479499Y328246D01*
Y326580D01*
X480332Y325747D01*
X481165D01*
X481998Y326580D01*
X482831Y325747D01*
X483664D01*
X481998Y326580D02*
Y328246D01*
X450669Y289417D02*
X451502Y290250D01*
X453168D01*
X454001Y289417D01*
Y286085D01*
X453168Y285252D01*
X451502D01*
X450669Y286085D01*
X445670Y290250D02*
X447337Y289417D01*
X449003Y287751D01*
Y286085D01*
X448170Y285252D01*
X446503D01*
X445670Y286085D01*
Y286918D01*
X446503Y287751D01*
X449003D01*
X444004Y289417D02*
X443171Y290250D01*
X441505D01*
X440672Y289417D01*
Y286085D01*
X441505Y285252D01*
X443171D01*
X444004Y286085D01*
Y289417D01*
X455166Y301584D02*
X455999Y300751D01*
Y299085D01*
X455166Y298252D01*
X451834D01*
X451001Y299085D01*
Y300751D01*
X451834Y301584D01*
X455999Y306583D02*
X455166Y304917D01*
X453500Y303250D01*
X451834D01*
X451001Y304083D01*
Y305750D01*
X451834Y306583D01*
X452667D01*
X453500Y305750D01*
Y303250D01*
X451001Y308249D02*
Y309915D01*
Y309082D01*
X455999D01*
X455166Y308249D01*
X494166Y318584D02*
X494999Y317751D01*
Y316085D01*
X494166Y315252D01*
X490834D01*
X490001Y316085D01*
Y317751D01*
X490834Y318584D01*
X494999Y323583D02*
X494166Y321917D01*
X492500Y320251D01*
X490834D01*
X490001Y321083D01*
Y322750D01*
X490834Y323583D01*
X491667D01*
X492500Y322750D01*
Y320251D01*
X494999Y328581D02*
Y325249D01*
X492500D01*
X493333Y326915D01*
Y327748D01*
X492500Y328581D01*
X490834D01*
X490001Y327748D01*
Y326082D01*
X490834Y325249D01*
X728669Y447417D02*
X729502Y448251D01*
X731168D01*
X732001Y447417D01*
Y444085D01*
X731168Y443252D01*
X729502D01*
X728669Y444085D01*
X727003Y443252D02*
X725337D01*
X726170D01*
Y448251D01*
X727003Y447417D01*
X719505Y443252D02*
X722837D01*
X719505Y446584D01*
Y447417D01*
X720338Y448251D01*
X722004D01*
X722837Y447417D01*
X717839Y448251D02*
X714507D01*
Y447417D01*
X717839Y444085D01*
Y443252D01*
X526166Y322584D02*
X526999Y321751D01*
Y320085D01*
X526166Y319252D01*
X522834D01*
X522001Y320085D01*
Y321751D01*
X522834Y322584D01*
X526999Y327583D02*
X526166Y325917D01*
X524500Y324250D01*
X522834D01*
X522001Y325084D01*
Y326750D01*
X522834Y327583D01*
X523667D01*
X524500Y326750D01*
Y324250D01*
X526999Y332581D02*
X526166Y330915D01*
X524500Y329249D01*
X522834D01*
X522001Y330082D01*
Y331748D01*
X522834Y332581D01*
X523667D01*
X524500Y331748D01*
Y329249D01*
X513166Y318584D02*
X513999Y317751D01*
Y316085D01*
X513166Y315252D01*
X509834D01*
X509001Y316085D01*
Y317751D01*
X509834Y318584D01*
X513999Y323583D02*
X513166Y321917D01*
X511500Y320251D01*
X509834D01*
X509001Y321083D01*
Y322750D01*
X509834Y323583D01*
X510667D01*
X511500Y322750D01*
Y320251D01*
X513999Y325249D02*
Y328581D01*
X513166D01*
X509834Y325249D01*
X509001D01*
X601669Y437417D02*
X602502Y438251D01*
X604168D01*
X605001Y437417D01*
Y434085D01*
X604168Y433252D01*
X602502D01*
X601669Y434085D01*
X600003Y438251D02*
X596670D01*
Y437417D01*
X600003Y434085D01*
Y433252D01*
X591672D02*
X595004D01*
X591672Y436584D01*
Y437417D01*
X592505Y438251D01*
X594171D01*
X595004Y437417D01*
X531668Y79165D02*
X532501Y79998D01*
X534167D01*
X535000Y79165D01*
Y75833D01*
X534167Y75000D01*
X532501D01*
X531668Y75833D01*
X530002Y79998D02*
X526669D01*
Y79165D01*
X530002Y75833D01*
Y75000D01*
X525003Y79165D02*
X524170Y79998D01*
X522504D01*
X521671Y79165D01*
Y78332D01*
X522504Y77499D01*
X523337D01*
X522504D01*
X521671Y76666D01*
Y75833D01*
X522504Y75000D01*
X524170D01*
X525003Y75833D01*
X533669Y278417D02*
X534502Y279250D01*
X536168D01*
X537001Y278417D01*
Y275085D01*
X536168Y274252D01*
X534502D01*
X533669Y275085D01*
X532003Y279250D02*
X528670D01*
Y278417D01*
X532003Y275085D01*
Y274252D01*
X524505D02*
Y279250D01*
X527004Y276751D01*
X523672D01*
X183415Y252332D02*
X184248Y251499D01*
Y249833D01*
X183415Y249000D01*
X180083D01*
X179250Y249833D01*
Y251499D01*
X180083Y252332D01*
X184248Y253998D02*
Y257331D01*
X183415D01*
X180083Y253998D01*
X179250D01*
X184248Y262329D02*
Y258997D01*
X181749D01*
X182582Y260663D01*
Y261496D01*
X181749Y262329D01*
X180083D01*
X179250Y261496D01*
Y259830D01*
X180083Y258997D01*
X533669Y289417D02*
X534502Y290250D01*
X536168D01*
X537001Y289417D01*
Y286085D01*
X536168Y285252D01*
X534502D01*
X533669Y286085D01*
X532003Y290250D02*
X528670D01*
Y289417D01*
X532003Y286085D01*
Y285252D01*
X523672Y290250D02*
X525338Y289417D01*
X527004Y287751D01*
Y286085D01*
X526171Y285252D01*
X524505D01*
X523672Y286085D01*
Y286918D01*
X524505Y287751D01*
X527004D01*
X513166Y248584D02*
X513999Y247751D01*
Y246085D01*
X513166Y245252D01*
X509834D01*
X509001Y246085D01*
Y247751D01*
X509834Y248584D01*
X513999Y250250D02*
Y253583D01*
X513166D01*
X509834Y250250D01*
X509001D01*
X513999Y255249D02*
Y258581D01*
X513166D01*
X509834Y255249D01*
X509001D01*
X532166Y150584D02*
X532999Y149751D01*
Y148085D01*
X532166Y147252D01*
X528834D01*
X528001Y148085D01*
Y149751D01*
X528834Y150584D01*
X532999Y152250D02*
Y155583D01*
X532166D01*
X528834Y152250D01*
X528001D01*
X528834Y157249D02*
X528001Y158082D01*
Y159748D01*
X528834Y160581D01*
X532166D01*
X532999Y159748D01*
Y158082D01*
X532166Y157249D01*
X531333D01*
X530500Y158082D01*
Y160581D01*
X619669Y266417D02*
X620502Y267250D01*
X622168D01*
X623001Y266417D01*
Y263085D01*
X622168Y262252D01*
X620502D01*
X619669Y263085D01*
X618003Y266417D02*
X617170Y267250D01*
X615503D01*
X614670Y266417D01*
Y265584D01*
X615503Y264751D01*
X614670Y263918D01*
Y263085D01*
X615503Y262252D01*
X617170D01*
X618003Y263085D01*
Y263918D01*
X617170Y264751D01*
X618003Y265584D01*
Y266417D01*
X617170Y264751D02*
X615503D01*
X609672Y262252D02*
X613004D01*
X609672Y265584D01*
Y266417D01*
X610505Y267250D01*
X612171D01*
X613004Y266417D01*
X533166Y248584D02*
X533999Y247751D01*
Y246085D01*
X533166Y245252D01*
X529834D01*
X529001Y246085D01*
Y247751D01*
X529834Y248584D01*
X533166Y250250D02*
X533999Y251084D01*
Y252750D01*
X533166Y253583D01*
X532333D01*
X531500Y252750D01*
X530667Y253583D01*
X529834D01*
X529001Y252750D01*
Y251084D01*
X529834Y250250D01*
X530667D01*
X531500Y251084D01*
X532333Y250250D01*
X533166D01*
X531500Y251084D02*
Y252750D01*
X529001Y257748D02*
X533999D01*
X531500Y255249D01*
Y258581D01*
X561669Y240417D02*
X562502Y241250D01*
X564168D01*
X565001Y240417D01*
Y237085D01*
X564168Y236252D01*
X562502D01*
X561669Y237085D01*
X560003Y240417D02*
X559170Y241250D01*
X557503D01*
X556670Y240417D01*
Y239584D01*
X557503Y238751D01*
X556670Y237918D01*
Y237085D01*
X557503Y236252D01*
X559170D01*
X560003Y237085D01*
Y237918D01*
X559170Y238751D01*
X560003Y239584D01*
Y240417D01*
X559170Y238751D02*
X557503D01*
X555004Y240417D02*
X554171Y241250D01*
X552505D01*
X551672Y240417D01*
Y239584D01*
X552505Y238751D01*
X553338D01*
X552505D01*
X551672Y237918D01*
Y237085D01*
X552505Y236252D01*
X554171D01*
X555004Y237085D01*
X532669Y218417D02*
X533502Y219251D01*
X535168D01*
X536001Y218417D01*
Y215085D01*
X535168Y214252D01*
X533502D01*
X532669Y215085D01*
X531003Y218417D02*
X530170Y219251D01*
X528503D01*
X527670Y218417D01*
Y217584D01*
X528503Y216751D01*
X527670Y215918D01*
Y215085D01*
X528503Y214252D01*
X530170D01*
X531003Y215085D01*
Y215918D01*
X530170Y216751D01*
X531003Y217584D01*
Y218417D01*
X530170Y216751D02*
X528503D01*
X522672Y219251D02*
X526004D01*
Y216751D01*
X524338Y217584D01*
X523505D01*
X522672Y216751D01*
Y215085D01*
X523505Y214252D01*
X525171D01*
X526004Y215085D01*
X455165Y113936D02*
X455998Y113103D01*
Y111437D01*
X455165Y110604D01*
X451833D01*
X451000Y111437D01*
Y113103D01*
X451833Y113936D01*
X455165Y115602D02*
X455998Y116435D01*
Y118102D01*
X455165Y118935D01*
X454332D01*
X453499Y118102D01*
X452666Y118935D01*
X451833D01*
X451000Y118102D01*
Y116435D01*
X451833Y115602D01*
X452666D01*
X453499Y116435D01*
X454332Y115602D01*
X455165D01*
X453499Y116435D02*
Y118102D01*
X455998Y123933D02*
X455165Y122267D01*
X453499Y120601D01*
X451833D01*
X451000Y121434D01*
Y123100D01*
X451833Y123933D01*
X452666D01*
X453499Y123100D01*
Y120601D01*
X572001Y222252D02*
Y227250D01*
X569502D01*
X568669Y226417D01*
Y224751D01*
X569502Y223918D01*
X572001D01*
X570335D02*
X568669Y222252D01*
X563670Y227250D02*
X567003D01*
Y224751D01*
X565336Y225584D01*
X564503D01*
X563670Y224751D01*
Y223085D01*
X564503Y222252D01*
X566170D01*
X567003Y223085D01*
X558672Y227250D02*
X560338Y226417D01*
X562004Y224751D01*
Y223085D01*
X561171Y222252D01*
X559505D01*
X558672Y223085D01*
Y223918D01*
X559505Y224751D01*
X562004D01*
X559669Y210417D02*
X560502Y211250D01*
X562168D01*
X563001Y210417D01*
Y207085D01*
X562168Y206252D01*
X560502D01*
X559669Y207085D01*
X555503Y206252D02*
Y211250D01*
X558003Y208751D01*
X554670D01*
X553004Y206252D02*
X551338D01*
X552171D01*
Y211250D01*
X553004Y210417D01*
X586669Y209417D02*
X587502Y210250D01*
X589168D01*
X590001Y209417D01*
Y206085D01*
X589168Y205252D01*
X587502D01*
X586669Y206085D01*
X582503Y205252D02*
Y210250D01*
X585003Y207751D01*
X581670D01*
X580004Y209417D02*
X579171Y210250D01*
X577505D01*
X576672Y209417D01*
Y208584D01*
X577505Y207751D01*
X576672Y206918D01*
Y206085D01*
X577505Y205252D01*
X579171D01*
X580004Y206085D01*
Y206918D01*
X579171Y207751D01*
X580004Y208584D01*
Y209417D01*
X579171Y207751D02*
X577505D01*
X157916Y356667D02*
X158749Y357500D01*
X160415D01*
X161248Y356667D01*
Y353335D01*
X160415Y352502D01*
X158749D01*
X157916Y353335D01*
X156250Y352502D02*
X154584D01*
X155417D01*
Y357500D01*
X156250Y356667D01*
X152084D02*
X151251Y357500D01*
X149585D01*
X148752Y356667D01*
Y355834D01*
X149585Y355001D01*
X150418D01*
X149585D01*
X148752Y354168D01*
Y353335D01*
X149585Y352502D01*
X151251D01*
X152084Y353335D01*
X147086Y352502D02*
X145420D01*
X146253D01*
Y357500D01*
X147086Y356667D01*
X232668Y76165D02*
X233501Y76998D01*
X235167D01*
X236000Y76165D01*
Y72833D01*
X235167Y72000D01*
X233501D01*
X232668Y72833D01*
X231002Y72000D02*
X229335D01*
X230169D01*
Y76998D01*
X231002Y76165D01*
X226836D02*
X226003Y76998D01*
X224337D01*
X223504Y76165D01*
Y75332D01*
X224337Y74499D01*
X225170D01*
X224337D01*
X223504Y73666D01*
Y72833D01*
X224337Y72000D01*
X226003D01*
X226836Y72833D01*
X218506Y72000D02*
X221838D01*
X218506Y75332D01*
Y76165D01*
X219339Y76998D01*
X221005D01*
X221838Y76165D01*
X784918Y337165D02*
X785751Y337998D01*
X787417D01*
X788250Y337165D01*
Y333833D01*
X787417Y333000D01*
X785751D01*
X784918Y333833D01*
X783252Y333000D02*
X781585D01*
X782419D01*
Y337998D01*
X783252Y337165D01*
X779086D02*
X778253Y337998D01*
X776587D01*
X775754Y337165D01*
Y336332D01*
X776587Y335499D01*
X777420D01*
X776587D01*
X775754Y334666D01*
Y333833D01*
X776587Y333000D01*
X778253D01*
X779086Y333833D01*
X774088Y337165D02*
X773255Y337998D01*
X771589D01*
X770756Y337165D01*
Y336332D01*
X771589Y335499D01*
X772422D01*
X771589D01*
X770756Y334666D01*
Y333833D01*
X771589Y333000D01*
X773255D01*
X774088Y333833D01*
X528747Y443752D02*
X523749D01*
Y441253D01*
X524582Y440420D01*
X526248D01*
X527081Y441253D01*
Y443752D01*
Y442086D02*
X528747Y440420D01*
X524582Y438754D02*
X523749Y437921D01*
Y436255D01*
X524582Y435421D01*
X525415D01*
X526248Y436255D01*
Y437088D01*
Y436255D01*
X527081Y435421D01*
X527914D01*
X528747Y436255D01*
Y437921D01*
X527914Y438754D01*
X528747Y430423D02*
Y433755D01*
X525415Y430423D01*
X524582D01*
X523749Y431256D01*
Y432922D01*
X524582Y433755D01*
X571001Y156250D02*
Y151252D01*
X568502D01*
X567669Y152085D01*
Y152918D01*
X568502Y153751D01*
X571001D01*
X568502D01*
X567669Y154584D01*
Y155417D01*
X568502Y156250D01*
X571001D01*
X562670Y152085D02*
Y155417D01*
X563503Y156250D01*
X565170D01*
X566003Y155417D01*
Y152085D01*
X565170Y151252D01*
X563503D01*
X564337Y152918D02*
X562670Y151252D01*
X563503D02*
X562670Y152085D01*
X557672Y151252D02*
X561004D01*
X557672Y154584D01*
Y155417D01*
X558505Y156250D01*
X560171D01*
X561004Y155417D01*
X346919Y365977D02*
X347752Y366810D01*
X349418D01*
X350251Y365977D01*
Y362645D01*
X349418Y361812D01*
X347752D01*
X346919Y362645D01*
X345253Y365977D02*
X344420Y366810D01*
X342753D01*
X341920Y365977D01*
Y365144D01*
X342753Y364311D01*
X343587D01*
X342753D01*
X341920Y363478D01*
Y362645D01*
X342753Y361812D01*
X344420D01*
X345253Y362645D01*
X340254Y361812D02*
X338588D01*
X339421D01*
Y366810D01*
X340254Y365977D01*
X115669Y488417D02*
X116502Y489250D01*
X118168D01*
X119001Y488417D01*
Y485085D01*
X118168Y484252D01*
X116502D01*
X115669Y485085D01*
X110670Y484252D02*
X114003D01*
X110670Y487584D01*
Y488417D01*
X111503Y489250D01*
X113169D01*
X114003Y488417D01*
X106505Y484252D02*
Y489250D01*
X109004Y486751D01*
X105672D01*
X63918Y216165D02*
X64751Y216998D01*
X66417D01*
X67250Y216165D01*
Y212833D01*
X66417Y212000D01*
X64751D01*
X63918Y212833D01*
X62252Y216998D02*
X58919D01*
Y216165D01*
X62252Y212833D01*
Y212000D01*
X57253Y216165D02*
X56420Y216998D01*
X54754D01*
X53921Y216165D01*
Y215332D01*
X54754Y214499D01*
X53921Y213666D01*
Y212833D01*
X54754Y212000D01*
X56420D01*
X57253Y212833D01*
Y213666D01*
X56420Y214499D01*
X57253Y215332D01*
Y216165D01*
X56420Y214499D02*
X54754D01*
X157668Y229165D02*
X158501Y229998D01*
X160167D01*
X161000Y229165D01*
Y225833D01*
X160167Y225000D01*
X158501D01*
X157668Y225833D01*
X156002Y229165D02*
X155169Y229998D01*
X153503D01*
X152669Y229165D01*
Y228332D01*
X153503Y227499D01*
X152669Y226666D01*
Y225833D01*
X153503Y225000D01*
X155169D01*
X156002Y225833D01*
Y226666D01*
X155169Y227499D01*
X156002Y228332D01*
Y229165D01*
X155169Y227499D02*
X153503D01*
X151003Y229165D02*
X150170Y229998D01*
X148504D01*
X147671Y229165D01*
Y225833D01*
X148504Y225000D01*
X150170D01*
X151003Y225833D01*
Y229165D01*
X802250Y350000D02*
X807248D01*
Y352499D01*
X806415Y353332D01*
X804749D01*
X803916Y352499D01*
Y350000D01*
Y351666D02*
X802250Y353332D01*
X807248Y358331D02*
Y354998D01*
X804749D01*
X805582Y356665D01*
Y357498D01*
X804749Y358331D01*
X803083D01*
X802250Y357498D01*
Y355831D01*
X803083Y354998D01*
X806415Y359997D02*
X807248Y360830D01*
Y362496D01*
X806415Y363329D01*
X805582D01*
X804749Y362496D01*
Y361663D01*
Y362496D01*
X803916Y363329D01*
X803083D01*
X802250Y362496D01*
Y360830D01*
X803083Y359997D01*
X627669Y239417D02*
X628502Y240250D01*
X630168D01*
X631001Y239417D01*
Y236085D01*
X630168Y235252D01*
X628502D01*
X627669Y236085D01*
X622670Y240250D02*
X624337Y239417D01*
X626003Y237751D01*
Y236085D01*
X625169Y235252D01*
X623503D01*
X622670Y236085D01*
Y236918D01*
X623503Y237751D01*
X626003D01*
X618505Y235252D02*
Y240250D01*
X621004Y237751D01*
X617672D01*
X627669Y224417D02*
X628502Y225250D01*
X630168D01*
X631001Y224417D01*
Y221085D01*
X630168Y220252D01*
X628502D01*
X627669Y221085D01*
X622670Y225250D02*
X624337Y224417D01*
X626003Y222751D01*
Y221085D01*
X625169Y220252D01*
X623503D01*
X622670Y221085D01*
Y221918D01*
X623503Y222751D01*
X626003D01*
X617672Y220252D02*
X621004D01*
X617672Y223584D01*
Y224417D01*
X618505Y225250D01*
X620171D01*
X621004Y224417D01*
X635001Y208252D02*
Y213250D01*
X632502D01*
X631669Y212417D01*
Y210751D01*
X632502Y209918D01*
X635001D01*
X633335D02*
X631669Y208252D01*
X627503D02*
Y213250D01*
X630003Y210751D01*
X626670D01*
X625004Y209085D02*
X624171Y208252D01*
X622505D01*
X621672Y209085D01*
Y212417D01*
X622505Y213250D01*
X624171D01*
X625004Y212417D01*
Y211584D01*
X624171Y210751D01*
X621672D01*
X648168Y317214D02*
X649001Y318047D01*
X650667D01*
X651500Y317214D01*
Y313882D01*
X650667Y313049D01*
X649001D01*
X648168Y313882D01*
X646502D02*
X645668Y313049D01*
X644002D01*
X643169Y313882D01*
Y317214D01*
X644002Y318047D01*
X645668D01*
X646502Y317214D01*
Y316381D01*
X645668Y315548D01*
X643169D01*
X641503Y313882D02*
X640670Y313049D01*
X639004D01*
X638171Y313882D01*
Y317214D01*
X639004Y318047D01*
X640670D01*
X641503Y317214D01*
Y316381D01*
X640670Y315548D01*
X638171D01*
X554669Y292417D02*
X555502Y293250D01*
X557168D01*
X558001Y292417D01*
Y289085D01*
X557168Y288252D01*
X555502D01*
X554669Y289085D01*
X553003Y288252D02*
X551337D01*
X552170D01*
Y293250D01*
X553003Y292417D01*
X548837Y288252D02*
X547171D01*
X548004D01*
Y293250D01*
X548837Y292417D01*
X541340Y288252D02*
X544672D01*
X541340Y291584D01*
Y292417D01*
X542173Y293250D01*
X543839D01*
X544672Y292417D01*
X817917Y382334D02*
X818751Y381501D01*
Y379835D01*
X817917Y379002D01*
X814585D01*
X813752Y379835D01*
Y381501D01*
X814585Y382334D01*
X818751Y387333D02*
X817917Y385667D01*
X816251Y384000D01*
X814585D01*
X813752Y384833D01*
Y386500D01*
X814585Y387333D01*
X815418D01*
X816251Y386500D01*
Y384000D01*
X817917Y388999D02*
X818751Y389832D01*
Y391498D01*
X817917Y392331D01*
X817084D01*
X816251Y391498D01*
Y390665D01*
Y391498D01*
X815418Y392331D01*
X814585D01*
X813752Y391498D01*
Y389832D01*
X814585Y388999D01*
X561666Y322778D02*
X562499Y321945D01*
Y320278D01*
X561666Y319445D01*
X558334D01*
X557501Y320278D01*
Y321945D01*
X558334Y322778D01*
X557501Y324444D02*
Y326110D01*
Y325277D01*
X562499D01*
X561666Y324444D01*
Y328609D02*
X562499Y329442D01*
Y331108D01*
X561666Y331941D01*
X558334D01*
X557501Y331108D01*
Y329442D01*
X558334Y328609D01*
X561666D01*
Y333607D02*
X562499Y334440D01*
Y336106D01*
X561666Y336940D01*
X558334D01*
X557501Y336106D01*
Y334440D01*
X558334Y333607D01*
X561666D01*
X820000Y150998D02*
Y147666D01*
X818334Y146000D01*
X816668Y147666D01*
Y150998D01*
X815002D02*
Y146000D01*
X812503D01*
X811669Y146833D01*
Y150165D01*
X812503Y150998D01*
X815002D01*
X810003Y150165D02*
X809170Y150998D01*
X807504D01*
X806671Y150165D01*
Y149332D01*
X807504Y148499D01*
X808337D01*
X807504D01*
X806671Y147666D01*
Y146833D01*
X807504Y146000D01*
X809170D01*
X810003Y146833D01*
X749248Y120000D02*
X745916D01*
X744250Y121666D01*
X745916Y123332D01*
X749248D01*
Y124998D02*
X744250D01*
Y127498D01*
X745083Y128331D01*
X748415D01*
X749248Y127498D01*
Y124998D01*
X744250Y129997D02*
Y131663D01*
Y130830D01*
X749248D01*
X748415Y129997D01*
X744250Y134162D02*
Y135828D01*
Y134995D01*
X749248D01*
X748415Y134162D01*
X787250Y44998D02*
Y41666D01*
X785584Y40000D01*
X783918Y41666D01*
Y44998D01*
X782252D02*
Y40000D01*
X779753D01*
X778919Y40833D01*
Y44165D01*
X779753Y44998D01*
X782252D01*
X777253Y40833D02*
X776420Y40000D01*
X774754D01*
X773921Y40833D01*
Y44165D01*
X774754Y44998D01*
X776420D01*
X777253Y44165D01*
Y43332D01*
X776420Y42499D01*
X773921D01*
X748248Y90000D02*
X744916D01*
X743250Y91666D01*
X744916Y93332D01*
X748248D01*
Y94998D02*
X743250D01*
Y97498D01*
X744083Y98331D01*
X747415D01*
X748248Y97498D01*
Y94998D01*
X747415Y99997D02*
X748248Y100830D01*
Y102496D01*
X747415Y103329D01*
X746582D01*
X745749Y102496D01*
X744916Y103329D01*
X744083D01*
X743250Y102496D01*
Y100830D01*
X744083Y99997D01*
X744916D01*
X745749Y100830D01*
X746582Y99997D01*
X747415D01*
X745749Y100830D02*
Y102496D01*
X712248Y53000D02*
X708916D01*
X707250Y54666D01*
X708916Y56332D01*
X712248D01*
Y57998D02*
X707250D01*
Y60497D01*
X708083Y61331D01*
X711415D01*
X712248Y60497D01*
Y57998D01*
X707250Y62997D02*
Y64663D01*
Y63830D01*
X712248D01*
X711415Y62997D01*
Y67162D02*
X712248Y67995D01*
Y69661D01*
X711415Y70494D01*
X708083D01*
X707250Y69661D01*
Y67995D01*
X708083Y67162D01*
X711415D01*
X693250Y56000D02*
X698248D01*
Y58499D01*
X697415Y59332D01*
X695749D01*
X694916Y58499D01*
Y56000D01*
Y57666D02*
X693250Y59332D01*
X698248Y60998D02*
Y64331D01*
X697415D01*
X694083Y60998D01*
X693250D01*
X698248Y69329D02*
Y65997D01*
X695749D01*
X696582Y67663D01*
Y68496D01*
X695749Y69329D01*
X694083D01*
X693250Y68496D01*
Y66830D01*
X694083Y65997D01*
X678250Y57000D02*
X683248D01*
Y59499D01*
X682415Y60332D01*
X680749D01*
X679916Y59499D01*
Y57000D01*
Y58666D02*
X678250Y60332D01*
X679083Y61998D02*
X678250Y62831D01*
Y64498D01*
X679083Y65331D01*
X682415D01*
X683248Y64498D01*
Y62831D01*
X682415Y61998D01*
X681582D01*
X680749Y62831D01*
Y65331D01*
X682415Y66997D02*
X683248Y67830D01*
Y69496D01*
X682415Y70329D01*
X681582D01*
X680749Y69496D01*
Y68663D01*
Y69496D01*
X679916Y70329D01*
X679083D01*
X678250Y69496D01*
Y67830D01*
X679083Y66997D01*
X812250Y212998D02*
Y209666D01*
X810584Y208000D01*
X808918Y209666D01*
Y212998D01*
X807252D02*
Y208000D01*
X804753D01*
X803919Y208833D01*
Y212165D01*
X804753Y212998D01*
X807252D01*
X802253D02*
X798921D01*
Y212165D01*
X802253Y208833D01*
Y208000D01*
X830918Y93165D02*
X831751Y93998D01*
X833417D01*
X834250Y93165D01*
Y89833D01*
X833417Y89000D01*
X831751D01*
X830918Y89833D01*
X829252Y89000D02*
X827586D01*
X828419D01*
Y93998D01*
X829252Y93165D01*
X822587Y89000D02*
Y93998D01*
X825086Y91499D01*
X821754D01*
X816756Y89000D02*
X820088D01*
X816756Y92332D01*
Y93165D01*
X817589Y93998D01*
X819255D01*
X820088Y93165D01*
D194*
X443750Y371998D02*
Y367000D01*
X441251D01*
X440418Y367833D01*
Y371165D01*
X441251Y371998D01*
X443750D01*
X438751D02*
Y367000D01*
X436252D01*
X435419Y367833D01*
Y371165D01*
X436252Y371998D01*
X438751D01*
X433753Y367000D02*
X432087D01*
X432920D01*
Y371998D01*
X433753Y371165D01*
X429588D02*
X428755Y371998D01*
X427089D01*
X426255Y371165D01*
Y367833D01*
X427089Y367000D01*
X428755D01*
X429588Y367833D01*
Y371165D01*
X70668Y17165D02*
X71501Y17998D01*
X73167D01*
X74000Y17165D01*
Y13833D01*
X73167Y13000D01*
X71501D01*
X70668Y13833D01*
X69002Y13000D02*
X67336D01*
X68169D01*
Y17998D01*
X69002Y17165D01*
X62337Y13000D02*
Y17998D01*
X64836Y15499D01*
X61504D01*
X59838Y17165D02*
X59005Y17998D01*
X57339D01*
X56506Y17165D01*
Y13833D01*
X57339Y13000D01*
X59005D01*
X59838Y13833D01*
Y17165D01*
X66130Y147547D02*
X66963Y148380D01*
X68629D01*
X69462Y147547D01*
Y144215D01*
X68629Y143382D01*
X66963D01*
X66130Y144215D01*
X64464Y143382D02*
X62797D01*
X63631D01*
Y148380D01*
X64464Y147547D01*
X56966Y143382D02*
X60298D01*
X56966Y146714D01*
Y147547D01*
X57799Y148380D01*
X59465D01*
X60298Y147547D01*
X55300D02*
X54467Y148380D01*
X52801D01*
X51968Y147547D01*
Y146714D01*
X52801Y145881D01*
X53634D01*
X52801D01*
X51968Y145048D01*
Y144215D01*
X52801Y143382D01*
X54467D01*
X55300Y144215D01*
X131668Y15165D02*
X132501Y15998D01*
X134167D01*
X135000Y15165D01*
Y11833D01*
X134167Y11000D01*
X132501D01*
X131668Y11833D01*
X130002D02*
X129169Y11000D01*
X127502D01*
X126669Y11833D01*
Y15165D01*
X127502Y15998D01*
X129169D01*
X130002Y15165D01*
Y14332D01*
X129169Y13499D01*
X126669D01*
X121671Y11000D02*
X125003D01*
X121671Y14332D01*
Y15165D01*
X122504Y15998D01*
X124170D01*
X125003Y15165D01*
X167668Y37165D02*
X168501Y37998D01*
X170167D01*
X171000Y37165D01*
Y33833D01*
X170167Y33000D01*
X168501D01*
X167668Y33833D01*
X166002D02*
X165169Y33000D01*
X163502D01*
X162669Y33833D01*
Y37165D01*
X163502Y37998D01*
X165169D01*
X166002Y37165D01*
Y36332D01*
X165169Y35499D01*
X162669D01*
X161003Y33000D02*
X159337D01*
X160170D01*
Y37998D01*
X161003Y37165D01*
X705001Y162250D02*
Y158918D01*
X703335Y157252D01*
X701669Y158918D01*
Y162250D01*
X700003D02*
Y157252D01*
X697503D01*
X696670Y158085D01*
Y161417D01*
X697503Y162250D01*
X700003D01*
X691672D02*
X695004D01*
Y159751D01*
X693338Y160584D01*
X692505D01*
X691672Y159751D01*
Y158085D01*
X692505Y157252D01*
X694171D01*
X695004Y158085D01*
X666999Y197252D02*
X662001D01*
Y200584D01*
Y202250D02*
Y203917D01*
Y203083D01*
X666999D01*
X666166Y202250D01*
X662001Y206416D02*
Y208082D01*
Y207249D01*
X666999D01*
X666166Y206416D01*
X93000Y198000D02*
X97998D01*
Y200499D01*
X97165Y201332D01*
X95499D01*
X94666Y200499D01*
Y198000D01*
Y199666D02*
X93000Y201332D01*
X97998Y206331D02*
Y202998D01*
X95499D01*
X96332Y204664D01*
Y205498D01*
X95499Y206331D01*
X93833D01*
X93000Y205498D01*
Y203831D01*
X93833Y202998D01*
X97165Y207997D02*
X97998Y208830D01*
Y210496D01*
X97165Y211329D01*
X96332D01*
X95499Y210496D01*
X94666Y211329D01*
X93833D01*
X93000Y210496D01*
Y208830D01*
X93833Y207997D01*
X94666D01*
X95499Y208830D01*
X96332Y207997D01*
X97165D01*
X95499Y208830D02*
Y210496D01*
X44000Y232000D02*
Y236998D01*
X41501D01*
X40668Y236165D01*
Y234499D01*
X41501Y233666D01*
X44000D01*
X42334D02*
X40668Y232000D01*
X35669Y236998D02*
X39002D01*
Y234499D01*
X37336Y235332D01*
X36502D01*
X35669Y234499D01*
Y232833D01*
X36502Y232000D01*
X38169D01*
X39002Y232833D01*
X34003Y236998D02*
X30671D01*
Y236165D01*
X34003Y232833D01*
Y232000D01*
X792001Y531252D02*
Y536250D01*
X789502D01*
X788669Y535417D01*
Y533751D01*
X789502Y532918D01*
X792001D01*
X790335D02*
X788669Y531252D01*
X783670Y536250D02*
X787003D01*
Y533751D01*
X785337Y534584D01*
X784503D01*
X783670Y533751D01*
Y532085D01*
X784503Y531252D01*
X786170D01*
X787003Y532085D01*
X782004D02*
X781171Y531252D01*
X779505D01*
X778672Y532085D01*
Y535417D01*
X779505Y536250D01*
X781171D01*
X782004Y535417D01*
Y534584D01*
X781171Y533751D01*
X778672D01*
X653669Y190417D02*
X654502Y191250D01*
X656168D01*
X657001Y190417D01*
Y187085D01*
X656168Y186252D01*
X654502D01*
X653669Y187085D01*
X652003Y186252D02*
X650337D01*
X651170D01*
Y191250D01*
X652003Y190417D01*
X644505Y186252D02*
X647837D01*
X644505Y189584D01*
Y190417D01*
X645338Y191250D01*
X647004D01*
X647837Y190417D01*
X642839Y186252D02*
X641173D01*
X642006D01*
Y191250D01*
X642839Y190417D01*
X467250Y394000D02*
X472248D01*
Y396499D01*
X471415Y397332D01*
X469749D01*
X468916Y396499D01*
Y394000D01*
Y395666D02*
X467250Y397332D01*
X472248Y402331D02*
X471415Y400664D01*
X469749Y398998D01*
X468083D01*
X467250Y399831D01*
Y401497D01*
X468083Y402331D01*
X468916D01*
X469749Y401497D01*
Y398998D01*
X472248Y403997D02*
Y407329D01*
X471415D01*
X468083Y403997D01*
X467250D01*
X825001Y380252D02*
X829999D01*
Y382751D01*
X829166Y383584D01*
X827500D01*
X826667Y382751D01*
Y380252D01*
Y381918D02*
X825001Y383584D01*
Y387750D02*
X829999D01*
X827500Y385251D01*
Y388583D01*
X829166Y390249D02*
X829999Y391082D01*
Y392748D01*
X829166Y393581D01*
X828333D01*
X827500Y392748D01*
X826667Y393581D01*
X825834D01*
X825001Y392748D01*
Y391082D01*
X825834Y390249D01*
X826667D01*
X827500Y391082D01*
X828333Y390249D01*
X829166D01*
X827500Y391082D02*
Y392748D01*
X138001Y394252D02*
Y399250D01*
X135502D01*
X134669Y398417D01*
Y396751D01*
X135502Y395918D01*
X138001D01*
X136335D02*
X134669Y394252D01*
X129670D02*
X133003D01*
X129670Y397584D01*
Y398417D01*
X130503Y399250D01*
X132170D01*
X133003Y398417D01*
X125505Y394252D02*
Y399250D01*
X128004Y396751D01*
X124672D01*
D246*
X620000Y112500D02*
G03*
X620000Y112500I-28000J0D01*
G01*
D247*
X851000Y414001D02*
X863000D01*
X799000D02*
X816001D01*
X863000D02*
Y493000D01*
X851000D02*
X863000D01*
M02*
