M48
;Layer_Color=9474304
;FILE_FORMAT=4:4
METRIC,LZ
;TYPE=PLATED
T1F00S00C0.2000
T2F00S00C0.2500
T3F00S00C0.6500
T4F00S00C0.9000
T5F00S00C1.0000
T7F00S00C1.1000
T8F00S00C1.3000
T10F00S00C1.5000
T11F00S00C1.6000
T12F00S00C1.8000
T13F00S00C2.2000
T14F00S00C3.2000
T15F00S00C3.3000
;TYPE=NON_PLATED
T16F00S00C1.0000
%
T01
X00380001Y00237252
Y00243252
X00403001Y00258252
X00414499Y0026325
X00421Y00261
X0043725Y002605
Y00267
Y002735
X00443952Y00273297
Y00266947
X0044375Y002605
Y00254
X0045025
Y00241
X0044375
X0044375Y002345
X00450249Y002345
X0045675Y002345
X0046325
X00469749Y002345
X00476249
X00482749
X0048275Y00241
X0047625
X0046975Y002475
Y002605
X0047625
Y00267
X0048275
X0048925
Y002605
X0048275
Y002735
X0048925
Y0028
X0048275
X0047625
Y002735
X0046975
Y0028
X0045675
Y002735
Y002865
X0044375
Y0028
X0045025Y00293
X0046975
X0047625
Y002865
X0048275
X0048925
Y00293
X0048275
X0049575
Y002865
X0050225
Y00293
X0050875
X0052175Y002865
Y0028
X0053475
Y002735
X00541249Y002735
X0054125Y0028
Y002865
Y00293
X0053475
Y002865
Y00267
Y002605
X0052825
Y00267
X00521752
X0052175Y002605
X0050875
X0050225
Y00267
X0049575
Y002605
Y002735
X0050225
Y0028
X0049575
Y002475
Y00241
X0050225
X0049575Y002345
X0048925
X0051525
Y00241
X0052175
Y002345
Y00228
X0051525
Y002215
X00521549
X0052825
X0053475Y002345
X0053475Y00241
X0054125
Y002475
X0053475
X0052825
Y00241
X0054775Y002345
X0054125Y00228
X0055425
X0056075Y002215
X0057Y0022
X00565Y00215
X00575
X005705Y0018575
X00547Y0019
X00543Y00195
X0054144Y0020644
X00521Y00205
X00519Y00198
X00513Y00194
X00517998Y00185999
X00503499Y0018525
X00499499Y0019025
X00498499Y0019725
X00495499Y0021175
X00479894Y00210618
X00473544Y00202998
X00468464Y00197918
X00464499Y0019125
X00457034Y00194108
X00445604Y00195378
X00437984
X00437856Y00190298
X00433499Y0018725
X00437249Y002345
X00437252Y00247501
X0043725Y00254
X0045675Y002475
Y002605
X0041395Y002348
X00414499Y0022925
X00409499Y0022525
X00408499Y0021925
X00488499Y0017825
Y0016625
X00505Y00167
X00504499Y0017425
X00537Y00177
Y00184
X00545Y00181
X0054125Y002605
X00547749Y00267
X00096Y00212
X00063Y0021
X00055001Y00218252
X00382751Y00303252
X00388501Y00300138
X004025Y00315
X0043725Y003125
Y00319
Y003256
X00444Y00319044
X0044375Y003125
Y00306
Y002995
X0043725
Y00306
X00456824Y00299574
X0045675Y003125
X0046325
X0046975
Y003255
X0047625
Y00332
X0046975
X0046325
Y003255
X0045025Y00332
X0048275
X0048925
X0049575
X0050225
Y003255
X0049575
X0048925
X0048275
Y003125
X0049575
X0050875
X0051525
X0052175
Y003255
X0051525Y003255
X0050875Y003255
X00515249Y00332
X00508749Y003385
X0052825Y00332
X0052175Y0035475
X00544249Y00355
X0054125Y003125
X0053475Y002995
X0052175
X00625999Y00303997
X00417Y00349
X00407Y00361
Y00368
X004
X00391
X00396Y00363
X003825Y003575
X00386494Y00374506
T02
X00769Y0003
X00789Y00049499
X00794Y00061
Y0007
X00804Y0008
X00815Y0008
X0079Y0009
Y00105
X00803Y00105
X0079Y0012
Y00135
X00754Y00127
X00755Y00098
X00755749Y00079499
X00757Y0006
X00825Y00035
X00837499Y0025325
X00794499Y0029125
X00732Y00272
X00706Y00282
X00653Y00286
X00628Y00255
X00612Y00242
X00606Y00239
X00614Y00234
X00616Y00226
X00617Y00218
X00622Y00212
X00633Y00218
X00629499Y0022725
X00633499Y0020425
X00638499Y0019825
X00647499Y0019925
X00644499Y0019125
X00653499Y0018825
X00659Y00193
X00658Y0018
X00664Y00173
X00676
X0067Y00164
X00682Y00159
X00689Y00151
X00695Y00144
X00719Y00173
X00734499Y0017325
X00719Y00192
X00716Y00209
X00659Y00208
X00595Y00219
X006Y00247
X00591Y00253
X00596Y00262
X00583
X00564Y00242
X00572Y00178
Y00169
Y00161
Y00149
X0059975Y0015325
X00611499Y0014325
X00532Y00151
X00527Y00156
X00532Y00162
Y00172
X00527Y00167
X00508Y0013
X00512Y00123
Y00116
Y00105
X00489
Y00122
X00468499Y0012225
X00456499Y0010825
X00465Y000875
X0047Y000825
X0046225Y00064
X004425Y000725
Y0008
Y000875
X00401499Y000825
X00402424Y00148388
X00408774Y00145848
X00359244Y00153468
X00356Y00189
X00348
Y00197
X00344Y00179
X00364Y00189
X00377001Y00202252
X00380001Y00251252
X0036Y00255
X00352
X00344
X00348Y00245
X00356
X00345274Y00227128
X00347Y00285
X0038425Y00028
X00502Y00072
X00501999Y0008275
X0051Y00065
X00545999Y00083
X00556499Y0008025
X00676Y00067
X006815Y00053
X00705Y00057
X00732Y00063
X00726Y00098
X00343Y00072
X00313Y00066
X00325Y000534
X00261Y00081
X00263Y0009
X00268Y00097
X00267Y00163497
X00265343Y00172
X00264Y00179
X00272
X0028
X00279981Y00172016
X00288Y00170356
Y00179
X00296
X003Y00173
X00295744Y00166168
X00283Y00162
X002534Y001706
X002445Y00185997
X002355
X002265
X002175
X002085
X001995
X001905
X00195Y00194997
X00204
X00213
X00222
X00231Y00195
X0024
X00249Y00194997
X00300083Y00197
X00308
X00313524Y00206554
X00319874
X00302Y00207
X00308Y00218
Y00237
X0030819Y00244908
X00292Y00245
X00284
X00272Y00255
X00264
Y00263
Y00272
Y00282
Y00291
X00287
X00292Y0026
X00305Y00264607
X0032597Y00254814
X00336Y00255
X0033125Y0026
X00332Y00245
X00324Y00237
X00338924Y00227252
X00332Y00197
Y00189
X0034
X00336Y00179
X0032597Y00178868
X00324001Y00170252
X00317001
X00311999Y00178869
X00324001Y00189252
X00322Y00154997
X0015925Y00149
X0015025
X0014225
X0013425
X0012625
Y0014
X00134
X00142
X0015
X00159
X0016725
X0016825Y00104
X0015825
X0014825
X0013925
X0013025
X00103Y00095
X00095
X00056Y00097
X000425Y00095
Y00085
Y00075
X00034Y00075
Y00066
X000225Y00065
Y000525
X00022Y00044
X00014
X00053Y00037
X00057Y00015
Y00006
X000825Y000525
Y00065
X0017025Y00053
X0017Y00043
Y00035
Y00026
X00186Y00194997
X0018125Y0024
X00181Y00250997
X00179Y00261997
X00125001Y00278252
X00113001Y00252252
X00071001Y00250252
X0008Y002775
X00085001Y00283252
X0012825Y0021
X0014325Y00211
X00119251Y00198752
X00067Y00171
X0005Y00173
X00041
X00032
X00024
X00015
Y00163
X00024
X00032
X00041
X0005
X00031Y00323
X00071
X00111
X0012325Y003285
X0015125Y00321
X0016325
X0017325
X00186Y00320997
X00195
X00204
X00213
X00222
X00231
X0024
X00249324Y00320967
X00258Y00320997
X00267999Y00317998
X00275999
X00276186Y00325934
X0028406
X00299998Y00325998
X003Y00335
X00302499Y0034225
X00313524Y00335078
X00319874
X00336Y00336
X00332066Y00325934
X00331998Y00317998
X00324Y00318
X00328Y00308
X00322922Y00299518
X00311492Y00307138
X00308Y00318
X00292188Y00317806
X00296Y00308
X00288
X0028
X00272
X00264
X002535Y00311997
X00244659
X00236Y00312
X002265Y00311997
X002175Y00311997
X002085Y00311997
X001995
X001905
X0016325Y00302
X0015125Y00303
Y00345
X001655Y00343497
X0016125Y0036
X0017325
X0013725
X0014225Y00365
X0014325Y00353
X00147499Y0038525
X00101Y00362
X00061
X0002
X00106Y00456
X00097Y00474
X0020725Y00477
X0022125
X00195Y00516
X00264Y00384
X00272
X0028
X00288
X00296
X00300062Y0037394
X00316064
X00316Y00366
X00324
X00332Y00374
X00336Y00384
X00324
X00310984
X0034Y00318
Y0031
X00356
Y00318
X00364
Y0031
X00356196Y00325934
X00348Y00326
X00348068Y00301932
X00356Y00374
X00364Y00374
X0036Y00384
X00352
X00344
X0042325Y0037475
X0045225Y00379
X00454Y00368
X00452499Y0035925
X0047125Y00399
X00487
Y00406
X00472Y00416
X0042525Y00412
X005275Y004175
Y004275
Y004375
X00535Y004425
Y0043
X005375Y004225
Y004125
Y003925
X00551Y00376
X005675Y003875
X0057Y003975
X00569499Y0040625
X005625Y004025
X0056Y00412014
X00558Y00436
X005675Y004525
X00576499Y0044725
X005825Y004525
X00602499Y00452499
X00600499Y0044025
X00592499
X006075Y004425
X00612498Y00447498
X00617501Y00452331
X00618Y0048
Y00489
X00605Y004925
X00594Y00493
X0058Y00481
X005575Y00475
X00557Y00463
X0053Y0046
Y004525
X00525Y0047
X005175
X00533Y00483
X00493Y00487
X00517499Y0038225
X00537499Y0035025
X0056725Y0034825
X0057375Y003515
X00584Y00351
Y00343
X00593Y00351
X00602
Y00343
X0061325Y00353
X006125Y003675
X0062225Y00363
X00629998Y00362498
X0064Y003625
Y00355
Y003375
X00635Y0033
Y0032
Y0031
X00634502Y00382498
X006225Y003925
X006175Y003875
X005975
X005825
X00575Y003925
X00595Y00418812
X006075Y004175
X00610499Y0042625
X006425Y004225
Y004325
Y004475
Y004075
X006525
Y003925
X00678499Y0038325
X0068525Y0041
X0069225
X007
X007075Y0041
Y004175
Y00425
X00722Y00417
X00716Y0041
X007075Y00374124
X00668499Y0035325
X00685Y004325
Y00455
X00705Y0046
X00713Y00456
X0072Y00461
X00729499Y0045725
X00721Y00474
X00715Y00487
X00706Y00508
X00692Y00479
X00677998Y00478998
X0075Y00454
X007775Y0043
X007875
X00795Y00437
X00815Y00448
X00805Y0046
X00798Y00522
X00769Y00518
X0076425Y00404
X00784Y00372
X00792Y00344
Y00335
X00803Y00344
X00813499Y0034425
X00822Y00344
X00833
X00838499Y0033125
X00840499Y0036125
X00831499Y0038225
T03
X00815999Y0029225
X00842999
T04
X0003225Y003895
Y00415
X000325Y0049625
Y005215
X0014494Y0049995
Y0047455
Y0044915
Y0042375
X0017034Y0043645
Y0046185
Y0048725
Y0041105
T05
X0068525Y00337251
X0070525
X0072525
X0074525
X00804Y00431001
Y00474999
T07
X00745Y000146
Y0004
X006676Y000404
X006422
Y00015
X006676
X006168
Y000404
X005914
X00566
X005406
Y00015
X005152
X004898
X004644
Y000404
X004898
X005152
X00439
X004136
Y00015
X003882
Y000404
X003628
Y00015
X00439
X00566
X005914
X003622Y00091
X003376
X003122
X002868
X002866Y000404
X002612
Y00015
X002358
Y000404
X002104
X00185
Y00015
X002104
X002866
X00312
X003374
Y000404
X00312
X003126Y00435
X002872
Y004604
X002618
Y00435
X002364
X00211
Y004604
X002364
X00236Y00511
Y005364
X002614
X002868
Y00511
X003122
Y005364
X003376
Y00511
X003126Y004604
X002614Y00511
X00363
X003884
Y005364
X00363
X004138
X004392
Y00511
X004646
Y005364
X0049
X005154
Y00511
X005408
Y005364
X005662
X005916
Y00511
X005662
X0049
X004646Y004604
Y00435
X004392
X004138
X003884
Y004604
X004138
X004392
X004138Y00511
X00363Y004604
Y00435
T08
X00785Y000195
X0083425Y00014
Y00171
X0078475Y001645
T10
X00010001Y00208252
X00080001
Y00310752
X00010001
T11
X00019Y00082
X0068025Y0030875
Y0036575
X0075025
Y0030875
T12
X00064Y00082
X0011125Y0037803
Y0053297
T13
X007685Y001895
Y002745
T14
X0008144Y0039835
Y0051265
T15
X00592Y001125
X00215
Y0039
X006375Y005225
T16
X007235Y004975
X008035
M30
