G04 Layer_Color=16711935*
%FSLAX44Y44*%
%MOMM*%
G71*
G01*
G75*
%ADD105C,1.6000*%
%ADD108C,1.5000*%
%ADD109C,1.9000*%
%ADD195R,1.0000X0.8000*%
%ADD196R,0.8000X1.0000*%
G04:AMPARAMS|DCode=197|XSize=0.6mm|YSize=0.55mm|CornerRadius=0.1625mm|HoleSize=0mm|Usage=FLASHONLY|Rotation=270.000|XOffset=0mm|YOffset=0mm|HoleType=Round|Shape=RoundedRectangle|*
%AMROUNDEDRECTD197*
21,1,0.6000,0.2250,0,0,270.0*
21,1,0.2750,0.5500,0,0,270.0*
1,1,0.3250,-0.1125,-0.1375*
1,1,0.3250,-0.1125,0.1375*
1,1,0.3250,0.1125,0.1375*
1,1,0.3250,0.1125,-0.1375*
%
%ADD197ROUNDEDRECTD197*%
G04:AMPARAMS|DCode=198|XSize=0.7mm|YSize=0.75mm|CornerRadius=0.2mm|HoleSize=0mm|Usage=FLASHONLY|Rotation=180.000|XOffset=0mm|YOffset=0mm|HoleType=Round|Shape=RoundedRectangle|*
%AMROUNDEDRECTD198*
21,1,0.7000,0.3500,0,0,180.0*
21,1,0.3000,0.7500,0,0,180.0*
1,1,0.4000,-0.1500,0.1750*
1,1,0.4000,0.1500,0.1750*
1,1,0.4000,0.1500,-0.1750*
1,1,0.4000,-0.1500,-0.1750*
%
%ADD198ROUNDEDRECTD198*%
G04:AMPARAMS|DCode=199|XSize=0.7mm|YSize=0.75mm|CornerRadius=0.2mm|HoleSize=0mm|Usage=FLASHONLY|Rotation=90.000|XOffset=0mm|YOffset=0mm|HoleType=Round|Shape=RoundedRectangle|*
%AMROUNDEDRECTD199*
21,1,0.7000,0.3500,0,0,90.0*
21,1,0.3000,0.7500,0,0,90.0*
1,1,0.4000,0.1750,0.1500*
1,1,0.4000,0.1750,-0.1500*
1,1,0.4000,-0.1750,-0.1500*
1,1,0.4000,-0.1750,0.1500*
%
%ADD199ROUNDEDRECTD199*%
G04:AMPARAMS|DCode=219|XSize=1.15mm|YSize=0.7mm|CornerRadius=0.2mm|HoleSize=0mm|Usage=FLASHONLY|Rotation=90.000|XOffset=0mm|YOffset=0mm|HoleType=Round|Shape=RoundedRectangle|*
%AMROUNDEDRECTD219*
21,1,1.1500,0.3000,0,0,90.0*
21,1,0.7500,0.7000,0,0,90.0*
1,1,0.4000,0.1500,0.3750*
1,1,0.4000,0.1500,-0.3750*
1,1,0.4000,-0.1500,-0.3750*
1,1,0.4000,-0.1500,0.3750*
%
%ADD219ROUNDEDRECTD219*%
G04:AMPARAMS|DCode=220|XSize=0.6mm|YSize=0.55mm|CornerRadius=0.1625mm|HoleSize=0mm|Usage=FLASHONLY|Rotation=180.000|XOffset=0mm|YOffset=0mm|HoleType=Round|Shape=RoundedRectangle|*
%AMROUNDEDRECTD220*
21,1,0.6000,0.2250,0,0,180.0*
21,1,0.2750,0.5500,0,0,180.0*
1,1,0.3250,-0.1375,0.1125*
1,1,0.3250,0.1375,0.1125*
1,1,0.3250,0.1375,-0.1125*
1,1,0.3250,-0.1375,-0.1125*
%
%ADD220ROUNDEDRECTD220*%
%ADD224C,3.4000*%
%ADD225O,2.1000X4.3000*%
%ADD226O,3.1000X1.7000*%
%ADD227C,2.6000*%
%ADD228C,1.7000*%
%ADD229C,2.3500*%
%ADD230C,2.0000*%
%ADD231C,1.1000*%
%ADD232C,3.3000*%
%ADD233C,2.4000*%
G04:AMPARAMS|DCode=234|XSize=1.7mm|YSize=1.7mm|CornerRadius=0.45mm|HoleSize=0mm|Usage=FLASHONLY|Rotation=0.000|XOffset=0mm|YOffset=0mm|HoleType=Round|Shape=RoundedRectangle|*
%AMROUNDEDRECTD234*
21,1,1.7000,0.8000,0,0,0.0*
21,1,0.8000,1.7000,0,0,0.0*
1,1,0.9000,0.4000,-0.4000*
1,1,0.9000,-0.4000,-0.4000*
1,1,0.9000,-0.4000,0.4000*
1,1,0.9000,0.4000,0.4000*
%
%ADD234ROUNDEDRECTD234*%
%ADD235C,0.7500*%
G04:AMPARAMS|DCode=236|XSize=1.25mm|YSize=1.55mm|CornerRadius=0.3375mm|HoleSize=0mm|Usage=FLASHONLY|Rotation=270.000|XOffset=0mm|YOffset=0mm|HoleType=Round|Shape=RoundedRectangle|*
%AMROUNDEDRECTD236*
21,1,1.2500,0.8750,0,0,270.0*
21,1,0.5750,1.5500,0,0,270.0*
1,1,0.6750,-0.4375,-0.2875*
1,1,0.6750,-0.4375,0.2875*
1,1,0.6750,0.4375,0.2875*
1,1,0.6750,0.4375,-0.2875*
%
%ADD236ROUNDEDRECTD236*%
G04:AMPARAMS|DCode=237|XSize=1.4mm|YSize=1.15mm|CornerRadius=0.3125mm|HoleSize=0mm|Usage=FLASHONLY|Rotation=0.000|XOffset=0mm|YOffset=0mm|HoleType=Round|Shape=RoundedRectangle|*
%AMROUNDEDRECTD237*
21,1,1.4000,0.5250,0,0,0.0*
21,1,0.7750,1.1500,0,0,0.0*
1,1,0.6250,0.3875,-0.2625*
1,1,0.6250,-0.3875,-0.2625*
1,1,0.6250,-0.3875,0.2625*
1,1,0.6250,0.3875,0.2625*
%
%ADD237ROUNDEDRECTD237*%
%ADD238R,1.0000X0.7000*%
G04:AMPARAMS|DCode=239|XSize=1.25mm|YSize=1.55mm|CornerRadius=0.3375mm|HoleSize=0mm|Usage=FLASHONLY|Rotation=180.000|XOffset=0mm|YOffset=0mm|HoleType=Round|Shape=RoundedRectangle|*
%AMROUNDEDRECTD239*
21,1,1.2500,0.8750,0,0,180.0*
21,1,0.5750,1.5500,0,0,180.0*
1,1,0.6750,-0.2875,0.4375*
1,1,0.6750,0.2875,0.4375*
1,1,0.6750,0.2875,-0.4375*
1,1,0.6750,-0.2875,-0.4375*
%
%ADD239ROUNDEDRECTD239*%
G04:AMPARAMS|DCode=240|XSize=2.1mm|YSize=2.1mm|CornerRadius=0.55mm|HoleSize=0mm|Usage=FLASHONLY|Rotation=180.000|XOffset=0mm|YOffset=0mm|HoleType=Round|Shape=RoundedRectangle|*
%AMROUNDEDRECTD240*
21,1,2.1000,1.0000,0,0,180.0*
21,1,1.0000,2.1000,0,0,180.0*
1,1,1.1000,-0.5000,0.5000*
1,1,1.1000,0.5000,0.5000*
1,1,1.1000,0.5000,-0.5000*
1,1,1.1000,-0.5000,-0.5000*
%
%ADD240ROUNDEDRECTD240*%
%ADD241O,0.7000X2.3000*%
G04:AMPARAMS|DCode=242|XSize=2.35mm|YSize=0.6mm|CornerRadius=0.175mm|HoleSize=0mm|Usage=FLASHONLY|Rotation=180.000|XOffset=0mm|YOffset=0mm|HoleType=Round|Shape=RoundedRectangle|*
%AMROUNDEDRECTD242*
21,1,2.3500,0.2500,0,0,180.0*
21,1,2.0000,0.6000,0,0,180.0*
1,1,0.3500,-1.0000,0.1250*
1,1,0.3500,1.0000,0.1250*
1,1,0.3500,1.0000,-0.1250*
1,1,0.3500,-1.0000,-0.1250*
%
%ADD242ROUNDEDRECTD242*%
%ADD243R,2.6000X2.2000*%
%ADD244R,0.7000X1.0000*%
G04:AMPARAMS|DCode=245|XSize=1.65mm|YSize=1.1mm|CornerRadius=0.3mm|HoleSize=0mm|Usage=FLASHONLY|Rotation=90.000|XOffset=0mm|YOffset=0mm|HoleType=Round|Shape=RoundedRectangle|*
%AMROUNDEDRECTD245*
21,1,1.6500,0.5000,0,0,90.0*
21,1,1.0500,1.1000,0,0,90.0*
1,1,0.6000,0.2500,0.5250*
1,1,0.6000,0.2500,-0.5250*
1,1,0.6000,-0.2500,-0.5250*
1,1,0.6000,-0.2500,0.5250*
%
%ADD245ROUNDEDRECTD245*%
D105*
X685250Y337251D02*
D03*
X705250D02*
D03*
X725250D02*
D03*
X745250D02*
D03*
X80001Y208252D02*
D03*
X10001D02*
D03*
X80001Y310752D02*
D03*
X10001D02*
D03*
D108*
X170340Y487250D02*
D03*
X144940Y499950D02*
D03*
Y474550D02*
D03*
X170340Y461850D02*
D03*
Y436450D02*
D03*
Y411050D02*
D03*
X144940Y423750D02*
D03*
Y449150D02*
D03*
X32500Y521500D02*
D03*
X32250Y389500D02*
D03*
X32500Y496250D02*
D03*
X32250Y415000D02*
D03*
D109*
X64000Y82000D02*
D03*
D195*
X635251Y432751D02*
D03*
Y448752D02*
D03*
X635249Y417249D02*
D03*
Y401248D02*
D03*
X593251Y363751D02*
D03*
Y379752D02*
D03*
X790251Y390752D02*
D03*
Y374751D02*
D03*
X453501Y323751D02*
D03*
Y339752D02*
D03*
X572251Y328001D02*
D03*
Y344002D02*
D03*
D196*
X707001Y380999D02*
D03*
X723002D02*
D03*
X706751Y357999D02*
D03*
X722752D02*
D03*
X475250Y67249D02*
D03*
X491251D02*
D03*
X489250Y113249D02*
D03*
X505251D02*
D03*
X733748Y157251D02*
D03*
X717747D02*
D03*
X707249Y210001D02*
D03*
X691248D02*
D03*
X476250Y82749D02*
D03*
X492251D02*
D03*
X611250Y330874D02*
D03*
X627251D02*
D03*
X145001Y308999D02*
D03*
X161002D02*
D03*
X144001Y326999D02*
D03*
X160002D02*
D03*
X591249Y240001D02*
D03*
X575248D02*
D03*
X145001Y341999D02*
D03*
X161002D02*
D03*
X217751Y59999D02*
D03*
X233752D02*
D03*
X814499Y335001D02*
D03*
X798498D02*
D03*
X104751Y473999D02*
D03*
X120752D02*
D03*
X641751Y237999D02*
D03*
X657752D02*
D03*
X641751Y222999D02*
D03*
X657752D02*
D03*
X611250Y315796D02*
D03*
X627251D02*
D03*
X541083Y303166D02*
D03*
X557084D02*
D03*
D197*
X297000Y389000D02*
D03*
X287000D02*
D03*
X263000D02*
D03*
X273000D02*
D03*
X664000Y188000D02*
D03*
X674000D02*
D03*
X570000Y457500D02*
D03*
X580000D02*
D03*
X540000Y482500D02*
D03*
X550000D02*
D03*
X495499Y228250D02*
D03*
X485499D02*
D03*
Y218250D02*
D03*
X495499D02*
D03*
X413250Y296000D02*
D03*
X423250D02*
D03*
X355000Y390000D02*
D03*
X345000D02*
D03*
X335000D02*
D03*
X325000D02*
D03*
X345499Y204250D02*
D03*
X335499D02*
D03*
X341000Y183000D02*
D03*
X331000D02*
D03*
X365000Y195000D02*
D03*
X355000D02*
D03*
X298000Y184000D02*
D03*
X288000D02*
D03*
X262000D02*
D03*
X272000D02*
D03*
X122000Y456000D02*
D03*
X112000D02*
D03*
X130250Y252000D02*
D03*
X120250D02*
D03*
X90000Y252500D02*
D03*
X100000D02*
D03*
X52250Y253000D02*
D03*
X62250D02*
D03*
X353499Y262250D02*
D03*
X343499D02*
D03*
X61000Y49000D02*
D03*
X71000D02*
D03*
X468250Y267000D02*
D03*
X458250D02*
D03*
X469499Y255250D02*
D03*
X459499D02*
D03*
X507000Y267000D02*
D03*
X517000D02*
D03*
X461996Y288250D02*
D03*
X471996D02*
D03*
X747499Y445250D02*
D03*
X737499D02*
D03*
X594499Y426250D02*
D03*
X604499D02*
D03*
X542000Y78000D02*
D03*
X552000D02*
D03*
X507000Y276750D02*
D03*
X517000D02*
D03*
X507000Y286500D02*
D03*
X517000D02*
D03*
X611000Y255000D02*
D03*
X621000D02*
D03*
X562500Y198750D02*
D03*
X552500D02*
D03*
X578500D02*
D03*
X588500D02*
D03*
X349250Y374000D02*
D03*
X339250D02*
D03*
X807000Y90000D02*
D03*
X797000D02*
D03*
D198*
X157749Y396250D02*
D03*
X147249D02*
D03*
X108751Y207252D02*
D03*
X119251D02*
D03*
X788250Y522000D02*
D03*
X777750D02*
D03*
X804750Y44000D02*
D03*
X815250D02*
D03*
Y70000D02*
D03*
X804750D02*
D03*
X815250Y57000D02*
D03*
X804750D02*
D03*
X606250Y484000D02*
D03*
X595750D02*
D03*
X606250Y472000D02*
D03*
X595750D02*
D03*
X640250Y388000D02*
D03*
X629750D02*
D03*
X554000Y346250D02*
D03*
X543500D02*
D03*
X516249D02*
D03*
X526749D02*
D03*
X560751Y442252D02*
D03*
X571251D02*
D03*
X562751Y481252D02*
D03*
X573251D02*
D03*
X525250Y385997D02*
D03*
X535750D02*
D03*
X539750Y457500D02*
D03*
X550250D02*
D03*
X539750Y470000D02*
D03*
X550250D02*
D03*
X495749Y205250D02*
D03*
X485249D02*
D03*
X402750Y340000D02*
D03*
X392250D02*
D03*
X54750Y472500D02*
D03*
X65250D02*
D03*
X54750Y457500D02*
D03*
X65250D02*
D03*
X129500Y268000D02*
D03*
X119000D02*
D03*
X100250Y267500D02*
D03*
X89750D02*
D03*
X75250D02*
D03*
X64750D02*
D03*
X335250Y72000D02*
D03*
X324750D02*
D03*
X60750Y61000D02*
D03*
X71250D02*
D03*
X630000Y370000D02*
D03*
X640500D02*
D03*
X581750Y226000D02*
D03*
X592250D02*
D03*
X642750Y209000D02*
D03*
X653250D02*
D03*
D199*
X53001Y228002D02*
D03*
Y238502D02*
D03*
X47000Y50750D02*
D03*
Y61250D02*
D03*
X712000Y474250D02*
D03*
Y463750D02*
D03*
X698000Y474250D02*
D03*
Y463750D02*
D03*
X678000Y498250D02*
D03*
Y487750D02*
D03*
X692000Y498250D02*
D03*
Y487750D02*
D03*
X706000Y498250D02*
D03*
Y487750D02*
D03*
X679250Y418750D02*
D03*
Y429250D02*
D03*
Y401250D02*
D03*
Y390750D02*
D03*
X737001Y397002D02*
D03*
Y407502D02*
D03*
X827499Y361000D02*
D03*
Y371500D02*
D03*
X777000Y236750D02*
D03*
Y247250D02*
D03*
X674000Y199750D02*
D03*
Y210250D02*
D03*
X706000Y263750D02*
D03*
Y274250D02*
D03*
X693000Y263750D02*
D03*
Y274250D02*
D03*
X580250Y375250D02*
D03*
Y364750D02*
D03*
X577500Y410250D02*
D03*
Y399750D02*
D03*
X590000D02*
D03*
Y410250D02*
D03*
X607499Y400000D02*
D03*
Y410500D02*
D03*
X550000Y432250D02*
D03*
Y442750D02*
D03*
X525000Y477250D02*
D03*
Y487750D02*
D03*
X512500Y477250D02*
D03*
Y487750D02*
D03*
X457250Y394750D02*
D03*
Y405250D02*
D03*
X482499Y189250D02*
D03*
Y178750D02*
D03*
X131000Y160750D02*
D03*
Y171250D02*
D03*
X729000Y474250D02*
D03*
Y463750D02*
D03*
X794499Y310750D02*
D03*
Y300250D02*
D03*
X616499Y201500D02*
D03*
Y191000D02*
D03*
Y167500D02*
D03*
Y157000D02*
D03*
X296000Y61750D02*
D03*
Y72250D02*
D03*
X395000Y99250D02*
D03*
Y88750D02*
D03*
X261000Y61750D02*
D03*
Y72250D02*
D03*
X102000Y160750D02*
D03*
Y171250D02*
D03*
X71000Y36250D02*
D03*
Y25750D02*
D03*
X632500Y344750D02*
D03*
Y355250D02*
D03*
X515749Y442500D02*
D03*
Y432000D02*
D03*
X805250Y372750D02*
D03*
Y383250D02*
D03*
X696000Y89250D02*
D03*
Y78750D02*
D03*
X683000Y89250D02*
D03*
Y78750D02*
D03*
D219*
X698000Y396500D02*
D03*
X707500D02*
D03*
X698000Y423500D02*
D03*
X717000Y396500D02*
D03*
Y423500D02*
D03*
D220*
X750000Y461000D02*
D03*
Y471000D02*
D03*
X537000Y201000D02*
D03*
Y191000D02*
D03*
X570250Y365000D02*
D03*
Y375000D02*
D03*
X614250Y372000D02*
D03*
Y382000D02*
D03*
X605250Y372000D02*
D03*
Y382000D02*
D03*
X540000Y432500D02*
D03*
Y442500D02*
D03*
X501000Y487000D02*
D03*
Y477000D02*
D03*
X470499Y179250D02*
D03*
Y189250D02*
D03*
X117000Y171000D02*
D03*
Y161000D02*
D03*
X369000Y384000D02*
D03*
Y374000D02*
D03*
X294000Y344000D02*
D03*
Y334000D02*
D03*
X303000Y223000D02*
D03*
Y213000D02*
D03*
X307000Y72000D02*
D03*
Y62000D02*
D03*
X274000Y72000D02*
D03*
Y62000D02*
D03*
X285000Y72000D02*
D03*
Y62000D02*
D03*
X341000Y323000D02*
D03*
Y333000D02*
D03*
X726000Y178000D02*
D03*
Y188000D02*
D03*
X412250Y388000D02*
D03*
Y398000D02*
D03*
X89000Y171000D02*
D03*
Y161000D02*
D03*
X76000Y171000D02*
D03*
Y161000D02*
D03*
X517499Y129250D02*
D03*
Y139250D02*
D03*
X620000Y345000D02*
D03*
Y355000D02*
D03*
X585499Y304250D02*
D03*
Y314250D02*
D03*
X287000Y273000D02*
D03*
Y283000D02*
D03*
X489250Y255750D02*
D03*
Y245750D02*
D03*
X479500Y255750D02*
D03*
Y245750D02*
D03*
X571499Y314250D02*
D03*
Y304250D02*
D03*
X598499Y314250D02*
D03*
Y304250D02*
D03*
X502250Y297750D02*
D03*
Y307750D02*
D03*
X502499Y256250D02*
D03*
Y246250D02*
D03*
X473000Y297750D02*
D03*
Y307750D02*
D03*
X482750Y297750D02*
D03*
Y307750D02*
D03*
X463250D02*
D03*
Y297750D02*
D03*
X492500D02*
D03*
Y307750D02*
D03*
X534000Y322000D02*
D03*
Y332000D02*
D03*
X512000Y307750D02*
D03*
Y297750D02*
D03*
X171499Y261250D02*
D03*
Y251250D02*
D03*
X508499Y226250D02*
D03*
Y236250D02*
D03*
X530499Y139250D02*
D03*
Y129250D02*
D03*
X522000Y257000D02*
D03*
Y247000D02*
D03*
X543000Y213000D02*
D03*
Y223000D02*
D03*
X462499Y111250D02*
D03*
Y121250D02*
D03*
X816250Y371000D02*
D03*
Y361000D02*
D03*
X331250Y276000D02*
D03*
Y266000D02*
D03*
D224*
X637500Y522500D02*
D03*
X592000Y112500D02*
D03*
X215000D02*
D03*
Y390000D02*
D03*
D225*
X736000Y232000D02*
D03*
D226*
X691000D02*
D03*
D227*
X768500Y189500D02*
D03*
Y274500D02*
D03*
D228*
X19000Y82000D02*
D03*
X745000Y40000D02*
D03*
Y14600D02*
D03*
X362200Y91000D02*
D03*
X337600D02*
D03*
X286800D02*
D03*
X312200D02*
D03*
X464600Y435000D02*
D03*
X388400D02*
D03*
X464600Y460400D02*
D03*
X388400D02*
D03*
X439200Y435000D02*
D03*
X413800D02*
D03*
X439200Y460400D02*
D03*
X413800D02*
D03*
X363000D02*
D03*
X286800Y511000D02*
D03*
X312200D02*
D03*
X363000D02*
D03*
X388400D02*
D03*
X439200D02*
D03*
X464600D02*
D03*
X515400D02*
D03*
X540800D02*
D03*
X591600D02*
D03*
X236000Y536400D02*
D03*
X286800D02*
D03*
X312200D02*
D03*
X363000D02*
D03*
X388400D02*
D03*
X439200D02*
D03*
X464600D02*
D03*
X515400D02*
D03*
X540800D02*
D03*
X591600D02*
D03*
X261400Y511000D02*
D03*
X337600D02*
D03*
X413800D02*
D03*
X490000D02*
D03*
X566200D02*
D03*
X261400Y536400D02*
D03*
X337600D02*
D03*
X413800D02*
D03*
X490000D02*
D03*
X566200D02*
D03*
X235800Y15000D02*
D03*
X261200D02*
D03*
X312000D02*
D03*
X337400D02*
D03*
X388200D02*
D03*
X413600D02*
D03*
X464400D02*
D03*
X489800D02*
D03*
X540600D02*
D03*
X185000Y40400D02*
D03*
X235800D02*
D03*
X261200D02*
D03*
X312000D02*
D03*
X337400D02*
D03*
X388200D02*
D03*
X413600D02*
D03*
X464400D02*
D03*
X489800D02*
D03*
X540600D02*
D03*
X210400Y15000D02*
D03*
X286600D02*
D03*
X362800D02*
D03*
X439000D02*
D03*
X515200D02*
D03*
X210400Y40400D02*
D03*
X286600D02*
D03*
X362800D02*
D03*
X439000D02*
D03*
X515200D02*
D03*
X642200D02*
D03*
X566000D02*
D03*
X642200Y15000D02*
D03*
X566000D02*
D03*
X667600Y40400D02*
D03*
X616800D02*
D03*
X591400D02*
D03*
X667600Y15000D02*
D03*
X616800D02*
D03*
X591400D02*
D03*
X211000Y460400D02*
D03*
X261800D02*
D03*
X287200D02*
D03*
X261800Y435000D02*
D03*
X287200D02*
D03*
X236400Y460400D02*
D03*
X312600D02*
D03*
X236400Y435000D02*
D03*
X312600D02*
D03*
D229*
X680250Y308750D02*
D03*
Y365750D02*
D03*
X750250D02*
D03*
Y308750D02*
D03*
D230*
X834250Y14000D02*
D03*
Y171000D02*
D03*
X785000Y19500D02*
D03*
X784750Y164500D02*
D03*
D231*
X723500Y497500D02*
D03*
X803500D02*
D03*
X804000Y474999D02*
D03*
Y431001D02*
D03*
D232*
X81440Y512650D02*
D03*
Y398350D02*
D03*
D233*
X111250Y532970D02*
D03*
Y378030D02*
D03*
D234*
X363000Y435000D02*
D03*
X236000Y511000D02*
D03*
X185000Y15000D02*
D03*
X211000Y435000D02*
D03*
D235*
X815999Y292250D02*
D03*
X842999D02*
D03*
D236*
X60000Y128000D02*
D03*
Y110000D02*
D03*
D237*
X583500Y166250D02*
D03*
X558500D02*
D03*
X583500Y184750D02*
D03*
X558500D02*
D03*
D238*
X709000Y191500D02*
D03*
Y172500D02*
D03*
X689000Y182000D02*
D03*
X823000Y125000D02*
D03*
X803000Y134500D02*
D03*
Y115500D02*
D03*
X779000Y129000D02*
D03*
X759000Y138500D02*
D03*
Y119500D02*
D03*
X779000Y63000D02*
D03*
X759000Y72500D02*
D03*
Y53500D02*
D03*
X779000Y97500D02*
D03*
X759000Y107000D02*
D03*
Y88000D02*
D03*
X742000Y63000D02*
D03*
X722000Y72500D02*
D03*
Y53500D02*
D03*
X796000Y232000D02*
D03*
X816000Y222500D02*
D03*
Y241500D02*
D03*
D239*
X91000Y55000D02*
D03*
X109000D02*
D03*
X129000D02*
D03*
X147000D02*
D03*
X129000Y34000D02*
D03*
X147000D02*
D03*
X109000Y13000D02*
D03*
X91000D02*
D03*
X109000Y34000D02*
D03*
X91000D02*
D03*
X94000Y227500D02*
D03*
X76000D02*
D03*
X118000Y227000D02*
D03*
X136000D02*
D03*
D240*
X33000Y102000D02*
D03*
Y142000D02*
D03*
D241*
X90950Y128000D02*
D03*
X103650D02*
D03*
X116350D02*
D03*
X129050D02*
D03*
X90950Y80000D02*
D03*
X103650D02*
D03*
X116350D02*
D03*
X129050D02*
D03*
D242*
X776940Y453000D02*
D03*
Y461001D02*
D03*
Y437001D02*
D03*
Y444999D02*
D03*
Y468999D02*
D03*
D243*
X834000Y494000D02*
D03*
X782000D02*
D03*
X834000Y412000D02*
D03*
X782000D02*
D03*
D244*
X20500Y353000D02*
D03*
X39500D02*
D03*
X30000Y333000D02*
D03*
X101000Y353000D02*
D03*
X120000D02*
D03*
X110500Y333000D02*
D03*
X61500Y353000D02*
D03*
X80500D02*
D03*
X71000Y333000D02*
D03*
X717500Y123000D02*
D03*
X698500D02*
D03*
X708000Y143000D02*
D03*
X424750Y402000D02*
D03*
X443750D02*
D03*
X434250Y382000D02*
D03*
D245*
X837999Y318500D02*
D03*
Y266000D02*
D03*
X820999Y318500D02*
D03*
Y266000D02*
D03*
M02*
